<svg width="622" height="729" viewBox="0 0 622 729" fill="none" xmlns="http://www.w3.org/2000/svg">
<g opacity="0.07" clip-path="url(#clip0_252_10210)">
<path d="M275.5 392.536C272.248 390.368 285.679 367.482 301.7 344.355C317.601 321.108 336.091 297.801 340.066 292.682C344.041 287.502 361.146 265.46 378.613 245.706C395.959 225.892 413.486 208.486 416.015 210.715C419.448 213.786 404.511 233.299 388.37 253.836C371.988 274.313 354.822 295.934 350.787 300.993C346.872 306.112 329.104 329.54 312.12 351.884C295.135 374.047 278.993 394.945 275.56 392.656L275.5 392.536Z" fill="#B9927A"/>
<path d="M552.797 383.442C549.544 385.61 534.969 366.82 519.911 346.644C504.975 326.228 489.315 304.787 485.882 300.09C482.389 295.452 467.572 275.457 453.358 256.426C439.445 237.395 426.676 219.207 429.266 217.099C432.76 214.208 448.239 230.288 463.356 248.597C478.474 266.845 493.23 287.262 496.723 291.959C500.216 296.657 516.358 318.037 530.331 339.176C544.365 360.315 556.23 381.093 552.797 383.382V383.442Z" fill="#B9927A"/>
<path d="M414.871 211.438C416.136 215.111 397.525 223.182 377.167 230.047C356.81 236.973 334.766 242.454 329.947 243.718C325.129 244.983 304.531 250.464 284.775 254.138C265.02 257.872 246.229 259.859 245.626 256.607C244.783 252.09 262.731 246.85 281.945 241.731C301.399 236.853 321.696 231.794 326.454 230.589C331.212 229.325 352.654 223.422 373.373 217.761C393.911 212.341 413.485 207.463 414.811 211.377L414.871 211.438Z" fill="#B9927A"/>
<path d="M246.048 253.294C235.508 268.471 224.968 283.588 214.428 298.765C210.152 304.908 220.21 310.689 224.426 304.607C234.966 289.43 245.506 274.313 256.046 259.136C260.323 252.993 250.264 247.212 246.048 253.294Z" fill="#B9927A"/>
<path d="M184.253 396.33C205.092 368.747 225.932 341.224 246.771 313.64C251.288 307.678 241.23 301.896 236.773 307.798C215.934 335.382 195.094 362.905 174.255 390.488C169.738 396.451 179.796 402.232 184.253 396.33Z" fill="#B9927A"/>
<path d="M183.771 399.522C221.474 395.306 259.299 392.897 297.002 388.862C304.35 388.079 304.41 376.456 297.002 377.299C259.299 381.334 221.474 383.743 183.771 387.959C176.423 388.802 176.363 400.365 183.771 399.522Z" fill="#B9927A"/>
<path d="M291.22 383.081C293.207 489.921 293.81 596.822 295.075 703.662C295.135 711.13 306.759 711.13 306.639 703.662C305.374 596.822 304.772 489.921 302.784 383.081C302.663 375.613 291.039 375.613 291.22 383.081Z" fill="#B9927A"/>
<path d="M177.025 389.826C179.013 487.632 179.675 585.439 180.88 683.245C181 691.918 194.492 691.978 194.371 683.245C193.167 585.439 192.504 487.632 190.517 389.826C190.336 381.154 176.845 381.093 177.025 389.826Z" fill="#B9927A"/>
<path d="M59.1565 193.129C60.0599 357.003 61.6861 520.817 62.8305 684.691C62.8305 692.159 74.4547 692.159 74.3945 684.691C73.2502 520.817 71.624 357.003 70.7205 193.129C70.7205 185.661 59.0963 185.661 59.1565 193.129Z" fill="#B9927A"/>
<path d="M106.859 170.002C107.762 341.585 109.388 513.108 110.533 684.691C110.533 692.158 122.157 692.158 122.097 684.691C120.952 513.108 119.326 341.585 118.423 170.002C118.423 162.534 106.798 162.534 106.859 170.002Z" fill="#B9927A"/>
<path d="M218.524 173.676C218.704 213.064 218.524 252.391 218.524 291.778C218.524 299.246 230.088 299.246 230.088 291.778C230.088 252.391 230.268 213.064 230.088 173.676C230.088 166.208 218.463 166.208 218.524 173.676Z" fill="#B9927A"/>
<path d="M532.318 379.226C534.125 487.391 533.704 595.497 531.957 703.662C531.837 711.13 543.401 711.13 543.521 703.662C545.207 595.497 545.689 487.391 543.882 379.226C543.762 371.758 532.138 371.758 532.318 379.226Z" fill="#B9927A"/>
<path d="M114.327 174.82C129.745 137.601 142.454 99.1767 161.847 63.7038C165.401 57.1392 155.403 51.2974 151.849 57.862C132.034 94.2382 118.964 133.566 103.184 171.749C100.353 178.614 111.556 181.626 114.387 174.82H114.327Z" fill="#B9927A"/>
<path d="M155.343 63.2221C177.628 102.549 199.913 141.877 222.197 181.204C225.871 187.709 235.87 181.867 232.196 175.362C209.911 136.035 187.626 96.7076 165.341 57.3803C161.667 50.8759 151.669 56.7178 155.343 63.2221Z" fill="#B9927A"/>
<path d="M154.921 57.3803C118.663 103.092 83.2483 149.405 48.6164 196.381C44.1594 202.404 54.2177 208.185 58.6145 202.223C92.6441 156.09 127.457 110.499 163.112 65.571C167.69 59.7893 159.559 51.5384 154.921 57.3803Z" fill="#B9927A"/>
<path d="M112.64 179.096C150.464 180.722 188.288 181.144 226.173 181.746C233.641 181.867 233.641 170.303 226.173 170.183C188.349 169.581 150.464 169.159 112.64 167.533C105.172 167.232 105.172 178.795 112.64 179.096Z" fill="#B9927A"/>
<path d="M55.6026 205.716C75.2976 194.875 95.896 185.841 115.591 175.001C122.156 171.387 116.314 161.39 109.749 165.003C90.0538 175.844 69.4553 184.878 49.7603 195.718C43.1953 199.332 49.0376 209.329 55.6026 205.716Z" fill="#B9927A"/>
<path d="M69.155 691.195C84.8749 691.255 100.655 691.376 116.375 691.436C123.843 691.436 123.843 679.872 116.375 679.872C100.655 679.812 84.8749 679.692 69.155 679.632C61.6866 679.632 61.6866 691.195 69.155 691.195Z" fill="#B9927A"/>
<path d="M115.291 691.556C139.081 690.773 162.872 689.87 186.723 689.449C194.191 689.328 194.191 677.704 186.723 677.885C162.932 678.307 139.142 679.21 115.291 679.993C107.882 680.234 107.822 691.858 115.291 691.556Z" fill="#B9927A"/>
<path d="M298.929 710.528C378.553 710.528 458.176 710.708 537.799 709.443C545.268 709.323 545.268 697.76 537.799 697.88C458.176 699.145 378.553 698.904 298.929 698.964C291.461 698.964 291.461 710.528 298.929 710.528Z" fill="#B9927A"/>
<path d="M186.18 689.689C223.282 696.675 260.022 704.625 297.364 710.286C304.651 711.371 307.783 700.229 300.435 699.084C263.093 693.423 226.293 685.473 189.252 678.487C181.964 677.102 178.832 688.304 186.18 689.689Z" fill="#B9927A"/>
<path d="M113.062 290.815C114.086 293.766 91.6806 300.752 88.9703 301.716C86.26 302.679 65.6615 309.846 64.7581 307.377C63.5535 303.944 84.4531 297.56 87.2237 296.596C89.9942 295.633 111.978 287.683 113.062 290.815Z" fill="#B9927A"/>
<path d="M227.257 290.514C227.257 293.645 174.315 293.043 167.81 293.043C161.305 293.043 111.978 293.284 111.978 290.574C111.978 286.9 161.305 287.623 167.81 287.623C174.315 287.623 227.257 287.201 227.257 290.453V290.514Z" fill="#B9927A"/>
<path d="M102.522 232.516C103.787 235.347 91.8013 240.045 90.3558 240.707C88.9103 241.37 78.069 246.428 76.9849 244.019C75.4792 240.707 86.742 236.431 88.1876 235.829C89.6331 235.166 101.197 229.565 102.582 232.577L102.522 232.516Z" fill="#B9927A"/>
<path d="M105.292 244.26C106.858 247.151 93.4271 253.053 91.6804 253.595C90.1145 254.439 77.3458 259.377 76.5026 256.727C75.4185 253.355 88.0064 249.44 89.5724 248.597C91.2588 248.055 103.787 241.49 105.292 244.26Z" fill="#B9927A"/>
<path d="M443.3 231.432C442.155 232.456 437.457 228.12 432.82 223.242C428.122 218.303 423.665 212.823 422.641 212.341C422.4 212.16 421.918 211.799 421.256 211.377C420.714 211.076 421.075 211.257 420.894 211.196C419.087 212.762 416.919 214.75 414.63 216.797C410.053 220.953 405.897 225.109 404.873 224.265C403.428 223.121 406.68 218.002 411.077 213.244C412.161 212.04 413.305 210.895 414.45 209.811C415.052 209.269 415.594 208.727 416.136 208.245C416.799 207.643 417.461 207.041 418.124 206.499C420.171 204.632 423.062 206.017 424.086 206.68C425.05 207.282 425.713 207.764 426.074 208.065C427.821 209.149 432.579 214.629 436.795 219.809C441.011 225.048 444.685 230.288 443.48 231.372L443.3 231.432Z" fill="#B9927A"/>
<path d="M447.636 240.647C445.227 242.273 434.566 226.855 432.94 225.169C431.615 223.242 419.93 210.293 421.737 208.547C424.508 205.897 435.831 219.809 437.156 221.736C438.782 223.422 450.527 238.659 447.696 240.587L447.636 240.647Z" fill="#B9927A"/>
<path d="M443.721 237.214C441.312 239.202 431.675 225.711 430.41 224.145C429.145 222.519 419.629 210.474 421.797 208.908C424.749 206.8 433.482 219.267 434.747 220.833C435.951 222.399 446.311 235.106 443.721 237.214Z" fill="#B9927A"/>
<path d="M447.877 239.262C446.492 239.924 443.902 236.25 440.89 232.577C437.518 228.541 434.506 224.928 433.783 224.085C432.278 222.398 420.473 209.691 422.46 207.884C425.17 205.415 436.313 218.725 437.819 220.471C438.602 221.314 442.215 225.229 444.986 229.505C447.817 233.781 449.383 238.479 447.877 239.201V239.262Z" fill="#B9927A"/>
<path d="M389.455 244.742C387.106 242.634 401.742 226.313 403.488 224.265C405.235 222.218 418.305 206.499 420.352 208.185C423.183 210.474 409.33 225.711 407.584 227.758C405.837 229.806 391.864 246.91 389.395 244.742H389.455Z" fill="#B9927A"/>
<path d="M393.731 217.46C392.646 214.509 405.776 210.353 407.342 209.751C408.908 209.149 420.894 204.572 421.797 207.041C423.062 210.474 410.775 214.208 409.209 214.81C407.643 215.412 394.875 220.531 393.731 217.46Z" fill="#B9927A"/>
<path d="M210.332 476.852C207.2 476.852 207.2 454.207 207.14 451.376C207.019 449.991 207.14 443.848 204.971 439.994C203.887 438.127 202.08 436.681 200.635 436.079C199.189 435.417 197.925 435.417 197.684 434.814C197.322 434.031 198.587 432.646 201.237 432.646C203.827 432.646 207.079 434.272 209.187 437.163C211.235 440.054 211.898 443.427 212.199 445.956C212.5 448.486 212.5 450.353 212.5 451.075C212.56 453.906 213.584 476.852 210.332 476.792V476.852Z" fill="#B9927A"/>
<path d="M210.693 510.157C207.561 510.157 207.622 471.191 207.561 466.433C207.381 464.144 207.561 453.544 207.2 444.33C206.959 442.102 206.477 440.174 205.574 438.669C204.791 437.284 203.345 436.26 202.081 435.778C199.491 434.694 197.744 435.838 197.262 435.356C196.961 435.055 197.081 434.272 198.045 433.489C199.009 432.706 200.816 432.044 202.984 432.405C205.092 432.706 207.501 433.851 209.308 436.139C210.994 438.307 211.898 441.078 212.32 443.667C213.404 453.785 212.862 463.783 213.042 466.312C213.103 471.13 214.066 510.277 210.814 510.217L210.693 510.157Z" fill="#B9927A"/>
<path d="M204.249 457.158C203.285 455.954 204.49 453.906 204.61 450.834C204.851 447.763 204.731 444.27 204.61 443.668C204.49 442.945 203.948 440.114 202.442 438.127C201.719 437.103 200.816 436.32 200.093 435.658C199.31 434.995 199.069 434.694 198.768 434.092C198.647 433.67 198.768 433.128 199.19 432.767C199.671 432.405 200.454 432.285 201.177 432.285C202.683 432.285 204.67 433.188 206.176 434.634C209.308 437.585 209.85 441.981 209.971 442.764C210.151 443.728 210.633 447.703 209.73 451.557C209.308 453.484 208.344 455.412 207.2 456.435C206.056 457.519 204.911 457.7 204.369 457.098L204.249 457.158Z" fill="#B9927A"/>
<path d="M205.875 470.468C204.489 469.685 205.152 467.276 205.694 464.807C206.296 462.338 206.778 459.688 206.838 459.086C206.899 458.483 207.14 456.014 207.2 453.605C207.32 451.196 207.38 448.847 208.705 448.486C210.452 448.004 211.837 450.413 212.259 453.244C212.801 456.074 212.259 459.085 212.259 459.748C212.199 460.41 211.837 463.663 210.573 466.433C209.368 469.203 207.32 471.311 205.935 470.528L205.875 470.468Z" fill="#B9927A"/>
<path d="M243.819 506.121C240.687 506.121 240.748 467.155 240.687 462.398C240.507 460.109 240.687 449.509 240.326 440.295C240.085 438.066 239.603 436.139 238.7 434.634C237.917 433.248 236.471 432.225 235.207 431.743C232.617 430.659 230.87 431.803 230.388 431.321C230.087 431.02 230.207 430.237 231.171 429.454C232.135 428.671 233.942 428.009 236.11 428.37C238.218 428.671 240.627 429.816 242.434 432.104C244.12 434.272 245.024 437.043 245.445 439.632C246.53 449.75 245.988 459.748 246.168 462.277C246.228 467.095 247.192 506.242 243.94 506.182L243.819 506.121Z" fill="#B9927A"/>
<path d="M237.375 453.123C236.411 451.918 237.616 449.871 237.736 446.799C237.977 443.728 237.857 440.235 237.736 439.632C237.616 438.91 237.074 436.079 235.568 434.092C234.845 433.068 233.942 432.285 233.219 431.622C232.436 430.96 232.195 430.659 231.894 430.056C231.773 429.635 231.894 429.093 232.316 428.732C232.797 428.37 233.58 428.25 234.303 428.25C235.809 428.25 237.796 429.153 239.302 430.599C242.434 433.55 242.976 437.946 243.097 438.729C243.277 439.693 243.759 443.668 242.856 447.522C242.434 449.449 241.47 451.376 240.326 452.4C239.182 453.484 238.037 453.665 237.495 453.063L237.375 453.123Z" fill="#B9927A"/>
<path d="M239.001 466.433C237.615 465.65 238.278 463.241 238.82 460.772C239.422 458.303 239.904 455.653 239.964 455.05C240.025 454.448 240.265 451.979 240.326 449.57C240.446 447.161 240.506 444.812 241.831 444.451C243.578 443.969 244.963 446.378 245.385 449.208C245.927 452.039 245.385 455.05 245.385 455.713C245.325 456.375 244.963 459.627 243.699 462.398C242.494 465.168 240.446 467.276 239.061 466.493L239.001 466.433Z" fill="#B9927A"/>
<path d="M277.247 502.749C274.115 502.749 274.175 463.783 274.115 459.025C273.934 456.736 274.115 446.137 273.754 436.922C273.513 434.694 273.031 432.767 272.128 431.261C271.345 429.876 269.899 428.852 268.634 428.37C265.984 427.286 264.298 428.43 263.816 427.949C263.515 427.647 263.635 426.865 264.599 426.082C265.563 425.299 267.369 424.636 269.538 424.998C271.646 425.299 274.055 426.443 275.862 428.732C277.548 430.9 278.452 433.67 278.873 436.26C279.957 446.378 279.415 456.375 279.596 458.905C279.656 463.723 280.62 502.869 277.367 502.809L277.247 502.749Z" fill="#B9927A"/>
<path d="M270.742 449.75C269.778 448.546 270.983 446.498 271.103 443.427C271.344 440.355 271.224 436.862 271.103 436.26C270.983 435.537 270.441 432.706 268.935 430.719C268.212 429.695 267.309 428.912 266.586 428.25C265.803 427.587 265.562 427.286 265.261 426.684C265.141 426.262 265.261 425.72 265.683 425.359C266.165 424.998 266.948 424.877 267.67 424.877C269.176 424.877 271.164 425.781 272.669 427.226C275.801 430.177 276.343 434.574 276.464 435.356C276.644 436.32 277.126 440.295 276.223 444.149C275.801 446.077 274.838 448.004 273.693 449.028C272.549 450.112 271.404 450.292 270.862 449.69L270.742 449.75Z" fill="#B9927A"/>
<path d="M272.369 463.06C270.984 462.277 271.646 459.868 272.188 457.399C272.79 454.929 273.272 452.28 273.333 451.677C273.393 451.075 273.634 448.606 273.694 446.197C273.814 443.788 273.875 441.439 275.2 441.078C276.946 440.596 278.332 443.005 278.753 445.835C279.295 448.666 278.753 451.677 278.753 452.34C278.693 453.002 278.332 456.254 277.067 459.025C275.862 461.795 273.814 463.903 272.429 463.12L272.369 463.06Z" fill="#B9927A"/>
<path d="M460.646 510.94C459.08 510.94 458.116 480.586 457.514 448.305C457.393 440.235 457.273 432.164 455.767 424.817C454.382 417.409 451.37 410.905 447.214 406.267C443.119 401.57 438.24 398.98 434.084 398.257C429.928 397.414 426.736 398.077 425.17 398.378C422.038 398.98 412.823 402.292 405.897 412.29C402.464 417.108 400.055 423.432 398.79 430.418C397.465 437.404 397.224 444.932 397.224 452.4C397.585 467.396 397.224 482.272 396.561 493.053C395.959 503.893 395.658 510.94 394.995 510.94C394.092 510.94 393.249 503.893 393.068 492.992C392.948 482.031 392.827 467.698 392.165 452.521C391.683 437.464 393.249 420.601 401.44 409.218C409.21 397.836 420.111 393.861 424.026 393.138C426.014 392.777 429.989 391.873 435.229 392.957C440.469 393.861 446.672 397.173 451.43 402.714C456.249 408.195 459.682 415.783 461.127 423.853C462.693 431.923 462.693 440.295 462.693 448.365C462.693 480.646 462.392 511.06 460.706 511.06L460.646 510.94Z" fill="#B9927A"/>
<path d="M460.826 511.12C460.826 514.252 430.471 513.589 426.736 513.589C423.002 513.589 394.694 513.77 394.694 511.12C394.694 507.446 423.002 508.229 426.736 508.229C430.471 508.229 460.826 507.868 460.826 511.12Z" fill="#B9927A"/>
<path d="M450.587 510.157C449.021 510.157 448.358 494.197 448.057 477.274C447.997 468.722 447.937 460.109 447.877 453.003C447.877 445.896 447.395 440.536 447.274 438.669C447.094 436.802 446.672 431.683 445.046 425.54C443.359 419.517 440.107 412.17 434.205 407.954C428.423 403.497 421.014 401.871 415.895 402.835C410.715 403.678 408.065 406.388 407.523 405.786C406.86 405.364 408.968 401.389 415.112 399.402C421.135 397.414 430.109 398.8 437.156 403.859C444.624 408.797 448.479 417.47 450.286 424.034C452.153 430.84 452.454 436.139 452.695 438.127C452.876 440.114 453.358 445.715 453.418 452.762C453.418 459.808 453.297 468.481 453.237 477.093C452.996 494.077 452.273 510.097 450.647 510.097L450.587 510.157Z" fill="#B9927A"/>
<path d="M437.095 397.113C438.541 399.884 433.963 401.57 433.482 401.811C432.94 402.112 429.085 404.34 427.82 401.931C426.134 398.679 430.47 397.294 430.952 396.993C431.494 396.692 435.59 394.162 437.095 397.053V397.113Z" fill="#B9927A"/>
<path d="M441.733 400.185C443.119 402.955 439.927 404.401 439.565 404.641C439.204 404.882 436.554 406.81 434.807 404.762C432.458 401.991 436.132 400.365 436.554 400.125C436.975 399.823 440.228 397.234 441.733 400.185Z" fill="#B9927A"/>
<path d="M449.202 403.918C450.708 406.629 446.673 408.797 446.191 409.098C445.709 409.459 442.336 412.049 440.529 410.001C438.12 407.231 442.517 405.002 442.999 404.701C443.48 404.34 447.516 401.028 449.142 403.918H449.202Z" fill="#B9927A"/>
<path d="M452.032 410.001C453.899 412.531 449.201 414.639 448.659 415C448.117 415.301 444.202 417.891 442.998 415.542C441.372 412.29 445.347 410.724 445.829 410.363C446.31 410.062 450.045 407.351 451.972 410.001H452.032Z" fill="#B9927A"/>
<path d="M456.129 414.579C457.755 417.229 452.455 419.457 451.852 419.818C451.25 420.18 446.612 422.89 445.468 420.481C443.902 417.168 448.66 415.422 449.262 415.06C449.865 414.759 454.442 411.808 456.189 414.579H456.129Z" fill="#B9927A"/>
<path d="M456.068 425.6C457.333 428.551 452.996 429.394 452.514 429.394C452.033 429.575 448.057 430.418 447.817 427.708C447.515 424.154 450.768 424.335 451.189 424.154C451.671 424.154 454.803 422.649 456.068 425.6Z" fill="#B9927A"/>
<path d="M458.959 431.321C459.682 434.332 455.405 434.754 454.924 434.874C454.442 434.995 450.587 436.139 449.985 433.549C449.081 429.996 453.117 429.755 453.659 429.635C454.201 429.514 458.236 428.129 459.019 431.321H458.959Z" fill="#B9927A"/>
<path d="M448.358 426.865C446.13 424.636 450.165 421.986 450.587 421.625C451.008 421.264 454.261 418.192 455.887 420.36C458.055 423.311 454.562 425.359 454.14 425.72C453.719 426.082 450.707 429.214 448.358 426.865Z" fill="#B9927A"/>
<path d="M456.309 437.043C454.743 437.163 453.96 434.453 453.177 431.683C452.273 428.31 451.671 425.961 451.49 425.359C451.31 424.817 450.647 422.83 449.503 419.517C448.66 416.927 447.937 414.458 449.081 413.735C450.647 412.772 452.695 414.82 454.14 417.409C455.646 419.999 456.489 423.01 456.67 423.733C456.911 424.395 457.995 427.587 458.176 430.779C458.477 433.971 457.875 436.922 456.248 437.043H456.309Z" fill="#B9927A"/>
<path d="M458.176 436.862C459.079 439.813 455.706 440.235 455.285 440.355C454.863 440.476 451.972 441.56 451.189 439.03C450.105 435.537 453.297 435.356 453.719 435.236C454.14 435.116 457.212 433.791 458.176 436.922V436.862Z" fill="#B9927A"/>
<path d="M459.803 445.173C459.863 448.245 456.611 447.944 456.189 448.064C455.767 448.064 452.876 449.028 451.973 446.619C450.708 443.126 454.683 442.764 455.165 442.764C455.647 442.584 459.742 441.801 459.803 445.173Z" fill="#B9927A"/>
<path d="M459.38 449.449C460.465 452.34 456.911 453.063 456.489 453.183C456.068 453.364 452.996 454.689 452.093 452.16C450.828 448.727 454.201 448.245 454.622 448.124C455.044 447.944 458.236 446.318 459.441 449.449H459.38Z" fill="#B9927A"/>
<path d="M459.803 457.459C460.405 460.531 456.49 460.651 456.068 460.772C455.587 460.892 452.093 461.735 451.611 459.085C450.889 455.532 454.563 455.532 455.044 455.411C455.526 455.291 459.2 454.207 459.863 457.399L459.803 457.459Z" fill="#B9927A"/>
<path d="M459.321 465.228C459.2 468.239 455.828 467.938 455.346 468.119C454.864 468.119 451.913 469.324 450.768 466.975C449.142 463.602 453.659 462.819 454.201 462.819C454.683 462.578 459.441 461.795 459.321 465.228Z" fill="#B9927A"/>
<path d="M459.802 471.853C460.284 474.925 456.791 474.865 456.369 474.925C455.948 474.985 452.816 475.648 452.394 473.058C451.792 469.444 455.105 469.685 455.526 469.625C455.948 469.565 459.321 468.661 459.802 471.914V471.853Z" fill="#B9927A"/>
<path d="M459.742 481.79C459.2 484.742 456.008 484.019 455.526 484.139C455.044 484.139 452.093 484.922 451.189 482.513C449.924 478.96 454.442 478.659 454.984 478.779C455.526 478.538 460.284 478.418 459.682 481.79H459.742Z" fill="#B9927A"/>
<path d="M460.164 489.861C459.621 492.812 456.429 492.029 455.947 492.209C455.466 492.209 452.514 492.992 451.671 490.523C450.406 486.97 454.984 486.729 455.526 486.789C456.068 486.608 460.826 486.488 460.224 489.861H460.164Z" fill="#B9927A"/>
<path d="M456.188 493.414C453.237 493.414 453.538 466.855 453.237 463.602C453.237 460.35 451.55 435.658 454.14 435.477C457.875 435.176 458.718 460.17 458.658 463.422C458.959 466.674 459.621 493.474 456.188 493.474V493.414Z" fill="#B9927A"/>
<path d="M460.164 496.485C459.923 499.497 456.67 499.075 456.188 499.316C455.707 499.316 452.876 500.52 451.671 498.232C449.925 494.859 454.502 493.956 455.104 494.016C455.586 493.715 460.465 493.052 460.224 496.485H460.164Z" fill="#B9927A"/>
<path d="M460.585 502.327C460.585 505.459 456.429 504.796 455.887 504.796C455.345 504.796 451.49 504.977 451.49 502.327C451.49 498.653 455.345 499.436 455.887 499.436C456.429 499.436 460.585 499.075 460.585 502.327Z" fill="#B9927A"/>
<path d="M459.803 506.423C459.983 509.555 456.008 509.133 455.526 509.193C455.045 509.193 451.371 509.615 451.19 506.965C450.949 503.351 454.683 503.833 455.225 503.833C455.707 503.833 459.682 503.171 459.863 506.483L459.803 506.423Z" fill="#B9927A"/>
<path d="M458.296 503.773C461.368 504.375 460.163 507.266 460.043 507.627C459.983 507.988 459.561 510.819 456.971 510.337C453.418 509.614 454.683 506.965 454.743 506.603C454.803 506.242 455.044 503.11 458.296 503.773Z" fill="#B9927A"/>
<path d="M457.032 505.82C453.9 506.061 453.9 498.834 453.84 497.991C453.78 497.088 452.997 490.463 455.707 490.222C459.321 489.921 459.2 496.666 459.261 497.569C459.321 498.473 460.345 505.579 457.032 505.881V505.82Z" fill="#B9927A"/>
<path d="M459.562 509.916C462.693 509.916 462.031 510.096 462.031 510.157C462.031 510.217 462.212 510.337 459.562 510.337C455.888 510.337 456.671 510.157 456.671 510.157C456.671 510.157 456.309 509.916 459.562 509.916Z" fill="#B9927A"/>
<path d="M450.105 511.542C447.154 511.301 448.66 492.029 448.539 489.68C448.72 487.271 448.178 469.324 450.768 469.203C454.502 469.023 454.141 487.391 453.96 489.8C454.081 492.209 453.538 511.903 450.105 511.602V511.542Z" fill="#B9927A"/>
<path d="M450.708 418.192C449.142 418.072 448.54 416.265 447.275 414.518C446.13 412.772 444.444 410.905 444.022 410.543C443.661 410.122 441.794 408.616 439.987 406.809C438.18 405.003 436.855 402.774 437.819 401.871C439.144 400.666 441.131 401.57 443.179 402.895C445.227 404.159 447.275 406.147 447.696 406.629C448.178 407.05 450.587 409.158 451.732 412.109C453.057 415.06 452.334 418.312 450.648 418.132L450.708 418.192Z" fill="#B9927A"/>
<path d="M430.049 401.63C427.158 402.774 426.676 399.944 426.556 399.642C426.435 399.341 425.291 396.932 427.76 395.969C431.133 394.583 431.434 397.294 431.555 397.595C431.675 397.896 433.121 400.365 430.049 401.63Z" fill="#B9927A"/>
<path d="M394.513 709.383C391.381 709.383 392.044 652.831 392.044 645.905C392.044 638.979 391.863 586.282 394.513 586.282C398.187 586.282 397.404 638.979 397.404 645.905C397.404 652.831 397.766 709.383 394.513 709.383Z" fill="#B9927A"/>
<path d="M394.213 586.884C394.213 583.752 424.99 584.415 428.785 584.415C432.579 584.415 461.248 584.234 461.248 586.884C461.248 590.558 432.579 589.775 428.785 589.775C424.99 589.775 394.213 590.136 394.213 586.884Z" fill="#B9927A"/>
<path d="M460.645 709.383C457.513 709.383 458.176 652.831 458.176 645.905C458.176 638.979 457.995 586.282 460.645 586.282C464.319 586.282 463.536 638.979 463.536 645.905C463.536 652.831 463.898 709.383 460.645 709.383Z" fill="#B9927A"/>
<path d="M460.586 603.326C460.706 606.458 429.628 607 425.833 607.12C422.039 607.24 393.129 608.505 393.008 605.855C392.888 602.242 421.798 601.88 425.592 601.7C429.387 601.579 460.405 600.013 460.525 603.326H460.586Z" fill="#B9927A"/>
<path d="M458.959 606.277C459.079 609.408 429.567 609.77 425.953 609.89C422.339 610.011 394.875 611.095 394.754 608.445C394.634 604.771 422.159 604.59 425.772 604.47C429.386 604.349 458.899 602.964 458.959 606.277Z" fill="#B9927A"/>
<path d="M450.948 705.288C447.816 705.408 447.395 658.432 447.274 652.711C447.154 646.929 446.009 603.205 448.659 603.205C452.333 603.205 452.574 646.809 452.695 652.59C452.815 658.312 454.261 705.167 450.948 705.288Z" fill="#B9927A"/>
<path d="M455.827 608.385C457.574 610.974 454.923 611.998 454.622 612.179C454.321 612.36 452.334 613.925 450.828 611.697C448.84 608.626 451.37 607.843 451.611 607.662C451.912 607.481 453.96 605.674 455.767 608.385H455.827Z" fill="#B9927A"/>
<path d="M448.78 627.777C446.01 626.392 451.069 617.599 451.671 616.455C452.214 615.371 456.309 606.819 458.718 608.023C461.971 609.65 457.092 617.78 456.55 618.924C456.008 620.069 451.792 629.283 448.841 627.838L448.78 627.777Z" fill="#B9927A"/>
<path d="M454.201 629.825C455.948 632.415 453.297 633.439 452.996 633.619C452.695 633.8 450.708 635.366 449.202 633.137C447.214 630.066 449.744 629.283 449.985 629.102C450.226 628.922 452.334 627.115 454.141 629.825H454.201Z" fill="#B9927A"/>
<path d="M448.66 645.725C446.01 644.099 450.226 638.317 450.708 637.594C451.19 636.871 454.503 631.09 456.791 632.475C459.923 634.402 455.828 639.642 455.346 640.425C454.864 641.208 451.491 647.471 448.66 645.725Z" fill="#B9927A"/>
<path d="M454.261 641.268C456.73 643.135 454.02 645.785 453.719 646.146C453.418 646.508 451.49 649.459 449.322 647.832C446.431 645.664 449.081 643.255 449.382 642.894C449.683 642.533 451.611 639.28 454.261 641.268Z" fill="#B9927A"/>
<path d="M457.092 631.15C454.141 630.789 454.804 624.585 454.563 623.742C454.623 622.899 453.117 617.298 455.466 616.395C459.08 615.13 460.044 622.237 459.923 623.08C460.285 623.923 460.586 631.511 457.092 631.09V631.15Z" fill="#B9927A"/>
<path d="M450.407 652.41C447.576 651.024 451.13 645.243 451.491 644.46C451.852 643.737 454.442 637.955 456.851 639.16C460.104 640.726 456.731 646.086 456.37 646.869C456.008 647.591 453.418 653.855 450.407 652.41Z" fill="#B9927A"/>
<path d="M454.02 650.844C453.056 653.795 450.948 652.47 450.707 652.41C450.406 652.349 448.238 651.807 449.081 649.278C450.226 645.785 452.093 647.17 452.394 647.29C452.695 647.411 455.044 647.772 454.08 650.904L454.02 650.844Z" fill="#B9927A"/>
<path d="M450.406 663.973C447.576 662.648 450.346 658.312 450.587 657.77C450.828 657.228 452.755 652.892 455.165 654.036C458.477 655.602 455.767 659.577 455.466 660.119C455.165 660.661 453.358 665.419 450.406 663.973Z" fill="#B9927A"/>
<path d="M455.766 664.696C456.489 667.707 453.357 667.888 452.996 667.948C452.635 668.068 449.864 668.912 449.201 666.322C448.298 662.769 451.31 662.769 451.671 662.708C452.032 662.588 454.983 661.504 455.766 664.696Z" fill="#B9927A"/>
<path d="M458.598 662.648C455.707 663.913 454.02 658.372 453.719 657.709C453.418 657.047 451.129 652.229 453.599 651.145C456.972 649.7 458.417 654.939 458.658 655.541C458.959 656.204 461.549 661.323 458.538 662.648H458.598Z" fill="#B9927A"/>
<path d="M455.345 668.791C454.201 667.767 454.562 666.322 454.984 664.997C455.706 662.949 455.947 662.227 456.068 661.925C456.068 661.685 456.249 661.022 456.67 658.914C456.971 657.589 457.333 656.204 458.658 655.903C460.404 655.481 461.488 657.047 461.729 658.974C462.031 660.841 461.428 662.769 461.308 663.19C461.187 663.612 460.766 665.72 459.501 667.346C458.296 668.972 456.55 669.875 455.345 668.791Z" fill="#B9927A"/>
<path d="M460.646 677.222C458.297 679.27 454.864 674.452 454.382 673.91C453.9 673.368 450.166 669.333 452.154 667.586C454.864 665.177 457.996 669.815 458.478 670.357C458.959 670.899 463.176 675.054 460.706 677.283L460.646 677.222Z" fill="#B9927A"/>
<path d="M453.899 687.099C451.731 685.052 455.465 681.077 455.646 680.294C456.128 679.752 457.875 674.934 460.284 675.536C463.958 676.56 460.886 682.281 460.344 682.884C460.163 683.727 456.369 689.448 453.839 687.099H453.899Z" fill="#B9927A"/>
<path d="M458.598 688.967C455.647 690.051 454.021 683.787 453.72 683.064C453.418 682.342 451.19 676.741 453.72 675.837C457.153 674.573 458.538 680.475 458.839 681.197C459.14 681.92 461.73 687.883 458.658 689.027L458.598 688.967Z" fill="#B9927A"/>
<path d="M458.96 690.653C458.96 693.785 455.948 693.122 455.587 693.122C455.225 693.122 452.395 693.303 452.395 690.653C452.395 686.979 455.225 687.762 455.587 687.762C455.948 687.762 458.96 687.401 458.96 690.653Z" fill="#B9927A"/>
<path d="M457.092 703.722C453.96 704.806 452.815 697.278 452.996 696.374C452.695 695.471 452.635 688.485 455.465 688.786C458.959 689.208 458.115 694.989 458.356 695.772C458.236 696.615 460.043 702.578 457.092 703.662V703.722Z" fill="#B9927A"/>
<path d="M452.214 632.836C450.648 632.836 450.106 631.331 450.347 629.765C450.527 628.259 451.491 626.874 451.672 626.573C451.852 626.272 452.635 624.947 453.84 624.164C455.045 623.381 456.49 623.2 457.153 624.345C458.899 627.356 456.43 628.801 456.249 629.343C455.828 629.705 455.286 632.776 452.154 632.776L452.214 632.836Z" fill="#B9927A"/>
<path d="M458.778 651.325C457.393 654.096 456.128 652.771 455.948 652.711C455.767 652.59 454.261 652.048 455.466 649.699C457.092 646.447 458.176 647.832 458.357 647.893C458.538 648.013 460.224 648.374 458.718 651.325H458.778Z" fill="#B9927A"/>
<path d="M459.923 576.766C458.417 576.585 458.959 566.949 454.502 558.036C452.454 553.579 449.443 549.484 446.612 546.593C443.721 543.762 441.131 541.956 440.167 541.414C438.421 540.089 429.447 535.752 420.111 535.933C410.776 535.692 402.645 539.667 402.042 538.523C401.621 537.8 403.307 535.993 406.62 534.247C409.932 532.56 414.811 531.115 420.051 530.874C425.231 530.633 430.651 531.476 434.807 532.922C438.963 534.367 441.974 536.114 443.058 536.776C444.203 537.378 447.275 539.366 450.587 542.678C453.9 545.991 457.273 550.749 459.32 555.928C461.489 561.047 462.211 566.467 462.031 570.442C461.85 574.417 460.826 576.826 460.103 576.766H459.923Z" fill="#B9927A"/>
<path d="M365.062 375.613C365.122 378.744 330.31 379.045 326.033 379.106C321.757 379.226 289.354 380.25 289.293 377.54C289.173 373.866 321.636 373.806 325.913 373.685C330.189 373.565 364.941 372.3 365.062 375.552V375.613Z" fill="#B9927A"/>
<path d="M552.073 375.974C552.073 379.105 530.451 378.443 527.801 378.443C525.151 378.443 505.034 378.624 505.034 375.974C505.034 372.3 525.151 373.083 527.801 373.083C530.451 373.083 552.073 372.722 552.073 375.974Z" fill="#B9927A"/>
<path d="M248.698 304.125C248.819 307.256 234.183 307.256 232.376 307.317C230.569 307.377 216.957 308.16 216.837 305.45C216.656 301.836 230.328 301.956 232.135 301.896C233.942 301.836 248.517 300.812 248.698 304.125Z" fill="#B9927A"/>
<path d="M237.495 324.722C235.086 322.734 242.976 313.942 243.94 312.797C244.361 312.195 246.409 309.906 246.831 308.341C247.373 306.594 246.59 305.389 246.71 304.125C246.891 303.282 248.096 302.8 249.541 303.763C250.926 304.667 251.95 306.714 251.83 308.943C251.288 313.46 248.337 315.628 248.096 316.23C247.192 317.374 240.025 326.83 237.495 324.782V324.722Z" fill="#B9927A"/>
<path d="M244.301 305.57C244.663 308.642 229.967 309.063 228.22 309.184C227.798 309.184 226.594 309.304 225.088 309.364C223.522 309.364 221.896 309.666 219.547 309.244C218.403 309.003 217.138 308.581 216.114 307.618C215.09 306.654 214.668 305.51 214.608 304.486C214.488 302.198 216.054 301.535 216.535 301.957C217.74 303.282 218.101 304.366 220.209 304.185C224.305 303.944 227.256 303.763 228.039 303.703C229.786 303.583 244.06 302.198 244.422 305.45L244.301 305.57Z" fill="#B9927A"/>
<path d="M157.331 191.563C156.969 191.021 160.764 188.07 167.75 187.829C174.496 187.468 184.494 190.419 190.276 198.971C191.782 201.139 192.565 204.03 192.745 206.439C192.986 208.908 192.986 211.197 192.685 213.606C192.264 218.484 189.252 223.302 185.759 225.711C178.531 230.77 171.846 230.168 169.798 230.409C168.714 230.409 166.787 230.409 164.136 230.228C161.486 229.927 157.993 229.445 154.379 227.457C147.212 223.663 141.791 213.907 143.658 204.451C144.441 199.693 147.332 195.658 150.585 193.069C153.897 190.419 157.571 189.034 160.764 188.552C167.329 187.588 171.183 190.178 170.882 190.599C170.581 191.563 166.726 190.419 161.486 191.985C156.307 193.31 149.621 198.188 148.657 205.355C147.453 212.461 151.85 220.05 157.029 222.7C162.209 225.41 167.871 224.928 169.738 224.988C171.545 224.868 177.327 224.988 182.506 221.314C185.096 219.447 186.903 216.677 187.385 212.883C187.807 209.089 187.867 204.572 186 201.741C181.784 195.056 173.592 191.804 167.69 191.382C161.667 190.84 157.692 192.466 157.331 191.563Z" fill="#B9927A"/>
<path d="M166.847 207.944C166.305 207.703 166.004 206.92 166.787 206.258C167.509 205.716 168.594 205.475 169.798 206.499C170.4 207.041 170.822 208.306 170.461 209.329C170.099 210.474 169.196 211.016 168.594 211.257C167.389 211.799 165.281 211.317 164.558 209.57L164.438 209.329V209.149C164.257 208.486 164.317 207.282 165.04 206.499C165.642 205.836 166.184 205.656 166.365 205.595C167.088 205.355 167.991 205.234 169.196 205.957C169.497 206.198 169.858 206.378 170.28 207.101C170.702 207.703 170.762 208.908 170.461 209.51C170.099 210.654 168.533 211.558 167.389 211.317C165.522 210.775 165.281 209.691 165.341 208.607C165.582 207.342 166.606 207.282 166.967 207.824C167.148 208.004 167.269 208.125 167.449 208.245C167.449 208.245 167.449 208.245 167.57 208.245C167.931 208.185 167.931 207.884 167.75 208.426C167.871 208.306 167.389 209.45 167.509 208.547C167.509 208.366 167.208 208.426 167.69 208.366H167.57C167.57 208.486 167.69 208.004 167.63 208.125C167.75 208.366 167.871 208.245 167.69 208.366C167.509 208.607 167.69 208.486 167.57 208.366C167.449 208.185 167.811 208.486 167.028 207.944H166.847Z" fill="#B9927A"/>
<path d="M199.31 245.706C199.31 248.838 172.87 248.356 169.617 248.356C166.365 248.356 141.731 248.657 141.671 246.007C141.671 242.333 166.305 242.996 169.557 242.936C172.809 242.936 199.31 242.394 199.31 245.706Z" fill="#B9927A"/>
<path d="M205.273 253.716C205.454 255.282 197.503 256.667 189.071 257.33C180.579 257.992 171.605 257.932 169.677 257.932C167.69 257.932 159.258 257.932 151.368 257.269C143.417 256.667 136.069 255.342 136.19 254.017C136.371 252.21 143.719 252.15 151.609 252.21C159.86 252.331 167.75 252.511 169.677 252.511C171.605 252.511 179.977 252.331 188.83 252.21C197.202 252.09 205.153 252.09 205.333 253.716H205.273Z" fill="#B9927A"/>
<path d="M195.636 253.595C196.66 254.8 191.48 259.498 184.554 261.605C177.688 263.954 170.039 263.593 168.473 263.412C166.846 263.412 159.8 262.75 153.656 260.461C147.513 258.293 142.333 255.101 142.935 253.897C143.718 252.21 149.26 254.137 155.102 255.583C160.944 257.149 167.268 257.992 168.714 257.992C170.159 258.112 176.965 258.233 183.108 256.667C189.312 255.342 194.612 252.27 195.636 253.595Z" fill="#B9927A"/>
<path d="M347.355 274.253C344.945 272.265 366.989 247.031 369.639 243.899C372.29 240.767 392.225 216.797 394.273 218.484C397.044 220.833 376.445 244.2 373.795 247.392C371.145 250.524 349.884 276.421 347.355 274.253Z" fill="#B9927A"/>
<path d="M349.764 260.16C347.234 258.293 361.93 240.948 363.616 238.78C365.363 236.612 378.433 219.989 380.42 221.736C383.191 224.145 369.579 239.984 367.832 242.152C366.086 244.321 352.414 262.147 349.764 260.16Z" fill="#B9927A"/>
<path d="M348.438 247.332C346.029 245.345 354.401 236.01 355.365 234.805C356.329 233.601 363.556 224.386 365.664 226.072C368.495 228.361 360.545 236.973 359.581 238.178C358.617 239.382 351.028 249.38 348.438 247.332Z" fill="#B9927A"/>
<path d="M162.209 346.885C158.957 347.367 158.475 334.9 158.596 333.394C158.415 331.889 158.475 320.325 161.306 320.506C164.799 320.747 163.836 331.708 164.016 333.214C163.896 334.719 165.341 346.463 162.209 346.885Z" fill="#B9927A"/>
<path d="M167.991 321.831C167.991 324.963 164.437 324.3 164.015 324.3C163.594 324.3 160.281 324.481 160.281 321.831C160.281 318.157 163.594 318.94 164.015 318.94C164.437 318.94 167.991 318.579 167.991 321.831Z" fill="#B9927A"/>
<path d="M169.075 346.825C165.943 347.005 165.943 335.382 165.823 333.936C165.763 332.491 164.98 321.711 167.63 321.59C171.243 321.409 171.183 332.19 171.243 333.635C171.304 335.081 172.388 346.644 169.075 346.825Z" fill="#B9927A"/>
<path d="M169.015 344.898C168.172 347.788 165.763 347.005 165.341 347.186C164.919 347.126 162.691 348.029 161.426 345.801C159.619 342.428 164.136 341.645 164.678 341.826C165.16 341.525 169.979 341.525 169.075 344.898H169.015Z" fill="#B9927A"/>
<path d="M166.967 342.428C163.896 342.91 163.293 334.78 163.113 333.816C162.932 332.852 161.667 325.384 164.257 324.963C167.871 324.421 168.293 332.009 168.413 332.973C168.594 333.936 170.16 341.946 166.907 342.428H166.967Z" fill="#B9927A"/>
<path d="M112.158 508.651C110.893 507.687 119.747 495.04 128.962 481.61C138.238 468.179 147.814 453.785 149.862 450.654C151.91 447.522 160.703 433.851 168.774 420.902C176.905 407.954 184.433 395.728 185.638 396.39C187.204 397.294 180.88 410.242 173.171 423.492C165.521 436.802 156.547 450.413 154.439 453.605C152.391 456.797 142.935 471.371 133.178 484.561C123.481 497.81 113.543 509.675 112.218 508.711L112.158 508.651Z" fill="#B9927A"/>
<path d="M186.301 413.193C187.626 414.036 180.037 426.925 171.364 440.235C162.751 453.544 153.054 467.276 150.946 470.287C146.971 476.43 114.447 521.78 112.158 520.034C109.388 517.986 142.514 473.359 146.489 467.216C148.537 464.204 157.933 450.654 167.088 437.404C176.182 424.395 184.855 412.29 186.241 413.193H186.301Z" fill="#B9927A"/>
<path d="M185.999 426.563C188.529 428.37 154.861 475.105 150.765 480.887C146.67 486.669 115.892 530.633 113.724 529.128C110.773 527.02 142.273 483.537 146.308 477.755C150.404 471.974 183.229 424.636 185.939 426.503L185.999 426.563Z" fill="#B9927A"/>
<path d="M185.639 442.584C186.783 443.607 178.11 454.448 169.618 466.553C160.945 478.779 152.031 491.487 150.043 494.317C146.068 499.918 116.254 542.799 114.086 541.233C111.075 539.125 141.671 496.847 145.586 491.186C147.574 488.415 156.427 475.406 165.462 463.482C174.496 451.557 184.374 441.379 185.639 442.523V442.584Z" fill="#B9927A"/>
<path d="M185.698 455.592C186.903 456.556 178.651 468.059 169.797 480.224C160.823 492.45 151.488 505.158 149.44 507.928C147.452 510.759 138.9 522.684 130.588 534.307C122.397 545.69 114.567 556.35 113.483 555.627C111.977 554.603 118.663 543.16 126.432 531.416C134.202 519.612 143.056 507.567 145.103 504.736C147.151 501.906 156.427 488.897 165.762 477.093C175.098 465.228 184.433 454.508 185.698 455.532V455.592Z" fill="#B9927A"/>
<path d="M185.698 465.348C186.903 466.312 178.651 477.815 169.797 489.981C160.823 502.207 151.488 514.914 149.44 517.685C147.452 520.515 138.9 532.44 130.588 544.063C122.397 555.446 114.567 566.106 113.483 565.383C111.977 564.359 118.663 552.917 126.432 541.173C134.202 529.368 143.056 517.323 145.103 514.493C147.151 511.662 156.427 498.653 165.762 486.849C175.098 474.985 184.433 464.264 185.698 465.288V465.348Z" fill="#B9927A"/>
<path d="M185.698 483.537C186.903 484.501 178.651 496.004 169.797 508.169C160.823 520.395 151.488 533.103 149.44 535.873C147.452 538.704 138.9 550.628 130.588 562.252C122.397 573.635 114.567 584.295 113.483 583.572C111.977 582.548 118.663 571.105 126.432 559.361C134.202 547.557 143.056 535.512 145.103 532.681C147.151 529.851 156.427 516.842 165.762 505.038C175.098 493.173 184.433 482.453 185.698 483.477V483.537Z" fill="#B9927A"/>
<path d="M185.698 497.931C186.903 498.894 178.651 510.397 169.797 522.563C160.823 534.789 151.488 547.496 149.44 550.267C147.452 553.097 138.9 565.022 130.588 576.645C122.397 588.028 114.567 598.688 113.483 597.965C111.977 596.942 118.663 585.499 126.432 573.755C134.202 561.95 143.056 549.905 145.103 547.075C147.151 544.244 156.427 531.235 165.762 519.431C175.098 507.567 184.433 496.847 185.698 497.87V497.931Z" fill="#B9927A"/>
<path d="M185.698 511.241C186.903 512.204 178.651 523.707 169.797 535.873C160.823 548.099 151.488 560.806 149.44 563.577C147.452 566.407 138.9 578.332 130.588 589.956C122.397 601.338 114.567 611.998 113.483 611.275C111.977 610.252 118.663 598.809 126.432 587.065C134.202 575.261 143.056 563.215 145.103 560.385C147.151 557.554 156.427 544.545 165.762 532.741C175.098 520.877 184.433 510.157 185.698 511.18V511.241Z" fill="#B9927A"/>
<path d="M185.698 524.49C186.903 525.454 178.651 536.957 169.797 549.122C160.823 561.348 151.488 574.056 149.44 576.826C147.452 579.657 138.9 591.581 130.588 603.205C122.397 614.588 114.567 625.248 113.483 624.525C111.977 623.501 118.663 612.058 126.432 600.314C134.202 588.51 143.056 576.465 145.103 573.634C147.151 570.804 156.427 557.795 165.762 545.991C175.098 534.126 184.433 523.406 185.698 524.43V524.49Z" fill="#B9927A"/>
<path d="M185.698 537.8C186.903 538.764 178.651 550.267 169.797 562.432C160.823 574.658 151.488 587.366 149.44 590.136C147.452 592.967 138.9 604.892 130.588 616.515C122.397 627.898 114.567 638.558 113.483 637.835C111.977 636.811 118.663 625.368 126.432 613.624C134.202 601.82 143.056 589.775 145.103 586.944C147.151 584.114 156.427 571.105 165.762 559.301C175.098 547.436 184.433 536.716 185.698 537.74V537.8Z" fill="#B9927A"/>
<path d="M185.698 551.11C186.903 552.074 178.651 563.577 169.797 575.743C160.823 587.968 151.488 600.676 149.44 603.446C147.452 606.277 138.9 618.202 130.588 629.825C122.397 641.208 114.567 651.868 113.483 651.145C111.977 650.121 118.663 638.678 126.432 626.934C134.202 615.13 143.056 603.085 145.103 600.254C147.151 597.424 156.427 584.415 165.762 572.611C175.098 560.746 184.433 550.026 185.698 551.05V551.11Z" fill="#B9927A"/>
<path d="M185.698 564.36C186.903 565.323 178.651 576.827 169.797 588.992C160.823 601.218 151.488 613.925 149.44 616.696C147.452 619.526 138.9 631.451 130.588 643.075C122.397 654.457 114.567 665.117 113.483 664.395C111.977 663.371 118.663 651.928 126.432 640.184C134.202 628.38 143.056 616.335 145.103 613.504C147.151 610.673 156.427 597.665 165.762 585.86C175.098 573.996 184.433 563.276 185.698 564.3V564.36Z" fill="#B9927A"/>
<path d="M185.698 577.669C186.903 578.633 178.651 590.136 169.797 602.302C160.823 614.527 151.488 627.235 149.44 630.005C147.452 632.836 138.9 644.761 130.588 656.384C122.397 667.767 114.567 678.427 113.483 677.704C111.977 676.68 118.663 665.237 126.432 653.493C134.202 641.689 143.056 629.644 145.103 626.813C147.151 623.983 156.427 610.974 165.762 599.17C175.098 587.305 184.433 576.585 185.698 577.609V577.669Z" fill="#B9927A"/>
<path d="M185.698 590.979C186.903 591.943 178.651 603.446 169.797 615.612C160.823 627.837 151.488 640.545 149.44 643.315C147.452 646.146 138.9 658.071 130.588 669.694C122.397 681.077 114.567 691.737 113.483 691.014C111.977 689.99 118.663 678.547 126.432 666.803C134.202 654.999 143.056 642.954 145.103 640.124C147.151 637.293 156.427 624.284 165.762 612.48C175.098 600.615 184.433 589.895 185.698 590.919V590.979Z" fill="#B9927A"/>
<path d="M158.716 64.7278C155.584 64.8483 155.885 21.3654 155.885 16.0655C155.885 10.7054 155.403 -29.7662 158.053 -29.706C161.727 -29.5855 161.245 10.7054 161.306 16.0053C161.306 21.3051 162.028 64.6074 158.716 64.7278Z" fill="#B9927A"/>
<path d="M420.292 208.547C417.28 208.426 417.882 192.527 417.702 190.539C417.702 188.552 416.497 173.736 419.027 173.495C422.761 173.074 423.183 188.371 423.122 190.359C423.363 192.346 423.725 208.727 420.352 208.607L420.292 208.547Z" fill="#B9927A"/>
<path d="M459.742 576.284C458.176 576.284 457.333 567.371 452.635 559.361C448.299 551.11 440.469 545.087 438.602 544.124C436.915 542.859 428.724 538.523 420.051 537.74C411.438 536.596 403.307 538.884 402.886 537.619C402.103 535.933 410.655 532.018 420.473 532.681C430.29 532.922 439.626 538.161 441.493 539.547C442.517 540.149 445.347 542.016 448.479 545.027C451.611 548.038 454.924 552.315 457.152 556.952C461.971 566.287 461.429 576.345 459.742 576.224V576.284Z" fill="#B9927A"/>
<path d="M524.789 620.43C524.789 623.561 509.13 622.899 507.263 622.899C505.395 622.899 490.76 623.08 490.76 620.43C490.76 616.756 505.335 617.539 507.263 617.539C509.19 617.539 524.789 617.178 524.789 620.43Z" fill="#B9927A"/>
<path d="M188.409 604.289C190.818 606.277 160.221 644.099 156.547 648.796C152.873 653.494 124.927 689.147 122.819 687.581C119.868 685.413 148.597 650.121 152.331 645.423C156.005 640.726 185.939 602.121 188.469 604.289H188.409Z" fill="#B9927A"/>
<path d="M187.626 615.551C190.276 617.539 164.076 650.482 160.643 654.397C157.572 658.553 132.396 688.665 130.288 686.798C127.698 684.51 153.356 655.12 156.427 651.024C159.86 647.17 185.097 613.745 187.626 615.612V615.551Z" fill="#B9927A"/>
<path d="M185.397 632.656C187.806 634.643 166.907 658.553 164.437 661.504C161.908 664.455 143.056 687.22 141.068 685.474C138.298 683.125 157.812 660.962 160.342 658.011C162.871 655.06 182.928 630.488 185.457 632.596L185.397 632.656Z" fill="#B9927A"/>
<path d="M186.903 643.737C188.228 644.58 185.217 650.242 181.061 655.481C176.965 660.721 172.087 665.72 171.123 666.864C170.159 667.948 166.124 672.405 161.727 677.283C157.632 681.74 154.078 686.136 152.934 685.413C151.368 684.45 154.018 679.029 157.812 674.091C161.547 669.032 166.124 664.395 167.148 663.25C168.112 662.166 172.388 657.469 177.206 652.229C181.663 647.531 185.578 642.894 186.963 643.797L186.903 643.737Z" fill="#B9927A"/>
<path d="M185.458 659.034C187.807 661.142 176.725 672.585 175.4 674.031C174.075 675.476 164.317 686.618 162.33 684.871C159.619 682.462 170.039 671.862 171.364 670.417C172.689 668.972 182.988 656.866 185.458 659.034Z" fill="#B9927A"/>
<path d="M183.41 671.321C185.699 673.429 180.399 678.789 179.796 679.511C179.194 680.234 174.797 685.715 172.689 684.088C169.798 681.86 175.038 676.741 175.641 676.018C176.243 675.295 181.001 669.032 183.41 671.26V671.321Z" fill="#B9927A"/>
<path d="M299.17 397.595C299.532 400.666 246.59 406.267 240.085 406.99C236.833 407.351 222.92 409.038 209.73 410.242C196.479 411.567 183.771 410.543 183.891 409.098C184.012 407.412 196.178 407.05 209.188 405.183C222.258 403.437 236.231 401.931 239.483 401.57C245.988 400.787 298.809 394.282 299.231 397.535L299.17 397.595Z" fill="#B9927A"/>
<path d="M536.655 644.58C539.185 646.447 517.743 673.007 515.214 676.319C512.624 679.632 493.29 704.806 491.243 703.12C488.412 700.831 508.408 676.319 510.938 673.007C513.467 669.694 534.005 642.653 536.655 644.58Z" fill="#B9927A"/>
<path d="M535.33 658.011C537.799 659.878 520.634 680.114 518.586 682.643C516.538 685.173 501.12 704.505 499.072 702.758C496.301 700.349 512.322 681.8 514.37 679.27C516.418 676.741 532.68 656.023 535.33 658.011Z" fill="#B9927A"/>
<path d="M536.956 666.502C537.98 667.707 534.366 671.682 530.692 675.958C526.958 680.174 523.104 684.751 522.321 685.835C521.477 686.859 518.165 691.376 515.093 695.652C511.961 699.928 509.13 704.083 507.926 703.481C506.3 702.638 508.046 697.759 510.817 692.941C513.527 688.123 517.201 683.546 518.044 682.522C518.888 681.438 522.682 676.5 526.958 672.465C531.235 668.369 535.872 665.298 536.956 666.563V666.502Z" fill="#B9927A"/>
<path d="M536.594 674.151C537.98 674.874 536.715 678.608 534.667 682.221C532.679 685.835 529.909 689.268 529.367 690.051C528.825 690.834 526.295 694.086 523.525 696.796C520.754 699.506 517.743 701.554 516.779 700.59C514.43 698.121 524.127 688.485 525.03 686.798C525.512 686.076 527.56 683.366 530.331 679.511C532.74 676.379 535.089 673.428 536.594 674.211V674.151Z" fill="#B9927A"/>
<path d="M531.415 692.159C533.824 694.086 530.331 697.519 529.969 697.94C529.608 698.422 526.898 702.036 524.85 700.349C522.019 698.061 525.392 694.989 525.753 694.568C526.115 694.086 528.825 690.111 531.415 692.159Z" fill="#B9927A"/>
<path d="M244.422 693.785C241.29 693.845 240.989 649.941 240.929 644.58C240.808 639.22 239.784 598.327 242.494 598.267C246.168 598.207 246.229 639.1 246.349 644.46C246.47 649.82 247.734 693.725 244.482 693.785H244.422Z" fill="#B9927A"/>
<path d="M247.494 692.098C245.928 691.978 246.049 681.619 246.229 670.598C246.41 659.396 246.591 647.953 246.591 645.424C246.591 642.894 246.47 632.294 246.35 621.695C246.29 611.396 246.229 601.7 247.554 601.64C249.361 601.519 250.807 611.155 251.409 621.514C252.072 631.873 251.951 642.894 251.951 645.424C251.951 648.013 252.011 659.697 251.289 670.779C250.566 681.86 249.06 692.219 247.434 692.098H247.494Z" fill="#B9927A"/>
<path d="M246.591 616.335C243.519 616.997 242.676 610.071 242.495 609.228C242.314 608.385 240.748 602.061 243.338 601.519C246.892 600.736 247.554 607.241 247.735 608.084C247.916 608.927 249.783 615.672 246.591 616.335Z" fill="#B9927A"/>
<path d="M246.29 650.964C243.158 650.964 243.82 629.042 243.82 626.332C243.82 623.622 243.64 603.205 246.29 603.205C249.964 603.205 249.181 623.622 249.181 626.332C249.181 629.042 249.542 650.964 246.29 650.964Z" fill="#B9927A"/>
<path d="M248.398 693.725C245.085 694.146 244.182 675.717 244.362 673.429C244.061 671.2 244.182 653.976 247.012 654.156C250.506 654.337 249.482 671.02 249.783 673.248C249.662 675.476 251.469 693.303 248.398 693.725Z" fill="#B9927A"/>
<path d="M251.529 698.723C248.276 699.085 247.192 678.487 247.313 675.958C247.012 673.428 246.771 654.217 249.541 654.277C253.035 654.397 252.432 673.188 252.673 675.717C252.613 678.247 254.601 698.362 251.529 698.723Z" fill="#B9927A"/>
<path d="M170.761 91.2872C170.761 94.4189 165.461 93.7564 164.799 93.7564C164.136 93.7564 159.197 93.9371 159.197 91.2872C159.197 87.6134 164.136 88.3963 164.799 88.3963C165.461 88.3963 170.761 88.035 170.761 91.2872Z" fill="#B9927A"/>
<path d="M180.579 101.225C180.097 104.115 173.954 103.272 173.171 103.573C172.327 103.453 166.786 105.019 165.883 102.67C164.498 99.0564 171.725 98.0326 172.629 98.153C173.532 97.7917 181.241 97.6712 180.639 101.164L180.579 101.225Z" fill="#B9927A"/>
<path d="M185.578 109.295C185.999 112.366 179.856 112.607 179.133 112.727C178.41 112.848 172.809 113.812 172.448 111.162C171.966 107.548 177.688 107.488 178.41 107.367C179.133 107.247 185.156 106.042 185.578 109.295Z" fill="#B9927A"/>
<path d="M192.143 119.292C192.143 122.424 186.12 121.762 185.337 121.762C184.554 121.762 178.953 121.942 178.953 119.292C178.953 115.619 184.615 116.401 185.337 116.401C186.06 116.401 192.143 116.04 192.143 119.292Z" fill="#B9927A"/>
<path d="M197.082 129.169C197.082 132.301 191.781 131.639 191.119 131.639C190.456 131.639 185.518 131.819 185.518 129.169C185.518 125.495 190.456 126.278 191.119 126.278C191.781 126.278 197.082 125.917 197.082 129.169Z" fill="#B9927A"/>
<path d="M200.395 137.179C200.937 140.251 196.299 140.431 195.757 140.552C195.215 140.672 190.999 141.576 190.517 138.926C189.855 135.312 194.251 135.312 194.793 135.192C195.335 135.071 199.792 133.927 200.395 137.119V137.179Z" fill="#B9927A"/>
<path d="M207.019 148.622C205.815 151.272 200.936 149.345 200.153 149.465C199.43 149.224 194.552 149.766 193.95 147.357C193.046 143.563 199.852 143.744 200.635 144.105C201.057 144.105 203.044 144.226 204.731 145.009C206.417 145.791 207.742 147.116 207.08 148.622H207.019Z" fill="#B9927A"/>
<path d="M210.272 155.187C210.693 158.258 205.333 158.379 204.671 158.499C204.008 158.619 199.129 159.463 198.768 156.813C198.286 153.199 203.285 153.259 203.948 153.139C204.61 153.018 209.85 151.934 210.272 155.187Z" fill="#B9927A"/>
<path d="M218.463 163.739C217.861 166.63 212.621 165.786 211.898 166.088C211.176 165.967 206.478 167.533 205.394 165.305C203.767 161.812 210.393 160.547 211.236 160.727C211.657 160.727 213.585 160.366 215.392 160.727C217.198 161.089 218.764 162.113 218.463 163.739Z" fill="#B9927A"/>
<path d="M172.388 81.4102C172.388 84.542 166.365 83.8795 165.582 83.8795C164.799 83.8795 159.197 84.0602 159.197 81.4102C159.197 77.7365 164.859 78.5194 165.582 78.5194C166.304 78.5194 172.388 78.158 172.388 81.4102Z" fill="#B9927A"/>
<path d="M94.7519 354.534C91.62 354.654 91.4995 336.406 91.379 334.177C91.1381 333.214 91.5597 327.793 90.5358 324.842C90.1142 323.457 88.9096 322.554 87.8857 322.132C86.922 321.65 86.0788 321.831 85.597 321.289C84.9345 320.687 85.597 318.94 88.1266 318.639C90.3551 318.278 93.6075 319.723 95.1132 322.614C96.5587 325.324 96.619 328.094 96.7394 329.961C96.7394 331.828 96.8599 333.334 96.8599 333.936C96.9804 336.165 98.1247 354.353 94.8121 354.473L94.7519 354.534Z" fill="#B9927A"/>
<path d="M492.507 375.733C492.507 378.865 440.77 378.202 434.386 378.202C428.001 378.202 379.818 378.383 379.878 375.733C379.998 372.059 428.122 372.842 434.446 372.842C440.77 372.842 492.507 372.481 492.507 375.733Z" fill="#B9927A"/>
<path d="M8.50377 625.91C7.66056 626.091 6.75712 623.923 4.76955 621.393C2.84221 618.804 -0.590858 616.094 -4.86714 615.19C-9.14343 614.166 -13.7811 614.949 -17.2142 616.335C-20.7075 617.78 -22.936 619.647 -23.5985 620.309C-24.3212 620.972 -26.2486 622.899 -27.8748 626.091C-29.4407 629.223 -30.6453 633.559 -30.6453 637.895C-30.6453 642.232 -29.7419 646.387 -28.6577 649.338C-27.5736 652.289 -26.4895 654.216 -27.0918 654.698C-27.7543 655.24 -29.8021 653.915 -31.8499 650.904C-33.8977 647.893 -35.5239 643.135 -35.7648 638.016C-36.1262 632.897 -34.8011 627.597 -32.8136 623.682C-30.826 619.707 -28.2964 617.238 -27.3327 616.395C-26.4293 615.491 -23.5985 613.082 -19.3222 611.276C-15.0459 609.529 -9.0832 608.626 -3.60233 610.252C1.93877 611.757 6.21505 615.913 7.78102 619.527C9.46744 623.14 9.22653 625.79 8.50377 625.91Z" fill="#B9927A"/>
<path d="M35.3658 628.921C33.9203 629.403 31.4509 624.886 26.3916 623.08C24.0427 622.116 21.3324 621.815 19.3448 621.995C17.297 622.236 15.8515 622.839 15.3697 623.14C14.3458 623.441 10.1899 626.633 8.86488 631.511C7.23869 636.269 8.86488 640.846 7.78075 641.509C6.99777 641.93 5.67274 641.027 4.70907 638.859C3.68517 636.751 3.32379 633.499 3.98631 630.246C4.64883 627.054 6.27503 623.923 8.2626 621.875C10.1899 619.827 12.1775 618.683 12.9003 618.322C13.623 617.9 15.7913 616.816 18.8027 616.515C21.754 616.154 25.4882 616.696 28.5599 618.322C31.6918 619.827 34.101 622.417 35.1851 624.645C36.2693 626.874 36.1488 628.56 35.426 628.801L35.3658 628.921Z" fill="#B9927A"/>
<path d="M67.8896 569.84C67.0464 569.599 68.0101 566.467 65.7816 562.794C64.7577 560.987 62.9508 559.06 60.6018 557.855C58.3733 556.651 55.4221 556.229 52.4106 556.59C46.3877 557.253 40.5455 561.047 36.6306 564.601C32.5952 568.154 30.4872 571.828 29.6439 573.032C28.9212 574.357 26.8734 577.79 25.4279 582.668C23.8619 587.546 22.9585 593.81 23.3801 599.953C23.7415 606.036 25.4279 611.757 27.2348 615.853C28.9212 619.948 30.7281 622.357 30.0655 622.899C29.5235 623.381 26.7529 621.634 24.1028 617.479C21.3925 613.444 18.9834 607.18 18.2606 600.375C17.4776 593.629 18.4413 586.523 20.1879 581.102C21.8141 575.622 24.1631 571.707 25.0063 570.262C25.97 568.877 28.3189 564.721 32.8963 560.565C37.4135 556.47 44.0388 552.134 51.8686 551.532C55.663 551.23 59.6984 551.953 62.8303 554.001C65.902 555.988 67.9498 558.698 68.9135 561.348C71.0215 566.829 68.3714 570.442 67.8294 569.961L67.8896 569.84Z" fill="#B9927A"/>
<path d="M33.3181 655.18C32.5351 655.542 31.21 653.675 28.8009 651.567C26.3917 649.399 22.6575 647.11 18.321 646.026C14.0447 644.882 9.34679 644.882 5.73303 645.725C2.11927 646.568 -0.350147 647.893 -1.19336 648.495C-2.0968 648.977 -4.3855 650.543 -6.79468 653.072C-9.26408 655.602 -11.6733 659.336 -13.3597 663.311C-16.853 671.321 -16.6121 679.813 -17.9371 679.933C-19.744 680.234 -21.4906 670.899 -18.0576 661.504C-16.3712 656.867 -13.7211 652.41 -10.7698 649.399C-7.87882 646.327 -5.04803 644.46 -4.02413 643.918C-3.00023 643.256 0.131693 641.389 4.52844 640.425C8.92518 639.401 14.647 639.461 19.7665 641.208C24.886 642.774 29.2225 646.146 31.451 649.278C33.6794 652.47 33.9806 655 33.3181 655.301V655.18Z" fill="#B9927A"/>
<path d="M70.6004 635.426C69.2151 636.028 65.9025 629.825 59.458 626.693C56.3863 625.007 52.8327 624.104 50.0019 623.923C47.1109 623.742 44.9427 624.164 44.2199 624.405C42.7142 624.586 36.0287 627.175 32.0536 632.596C27.7773 637.775 27.0546 644.34 25.7898 644.34C24.9465 644.34 24.2238 642.533 24.3442 639.642C24.4647 636.811 25.7295 632.957 27.958 629.645C30.1865 626.332 33.3786 623.441 36.3901 621.755C39.4016 620.069 41.9914 619.346 43.0153 619.105C43.979 618.804 46.8098 618.202 50.4236 618.443C54.0373 618.683 58.4341 619.888 62.0478 622.176C65.7218 624.405 68.4924 627.597 69.8776 630.307C71.2629 633.017 71.3834 635.065 70.6606 635.366L70.6004 635.426Z" fill="#B9927A"/>
<path d="M49.7007 690.472C48.2552 690.653 46.5688 682.763 40.3651 677.644C37.4139 675.054 33.7399 673.368 30.5478 672.585C27.3556 671.802 24.7657 671.923 23.8623 671.923C22.1759 671.863 13.804 673.007 8.80495 678.487C3.80591 683.606 3.32408 691.797 1.81835 691.496C0.914906 691.376 0.433078 689.448 0.613766 686.317C0.794454 683.245 1.93881 678.728 5.07074 675.115C8.08221 671.501 12.2983 669.092 15.912 667.948C19.586 666.743 22.5373 666.623 23.6214 666.563C24.7055 666.563 27.8977 666.322 31.8126 667.285C35.7275 668.189 40.4254 670.477 43.8585 673.85C47.3518 677.223 49.52 681.499 50.2428 684.811C51.0257 688.123 50.5439 690.412 49.7609 690.472H49.7007Z" fill="#B9927A"/>
<path d="M68.8531 671.32C67.4076 671.32 66.3235 667.346 62.5893 665.599C59.1562 663.612 54.8197 665.298 54.0969 665.78C53.1935 666.141 49.7604 668.49 48.3751 672.405C46.7489 676.199 46.9296 680.414 45.6648 680.716C43.9182 681.197 42.0511 676.259 43.5568 670.839C44.2795 668.189 45.8455 665.599 47.5319 663.913C49.2183 662.226 50.9048 661.323 51.5071 661.022C52.1094 660.721 53.856 659.757 56.4459 659.336C58.9755 658.914 62.529 659.336 65.1189 661.203C67.769 662.889 69.4554 665.599 69.8168 667.767C70.2384 669.935 69.5156 671.32 68.7929 671.32H68.8531Z" fill="#B9927A"/>
<path d="M73.551 690.231C73.551 691.797 62.3483 692.159 50.5434 692.46C38.4975 692.701 26.2107 692.941 23.5004 693.002C18.0195 692.881 -23.4183 695.471 -23.599 693.002C-23.9001 689.147 17.8388 687.461 23.3197 687.581C26.0903 687.461 38.618 687.039 50.5434 687.34C62.4086 687.581 73.6112 688.545 73.551 690.231Z" fill="#B9927A"/>
<path d="M81.3808 697.217C81.3808 700.349 36.5701 700.711 31.029 700.831C25.5481 700.951 -16.1908 702.036 -16.3113 699.386C-16.4317 695.772 25.4277 695.531 30.9086 695.411C36.3894 695.29 81.3205 693.905 81.3205 697.217H81.3808Z" fill="#B9927A"/>
<path d="M577.31 693.785C574.178 693.785 574.841 634.764 574.841 627.537C574.841 620.309 574.66 565.323 577.31 565.323C580.984 565.323 580.201 620.309 580.201 627.537C580.201 634.764 580.563 693.785 577.31 693.785Z" fill="#B9927A"/>
<path d="M557.193 520.154C556.772 519.733 561.409 515.336 570.564 514.011C579.418 512.506 593.15 515.396 601.522 525.936C605.557 531.055 608.147 537.499 608.208 544.064C608.448 550.628 605.557 556.892 601.944 560.927C594.535 569.359 585.682 571.226 582.911 571.828C580.141 572.37 571.709 573.936 562.132 569.479C552.556 565.143 544.545 553.158 545.449 540.691C545.75 534.488 548.641 528.646 552.556 524.731C556.471 520.756 561.168 518.408 565.324 517.384C573.937 515.336 579.358 518.528 578.996 518.889C578.695 519.913 573.515 518.227 566.288 520.756C562.795 522.021 558.88 524.31 555.808 527.803C552.736 531.296 550.628 535.933 550.508 540.992C550.026 551.231 556.832 561.228 564.481 564.601C572.311 568.274 579.478 567.07 581.827 566.588C584.176 566.106 591.644 564.42 597.788 557.434C600.799 554.001 602.968 549.424 602.847 544.184C602.847 539.005 600.799 533.524 597.487 529.188C590.801 520.275 578.996 517.083 570.926 517.685C562.614 518.046 557.675 521.178 557.193 520.275V520.154Z" fill="#B9927A"/>
<path d="M595.138 555.266C596.704 555.627 595.439 561.288 590.861 565.082C586.525 569.118 579.9 569.9 578.635 569.78C577.31 569.961 571.227 569.539 566.83 566.227C562.313 563.095 560.506 558.096 561.711 557.614C563.337 556.831 565.866 560.023 569.54 561.951C573.154 564.059 577.491 564.48 578.454 564.36C579.418 564.42 584.056 563.757 587.669 561.047C591.464 558.638 593.632 554.724 595.138 555.205V555.266Z" fill="#B9927A"/>
<path d="M568.877 701.915C567.372 701.554 567.552 697.76 567.01 693.905C566.589 689.991 565.384 686.016 565.023 685.173C564.722 684.329 563.216 680.716 561.168 677.644C559.241 674.513 556.832 671.863 557.615 670.779C558.699 669.333 562.373 671.2 565.203 674.573C568.094 677.825 569.721 682.221 570.082 683.245C570.504 684.209 572.19 688.907 572.13 693.544C572.13 698.181 570.443 702.277 568.877 701.915Z" fill="#B9927A"/>
<path d="M569.359 703.662C567.793 703.662 567.01 701.192 565.504 698.964C564.059 696.675 561.951 694.688 561.469 694.327C560.987 693.905 558.759 692.399 556.35 691.556C554.001 690.532 551.471 690.352 551.23 689.027C550.869 687.28 554.061 685.955 557.614 686.618C561.168 687.16 564.179 689.509 564.782 690.051C565.444 690.532 568.636 693.062 570.022 696.555C571.588 700.048 570.985 703.662 569.359 703.662Z" fill="#B9927A"/>
<path d="M593.934 689.087C593.632 690.653 590.44 690.713 587.248 691.677C584.056 692.52 580.924 694.206 580.322 694.628C579.659 695.049 576.949 696.916 574.961 699.325C572.793 701.614 571.347 704.264 570.083 703.903C568.336 703.481 568.697 699.627 570.926 696.314C573.034 692.881 576.648 690.593 577.431 690.111C578.214 689.569 582.068 687.16 586.284 686.678C590.5 686.076 594.355 687.521 593.994 689.087H593.934Z" fill="#B9927A"/>
<path d="M597.065 706.914C594.294 706.071 594.415 704.565 593.993 704.204C593.812 703.722 592.427 703.12 592.307 700.59C592.307 698.783 593.933 698.121 595.499 698.663C597.065 699.145 598.028 700.59 598.209 700.831C598.45 701.072 599.594 702.517 599.594 704.204C599.715 705.95 598.631 707.335 597.005 706.914H597.065Z" fill="#B9927A"/>
<path d="M605.497 692.098C603.931 691.797 603.81 688.906 602.786 686.136C601.883 683.305 600.197 680.595 599.775 680.053C599.353 679.511 597.486 677.162 595.137 675.536C592.909 673.79 590.379 672.766 590.56 671.441C590.741 669.634 594.415 669.393 597.787 671.2C601.221 672.826 603.63 676.078 604.112 676.801C604.654 677.463 607.183 680.956 607.786 684.871C608.508 688.846 607.123 692.46 605.557 692.098H605.497Z" fill="#B9927A"/>
<path d="M604.774 690.472C601.823 690.533 601.281 672.465 600.799 670.297C600.739 668.068 598.028 651.446 600.558 650.964C604.292 650.242 606.159 667.466 606.219 669.694C606.641 671.923 608.267 690.412 604.774 690.472Z" fill="#B9927A"/>
<path d="M622 672.224C621.819 673.79 619.289 674.271 617.001 675.717C614.652 677.042 612.724 679.21 612.363 679.752C611.941 680.234 610.436 682.522 609.773 684.992C608.93 687.401 609.05 689.93 607.786 690.352C606.099 691.014 604.292 687.762 604.834 684.088C605.135 680.354 607.545 677.222 608.087 676.56C608.569 675.898 611.158 672.585 614.832 671.2C618.506 669.694 622.241 670.658 622.06 672.284L622 672.224Z" fill="#B9927A"/>
<path d="M164.136 701.795C163.835 700.289 166.666 699.265 169.678 699.928C172.689 700.53 175.158 702.638 175.64 703.06C176.182 703.481 178.471 705.469 179.495 708.119C180.639 710.768 180.218 713.479 178.893 713.539C177.025 713.659 176.182 711.973 174.978 710.528C173.894 708.962 172.569 707.516 172.147 707.215C171.786 706.914 170.039 705.649 168.172 704.806C166.365 703.903 164.317 703.421 164.076 701.735L164.136 701.795Z" fill="#B9927A"/>
<path d="M192.204 697.338C192.324 698.904 190.276 699.807 188.409 701.193C186.482 702.517 184.856 704.324 184.494 704.746C184.133 705.167 182.868 707.095 182.025 709.142C181.121 711.13 180.76 713.298 179.375 713.479C177.568 713.78 176.484 710.889 177.146 707.817C177.628 704.686 179.736 702.096 180.158 701.494C180.579 700.891 182.748 698.061 185.819 696.736C188.831 695.29 192.083 695.652 192.143 697.278L192.204 697.338Z" fill="#B9927A"/>
<path d="M178.592 713.599C175.52 714.141 174.677 705.709 174.496 704.686C174.315 703.662 172.81 695.953 175.46 695.471C179.074 694.869 179.676 702.758 179.857 703.782C180.037 704.806 181.844 713.057 178.592 713.659V713.599Z" fill="#B9927A"/>
<path d="M242.615 728.233C241.049 727.932 240.748 726.005 239.845 724.198C239.002 722.392 237.676 720.705 237.315 720.404C237.014 720.043 235.448 718.718 233.762 717.875C232.135 716.911 230.268 716.55 230.027 715.225C229.666 713.478 232.497 712.274 235.448 713.117C238.399 713.779 240.688 716.068 241.11 716.55C241.591 716.971 244.001 719.441 244.663 722.572C245.446 725.704 244.181 728.595 242.615 728.233Z" fill="#B9927A"/>
<path d="M244.362 725.102C241.29 725.463 241.109 718.598 241.049 717.755C240.989 716.911 240.085 710.588 242.735 710.287C246.349 709.865 246.349 716.309 246.409 717.152C246.53 717.996 247.674 724.741 244.362 725.102Z" fill="#B9927A"/>
<path d="M109.629 715.165C108.063 715.044 107.581 713.539 107.099 712.093C106.497 709.985 106.256 709.082 106.135 708.841C106.015 708.6 105.714 707.938 104.81 705.89C104.268 704.565 103.726 703.18 104.63 702.216C105.834 700.891 107.701 701.554 108.966 703.059C110.291 704.505 110.954 706.492 111.134 706.914C111.315 707.335 112.158 709.383 112.098 711.491C112.098 713.599 111.195 715.406 109.568 715.225L109.629 715.165Z" fill="#B9927A"/>
<path d="M109.809 716.791C108.364 717.393 106.978 715.406 106.677 712.936C106.376 710.467 107.279 707.998 107.46 707.456C107.641 706.914 108.484 704.625 110.11 702.999C111.736 701.313 113.844 700.65 114.567 701.795C115.591 703.361 114.808 704.746 114.146 706.071C113.423 707.396 112.7 708.781 112.58 709.203C112.459 709.564 112.038 711.19 111.797 712.816C111.495 714.442 111.315 716.128 109.809 716.791Z" fill="#B9927A"/>
<path d="M419.87 223.724C421.135 224.627 408.848 243.417 394.694 262.629C380.661 281.902 364.82 301.535 361.387 305.811C357.954 310.147 343.138 328.576 328.562 345.44C314.047 362.363 299.893 377.721 298.869 376.877C297.484 375.673 310.614 359.412 324.647 342.187C338.801 324.842 353.618 306.654 357.111 302.438C360.544 298.162 376.143 278.408 390.599 259.558C405.114 240.767 418.485 222.76 419.87 223.724Z" fill="#B9927A"/>
<path d="M534.005 375.552C531.475 377.419 483.111 311.532 477.088 303.462C471.065 295.392 425.411 234.504 427.58 232.878C430.471 230.649 475.462 292.2 481.425 300.21C487.448 308.28 536.655 373.565 534.005 375.552Z" fill="#B9927A"/>
<path d="M435.109 220.411C433.844 221.254 430.23 217.038 427.339 211.919C424.388 206.8 422.34 200.958 421.918 199.693C421.436 198.429 419.449 192.948 418.545 187.528C417.522 182.108 417.522 176.988 418.847 176.808C420.653 176.567 421.979 181.385 423.484 186.384C424.87 191.382 426.556 196.682 426.978 197.887C427.399 199.091 429.567 204.572 431.856 209.631C434.085 214.75 436.434 219.508 435.048 220.471L435.109 220.411Z" fill="#B9927A"/>
<path d="M429.808 212.22C427.278 214.027 422.761 206.559 422.159 205.656C421.556 204.752 416.738 198.248 418.966 196.742C421.978 194.635 426.013 201.681 426.616 202.584C427.218 203.488 432.518 210.353 429.808 212.22Z" fill="#B9927A"/>
<path d="M407.824 222.398C406.499 221.555 408.668 216.918 410.595 211.859C412.582 206.86 414.269 201.38 414.57 200.175C414.931 198.971 416.136 193.731 416.919 188.732C417.822 183.734 418.304 178.916 419.629 178.916C421.436 178.855 422.34 183.914 421.978 189.335C421.737 194.755 420.171 200.296 419.81 201.56C419.509 202.825 417.943 208.787 415.293 213.907C412.703 219.086 409.21 223.302 407.824 222.398Z" fill="#B9927A"/>
<path d="M412.402 168.135C411.98 168.135 411.86 166.088 414.149 163.98C415.233 163.016 417.04 161.992 419.388 162.233C421.798 162.414 424.207 164.16 425.231 166.871C425.773 168.195 425.893 169.882 425.291 171.508C424.689 173.194 423.183 174.519 421.617 175.121C419.991 175.724 418.184 175.844 416.317 175.121C414.45 174.459 412.823 172.291 412.823 170.062C412.823 167.894 413.667 166.088 415.233 164.763C416.738 163.317 419.87 162.715 421.858 164.16C422.882 164.823 423.665 165.907 424.026 166.991C424.387 168.015 424.508 169.039 424.327 170.062C424.207 172.17 422.279 174.76 419.87 174.941C418.124 175.121 417.16 174.76 416.136 174.459C415.052 174.037 414.088 173.435 413.185 172.532C412.342 171.689 411.378 169.942 411.86 167.955C412.342 166.088 413.847 165.004 414.992 164.582C417.702 163.618 420.232 164.763 421.677 166.208C423.183 167.653 424.086 170.123 423.364 172.351C421.677 176.627 417.762 177.41 414.931 176.507C411.86 175.302 411.197 172.712 411.017 171.628C410.896 170.364 410.655 167.834 413.245 165.485C414.51 164.401 416.859 163.859 418.666 164.582C420.473 165.184 421.978 166.449 422.882 168.376C423.906 170.183 423.665 173.616 421.376 175.302C420.232 176.206 419.087 176.567 417.642 176.567C416.196 176.567 414.751 176.145 413.546 175.423C411.137 173.977 410.113 171.267 410.776 168.858C411.438 166.389 413.787 164.642 416.317 164.221C418.846 163.739 421.677 164.763 423.002 167.051C424.327 169.219 424.147 172.532 422.099 174.519C421.075 175.663 419.629 175.663 418.124 176.085C417.341 176.266 416.317 176.085 415.112 175.603C413.908 175.061 412.462 173.917 411.8 172.17C411.258 170.364 411.8 168.557 412.763 167.413C413.245 166.81 413.847 166.389 414.389 166.027C414.931 166.871 413.245 163.98 415.654 167.955H415.714L415.835 167.834L416.076 167.653C416.076 167.653 416.437 167.473 416.618 167.413C418.184 166.871 419.81 167.473 420.834 168.376C422.039 169.34 422.099 170.544 422.641 171.869C421.978 172.953 421.376 174.519 420.111 174.941C418.003 175.844 415.654 175.362 414.389 173.435C413.305 171.448 414.088 169.581 414.992 168.617C415.895 167.533 417.28 167.051 418.365 167.172C418.907 168.376 418.666 168.075 418.003 168.075C417.22 168.316 417.22 168.195 417.341 168.075C417.582 167.714 418.063 167.894 418.063 168.075C418.063 168.316 417.702 168.557 417.762 169.219C417.762 169.52 417.943 169.882 418.244 169.882C418.485 169.882 418.666 169.52 418.365 169.4C417.461 169.46 416.678 171.327 417.28 171.568C417.28 171.568 418.063 171.689 418.244 171.448C418.244 171.327 418.304 171.448 418.425 171.568H418.605V171.628C418.425 171.628 419.087 171.689 418.184 171.568C418.184 171.448 418.184 171.448 418.184 171.448C418.184 171.267 418.003 171.147 417.883 171.086C417.642 170.906 417.28 171.147 417.401 171.387C417.461 171.568 417.702 171.628 417.762 171.508C417.883 171.267 417.582 171.147 417.521 171.267C417.461 171.327 417.521 171.387 417.521 171.387C417.521 171.387 417.823 171.327 417.823 171.267C417.823 171.207 417.943 171.267 417.823 170.845C417.642 170.424 417.1 170.002 416.859 169.942C416.558 169.822 416.678 169.942 416.558 169.942C416.317 170.063 416.196 170.785 416.257 171.026C416.257 171.327 416.437 171.568 416.618 171.568C416.799 171.809 418.063 171.267 418.003 170.966C418.003 170.966 418.003 170.665 417.702 170.243C417.341 169.882 416.919 169.822 416.859 169.882C417.1 170.243 416.016 168.918 416.196 169.28C416.076 169.28 416.196 169.28 416.618 169.159C417.22 168.918 417.04 168.918 417.1 169.039C417.22 169.219 417.642 169.46 417.943 169.581C418.365 169.761 418.907 169.822 418.786 169.822C418.846 169.761 418.846 170.002 418.967 169.52C418.967 168.918 418.846 168.677 418.846 168.677C418.726 168.677 418.786 168.497 418.365 168.738C418.003 168.978 417.642 169.701 417.642 170.062C417.401 170.544 418.485 171.387 419.87 170.966C421.075 170.605 421.557 169.641 421.256 168.256C420.533 165.305 417.28 165.004 415.413 166.088C413.486 167.051 412.763 168.436 412.281 168.196L412.402 168.135Z" fill="#B9927A"/>
<path d="M417.883 153.681C414.751 153.982 414.871 148.381 414.811 147.658C414.751 146.996 414.088 141.817 416.738 141.576C420.352 141.274 420.111 146.454 420.171 147.177C420.232 147.839 421.135 153.38 417.823 153.681H417.883Z" fill="#B9927A"/>
<path d="M399.633 170.484C399.271 173.556 394.333 172.351 393.67 172.291C393.068 172.231 388.37 171.809 388.671 169.159C389.093 165.546 393.67 166.81 394.333 166.871C394.995 166.931 400.054 167.172 399.633 170.424V170.484Z" fill="#B9927A"/>
<path d="M447.877 169.28C447.094 172.17 444.625 171.387 444.203 171.568C443.782 171.508 441.553 172.411 440.288 170.183C438.482 166.81 442.999 166.088 443.541 166.208C444.023 165.907 448.841 165.907 447.877 169.28Z" fill="#B9927A"/>
<path d="M85.2958 684.39C83.4287 686.859 75.7193 680.355 74.7556 679.572C73.792 678.849 66.1428 673.308 67.769 671.2C69.9373 668.309 77.0443 674.513 78.008 675.235C78.9717 675.958 87.2833 681.74 85.356 684.329L85.2958 684.39Z" fill="#B9927A"/>
<path d="M94.5717 679.33C92.5842 681.739 80.719 671.381 79.2133 670.176C77.7075 668.972 66.2037 659.878 67.8299 657.83C70.1186 654.999 81.0804 664.756 82.5861 665.96C84.0918 667.165 96.6195 676.741 94.5115 679.33H94.5717Z" fill="#B9927A"/>
<path d="M107.822 688.063C105.473 690.171 87.8256 669.574 85.5971 667.105C83.3686 664.636 66.3237 645.966 68.3113 644.159C71.0216 641.75 87.404 661.022 89.6325 663.491C91.8609 665.96 110.291 685.895 107.822 688.063Z" fill="#B9927A"/>
<path d="M271.767 246.609C273.092 247.392 269.297 254.92 264.72 262.449C260.142 270.037 254.661 277.686 253.457 279.372C251.349 282.865 232.738 307.919 230.509 306.112C227.859 303.944 246.892 279.794 249 276.24C250.144 274.614 255.143 267.267 260.383 259.678C265.442 252.451 270.321 245.766 271.767 246.609Z" fill="#B9927A"/>
<path d="M315.914 235.769C318.504 237.455 269.297 310.93 263.033 319.904C259.961 324.421 246.892 343.753 233.641 361.339C220.451 378.985 206.899 394.584 205.875 393.74C204.43 392.596 216.897 376.215 229.546 358.328C242.254 340.501 255.504 321.349 258.516 316.892C264.719 308.039 313.084 233.962 315.854 235.829L315.914 235.769Z" fill="#B9927A"/>
<path d="M301.64 662.829C303.688 665.178 282.668 681.499 280.138 683.546C277.608 685.594 258.455 701.373 256.889 699.205C254.721 696.254 274.236 681.378 276.705 679.331C279.235 677.283 299.411 660.359 301.64 662.829Z" fill="#B9927A"/>
<path d="M298.448 674.874C300.496 677.222 283.752 690.713 281.764 692.399C279.777 694.086 264.659 707.215 262.973 705.167C260.624 702.397 276.284 689.99 278.271 688.244C280.259 686.557 296.34 672.284 298.448 674.813V674.874Z" fill="#B9927A"/>
<path d="M300.556 681.378C302.664 683.667 290.196 694.327 288.69 695.712C287.185 697.097 276.042 707.576 274.235 705.589C271.766 702.879 283.511 693.062 285.016 691.737C286.522 690.352 298.327 678.969 300.556 681.378Z" fill="#B9927A"/>
<path d="M296.4 692.52C297.725 695.11 291.401 698.723 290.859 699.506C290.016 699.988 285.619 705.227 283.571 703.782C280.439 701.554 286.342 695.953 287.245 695.471C287.847 694.568 294.774 689.388 296.4 692.52Z" fill="#B9927A"/>
<path d="M109.93 161.571C111.194 164.401 103.907 166.931 103.063 167.352C102.22 167.714 95.7155 170.785 94.6314 168.316C93.1859 165.004 99.9918 162.775 100.895 162.414C101.738 162.052 108.605 158.559 109.99 161.631L109.93 161.571Z" fill="#B9927A"/>
<path d="M112.038 152.838C112.58 155.729 107.702 156.873 107.16 157.415C106.497 157.596 103.004 160.788 101.077 159.222C98.1254 156.692 103.546 152.958 104.389 152.778C104.751 152.537 106.377 151.513 108.124 151.212C109.93 150.85 111.677 151.212 111.978 152.838H112.038Z" fill="#B9927A"/>
<path d="M116.434 143.985C117.217 146.996 113.001 147.417 112.519 147.538C112.038 147.658 108.303 148.742 107.641 146.153C106.737 142.599 110.713 142.419 111.194 142.238C111.676 142.118 115.651 140.732 116.434 143.924V143.985Z" fill="#B9927A"/>
<path d="M118.783 135.252C120.53 137.842 117.097 139.347 116.735 139.588C116.374 139.829 113.604 141.817 112.158 139.588C110.17 136.517 113.363 135.312 113.784 135.071C114.206 134.831 116.976 132.482 118.783 135.252Z" fill="#B9927A"/>
</g>
<defs>
<clipPath id="clip0_252_10210">
<rect width="751" height="758" fill="white" transform="translate(-129 -29.7061)"/>
</clipPath>
</defs>
</svg>
