<svg width="539" height="706" viewBox="0 0 539 706" fill="none" xmlns="http://www.w3.org/2000/svg">
<g opacity="0.07" clip-path="url(#clip0_306_10592)">
<path d="M346.5 370.242C349.752 368.074 336.321 345.188 320.3 322.061C304.399 298.814 285.909 275.507 281.934 270.388C277.959 265.208 260.854 243.166 243.387 223.412C226.041 203.598 208.514 186.192 205.985 188.421C202.552 191.492 217.489 211.005 233.63 231.542C250.012 252.019 267.178 273.64 271.213 278.699C275.128 283.818 292.896 307.246 309.88 329.59C326.865 351.753 343.007 372.651 346.44 370.362L346.5 370.242Z" fill="#B9927A"/>
<path d="M69.2033 361.148C72.4557 363.316 87.0312 344.526 102.089 324.35C117.025 303.934 132.685 282.493 136.118 277.796C139.611 273.158 154.428 253.163 168.642 234.132C182.555 215.101 195.324 196.913 192.734 194.805C189.24 191.914 173.761 207.994 158.644 226.303C143.526 244.551 128.77 264.968 125.277 269.665C121.784 274.363 105.642 295.743 91.6688 316.882C77.6354 338.021 65.7702 358.799 69.2033 361.088V361.148Z" fill="#B9927A"/>
<path d="M207.129 189.144C205.864 192.817 224.475 200.888 244.833 207.753C265.19 214.679 287.234 220.16 292.053 221.425C296.871 222.689 317.469 228.17 337.225 231.844C356.98 235.578 375.771 237.565 376.374 234.313C377.217 229.796 359.269 224.556 340.055 219.437C320.601 214.559 300.304 209.5 295.546 208.295C290.788 207.031 269.346 201.129 248.627 195.467C228.089 190.047 208.515 185.169 207.189 189.083L207.129 189.144Z" fill="#B9927A"/>
<path d="M375.952 231C386.492 246.177 397.032 261.294 407.572 276.471C411.848 282.614 401.79 288.395 397.574 282.313C387.034 267.136 376.494 252.019 365.954 236.842C361.677 230.699 371.736 224.918 375.952 231Z" fill="#B9927A"/>
<path d="M437.747 374.036C416.908 346.453 396.068 318.93 375.229 291.346C370.712 285.384 380.77 279.602 385.227 285.504C406.066 313.088 426.906 340.611 447.745 368.194C452.262 374.157 442.204 379.938 437.747 374.036Z" fill="#B9927A"/>
<path d="M438.229 377.228C400.526 373.012 362.701 370.603 324.998 366.568C317.65 365.785 317.59 354.162 324.998 355.005C362.701 359.04 400.526 361.449 438.229 365.665C445.577 366.508 445.637 378.071 438.229 377.228Z" fill="#B9927A"/>
<path d="M330.78 360.787C328.793 467.627 328.19 574.528 326.925 681.368C326.865 688.836 315.241 688.836 315.361 681.368C316.626 574.528 317.228 467.627 319.216 360.787C319.337 353.319 330.961 353.319 330.78 360.787Z" fill="#B9927A"/>
<path d="M444.975 367.532C442.987 465.339 442.325 563.145 441.12 660.951C441 669.624 427.508 669.684 427.629 660.951C428.833 563.145 429.496 465.339 431.483 367.532C431.664 358.86 445.155 358.799 444.975 367.532Z" fill="#B9927A"/>
<path d="M515.141 147.708C514.238 319.291 512.612 490.814 511.467 662.397C511.467 669.865 499.843 669.865 499.903 662.397C501.048 490.814 502.674 319.291 503.577 147.708C503.577 140.24 515.202 140.24 515.141 147.708Z" fill="#B9927A"/>
<path d="M403.476 151.382C403.296 190.77 403.476 230.097 403.476 269.484C403.476 276.952 391.912 276.952 391.912 269.484C391.912 230.097 391.732 190.77 391.912 151.382C391.912 143.914 403.537 143.914 403.476 151.382Z" fill="#B9927A"/>
<path d="M89.6816 356.932C87.8747 465.098 88.2964 573.203 90.043 681.368C90.1635 688.836 78.5994 688.836 78.4789 681.368C76.7925 573.203 76.3107 465.098 78.1176 356.932C78.238 349.464 89.8623 349.464 89.6816 356.932Z" fill="#B9927A"/>
<path d="M507.673 152.526C492.255 115.307 479.546 76.8828 460.153 41.4099C456.599 34.8453 466.597 29.0034 470.151 35.568C489.966 71.9443 503.036 111.272 518.816 149.455C521.647 156.32 510.444 159.332 507.613 152.526H507.673Z" fill="#B9927A"/>
<path d="M466.657 40.9282C444.372 80.2555 422.087 119.583 399.803 158.91C396.129 165.415 386.13 159.573 389.804 153.068C412.089 113.741 434.374 74.4137 456.659 35.0863C460.333 28.5819 470.331 34.4238 466.657 40.9282Z" fill="#B9927A"/>
<path d="M467.079 35.0864C503.337 80.7976 538.752 127.111 573.384 174.087C577.841 180.11 567.782 185.891 563.386 179.929C529.356 133.796 494.543 88.2054 458.888 43.2771C454.31 37.4954 462.441 29.2445 467.079 35.0864Z" fill="#B9927A"/>
<path d="M509.36 156.802C471.536 158.428 433.712 158.85 395.827 159.452C388.359 159.573 388.359 148.009 395.827 147.889C433.651 147.287 471.536 146.865 509.36 145.239C516.828 144.938 516.828 156.501 509.36 156.802Z" fill="#B9927A"/>
<path d="M566.397 183.422C546.702 172.581 526.104 163.548 506.409 152.707C499.844 149.093 505.686 139.096 512.251 142.709C531.946 153.55 552.545 162.584 572.24 173.425C578.805 177.038 572.962 187.035 566.397 183.422Z" fill="#B9927A"/>
<path d="M552.845 668.901C537.125 668.961 521.345 669.082 505.625 669.142C498.157 669.142 498.157 657.579 505.625 657.579C521.345 657.518 537.125 657.398 552.845 657.338C560.313 657.338 560.313 668.901 552.845 668.901Z" fill="#B9927A"/>
<path d="M506.709 669.262C482.919 668.48 459.128 667.576 435.277 667.155C427.809 667.034 427.809 655.411 435.277 655.591C459.068 656.013 482.858 656.916 506.709 657.699C514.118 657.94 514.178 669.564 506.709 669.262Z" fill="#B9927A"/>
<path d="M323.071 688.234C243.447 688.234 163.824 688.414 84.2009 687.149C76.7324 687.029 76.7324 675.466 84.2009 675.586C163.824 676.851 243.447 676.61 323.071 676.67C330.539 676.67 330.539 688.234 323.071 688.234Z" fill="#B9927A"/>
<path d="M435.82 667.395C398.718 674.381 361.978 682.331 324.636 687.992C317.349 689.077 314.217 677.935 321.565 676.791C358.907 671.129 395.707 663.179 432.748 656.193C440.036 654.808 443.168 666.01 435.82 667.395Z" fill="#B9927A"/>
<path d="M508.938 268.521C507.914 271.472 530.319 278.458 533.03 279.422C535.74 280.385 556.338 287.552 557.242 285.083C558.447 281.65 537.547 275.266 534.776 274.302C532.006 273.339 510.022 265.389 508.938 268.521Z" fill="#B9927A"/>
<path d="M394.743 268.22C394.743 271.351 447.685 270.749 454.19 270.749C460.695 270.749 510.022 270.99 510.022 268.28C510.022 264.606 460.695 265.329 454.19 265.329C447.685 265.329 394.743 264.907 394.743 268.159V268.22Z" fill="#B9927A"/>
<path d="M519.478 210.222C518.213 213.053 530.199 217.751 531.644 218.413C533.09 219.076 543.931 224.135 545.015 221.726C546.521 218.413 535.258 214.137 533.812 213.535C532.367 212.872 520.803 207.271 519.418 210.283L519.478 210.222Z" fill="#B9927A"/>
<path d="M516.708 221.967C515.142 224.857 528.573 230.759 530.32 231.302C531.886 232.145 544.654 237.083 545.497 234.433C546.582 231.061 533.994 227.146 532.428 226.303C530.741 225.761 518.213 219.196 516.708 221.967Z" fill="#B9927A"/>
<path d="M178.7 209.138C179.845 210.162 184.543 205.826 189.18 200.948C193.878 196.009 198.335 190.529 199.359 190.047C199.6 189.866 200.082 189.505 200.744 189.083C201.286 188.782 200.925 188.963 201.106 188.902C202.913 190.468 205.081 192.456 207.37 194.503C211.947 198.659 216.103 202.815 217.127 201.971C218.572 200.827 215.32 195.708 210.923 190.95C209.839 189.746 208.695 188.601 207.55 187.517C206.948 186.975 206.406 186.433 205.864 185.951C205.201 185.349 204.539 184.747 203.876 184.205C201.829 182.338 198.938 183.723 197.914 184.386C196.95 184.988 196.287 185.47 195.926 185.771C194.179 186.855 189.421 192.335 185.205 197.515C180.989 202.754 177.315 207.994 178.52 209.078L178.7 209.138Z" fill="#B9927A"/>
<path d="M174.364 218.353C176.773 219.979 187.434 204.561 189.06 202.875C190.385 200.948 202.07 187.999 200.263 186.253C197.492 183.603 186.169 197.515 184.844 199.442C183.218 201.128 171.473 216.365 174.304 218.293L174.364 218.353Z" fill="#B9927A"/>
<path d="M178.279 214.92C180.688 216.908 190.325 203.417 191.59 201.851C192.855 200.225 202.371 188.18 200.203 186.614C197.251 184.506 188.518 196.973 187.253 198.539C186.049 200.105 175.689 212.812 178.279 214.92Z" fill="#B9927A"/>
<path d="M174.123 216.968C175.508 217.63 178.098 213.956 181.11 210.283C184.482 206.247 187.494 202.634 188.217 201.791C189.722 200.104 201.527 187.397 199.54 185.59C196.83 183.121 185.687 196.431 184.181 198.177C183.398 199.02 179.785 202.935 177.014 207.211C174.183 211.487 172.617 216.185 174.123 216.907V216.968Z" fill="#B9927A"/>
<path d="M232.545 222.448C234.894 220.34 220.258 204.019 218.512 201.971C216.765 199.924 203.695 184.205 201.648 185.891C198.817 188.18 212.67 203.417 214.416 205.465C216.163 207.512 230.136 224.616 232.605 222.448H232.545Z" fill="#B9927A"/>
<path d="M228.269 195.166C229.354 192.215 216.224 188.059 214.658 187.457C213.092 186.855 201.106 182.278 200.203 184.747C198.938 188.18 211.225 191.914 212.791 192.516C214.357 193.118 227.125 198.237 228.269 195.166Z" fill="#B9927A"/>
<path d="M411.668 454.558C414.8 454.558 414.8 431.913 414.86 429.082C414.981 427.697 414.86 421.554 417.029 417.7C418.113 415.833 419.92 414.387 421.365 413.785C422.811 413.123 424.075 413.123 424.316 412.52C424.678 411.737 423.413 410.352 420.763 410.352C418.173 410.352 414.921 411.978 412.813 414.869C410.765 417.76 410.102 421.133 409.801 423.662C409.5 426.192 409.5 428.059 409.5 428.781C409.44 431.612 408.416 454.558 411.668 454.498V454.558Z" fill="#B9927A"/>
<path d="M411.307 487.863C414.439 487.863 414.378 448.897 414.439 444.139C414.619 441.85 414.439 431.25 414.8 422.036C415.041 419.808 415.523 417.88 416.426 416.375C417.209 414.99 418.655 413.966 419.919 413.484C422.509 412.4 424.256 413.544 424.738 413.062C425.039 412.761 424.919 411.978 423.955 411.195C422.991 410.412 421.184 409.75 419.016 410.111C416.908 410.412 414.499 411.557 412.692 413.845C411.006 416.013 410.102 418.784 409.68 421.373C408.596 431.491 409.138 441.489 408.958 444.018C408.897 448.836 407.934 487.983 411.186 487.923L411.307 487.863Z" fill="#B9927A"/>
<path d="M417.751 434.864C418.715 433.66 417.51 431.612 417.39 428.54C417.149 425.469 417.269 421.976 417.39 421.374C417.51 420.651 418.052 417.82 419.558 415.833C420.281 414.809 421.184 414.026 421.907 413.364C422.69 412.701 422.931 412.4 423.232 411.798C423.353 411.376 423.232 410.834 422.81 410.473C422.329 410.111 421.546 409.991 420.823 409.991C419.317 409.991 417.33 410.894 415.824 412.34C412.692 415.291 412.15 419.687 412.029 420.47C411.849 421.434 411.367 425.409 412.27 429.263C412.692 431.19 413.656 433.118 414.8 434.141C415.944 435.226 417.089 435.406 417.631 434.804L417.751 434.864Z" fill="#B9927A"/>
<path d="M416.125 448.174C417.511 447.391 416.848 444.982 416.306 442.513C415.704 440.044 415.222 437.394 415.162 436.792C415.101 436.189 414.86 433.72 414.8 431.311C414.68 428.902 414.62 426.553 413.295 426.192C411.548 425.71 410.163 428.119 409.741 430.95C409.199 433.78 409.741 436.792 409.741 437.454C409.801 438.117 410.163 441.369 411.427 444.139C412.632 446.909 414.68 449.017 416.065 448.234L416.125 448.174Z" fill="#B9927A"/>
<path d="M378.181 483.827C381.313 483.827 381.252 444.861 381.313 440.104C381.493 437.815 381.313 427.215 381.674 418.001C381.915 415.773 382.397 413.845 383.3 412.34C384.083 410.954 385.529 409.931 386.793 409.449C389.383 408.365 391.13 409.509 391.612 409.027C391.913 408.726 391.793 407.943 390.829 407.16C389.865 406.377 388.058 405.715 385.89 406.076C383.782 406.377 381.373 407.522 379.566 409.81C377.88 411.978 376.976 414.749 376.555 417.338C375.47 427.456 376.012 437.454 375.832 439.983C375.772 444.801 374.808 483.948 378.06 483.888L378.181 483.827Z" fill="#B9927A"/>
<path d="M384.625 430.829C385.589 429.624 384.384 427.577 384.264 424.505C384.023 421.434 384.143 417.941 384.264 417.338C384.384 416.616 384.926 413.785 386.432 411.798C387.155 410.774 388.058 409.991 388.781 409.328C389.564 408.666 389.805 408.365 390.106 407.763C390.227 407.341 390.106 406.799 389.684 406.438C389.203 406.076 388.42 405.956 387.697 405.956C386.191 405.956 384.204 406.859 382.698 408.305C379.566 411.256 379.024 415.652 378.903 416.435C378.723 417.399 378.241 421.374 379.144 425.228C379.566 427.155 380.53 429.082 381.674 430.106C382.818 431.19 383.963 431.371 384.505 430.769L384.625 430.829Z" fill="#B9927A"/>
<path d="M382.999 444.139C384.385 443.356 383.722 440.947 383.18 438.478C382.578 436.009 382.096 433.359 382.036 432.756C381.975 432.154 381.735 429.685 381.674 427.276C381.554 424.867 381.494 422.518 380.169 422.157C378.422 421.675 377.037 424.084 376.615 426.914C376.073 429.745 376.615 432.756 376.615 433.419C376.675 434.081 377.037 437.334 378.301 440.104C379.506 442.874 381.554 444.982 382.939 444.199L382.999 444.139Z" fill="#B9927A"/>
<path d="M344.753 480.455C347.885 480.455 347.825 441.489 347.885 436.731C348.066 434.443 347.885 423.843 348.246 414.628C348.487 412.4 348.969 410.473 349.872 408.967C350.655 407.582 352.101 406.558 353.366 406.076C356.016 404.992 357.702 406.136 358.184 405.655C358.485 405.354 358.365 404.571 357.401 403.788C356.437 403.005 354.631 402.342 352.462 402.704C350.354 403.005 347.945 404.149 346.138 406.438C344.452 408.606 343.548 411.376 343.127 413.966C342.043 424.084 342.585 434.081 342.404 436.611C342.344 441.429 341.38 480.575 344.633 480.515L344.753 480.455Z" fill="#B9927A"/>
<path d="M351.258 427.456C352.222 426.252 351.017 424.204 350.897 421.133C350.656 418.061 350.776 414.568 350.897 413.966C351.017 413.243 351.559 410.413 353.065 408.425C353.788 407.401 354.691 406.618 355.414 405.956C356.197 405.293 356.438 404.992 356.739 404.39C356.859 403.968 356.739 403.426 356.317 403.065C355.835 402.704 355.052 402.583 354.33 402.583C352.824 402.583 350.836 403.487 349.331 404.932C346.199 407.883 345.657 412.28 345.536 413.063C345.356 414.026 344.874 418.001 345.777 421.855C346.199 423.783 347.162 425.71 348.307 426.734C349.451 427.818 350.596 427.998 351.138 427.396L351.258 427.456Z" fill="#B9927A"/>
<path d="M349.631 440.766C351.016 439.983 350.354 437.574 349.812 435.105C349.21 432.636 348.728 429.986 348.667 429.383C348.607 428.781 348.366 426.312 348.306 423.903C348.186 421.494 348.125 419.145 346.8 418.784C345.054 418.302 343.668 420.711 343.247 423.541C342.705 426.372 343.247 429.383 343.247 430.046C343.307 430.708 343.668 433.961 344.933 436.731C346.138 439.501 348.186 441.609 349.571 440.826L349.631 440.766Z" fill="#B9927A"/>
<path d="M161.354 488.646C162.92 488.646 163.884 458.292 164.486 426.011C164.607 417.941 164.727 409.87 166.233 402.523C167.618 395.115 170.63 388.611 174.786 383.973C178.881 379.276 183.76 376.686 187.916 375.963C192.072 375.12 195.264 375.783 196.83 376.084C199.962 376.686 209.177 379.999 216.103 389.996C219.536 394.814 221.945 401.138 223.21 408.124C224.535 415.11 224.776 422.638 224.776 430.106C224.415 445.102 224.776 459.978 225.439 470.759C226.041 481.599 226.342 488.646 227.005 488.646C227.908 488.646 228.751 481.599 228.932 470.698C229.052 459.737 229.173 445.404 229.835 430.227C230.317 415.17 228.751 398.307 220.56 386.924C212.79 375.542 201.889 371.567 197.974 370.844C195.986 370.483 192.011 369.579 186.771 370.664C181.531 371.567 175.328 374.879 170.57 380.42C165.751 385.901 162.318 393.489 160.873 401.559C159.307 409.63 159.307 418.001 159.307 426.071C159.307 458.352 159.608 488.766 161.294 488.766L161.354 488.646Z" fill="#B9927A"/>
<path d="M161.174 488.826C161.174 491.958 191.529 491.295 195.264 491.295C198.998 491.295 227.306 491.476 227.306 488.826C227.306 485.152 198.998 485.935 195.264 485.935C191.529 485.935 161.174 485.574 161.174 488.826Z" fill="#B9927A"/>
<path d="M171.413 487.863C172.979 487.863 173.642 471.903 173.943 454.98C174.003 446.428 174.063 437.815 174.123 430.709C174.123 423.602 174.605 418.242 174.726 416.375C174.906 414.508 175.328 409.389 176.954 403.246C178.641 397.223 181.893 389.876 187.795 385.66C193.577 381.203 200.986 379.577 206.105 380.541C211.285 381.384 213.935 384.094 214.477 383.492C215.14 383.07 213.032 379.095 206.888 377.108C200.865 375.12 191.891 376.506 184.844 381.565C177.376 386.503 173.521 395.176 171.714 401.74C169.847 408.546 169.546 413.846 169.305 415.833C169.124 417.82 168.642 423.421 168.582 430.468C168.582 437.514 168.703 446.187 168.763 454.799C169.004 471.783 169.727 487.803 171.353 487.803L171.413 487.863Z" fill="#B9927A"/>
<path d="M184.905 374.819C183.459 377.59 188.037 379.276 188.518 379.517C189.06 379.818 192.915 382.046 194.18 379.637C195.866 376.385 191.53 375 191.048 374.699C190.506 374.398 186.41 371.868 184.905 374.759V374.819Z" fill="#B9927A"/>
<path d="M180.267 377.891C178.881 380.661 182.073 382.107 182.435 382.347C182.796 382.588 185.446 384.516 187.193 382.468C189.542 379.698 185.868 378.071 185.446 377.831C185.025 377.529 181.772 374.94 180.267 377.891Z" fill="#B9927A"/>
<path d="M172.798 381.624C171.292 384.335 175.327 386.503 175.809 386.804C176.291 387.165 179.664 389.755 181.471 387.707C183.88 384.937 179.483 382.709 179.001 382.407C178.52 382.046 174.484 378.734 172.858 381.624H172.798Z" fill="#B9927A"/>
<path d="M169.968 387.707C168.101 390.237 172.799 392.345 173.341 392.706C173.883 393.007 177.798 395.597 179.002 393.248C180.628 389.996 176.653 388.43 176.171 388.069C175.69 387.768 171.955 385.057 170.028 387.707H169.968Z" fill="#B9927A"/>
<path d="M165.871 392.285C164.245 394.935 169.545 397.163 170.148 397.524C170.75 397.886 175.388 400.596 176.532 398.187C178.098 394.874 173.34 393.128 172.738 392.767C172.135 392.465 167.558 389.514 165.811 392.285H165.871Z" fill="#B9927A"/>
<path d="M165.932 403.306C164.667 406.257 169.004 407.1 169.486 407.1C169.967 407.281 173.943 408.124 174.183 405.414C174.485 401.86 171.232 402.041 170.811 401.86C170.329 401.86 167.197 400.355 165.932 403.306Z" fill="#B9927A"/>
<path d="M163.041 409.027C162.318 412.038 166.595 412.46 167.076 412.58C167.558 412.701 171.413 413.845 172.015 411.256C172.919 407.702 168.883 407.461 168.341 407.341C167.799 407.22 163.764 405.835 162.981 409.027H163.041Z" fill="#B9927A"/>
<path d="M173.642 404.571C175.87 402.342 171.835 399.693 171.413 399.331C170.992 398.97 167.739 395.898 166.113 398.066C163.945 401.018 167.438 403.065 167.86 403.427C168.281 403.788 171.293 406.92 173.642 404.571Z" fill="#B9927A"/>
<path d="M165.691 414.749C167.257 414.869 168.04 412.159 168.823 409.389C169.727 406.016 170.329 403.667 170.51 403.065C170.69 402.523 171.353 400.536 172.497 397.223C173.34 394.633 174.063 392.164 172.919 391.442C171.353 390.478 169.305 392.526 167.86 395.115C166.354 397.705 165.511 400.716 165.33 401.439C165.089 402.101 164.005 405.293 163.824 408.485C163.523 411.677 164.125 414.628 165.752 414.749H165.691Z" fill="#B9927A"/>
<path d="M163.824 414.568C162.921 417.519 166.294 417.941 166.715 418.061C167.137 418.182 170.028 419.266 170.811 416.736C171.895 413.243 168.703 413.063 168.281 412.942C167.86 412.822 164.788 411.497 163.824 414.628V414.568Z" fill="#B9927A"/>
<path d="M162.197 422.879C162.137 425.951 165.389 425.65 165.811 425.77C166.233 425.77 169.124 426.734 170.027 424.325C171.292 420.832 167.317 420.47 166.835 420.47C166.353 420.29 162.258 419.507 162.197 422.879Z" fill="#B9927A"/>
<path d="M162.62 427.155C161.535 430.046 165.089 430.769 165.511 430.889C165.932 431.07 169.004 432.395 169.907 429.866C171.172 426.433 167.799 425.951 167.378 425.83C166.956 425.65 163.764 424.024 162.559 427.155H162.62Z" fill="#B9927A"/>
<path d="M162.197 435.165C161.595 438.237 165.51 438.357 165.932 438.478C166.413 438.598 169.907 439.441 170.389 436.791C171.111 433.238 167.437 433.238 166.956 433.118C166.474 432.997 162.8 431.913 162.137 435.105L162.197 435.165Z" fill="#B9927A"/>
<path d="M162.679 442.934C162.8 445.946 166.172 445.644 166.654 445.825C167.136 445.825 170.087 447.03 171.232 444.681C172.858 441.308 168.341 440.525 167.799 440.525C167.317 440.284 162.559 439.501 162.679 442.934Z" fill="#B9927A"/>
<path d="M162.198 449.559C161.716 452.631 165.209 452.571 165.631 452.631C166.052 452.691 169.184 453.354 169.606 450.764C170.208 447.15 166.895 447.391 166.474 447.331C166.052 447.271 162.679 446.367 162.198 449.62V449.559Z" fill="#B9927A"/>
<path d="M162.258 459.497C162.8 462.448 165.992 461.725 166.474 461.845C166.956 461.845 169.907 462.628 170.811 460.219C172.076 456.666 167.558 456.365 167.016 456.485C166.474 456.244 161.716 456.124 162.318 459.497H162.258Z" fill="#B9927A"/>
<path d="M161.836 467.567C162.379 470.518 165.571 469.735 166.053 469.916C166.534 469.916 169.486 470.698 170.329 468.229C171.594 464.676 167.016 464.435 166.474 464.495C165.932 464.315 161.174 464.194 161.776 467.567H161.836Z" fill="#B9927A"/>
<path d="M165.812 471.12C168.763 471.12 168.462 444.561 168.763 441.309C168.763 438.056 170.45 413.364 167.86 413.183C164.125 412.882 163.282 437.876 163.342 441.128C163.041 444.38 162.379 471.18 165.812 471.18V471.12Z" fill="#B9927A"/>
<path d="M161.836 474.191C162.077 477.203 165.33 476.781 165.812 477.022C166.293 477.022 169.124 478.226 170.329 475.938C172.075 472.565 167.498 471.662 166.896 471.722C166.414 471.421 161.535 470.758 161.776 474.191H161.836Z" fill="#B9927A"/>
<path d="M161.415 480.033C161.415 483.165 165.571 482.503 166.113 482.503C166.655 482.503 170.51 482.683 170.51 480.033C170.51 476.359 166.655 477.142 166.113 477.142C165.571 477.142 161.415 476.781 161.415 480.033Z" fill="#B9927A"/>
<path d="M162.197 484.129C162.017 487.261 165.992 486.839 166.474 486.899C166.955 486.899 170.629 487.321 170.81 484.671C171.051 481.057 167.317 481.539 166.775 481.539C166.293 481.539 162.318 480.877 162.137 484.189L162.197 484.129Z" fill="#B9927A"/>
<path d="M163.704 481.479C160.632 482.081 161.837 484.972 161.957 485.333C162.017 485.694 162.439 488.525 165.029 488.043C168.582 487.321 167.317 484.671 167.257 484.309C167.197 483.948 166.956 480.816 163.704 481.479Z" fill="#B9927A"/>
<path d="M164.968 483.526C168.1 483.767 168.1 476.54 168.16 475.697C168.22 474.794 169.003 468.169 166.293 467.928C162.679 467.627 162.8 474.372 162.739 475.276C162.679 476.179 161.655 483.286 164.968 483.587V483.526Z" fill="#B9927A"/>
<path d="M162.438 487.622C159.307 487.622 159.969 487.803 159.969 487.863C159.969 487.923 159.788 488.043 162.438 488.043C166.112 488.043 165.329 487.863 165.329 487.863C165.329 487.863 165.691 487.622 162.438 487.622Z" fill="#B9927A"/>
<path d="M171.895 489.248C174.846 489.007 173.34 469.735 173.461 467.386C173.28 464.977 173.822 447.03 171.232 446.909C167.498 446.729 167.859 465.097 168.04 467.506C167.919 469.916 168.462 489.609 171.895 489.308V489.248Z" fill="#B9927A"/>
<path d="M171.292 395.898C172.858 395.778 173.46 393.971 174.725 392.224C175.87 390.478 177.556 388.611 177.978 388.249C178.339 387.828 180.206 386.322 182.013 384.515C183.82 382.709 185.145 380.48 184.181 379.577C182.856 378.372 180.869 379.276 178.821 380.601C176.773 381.865 174.725 383.853 174.304 384.335C173.822 384.756 171.413 386.864 170.268 389.815C168.943 392.766 169.666 396.018 171.352 395.838L171.292 395.898Z" fill="#B9927A"/>
<path d="M191.951 379.336C194.842 380.48 195.324 377.65 195.444 377.348C195.565 377.047 196.709 374.638 194.24 373.675C190.867 372.289 190.566 375 190.445 375.301C190.325 375.602 188.879 378.071 191.951 379.336Z" fill="#B9927A"/>
<path d="M227.487 687.089C230.619 687.089 229.956 630.537 229.956 623.611C229.956 616.685 230.137 563.988 227.487 563.988C223.813 563.988 224.596 616.685 224.596 623.611C224.596 630.537 224.234 687.089 227.487 687.089Z" fill="#B9927A"/>
<path d="M227.787 564.59C227.787 561.458 197.01 562.121 193.215 562.121C189.421 562.121 160.752 561.94 160.752 564.59C160.752 568.264 189.421 567.481 193.215 567.481C197.01 567.481 227.787 567.842 227.787 564.59Z" fill="#B9927A"/>
<path d="M161.355 687.089C164.487 687.089 163.824 630.537 163.824 623.611C163.824 616.685 164.005 563.988 161.355 563.988C157.681 563.988 158.464 616.685 158.464 623.611C158.464 630.537 158.102 687.089 161.355 687.089Z" fill="#B9927A"/>
<path d="M161.414 581.032C161.294 584.164 192.372 584.706 196.167 584.826C199.961 584.947 228.871 586.211 228.992 583.561C229.112 579.948 200.202 579.586 196.408 579.406C192.613 579.285 161.595 577.719 161.475 581.032H161.414Z" fill="#B9927A"/>
<path d="M163.041 583.983C162.921 587.114 192.433 587.476 196.047 587.596C199.661 587.717 227.125 588.801 227.246 586.151C227.366 582.477 199.841 582.296 196.228 582.176C192.614 582.055 163.101 580.67 163.041 583.983Z" fill="#B9927A"/>
<path d="M171.052 682.994C174.184 683.114 174.605 636.138 174.726 630.417C174.846 624.635 175.991 580.911 173.341 580.911C169.667 580.911 169.426 624.515 169.305 630.296C169.185 636.018 167.739 682.873 171.052 682.994Z" fill="#B9927A"/>
<path d="M166.173 586.091C164.426 588.68 167.077 589.704 167.378 589.885C167.679 590.066 169.666 591.631 171.172 589.403C173.16 586.332 170.63 585.549 170.389 585.368C170.088 585.187 168.04 583.38 166.233 586.091H166.173Z" fill="#B9927A"/>
<path d="M173.22 605.483C175.99 604.098 170.931 595.305 170.329 594.161C169.786 593.077 165.691 584.525 163.282 585.729C160.029 587.356 164.908 595.486 165.45 596.63C165.992 597.775 170.208 606.989 173.159 605.544L173.22 605.483Z" fill="#B9927A"/>
<path d="M167.799 607.531C166.052 610.121 168.703 611.145 169.004 611.325C169.305 611.506 171.292 613.072 172.798 610.843C174.786 607.772 172.256 606.989 172.015 606.808C171.774 606.628 169.666 604.821 167.859 607.531H167.799Z" fill="#B9927A"/>
<path d="M173.34 623.431C175.99 621.805 171.774 616.023 171.292 615.3C170.81 614.578 167.497 608.796 165.209 610.181C162.077 612.108 166.172 617.348 166.654 618.131C167.136 618.914 170.509 625.177 173.34 623.431Z" fill="#B9927A"/>
<path d="M167.739 618.974C165.27 620.841 167.98 623.491 168.281 623.852C168.582 624.214 170.51 627.165 172.678 625.539C175.569 623.37 172.919 620.961 172.618 620.6C172.317 620.239 170.389 616.987 167.739 618.974Z" fill="#B9927A"/>
<path d="M164.908 608.856C167.859 608.495 167.196 602.291 167.437 601.448C167.377 600.605 168.883 595.004 166.534 594.101C162.92 592.836 161.956 599.943 162.077 600.786C161.715 601.629 161.414 609.217 164.908 608.796V608.856Z" fill="#B9927A"/>
<path d="M171.593 630.116C174.424 628.73 170.87 622.949 170.509 622.166C170.148 621.443 167.558 615.661 165.149 616.866C161.896 618.432 165.269 623.792 165.63 624.575C165.992 625.297 168.582 631.561 171.593 630.116Z" fill="#B9927A"/>
<path d="M167.98 628.55C168.944 631.501 171.052 630.176 171.293 630.116C171.594 630.055 173.762 629.513 172.919 626.984C171.774 623.491 169.907 624.876 169.606 624.997C169.305 625.117 166.956 625.478 167.92 628.61L167.98 628.55Z" fill="#B9927A"/>
<path d="M171.594 641.679C174.424 640.354 171.654 636.018 171.413 635.476C171.172 634.934 169.245 630.598 166.835 631.742C163.523 633.308 166.233 637.283 166.534 637.825C166.835 638.367 168.642 643.125 171.594 641.679Z" fill="#B9927A"/>
<path d="M166.234 642.402C165.511 645.413 168.643 645.594 169.004 645.654C169.365 645.774 172.136 646.618 172.799 644.028C173.702 640.475 170.69 640.475 170.329 640.414C169.968 640.294 167.017 639.21 166.234 642.402Z" fill="#B9927A"/>
<path d="M163.402 640.354C166.293 641.619 167.98 636.078 168.281 635.416C168.582 634.753 170.871 629.935 168.401 628.851C165.028 627.406 163.583 632.645 163.342 633.247C163.041 633.91 160.451 639.029 163.462 640.354H163.402Z" fill="#B9927A"/>
<path d="M166.655 646.497C167.799 645.473 167.438 644.028 167.016 642.703C166.294 640.655 166.053 639.933 165.932 639.632C165.932 639.391 165.751 638.728 165.33 636.62C165.029 635.295 164.667 633.91 163.342 633.609C161.596 633.187 160.512 634.753 160.271 636.68C159.969 638.547 160.572 640.475 160.692 640.896C160.813 641.318 161.234 643.426 162.499 645.052C163.704 646.678 165.45 647.581 166.655 646.497Z" fill="#B9927A"/>
<path d="M161.354 654.929C163.703 656.976 167.136 652.158 167.618 651.616C168.1 651.074 171.834 647.039 169.846 645.292C167.136 642.883 164.004 647.521 163.522 648.063C163.041 648.605 158.824 652.76 161.294 654.989L161.354 654.929Z" fill="#B9927A"/>
<path d="M168.101 664.805C170.269 662.758 166.535 658.783 166.354 658C165.872 657.458 164.125 652.64 161.716 653.242C158.042 654.266 161.114 659.987 161.656 660.59C161.837 661.433 165.631 667.154 168.161 664.805H168.101Z" fill="#B9927A"/>
<path d="M163.402 666.673C166.353 667.757 167.979 661.493 168.28 660.771C168.582 660.048 170.81 654.447 168.28 653.543C164.847 652.279 163.462 658.181 163.161 658.904C162.86 659.626 160.27 665.589 163.342 666.733L163.402 666.673Z" fill="#B9927A"/>
<path d="M163.04 668.359C163.04 671.491 166.052 670.828 166.413 670.828C166.775 670.828 169.605 671.009 169.605 668.359C169.605 664.685 166.775 665.468 166.413 665.468C166.052 665.468 163.04 665.107 163.04 668.359Z" fill="#B9927A"/>
<path d="M164.908 681.428C168.04 682.512 169.185 674.984 169.004 674.081C169.305 673.177 169.365 666.191 166.535 666.492C163.041 666.914 163.885 672.695 163.644 673.478C163.764 674.321 161.957 680.284 164.908 681.368V681.428Z" fill="#B9927A"/>
<path d="M169.786 610.542C171.352 610.542 171.894 609.037 171.653 607.471C171.473 605.965 170.509 604.58 170.328 604.279C170.148 603.978 169.365 602.653 168.16 601.87C166.955 601.087 165.51 600.906 164.847 602.051C163.101 605.062 165.57 606.507 165.751 607.049C166.172 607.411 166.714 610.482 169.846 610.482L169.786 610.542Z" fill="#B9927A"/>
<path d="M163.222 629.032C164.607 631.802 165.872 630.477 166.052 630.417C166.233 630.296 167.739 629.754 166.534 627.405C164.908 624.153 163.824 625.538 163.643 625.599C163.462 625.719 161.776 626.08 163.282 629.032H163.222Z" fill="#B9927A"/>
<path d="M162.077 554.472C163.583 554.291 163.041 544.655 167.498 535.742C169.546 531.285 172.557 527.19 175.388 524.299C178.279 521.468 180.869 519.662 181.833 519.12C183.579 517.795 192.553 513.458 201.889 513.639C211.224 513.398 219.355 517.373 219.958 516.229C220.379 515.506 218.693 513.699 215.38 511.953C212.068 510.266 207.189 508.821 201.949 508.58C196.769 508.339 191.349 509.182 187.193 510.628C183.037 512.073 180.026 513.82 178.942 514.482C177.797 515.084 174.725 517.072 171.413 520.384C168.1 523.697 164.727 528.455 162.68 533.634C160.511 538.753 159.789 544.173 159.969 548.148C160.15 552.123 161.174 554.532 161.897 554.472H162.077Z" fill="#B9927A"/>
<path d="M256.938 353.319C256.878 356.45 291.69 356.752 295.967 356.812C300.243 356.932 332.646 357.956 332.707 355.246C332.827 351.572 300.364 351.512 296.087 351.391C291.811 351.271 257.059 350.006 256.938 353.258V353.319Z" fill="#B9927A"/>
<path d="M69.9267 353.68C69.9267 356.811 91.549 356.149 94.1991 356.149C96.8492 356.149 116.966 356.33 116.966 353.68C116.966 350.006 96.8492 350.789 94.1991 350.789C91.549 350.789 69.9267 350.428 69.9267 353.68Z" fill="#B9927A"/>
<path d="M373.302 281.831C373.181 284.962 387.817 284.962 389.624 285.023C391.431 285.083 405.043 285.866 405.163 283.156C405.344 279.542 391.672 279.663 389.865 279.602C388.058 279.542 373.483 278.518 373.302 281.831Z" fill="#B9927A"/>
<path d="M384.505 302.428C386.914 300.441 379.024 291.648 378.06 290.503C377.639 289.901 375.591 287.612 375.169 286.047C374.627 284.3 375.41 283.096 375.29 281.831C375.109 280.988 373.904 280.506 372.459 281.469C371.074 282.373 370.05 284.421 370.17 286.649C370.712 291.166 373.663 293.334 373.904 293.936C374.808 295.08 381.975 304.536 384.505 302.488V302.428Z" fill="#B9927A"/>
<path d="M377.699 283.276C377.337 286.348 392.033 286.769 393.78 286.89C394.202 286.89 395.406 287.01 396.912 287.07C398.478 287.07 400.104 287.372 402.453 286.95C403.597 286.709 404.862 286.288 405.886 285.324C406.91 284.36 407.332 283.216 407.392 282.192C407.512 279.904 405.946 279.241 405.465 279.663C404.26 280.988 403.899 282.072 401.791 281.891C397.695 281.65 394.744 281.469 393.961 281.409C392.214 281.289 377.94 279.904 377.578 283.156L377.699 283.276Z" fill="#B9927A"/>
<path d="M464.669 169.269C465.031 168.727 461.236 165.776 454.25 165.535C447.504 165.174 437.506 168.125 431.724 176.677C430.218 178.845 429.435 181.736 429.255 184.145C429.014 186.614 429.014 188.903 429.315 191.312C429.736 196.19 432.748 201.008 436.241 203.417C443.469 208.476 450.154 207.874 452.202 208.115C453.286 208.115 455.213 208.115 457.864 207.934C460.514 207.633 464.007 207.151 467.621 205.164C474.788 201.369 480.209 191.613 478.342 182.157C477.559 177.4 474.668 173.364 471.415 170.775C468.103 168.125 464.429 166.74 461.236 166.258C454.671 165.294 450.817 167.884 451.118 168.305C451.419 169.269 455.274 168.125 460.514 169.691C465.693 171.016 472.379 175.894 473.343 183.061C474.547 190.167 470.15 197.756 464.971 200.406C459.791 203.116 454.129 202.634 452.262 202.694C450.455 202.574 444.673 202.694 439.494 199.021C436.904 197.154 435.097 194.383 434.615 190.589C434.193 186.795 434.133 182.278 436 179.447C440.216 172.762 448.408 169.51 454.31 169.088C460.333 168.546 464.308 170.172 464.669 169.269Z" fill="#B9927A"/>
<path d="M455.153 185.65C455.695 185.409 455.996 184.626 455.213 183.964C454.491 183.422 453.406 183.181 452.202 184.205C451.6 184.747 451.178 186.012 451.539 187.035C451.901 188.18 452.804 188.722 453.406 188.963C454.611 189.505 456.719 189.023 457.442 187.276L457.562 187.035V186.855C457.743 186.192 457.683 184.988 456.96 184.205C456.358 183.542 455.816 183.362 455.635 183.302C454.912 183.061 454.009 182.94 452.804 183.663C452.503 183.904 452.142 184.084 451.72 184.807C451.298 185.409 451.238 186.614 451.539 187.216C451.901 188.36 453.467 189.264 454.611 189.023C456.478 188.481 456.719 187.397 456.659 186.313C456.418 185.048 455.394 184.988 455.033 185.53C454.852 185.711 454.731 185.831 454.551 185.951C454.551 185.951 454.551 185.951 454.43 185.951C454.069 185.891 454.069 185.59 454.25 186.132C454.129 186.012 454.611 187.156 454.491 186.253C454.491 186.072 454.792 186.132 454.31 186.072H454.43C454.43 186.192 454.31 185.711 454.37 185.831C454.25 186.072 454.129 185.951 454.31 186.072C454.491 186.313 454.31 186.192 454.43 186.072C454.551 185.891 454.189 186.192 454.972 185.65H455.153Z" fill="#B9927A"/>
<path d="M422.69 223.412C422.69 226.544 449.13 226.062 452.383 226.062C455.635 226.062 480.269 226.363 480.329 223.713C480.329 220.039 455.695 220.702 452.443 220.642C449.191 220.642 422.69 220.1 422.69 223.412Z" fill="#B9927A"/>
<path d="M416.727 231.422C416.546 232.988 424.497 234.373 432.929 235.036C441.421 235.698 450.395 235.638 452.323 235.638C454.31 235.638 462.742 235.638 470.632 234.975C478.583 234.373 485.931 233.048 485.81 231.723C485.629 229.916 478.281 229.856 470.391 229.916C462.14 230.037 454.25 230.218 452.323 230.218C450.395 230.218 442.023 230.037 433.17 229.916C424.798 229.796 416.847 229.796 416.667 231.422H416.727Z" fill="#B9927A"/>
<path d="M426.364 231.302C425.34 232.506 430.52 237.204 437.446 239.312C444.312 241.66 451.961 241.299 453.527 241.118C455.154 241.118 462.2 240.456 468.344 238.167C474.487 235.999 479.667 232.807 479.065 231.603C478.282 229.916 472.74 231.844 466.898 233.289C461.056 234.855 454.732 235.698 453.286 235.698C451.841 235.818 445.035 235.939 438.892 234.373C432.688 233.048 427.388 229.977 426.364 231.302Z" fill="#B9927A"/>
<path d="M274.645 251.959C277.055 249.971 255.011 224.737 252.361 221.605C249.71 218.473 229.775 194.504 227.727 196.19C224.956 198.539 245.555 221.906 248.205 225.098C250.855 228.23 272.116 254.127 274.645 251.959Z" fill="#B9927A"/>
<path d="M272.236 237.866C274.766 235.999 260.07 218.654 258.384 216.486C256.637 214.318 243.567 197.695 241.58 199.442C238.809 201.851 252.421 217.69 254.168 219.859C255.914 222.027 269.586 239.853 272.236 237.866Z" fill="#B9927A"/>
<path d="M273.562 225.038C275.971 223.051 267.599 213.716 266.635 212.511C265.671 211.307 258.444 202.092 256.336 203.778C253.505 206.067 261.455 214.679 262.419 215.884C263.383 217.088 270.972 227.086 273.562 225.038Z" fill="#B9927A"/>
<path d="M459.791 324.591C463.043 325.073 463.525 312.606 463.404 311.1C463.585 309.595 463.525 298.031 460.694 298.212C457.201 298.453 458.164 309.414 457.984 310.92C458.104 312.425 456.659 324.169 459.791 324.591Z" fill="#B9927A"/>
<path d="M454.009 299.537C454.009 302.669 457.563 302.006 457.985 302.006C458.406 302.006 461.719 302.187 461.719 299.537C461.719 295.863 458.406 296.646 457.985 296.646C457.563 296.646 454.009 296.285 454.009 299.537Z" fill="#B9927A"/>
<path d="M452.925 324.531C456.057 324.711 456.057 313.088 456.177 311.642C456.237 310.197 457.02 299.417 454.37 299.296C450.757 299.116 450.817 309.896 450.757 311.341C450.696 312.787 449.612 324.35 452.925 324.531Z" fill="#B9927A"/>
<path d="M452.985 322.604C453.828 325.494 456.237 324.711 456.659 324.892C457.081 324.832 459.309 325.735 460.574 323.507C462.381 320.134 457.864 319.351 457.322 319.532C456.84 319.231 452.021 319.231 452.925 322.604H452.985Z" fill="#B9927A"/>
<path d="M455.033 320.134C458.104 320.616 458.707 312.486 458.887 311.522C459.068 310.558 460.333 303.09 457.743 302.669C454.129 302.127 453.707 309.715 453.587 310.679C453.406 311.642 451.84 319.652 455.093 320.134H455.033Z" fill="#B9927A"/>
<path d="M509.842 486.357C511.107 485.393 502.253 472.746 493.038 459.316C483.762 445.885 474.186 431.491 472.138 428.36C470.09 425.228 461.297 411.557 453.226 398.608C445.095 385.66 437.567 373.434 436.362 374.096C434.796 375 441.12 387.948 448.829 401.198C456.479 414.508 465.453 428.119 467.561 431.311C469.609 434.503 479.065 449.077 488.822 462.267C498.519 475.516 508.457 487.381 509.782 486.417L509.842 486.357Z" fill="#B9927A"/>
<path d="M435.699 390.899C434.374 391.743 441.963 404.631 450.636 417.941C459.249 431.251 468.946 444.982 471.054 447.993C475.029 454.136 507.553 499.486 509.842 497.74C512.612 495.692 479.486 451.065 475.511 444.922C473.463 441.911 464.067 428.36 454.912 415.11C445.818 402.101 437.145 389.996 435.759 390.899H435.699Z" fill="#B9927A"/>
<path d="M436.001 404.27C433.471 406.076 467.139 452.811 471.235 458.593C475.33 464.375 506.108 508.339 508.276 506.834C511.227 504.726 479.727 461.243 475.692 455.461C471.596 449.68 438.771 402.342 436.061 404.209L436.001 404.27Z" fill="#B9927A"/>
<path d="M436.361 420.29C435.217 421.313 443.89 432.154 452.382 444.259C461.055 456.485 469.969 469.193 471.957 472.023C475.932 477.624 505.746 520.505 507.914 518.939C510.925 516.831 480.329 474.553 476.414 468.892C474.426 466.121 465.573 453.113 456.538 441.188C447.504 429.263 437.626 419.085 436.361 420.229V420.29Z" fill="#B9927A"/>
<path d="M436.302 433.298C435.097 434.262 443.349 445.765 452.203 457.931C461.177 470.156 470.512 482.864 472.56 485.634C474.548 488.465 483.1 500.39 491.412 512.013C499.603 523.396 507.433 534.056 508.517 533.333C510.023 532.309 503.337 520.866 495.568 509.122C487.798 497.318 478.944 485.273 476.897 482.442C474.849 479.612 465.573 466.603 456.238 454.799C446.902 442.934 437.567 432.214 436.302 433.238V433.298Z" fill="#B9927A"/>
<path d="M436.302 443.055C435.097 444.018 443.349 455.521 452.203 467.687C461.177 479.913 470.512 492.62 472.56 495.391C474.548 498.221 483.1 510.146 491.412 521.769C499.603 533.152 507.433 543.812 508.517 543.089C510.023 542.066 503.337 530.623 495.568 518.879C487.798 507.074 478.944 495.029 476.897 492.199C474.849 489.368 465.573 476.359 456.238 464.555C446.902 452.691 437.567 441.971 436.302 442.994V443.055Z" fill="#B9927A"/>
<path d="M436.302 461.243C435.097 462.207 443.349 473.71 452.203 485.875C461.177 498.101 470.512 510.809 472.56 513.579C474.548 516.41 483.1 528.334 491.412 539.958C499.603 551.341 507.433 562.001 508.517 561.278C510.023 560.254 503.337 548.811 495.568 537.067C487.798 525.263 478.944 513.218 476.897 510.387C474.849 507.557 465.573 494.548 456.238 482.744C446.902 470.879 437.567 460.159 436.302 461.183V461.243Z" fill="#B9927A"/>
<path d="M436.302 475.637C435.097 476.6 443.349 488.103 452.203 500.269C461.177 512.495 470.512 525.202 472.56 527.973C474.548 530.803 483.1 542.728 491.412 554.352C499.603 565.734 507.433 576.394 508.517 575.671C510.023 574.648 503.337 563.205 495.568 551.461C487.798 539.656 478.944 527.611 476.897 524.781C474.849 521.95 465.573 508.941 456.238 497.137C446.902 485.273 437.567 474.553 436.302 475.576V475.637Z" fill="#B9927A"/>
<path d="M436.302 488.947C435.097 489.91 443.349 501.413 452.203 513.579C461.177 525.805 470.512 538.512 472.56 541.283C474.548 544.113 483.1 556.038 491.412 567.662C499.603 579.044 507.433 589.704 508.517 588.981C510.023 587.958 503.337 576.515 495.568 564.771C487.798 552.967 478.944 540.921 476.897 538.091C474.849 535.26 465.573 522.251 456.238 510.447C446.902 498.583 437.567 487.863 436.302 488.886V488.947Z" fill="#B9927A"/>
<path d="M436.302 502.196C435.097 503.16 443.349 514.663 452.203 526.828C461.177 539.054 470.512 551.762 472.56 554.532C474.548 557.363 483.1 569.288 491.412 580.911C499.603 592.294 507.433 602.954 508.517 602.231C510.023 601.207 503.337 589.764 495.568 578.02C487.798 566.216 478.944 554.171 476.897 551.34C474.849 548.51 465.573 535.501 456.238 523.697C446.902 511.832 437.567 501.112 436.302 502.136V502.196Z" fill="#B9927A"/>
<path d="M436.302 515.506C435.097 516.47 443.349 527.973 452.203 540.139C461.177 552.364 470.512 565.072 472.56 567.842C474.548 570.673 483.1 582.598 491.412 594.221C499.603 605.604 507.433 616.264 508.517 615.541C510.023 614.517 503.337 603.074 495.568 591.33C487.798 579.526 478.944 567.481 476.897 564.65C474.849 561.82 465.573 548.811 456.238 537.007C446.902 525.142 437.567 514.422 436.302 515.446V515.506Z" fill="#B9927A"/>
<path d="M436.302 528.816C435.097 529.78 443.349 541.283 452.203 553.449C461.177 565.674 470.512 578.382 472.56 581.152C474.548 583.983 483.1 595.908 491.412 607.531C499.603 618.914 507.433 629.574 508.517 628.851C510.023 627.827 503.337 616.384 495.568 604.64C487.798 592.836 478.944 580.791 476.897 577.96C474.849 575.13 465.573 562.121 456.238 550.317C446.902 538.452 437.567 527.732 436.302 528.756V528.816Z" fill="#B9927A"/>
<path d="M436.302 542.066C435.097 543.029 443.349 554.533 452.203 566.698C461.177 578.924 470.512 591.632 472.56 594.402C474.548 597.233 483.1 609.157 491.412 620.781C499.603 632.163 507.433 642.823 508.517 642.101C510.023 641.077 503.337 629.634 495.568 617.89C487.798 606.086 478.944 594.041 476.897 591.21C474.849 588.379 465.573 575.371 456.238 563.566C446.902 551.702 437.567 540.982 436.302 542.006V542.066Z" fill="#B9927A"/>
<path d="M436.302 555.375C435.097 556.339 443.349 567.842 452.203 580.008C461.177 592.234 470.512 604.941 472.56 607.712C474.548 610.542 483.1 622.467 491.412 634.09C499.603 645.473 507.433 656.133 508.517 655.41C510.023 654.386 503.337 642.944 495.568 631.2C487.798 619.395 478.944 607.35 476.897 604.52C474.849 601.689 465.573 588.68 456.238 576.876C446.902 565.012 437.567 554.291 436.302 555.315V555.375Z" fill="#B9927A"/>
<path d="M436.302 568.685C435.097 569.649 443.349 581.152 452.203 593.318C461.177 605.544 470.512 618.251 472.56 621.022C474.548 623.852 483.1 635.777 491.412 647.4C499.603 658.783 507.433 669.443 508.517 668.72C510.023 667.696 503.337 656.254 495.568 644.51C487.798 632.705 478.944 620.66 476.897 617.83C474.849 614.999 465.573 601.99 456.238 590.186C446.902 578.322 437.567 567.601 436.302 568.625V568.685Z" fill="#B9927A"/>
<path d="M463.284 42.4339C466.416 42.5543 466.115 -0.928588 466.115 -6.22844C466.115 -11.5885 466.597 -52.0602 463.947 -51.9999C460.273 -51.8795 460.755 -11.5885 460.694 -6.28867C460.694 -0.988812 459.972 42.3134 463.284 42.4339Z" fill="#B9927A"/>
<path d="M201.708 186.253C204.72 186.132 204.118 170.233 204.298 168.245C204.298 166.258 205.503 151.442 202.973 151.201C199.239 150.78 198.817 166.077 198.878 168.065C198.637 170.052 198.275 186.433 201.648 186.313L201.708 186.253Z" fill="#B9927A"/>
<path d="M162.258 553.99C163.824 553.99 164.667 545.077 169.365 537.067C173.701 528.816 181.531 522.793 183.398 521.83C185.085 520.565 193.276 516.229 201.949 515.446C210.562 514.302 218.693 516.59 219.114 515.325C219.897 513.639 211.345 509.725 201.527 510.387C191.71 510.628 182.374 515.868 180.507 517.253C179.483 517.855 176.653 519.722 173.521 522.733C170.389 525.745 167.076 530.021 164.848 534.658C160.029 543.993 160.571 554.051 162.258 553.93V553.99Z" fill="#B9927A"/>
<path d="M97.2106 598.136C97.2106 601.268 112.87 600.605 114.737 600.605C116.605 600.605 131.24 600.786 131.24 598.136C131.24 594.462 116.665 595.245 114.737 595.245C112.81 595.245 97.2106 594.884 97.2106 598.136Z" fill="#B9927A"/>
<path d="M433.591 581.995C431.182 583.983 461.779 621.805 465.453 626.502C469.127 631.2 497.073 666.853 499.181 665.287C502.132 663.119 473.403 627.827 469.669 623.13C465.995 618.432 436.061 579.827 433.531 581.995H433.591Z" fill="#B9927A"/>
<path d="M434.374 593.258C431.724 595.245 457.924 628.188 461.357 632.103C464.428 636.259 489.604 666.371 491.712 664.504C494.302 662.216 468.644 632.826 465.573 628.73C462.14 624.876 436.903 591.451 434.374 593.318V593.258Z" fill="#B9927A"/>
<path d="M436.603 610.362C434.194 612.349 455.093 636.259 457.563 639.21C460.092 642.161 478.944 664.926 480.932 663.18C483.702 660.831 464.188 638.668 461.658 635.717C459.129 632.766 439.072 608.194 436.543 610.302L436.603 610.362Z" fill="#B9927A"/>
<path d="M435.097 621.443C433.772 622.286 436.783 627.948 440.939 633.187C445.035 638.427 449.913 643.426 450.877 644.57C451.841 645.654 455.876 650.111 460.273 654.989C464.368 659.446 467.922 663.842 469.066 663.119C470.632 662.156 467.982 656.736 464.188 651.797C460.453 646.738 455.876 642.101 454.852 640.956C453.888 639.872 449.612 635.175 444.794 629.935C440.337 625.238 436.422 620.6 435.037 621.504L435.097 621.443Z" fill="#B9927A"/>
<path d="M436.542 636.74C434.193 638.848 445.275 650.291 446.6 651.737C447.925 653.182 457.683 664.324 459.67 662.577C462.381 660.168 451.961 649.568 450.636 648.123C449.311 646.678 439.012 634.572 436.542 636.74Z" fill="#B9927A"/>
<path d="M438.59 649.027C436.301 651.135 441.601 656.495 442.204 657.217C442.806 657.94 447.203 663.421 449.311 661.794C452.202 659.566 446.962 654.447 446.359 653.724C445.757 653.002 440.999 646.738 438.59 648.966V649.027Z" fill="#B9927A"/>
<path d="M322.83 375.301C322.468 378.372 375.41 383.973 381.915 384.696C385.167 385.057 399.08 386.744 412.27 387.948C425.521 389.273 438.229 388.249 438.109 386.804C437.988 385.118 425.822 384.756 412.812 382.889C399.742 381.143 385.769 379.637 382.517 379.276C376.012 378.493 323.191 371.988 322.769 375.241L322.83 375.301Z" fill="#B9927A"/>
<path d="M85.3446 622.286C82.8149 624.153 104.257 650.713 106.786 654.025C109.376 657.338 128.71 682.512 130.757 680.826C133.588 678.537 113.592 654.025 111.062 650.713C108.533 647.401 87.9947 620.359 85.3446 622.286Z" fill="#B9927A"/>
<path d="M86.67 635.717C84.2006 637.584 101.366 657.82 103.414 660.349C105.462 662.879 120.88 682.211 122.928 680.465C125.699 678.056 109.678 659.506 107.63 656.977C105.582 654.447 89.3201 633.729 86.67 635.717Z" fill="#B9927A"/>
<path d="M85.0437 644.208C84.0198 645.413 87.6335 649.388 91.3075 653.664C95.0418 657.88 98.8964 662.457 99.6794 663.541C100.523 664.565 103.835 669.082 106.907 673.358C110.039 677.634 112.87 681.789 114.074 681.187C115.7 680.344 113.954 675.465 111.183 670.647C108.473 665.829 104.799 661.252 103.956 660.228C103.112 659.144 99.318 654.206 95.0417 650.171C90.7654 646.075 86.1278 643.004 85.0437 644.269V644.208Z" fill="#B9927A"/>
<path d="M85.4056 651.857C84.0204 652.58 85.2852 656.314 87.333 659.927C89.3205 663.541 92.0911 666.974 92.6332 667.757C93.1753 668.54 95.7049 671.792 98.4754 674.502C101.246 677.212 104.257 679.26 105.221 678.296C107.57 675.827 97.8732 666.191 96.9697 664.505C96.4879 663.782 94.44 661.072 91.6695 657.217C89.2603 654.086 86.9114 651.134 85.4056 651.917V651.857Z" fill="#B9927A"/>
<path d="M90.5851 669.865C88.1759 671.792 91.6692 675.225 92.0306 675.646C92.3919 676.128 95.1023 679.742 97.1501 678.055C99.9809 675.767 96.608 672.695 96.2466 672.274C95.8853 671.792 93.1749 667.817 90.5851 669.865Z" fill="#B9927A"/>
<path d="M377.578 671.491C380.71 671.551 381.011 627.647 381.071 622.287C381.192 616.926 382.216 576.033 379.506 575.973C375.832 575.913 375.771 616.806 375.651 622.166C375.53 627.526 374.266 671.431 377.518 671.491H377.578Z" fill="#B9927A"/>
<path d="M374.506 669.804C376.072 669.684 375.951 659.325 375.771 648.304C375.59 637.102 375.409 625.659 375.409 623.13C375.409 620.6 375.53 610 375.65 599.401C375.71 589.102 375.771 579.406 374.446 579.346C372.639 579.225 371.193 588.861 370.591 599.22C369.928 609.579 370.049 620.6 370.049 623.13C370.049 625.719 369.989 637.403 370.711 648.485C371.434 659.566 372.94 669.925 374.566 669.804H374.506Z" fill="#B9927A"/>
<path d="M375.409 594.041C378.481 594.703 379.324 587.777 379.505 586.934C379.686 586.091 381.252 579.767 378.662 579.225C375.108 578.442 374.446 584.947 374.265 585.79C374.084 586.633 372.217 593.378 375.409 594.041Z" fill="#B9927A"/>
<path d="M375.71 628.67C378.842 628.67 378.18 606.748 378.18 604.038C378.18 601.328 378.36 580.911 375.71 580.911C372.036 580.911 372.819 601.328 372.819 604.038C372.819 606.748 372.458 628.67 375.71 628.67Z" fill="#B9927A"/>
<path d="M373.602 671.431C376.915 671.852 377.818 653.423 377.638 651.135C377.939 648.906 377.818 631.682 374.988 631.862C371.494 632.043 372.518 648.726 372.217 650.954C372.338 653.182 370.531 671.009 373.602 671.431Z" fill="#B9927A"/>
<path d="M370.471 676.429C373.724 676.791 374.808 656.194 374.687 653.664C374.988 651.135 375.229 631.923 372.459 631.983C368.965 632.103 369.568 650.894 369.327 653.423C369.387 655.953 367.399 676.068 370.471 676.429Z" fill="#B9927A"/>
<path d="M451.239 68.9932C451.239 72.125 456.539 71.4625 457.201 71.4625C457.864 71.4625 462.803 71.6432 462.803 68.9932C462.803 65.3195 457.864 66.1024 457.201 66.1024C456.539 66.1024 451.239 65.741 451.239 68.9932Z" fill="#B9927A"/>
<path d="M441.421 78.9306C441.903 81.8214 448.046 80.9782 448.829 81.2794C449.673 81.1589 455.214 82.7248 456.117 80.376C457.502 76.7625 450.275 75.7386 449.371 75.8591C448.468 75.4977 440.759 75.3773 441.361 78.8704L441.421 78.9306Z" fill="#B9927A"/>
<path d="M436.422 87.0007C436.001 90.0722 442.144 90.3131 442.867 90.4336C443.59 90.554 449.191 91.5176 449.552 88.8677C450.034 85.2541 444.312 85.1939 443.59 85.0735C442.867 84.953 436.844 83.7485 436.422 87.0007Z" fill="#B9927A"/>
<path d="M429.857 96.9984C429.857 100.13 435.88 99.4676 436.663 99.4676C437.446 99.4676 443.047 99.6483 443.047 96.9984C443.047 93.3246 437.385 94.1075 436.663 94.1075C435.94 94.1075 429.857 93.7462 429.857 96.9984Z" fill="#B9927A"/>
<path d="M424.918 106.875C424.918 110.007 430.219 109.345 430.881 109.345C431.544 109.345 436.482 109.525 436.482 106.875C436.482 103.202 431.544 103.984 430.881 103.984C430.219 103.984 424.918 103.623 424.918 106.875Z" fill="#B9927A"/>
<path d="M421.605 114.885C421.063 117.957 425.701 118.137 426.243 118.258C426.785 118.378 431.001 119.282 431.483 116.632C432.145 113.018 427.749 113.018 427.207 112.898C426.665 112.777 422.208 111.633 421.605 114.825V114.885Z" fill="#B9927A"/>
<path d="M414.981 126.328C416.185 128.978 421.064 127.051 421.847 127.171C422.57 126.93 427.448 127.472 428.05 125.063C428.954 121.269 422.148 121.45 421.365 121.811C420.943 121.811 418.956 121.932 417.269 122.715C415.583 123.497 414.258 124.822 414.92 126.328H414.981Z" fill="#B9927A"/>
<path d="M411.728 132.893C411.307 135.964 416.667 136.085 417.329 136.205C417.992 136.326 422.871 137.169 423.232 134.519C423.714 130.905 418.715 130.965 418.052 130.845C417.39 130.725 412.15 129.64 411.728 132.893Z" fill="#B9927A"/>
<path d="M403.537 141.445C404.139 144.336 409.379 143.492 410.102 143.794C410.824 143.673 415.522 145.239 416.606 143.011C418.233 139.518 411.607 138.253 410.764 138.434C410.343 138.434 408.415 138.072 406.608 138.434C404.802 138.795 403.236 139.819 403.537 141.445Z" fill="#B9927A"/>
<path d="M449.612 59.1163C449.612 62.248 455.635 61.5855 456.418 61.5855C457.201 61.5855 462.803 61.7662 462.803 59.1163C462.803 55.4425 457.141 56.2254 456.418 56.2254C455.696 56.2254 449.612 55.8641 449.612 59.1163Z" fill="#B9927A"/>
<path d="M527.248 332.24C530.38 332.36 530.501 314.112 530.621 311.883C530.862 310.92 530.44 305.499 531.464 302.548C531.886 301.163 533.09 300.26 534.114 299.838C535.078 299.356 535.921 299.537 536.403 298.995C537.066 298.393 536.403 296.646 533.873 296.345C531.645 295.984 528.392 297.429 526.887 300.32C525.441 303.03 525.381 305.801 525.261 307.668C525.261 309.535 525.14 311.04 525.14 311.642C525.02 313.871 523.875 332.059 527.188 332.179L527.248 332.24Z" fill="#B9927A"/>
<path d="M129.493 353.439C129.493 356.571 181.23 355.908 187.614 355.908C193.999 355.908 242.182 356.089 242.122 353.439C242.002 349.765 193.878 350.548 187.554 350.548C181.23 350.548 129.493 350.187 129.493 353.439Z" fill="#B9927A"/>
<path d="M44.6898 671.491C47.8218 671.491 47.1592 612.47 47.1592 605.243C47.1592 598.016 47.3399 543.03 44.6898 543.03C41.0158 543.03 41.7988 598.016 41.7988 605.243C41.7988 612.47 41.4374 671.491 44.6898 671.491Z" fill="#B9927A"/>
<path d="M64.8067 497.86C65.2283 497.439 60.5907 493.042 51.4358 491.717C42.5821 490.212 28.8498 493.102 20.4779 503.642C16.4425 508.761 13.8527 515.205 13.7924 521.77C13.5515 528.334 16.4425 534.598 20.0563 538.633C27.4645 547.065 36.3183 548.932 39.0888 549.534C41.8594 550.076 50.2914 551.642 59.8679 547.185C69.4444 542.849 77.4549 530.864 76.5514 518.397C76.2503 512.194 73.3593 506.352 69.4444 502.437C65.5295 498.462 60.8316 496.114 56.6758 495.09C48.063 493.042 42.6423 496.234 43.0037 496.595C43.3048 497.619 48.4846 495.933 55.7121 498.463C59.2054 499.727 63.1203 502.016 66.192 505.509C69.2637 509.002 71.3717 513.639 71.4922 518.698C71.974 528.937 65.1681 538.934 57.519 542.307C49.6892 545.981 42.5219 544.776 40.1729 544.294C37.824 543.812 30.3555 542.126 24.2121 535.14C21.2007 531.707 19.0324 527.13 19.1529 521.89C19.1529 516.711 21.2006 511.23 24.5133 506.894C31.1987 497.981 43.0037 494.789 51.0744 495.391C59.3861 495.752 64.3249 498.884 64.8067 497.981V497.86Z" fill="#B9927A"/>
<path d="M26.8622 532.972C25.2962 533.333 26.5611 538.994 31.1385 542.788C35.475 546.824 42.1002 547.607 43.3651 547.486C44.6901 547.667 50.7733 547.245 55.17 543.933C59.6872 540.801 61.4941 535.802 60.2895 535.32C58.6633 534.538 56.1337 537.73 52.4597 539.657C48.8459 541.765 44.5094 542.186 43.5457 542.066C42.5821 542.126 37.9444 541.463 34.3307 538.753C30.5362 536.344 28.3679 532.43 26.8622 532.911V532.972Z" fill="#B9927A"/>
<path d="M53.1225 679.621C54.6283 679.26 54.4476 675.466 54.9897 671.611C55.4113 667.697 56.6158 663.722 56.9772 662.879C57.2784 662.035 58.7841 658.422 60.8319 655.35C62.7593 652.219 65.1684 649.569 64.3855 648.485C63.3013 647.039 59.6273 648.906 56.7965 652.279C53.9055 655.531 52.2794 659.928 51.918 660.951C51.4964 661.915 49.8099 666.613 49.8702 671.25C49.8702 675.887 51.5566 679.983 53.1225 679.621Z" fill="#B9927A"/>
<path d="M52.6408 681.368C54.2068 681.368 54.9898 678.898 56.4955 676.67C57.941 674.382 60.049 672.394 60.5309 672.033C61.0127 671.611 63.2412 670.106 65.6504 669.262C67.9993 668.239 70.5289 668.058 70.7699 666.733C71.1312 664.986 67.9391 663.661 64.3856 664.324C60.832 664.866 57.8205 667.215 57.2182 667.757C56.5557 668.239 53.3636 670.768 51.9783 674.261C50.4124 677.754 51.0147 681.368 52.6408 681.368Z" fill="#B9927A"/>
<path d="M28.0665 666.793C28.3676 668.359 31.5598 668.419 34.752 669.383C37.9441 670.226 41.076 671.912 41.6783 672.334C42.3409 672.755 45.0512 674.623 47.0388 677.032C49.207 679.32 50.6525 681.97 51.9173 681.609C53.664 681.187 53.3026 677.333 51.0741 674.02C48.9661 670.587 45.3523 668.299 44.5693 667.817C43.7863 667.275 39.9317 664.866 35.7156 664.384C31.4995 663.782 27.6449 665.227 28.0063 666.793H28.0665Z" fill="#B9927A"/>
<path d="M24.9352 684.62C27.7058 683.777 27.5853 682.271 28.0069 681.91C28.1876 681.428 29.5729 680.826 29.6934 678.296C29.6934 676.489 28.0672 675.827 26.5012 676.369C24.9352 676.851 23.9716 678.296 23.7909 678.537C23.55 678.778 22.4056 680.223 22.4056 681.91C22.2852 683.656 23.3693 685.041 24.9955 684.62H24.9352Z" fill="#B9927A"/>
<path d="M16.5032 669.804C18.0692 669.503 18.1896 666.612 19.2135 663.842C20.117 661.011 21.8034 658.301 22.225 657.759C22.6466 657.217 24.5137 654.868 26.8626 653.242C29.0911 651.496 31.6208 650.472 31.4401 649.147C31.2594 647.34 27.5854 647.099 24.2126 648.906C20.7795 650.532 18.3703 653.784 17.8885 654.507C17.3464 655.169 14.8168 658.662 14.2145 662.577C13.4917 666.552 14.877 670.166 16.443 669.804H16.5032Z" fill="#B9927A"/>
<path d="M17.2261 668.178C20.1773 668.239 20.7194 650.171 21.2013 648.003C21.2615 645.774 23.9718 629.152 21.4422 628.67C17.708 627.948 15.8408 645.172 15.7806 647.4C15.359 649.629 13.7328 668.118 17.2261 668.178Z" fill="#B9927A"/>
<path d="M0.000259536 649.93C0.180948 651.496 2.71059 651.977 4.99931 653.423C7.34825 654.748 9.27562 656.916 9.637 657.458C10.0586 657.94 11.5643 660.228 12.2268 662.698C13.07 665.107 12.9496 667.636 14.2144 668.058C15.9008 668.72 17.7077 665.468 17.1657 661.794C16.8645 658.06 14.4553 654.929 13.9133 654.266C13.4314 653.604 10.8416 650.291 7.16757 648.906C3.49358 647.4 -0.240625 648.364 -0.0599367 649.99L0.000259536 649.93Z" fill="#B9927A"/>
<path d="M457.864 679.501C458.165 677.995 455.334 676.971 452.322 677.634C449.311 678.236 446.842 680.344 446.36 680.766C445.818 681.187 443.529 683.175 442.505 685.825C441.361 688.475 441.782 691.185 443.107 691.245C444.975 691.365 445.818 689.679 447.022 688.234C448.106 686.668 449.431 685.222 449.853 684.921C450.214 684.62 451.961 683.355 453.828 682.512C455.635 681.609 457.683 681.127 457.924 679.441L457.864 679.501Z" fill="#B9927A"/>
<path d="M429.796 675.044C429.676 676.61 431.724 677.513 433.591 678.899C435.518 680.224 437.144 682.03 437.506 682.452C437.867 682.873 439.132 684.801 439.975 686.848C440.879 688.836 441.24 691.004 442.625 691.185C444.432 691.486 445.516 688.595 444.854 685.523C444.372 682.392 442.264 679.802 441.842 679.2C441.421 678.597 439.252 675.767 436.181 674.442C433.169 672.996 429.917 673.358 429.857 674.984L429.796 675.044Z" fill="#B9927A"/>
<path d="M443.408 691.305C446.48 691.847 447.323 683.415 447.504 682.392C447.685 681.368 449.19 673.659 446.54 673.177C442.926 672.575 442.324 680.464 442.143 681.488C441.963 682.512 440.156 690.763 443.408 691.365V691.305Z" fill="#B9927A"/>
<path d="M379.385 705.94C380.951 705.638 381.252 703.711 382.155 701.904C382.998 700.098 384.324 698.411 384.685 698.11C384.986 697.749 386.552 696.424 388.238 695.581C389.865 694.617 391.732 694.256 391.973 692.931C392.334 691.184 389.503 689.98 386.552 690.823C383.601 691.485 381.312 693.774 380.89 694.256C380.409 694.677 377.999 697.147 377.337 700.278C376.554 703.41 377.819 706.301 379.385 705.94Z" fill="#B9927A"/>
<path d="M377.638 702.808C380.71 703.17 380.891 696.304 380.951 695.461C381.011 694.618 381.915 688.294 379.265 687.993C375.651 687.571 375.651 694.015 375.591 694.858C375.47 695.702 374.326 702.447 377.638 702.808Z" fill="#B9927A"/>
<path d="M512.371 692.871C513.937 692.75 514.419 691.245 514.901 689.799C515.503 687.691 515.744 686.788 515.865 686.547C515.985 686.306 516.286 685.644 517.19 683.596C517.732 682.271 518.274 680.886 517.37 679.922C516.166 678.597 514.299 679.26 513.034 680.765C511.709 682.211 511.046 684.198 510.866 684.62C510.685 685.041 509.842 687.089 509.902 689.197C509.902 691.305 510.805 693.112 512.432 692.931L512.371 692.871Z" fill="#B9927A"/>
<path d="M512.191 694.497C513.636 695.099 515.022 693.112 515.323 690.643C515.624 688.173 514.721 685.704 514.54 685.162C514.359 684.62 513.516 682.331 511.89 680.705C510.264 679.019 508.156 678.357 507.433 679.501C506.409 681.067 507.192 682.452 507.854 683.777C508.577 685.102 509.3 686.487 509.42 686.909C509.541 687.27 509.962 688.896 510.203 690.522C510.505 692.148 510.685 693.835 512.191 694.497Z" fill="#B9927A"/>
<path d="M202.13 201.43C200.865 202.333 213.152 221.123 227.306 240.335C241.339 259.608 257.18 279.241 260.613 283.517C264.046 287.853 278.862 306.282 293.438 323.146C307.953 340.069 322.107 355.427 323.131 354.583C324.516 353.379 311.386 337.118 297.353 319.893C283.199 302.548 268.382 284.36 264.889 280.145C261.456 275.868 245.857 256.114 231.401 237.264C216.886 218.473 203.515 200.466 202.13 201.43Z" fill="#B9927A"/>
<path d="M87.995 353.258C90.5247 355.125 138.889 289.238 144.912 281.168C150.935 273.098 196.589 212.21 194.42 210.584C191.529 208.355 146.538 269.906 140.575 277.916C134.552 285.986 85.345 351.271 87.995 353.258Z" fill="#B9927A"/>
<path d="M186.891 198.117C188.156 198.96 191.77 194.745 194.661 189.625C197.612 184.506 199.66 178.664 200.082 177.4C200.564 176.135 202.551 170.654 203.455 165.234C204.478 159.814 204.478 154.694 203.153 154.514C201.347 154.273 200.021 159.091 198.516 164.09C197.13 169.088 195.444 174.388 195.022 175.593C194.601 176.797 192.433 182.278 190.144 187.337C187.915 192.456 185.566 197.214 186.952 198.177L186.891 198.117Z" fill="#B9927A"/>
<path d="M192.192 189.926C194.722 191.733 199.239 184.265 199.841 183.362C200.444 182.459 205.262 175.954 203.034 174.448C200.022 172.341 195.987 179.387 195.384 180.29C194.782 181.194 189.482 188.059 192.192 189.926Z" fill="#B9927A"/>
<path d="M214.176 200.105C215.501 199.261 213.332 194.624 211.405 189.565C209.418 184.566 207.731 179.086 207.43 177.881C207.069 176.677 205.864 171.437 205.081 166.438C204.178 161.44 203.696 156.622 202.371 156.622C200.564 156.561 199.66 161.62 200.022 167.041C200.263 172.461 201.829 178.002 202.19 179.266C202.491 180.531 204.057 186.494 206.707 191.613C209.297 196.792 212.79 201.008 214.176 200.105Z" fill="#B9927A"/>
<path d="M209.598 145.841C210.02 145.841 210.14 143.794 207.851 141.686C206.767 140.722 204.96 139.698 202.612 139.939C200.202 140.12 197.793 141.866 196.769 144.577C196.227 145.902 196.107 147.588 196.709 149.214C197.311 150.9 198.817 152.225 200.383 152.827C202.009 153.43 203.816 153.55 205.683 152.827C207.55 152.165 209.177 149.997 209.177 147.769C209.177 145.6 208.333 143.794 206.767 142.469C205.262 141.023 202.13 140.421 200.142 141.866C199.118 142.529 198.335 143.613 197.974 144.697C197.613 145.721 197.492 146.745 197.673 147.769C197.793 149.876 199.721 152.466 202.13 152.647C203.876 152.827 204.84 152.466 205.864 152.165C206.948 151.743 207.912 151.141 208.815 150.238C209.658 149.395 210.622 147.648 210.14 145.661C209.658 143.794 208.153 142.71 207.008 142.288C204.298 141.324 201.768 142.469 200.323 143.914C198.817 145.36 197.914 147.829 198.636 150.057C200.323 154.333 204.238 155.116 207.069 154.213C210.14 153.008 210.803 150.418 210.983 149.334C211.104 148.07 211.345 145.54 208.755 143.191C207.49 142.107 205.141 141.565 203.334 142.288C201.527 142.89 200.022 144.155 199.118 146.082C198.094 147.889 198.335 151.322 200.624 153.008C201.768 153.912 202.913 154.273 204.358 154.273C205.804 154.273 207.249 153.851 208.454 153.129C210.863 151.683 211.887 148.973 211.224 146.564C210.562 144.095 208.213 142.348 205.683 141.927C203.154 141.445 200.323 142.469 198.998 144.757C197.673 146.925 197.853 150.238 199.901 152.225C200.925 153.37 202.371 153.37 203.876 153.791C204.659 153.972 205.683 153.791 206.888 153.309C208.092 152.767 209.538 151.623 210.2 149.876C210.742 148.07 210.2 146.263 209.237 145.119C208.755 144.516 208.153 144.095 207.611 143.733C207.069 144.577 208.755 141.686 206.346 145.661H206.286L206.165 145.54L205.924 145.36C205.924 145.36 205.563 145.179 205.382 145.119C203.816 144.577 202.19 145.179 201.166 146.082C199.961 147.046 199.901 148.25 199.359 149.575C200.022 150.659 200.624 152.225 201.889 152.647C203.997 153.55 206.346 153.068 207.611 151.141C208.695 149.154 207.912 147.287 207.008 146.323C206.105 145.239 204.72 144.757 203.635 144.878C203.093 146.082 203.334 145.781 203.997 145.781C204.78 146.022 204.78 145.902 204.659 145.781C204.418 145.42 203.937 145.6 203.937 145.781C203.937 146.022 204.298 146.263 204.238 146.925C204.238 147.227 204.057 147.588 203.756 147.588C203.515 147.588 203.334 147.227 203.635 147.106C204.539 147.166 205.322 149.033 204.72 149.274C204.72 149.274 203.937 149.395 203.756 149.154C203.756 149.033 203.696 149.154 203.575 149.274H203.395V149.334C203.575 149.334 202.913 149.395 203.816 149.274C203.816 149.154 203.816 149.154 203.816 149.154C203.816 148.973 203.997 148.853 204.117 148.792C204.358 148.612 204.72 148.853 204.599 149.094C204.539 149.274 204.298 149.334 204.238 149.214C204.117 148.973 204.418 148.853 204.479 148.973C204.539 149.033 204.479 149.094 204.479 149.094C204.479 149.094 204.177 149.033 204.177 148.973C204.177 148.913 204.057 148.973 204.177 148.551C204.358 148.13 204.9 147.708 205.141 147.648C205.442 147.528 205.322 147.648 205.442 147.648C205.683 147.769 205.804 148.491 205.743 148.732C205.743 149.033 205.563 149.274 205.382 149.274C205.201 149.515 203.937 148.973 203.997 148.672C203.997 148.672 203.997 148.371 204.298 147.949C204.659 147.588 205.081 147.528 205.141 147.588C204.9 147.949 205.984 146.624 205.804 146.986C205.924 146.986 205.804 146.986 205.382 146.865C204.78 146.624 204.96 146.624 204.9 146.745C204.78 146.925 204.358 147.166 204.057 147.287C203.635 147.467 203.093 147.528 203.214 147.528C203.154 147.467 203.154 147.708 203.033 147.227C203.033 146.624 203.154 146.383 203.154 146.383C203.274 146.383 203.214 146.203 203.635 146.444C203.997 146.684 204.358 147.407 204.358 147.769C204.599 148.25 203.515 149.094 202.13 148.672C200.925 148.311 200.443 147.347 200.744 145.962C201.467 143.011 204.72 142.71 206.587 143.794C208.514 144.757 209.237 146.142 209.719 145.902L209.598 145.841Z" fill="#B9927A"/>
<path d="M204.117 131.387C207.249 131.688 207.129 126.087 207.189 125.364C207.249 124.702 207.912 119.523 205.262 119.282C201.648 118.981 201.889 124.16 201.829 124.883C201.768 125.545 200.865 131.086 204.177 131.387H204.117Z" fill="#B9927A"/>
<path d="M222.367 148.19C222.729 151.262 227.667 150.057 228.33 149.997C228.932 149.937 233.63 149.515 233.329 146.865C232.907 143.252 228.33 144.516 227.667 144.577C227.005 144.637 221.946 144.878 222.367 148.13V148.19Z" fill="#B9927A"/>
<path d="M174.123 146.986C174.906 149.876 177.375 149.094 177.797 149.274C178.218 149.214 180.447 150.117 181.712 147.889C183.518 144.516 179.001 143.794 178.459 143.914C177.977 143.613 173.159 143.613 174.123 146.986Z" fill="#B9927A"/>
<path d="M536.704 662.096C538.571 664.565 546.281 658.061 547.244 657.278C548.208 656.555 555.857 651.014 554.231 648.906C552.063 646.016 544.956 652.219 543.992 652.941C543.028 653.664 534.717 659.446 536.644 662.036L536.704 662.096Z" fill="#B9927A"/>
<path d="M527.428 657.037C529.416 659.446 541.281 649.087 542.787 647.882C544.292 646.678 555.796 637.584 554.17 635.536C551.881 632.705 540.92 642.462 539.414 643.666C537.908 644.871 525.38 654.447 527.488 657.037H527.428Z" fill="#B9927A"/>
<path d="M514.178 665.769C516.527 667.877 534.174 647.28 536.403 644.811C538.631 642.342 555.676 623.672 553.689 621.865C550.978 619.456 534.596 638.728 532.368 641.197C530.139 643.667 511.709 663.601 514.178 665.769Z" fill="#B9927A"/>
<path d="M350.233 224.315C348.908 225.098 352.703 232.626 357.28 240.155C361.858 247.743 367.339 255.392 368.543 257.078C370.651 260.571 389.262 285.625 391.491 283.818C394.141 281.65 375.108 257.5 373 253.946C371.856 252.32 366.857 244.973 361.617 237.384C356.558 230.157 351.679 223.472 350.233 224.315Z" fill="#B9927A"/>
<path d="M306.086 213.475C303.496 215.161 352.703 288.636 358.967 297.61C362.039 302.127 375.108 321.459 388.359 339.045C401.549 356.691 415.101 372.29 416.125 371.446C417.57 370.302 405.103 353.921 392.454 336.034C379.746 318.207 366.496 299.055 363.484 294.599C357.281 285.745 308.916 211.668 306.146 213.535L306.086 213.475Z" fill="#B9927A"/>
<path d="M320.36 640.535C318.312 642.884 339.332 659.205 341.862 661.252C344.392 663.3 363.545 679.079 365.111 676.911C367.279 673.96 347.764 659.084 345.295 657.037C342.765 654.989 322.589 638.066 320.36 640.535Z" fill="#B9927A"/>
<path d="M323.552 652.58C321.504 654.929 338.248 668.419 340.236 670.105C342.223 671.792 357.341 684.921 359.027 682.873C361.376 680.103 345.716 667.696 343.729 665.95C341.741 664.263 325.66 649.99 323.552 652.52V652.58Z" fill="#B9927A"/>
<path d="M321.444 659.084C319.336 661.373 331.804 672.033 333.31 673.418C334.815 674.803 345.958 685.282 347.765 683.295C350.234 680.585 338.489 670.768 336.984 669.443C335.478 668.058 323.673 656.675 321.444 659.084Z" fill="#B9927A"/>
<path d="M325.6 670.226C324.275 672.816 330.599 676.429 331.141 677.212C331.984 677.694 336.381 682.933 338.429 681.488C341.561 679.26 335.658 673.659 334.755 673.177C334.153 672.274 327.226 667.094 325.6 670.226Z" fill="#B9927A"/>
<path d="M512.07 139.277C510.806 142.107 518.093 144.637 518.937 145.058C519.78 145.42 526.285 148.491 527.369 146.022C528.814 142.71 522.008 140.481 521.105 140.12C520.262 139.759 513.395 136.265 512.01 139.337L512.07 139.277Z" fill="#B9927A"/>
<path d="M509.962 130.544C509.42 133.435 514.298 134.579 514.84 135.121C515.503 135.302 518.996 138.494 520.923 136.928C523.875 134.398 518.454 130.664 517.611 130.484C517.249 130.243 515.623 129.219 513.876 128.918C512.07 128.556 510.323 128.918 510.022 130.544H509.962Z" fill="#B9927A"/>
<path d="M505.566 121.691C504.783 124.702 508.999 125.124 509.481 125.244C509.962 125.364 513.697 126.448 514.359 123.859C515.263 120.305 511.287 120.125 510.806 119.944C510.324 119.824 506.349 118.438 505.566 121.63V121.691Z" fill="#B9927A"/>
<path d="M503.217 112.958C501.47 115.548 504.903 117.053 505.265 117.294C505.626 117.535 508.396 119.523 509.842 117.294C511.83 114.223 508.637 113.018 508.216 112.777C507.794 112.537 505.024 110.188 503.217 112.958Z" fill="#B9927A"/>
</g>
<defs>
<clipPath id="clip0_306_10592">
<rect width="751" height="758" fill="white" transform="matrix(-1 0 0 1 751 -52)"/>
</clipPath>
</defs>
</svg>
