<svg width="82" height="85" viewBox="0 0 82 85" fill="none" xmlns="http://www.w3.org/2000/svg">
<g clip-path="url(#clip0_306_10887)">
<path d="M6.50901 39.0589C5.3628 41.5121 4.25005 43.9737 3.10384 46.4269C2.66878 47.3563 4.05762 48.1768 4.49268 47.239C5.63889 44.7858 6.75163 42.3243 7.89784 39.871C8.3329 38.9417 6.94406 38.1211 6.50901 39.0589Z" fill="#B9927A"/>
<path d="M2.99563 46.8287C3.28009 57.4621 2.8283 68.1038 3.84901 78.7121C3.94941 79.7336 5.55578 79.7419 5.45538 78.7121C4.4263 68.1038 4.88646 57.4621 4.602 46.8287C4.5769 45.7905 2.96216 45.7905 2.99563 46.8287Z" fill="#B9927A"/>
<path d="M7.20387 40.2645H23.6273C24.6647 40.2645 24.6647 38.657 23.6273 38.657H7.20387C6.16642 38.657 6.16642 40.2645 7.20387 40.2645Z" fill="#B9927A"/>
<path d="M24.321 39.871C25.6847 38.0122 26.9062 36.053 28.27 34.1942C28.8891 33.357 27.4919 32.5532 26.8811 33.3821C25.5174 35.2408 24.2959 37.2001 22.9322 39.0588C22.313 39.8961 23.7102 40.6999 24.321 39.871Z" fill="#B9927A"/>
<path d="M27.7935 34.5626C36.503 32.8294 45.3547 32.6285 54.0559 34.5291C55.0682 34.7468 55.4949 33.1978 54.4826 32.9718C45.5137 31.0042 36.3524 31.2219 27.3668 33.0053C26.3544 33.2062 26.7811 34.7635 27.7935 34.5626Z" fill="#B9927A"/>
<path d="M53.5708 34.1607C54.9262 35.9776 55.8883 38.054 57.2437 39.8709C57.8545 40.6914 59.2517 39.8876 58.6326 39.0587C57.2772 37.2418 56.315 35.1654 54.9597 33.3485C54.3489 32.528 52.9517 33.3318 53.5708 34.1607Z" fill="#B9927A"/>
<path d="M57.9382 40.2645C63.2175 40.2897 68.4968 40.2645 73.7844 40.2645C74.8218 40.2645 74.8218 38.657 73.7844 38.657C68.5051 38.657 63.2259 38.6821 57.9382 38.657C56.9008 38.657 56.9008 40.2645 57.9382 40.2645Z" fill="#B9927A"/>
<path d="M73.0894 39.871C74.5117 41.9391 75.7416 44.1327 77.1639 46.2008C77.7495 47.0465 79.1384 46.2427 78.5527 45.3887C77.1304 43.3206 75.9005 41.1269 74.4782 39.0589C73.8926 38.2132 72.5037 39.017 73.0894 39.871Z" fill="#B9927A"/>
<path d="M77.047 45.7904C77.7246 56.901 77.4235 68.0117 77.3398 79.1307C77.3398 80.1689 78.9378 80.1689 78.9462 79.1307C79.0298 68.0117 79.331 56.901 78.6533 45.7904C78.5864 44.7606 76.98 44.7522 77.047 45.7904Z" fill="#B9927A"/>
<path d="M4.24998 79.407C5.68065 80.0768 7.20336 80.4955 8.69259 80.9978C9.67984 81.3244 10.0982 79.767 9.11928 79.4405C7.76391 78.9884 6.35834 78.6283 5.06153 78.0171C4.13285 77.5817 3.31294 78.9632 4.24998 79.407Z" fill="#B9927A"/>
<path d="M8.90992 81.0229C12.633 81.1401 16.3477 81.1233 20.0708 81.1233C21.1083 81.1233 21.1083 79.5158 20.0708 79.5158C16.3477 79.5158 12.633 79.5325 8.90992 79.4153C7.87247 79.3818 7.87247 80.9894 8.90992 81.0229Z" fill="#B9927A"/>
<path d="M19.4943 80.8891C21.109 82.2371 22.6735 83.6269 24.3887 84.8577C25.2337 85.4606 26.0369 84.0623 25.2002 83.4679C23.5938 82.3208 22.1464 81.0147 20.6321 79.7587C19.8457 79.0973 18.6994 80.236 19.4943 80.8974V80.8891Z" fill="#B9927A"/>
<path d="M24.8982 85.0001C35.4149 84.9331 45.9316 85.0001 56.4482 85.0001C57.4857 85.0001 57.4857 83.3925 56.4482 83.3925C45.9316 83.3925 35.4149 83.3339 24.8982 83.3925C23.8608 83.3925 23.8608 85.0084 24.8982 85.0001Z" fill="#B9927A"/>
<path d="M56.8589 84.8827C58.7413 83.9282 60.6238 82.9821 62.5146 82.0276C63.4433 81.5587 62.6234 80.1689 61.7031 80.6377C59.8206 81.5922 57.9382 82.5384 56.0473 83.4929C55.1187 83.9617 55.9386 85.3516 56.8589 84.8827Z" fill="#B9927A"/>
<path d="M62.1043 82.1366C66.2708 82.1366 70.4373 82.2036 74.5954 82.2036C75.6329 82.2036 75.6329 80.596 74.5954 80.596C70.4289 80.596 66.2624 80.5291 62.1043 80.5291C61.0668 80.5291 61.0668 82.1366 62.1043 82.1366Z" fill="#B9927A"/>
<path d="M75.0056 82.0947C76.202 81.4248 77.3398 80.6713 78.4944 79.9345C79.3645 79.3819 78.5613 77.9836 77.6829 78.5446C76.5283 79.2814 75.3904 80.035 74.194 80.7048C73.2904 81.2071 74.102 82.597 75.0056 82.0947Z" fill="#B9927A"/>
<path d="M20.105 45.263C19.6198 45.0202 20.0632 43.6722 20.7492 42.3409C21.4269 41.0096 22.3389 39.7202 22.5313 39.4356C22.7237 39.1509 23.5353 37.9117 24.464 36.8651C25.3843 35.8102 26.3882 34.9562 26.7396 35.2576C27.2249 35.6678 26.5974 36.7982 25.8695 37.9285C25.1249 39.0588 24.2799 40.1975 24.0958 40.4822C23.9118 40.7585 23.1002 42.0479 22.2887 43.2368C21.4687 44.4257 20.6237 45.5225 20.1134 45.263H20.105Z" fill="#B9927A"/>
<path d="M61.3683 45.7989C60.4397 46.4101 58.0552 42.1568 57.7875 41.6293C57.4612 41.1269 55.2441 37.175 56.0975 36.748C57.2018 36.1786 59.0927 40.1975 59.4106 40.6915C59.6783 41.219 62.297 45.1877 61.3683 45.8073V45.7989Z" fill="#B9927A"/>
<path d="M4.10814 54.0124C4.32567 54.1548 4.31731 54.5566 3.93245 54.9334C3.56432 55.3102 2.86154 55.5949 2.10019 55.4776C1.33047 55.4023 0.569117 54.7827 0.301389 54.1882C0.000195558 53.5938 0.000195565 53.0998 0.000195565 52.924C0.000195565 52.7565 -0.0165374 52.2709 0.259557 51.7015C0.518918 51.1155 1.18824 50.5545 1.86592 50.4289C2.54361 50.2698 3.21293 50.4456 3.58942 50.7387C3.97428 51.0317 4.04958 51.3834 3.89062 51.5341C3.66472 51.7602 3.38863 51.7936 3.12926 51.8606C2.87827 51.9192 2.59381 51.9862 2.37628 52.1034C2.15038 52.229 2.04162 52.3546 1.96632 52.497C1.88266 52.6477 1.87429 52.8151 1.86592 52.8737C1.86592 52.9323 1.88266 53.1082 1.97469 53.2924C2.06672 53.4682 2.17548 53.6105 2.43485 53.7194C2.68584 53.8282 3.0205 53.8533 3.29659 53.8533C3.58105 53.8701 3.86552 53.8198 4.09978 53.9873L4.10814 54.0124Z" fill="#B9927A"/>
<path d="M78.1182 53.8534C78.1014 53.3092 79.005 53.1082 79.6074 52.7817C79.917 52.6142 80.0257 52.4719 80.0592 52.3798C80.1178 52.2626 80.101 52.204 80.101 52.1537C80.101 52.1035 79.9337 51.643 79.3983 51.4253C78.8544 51.1657 78.0178 51.1741 77.909 50.722C77.7333 50.1443 78.57 49.5331 79.8249 49.7173C80.4273 49.801 81.0883 50.2112 81.4229 50.655C81.7827 51.0988 81.9082 51.576 81.9417 51.7518C81.9751 51.9109 82.0923 52.497 81.8162 53.1166C81.5568 53.778 80.8457 54.2804 80.26 54.4311C79.0636 54.7493 78.1182 54.3976 78.1182 53.8534Z" fill="#B9927A"/>
<path d="M71.1823 39.4942C70.9146 39.4942 70.7054 38.9668 70.5548 38.1462C70.3958 37.4429 70.3038 35.7432 70.2369 36.1954C70.2285 36.1954 70.2201 36.2037 70.2118 36.2121C70.2034 36.2121 70.2118 36.2121 70.1867 36.2121H70.0779L69.8604 36.2289C69.5759 36.2456 69.2915 36.2624 69.0154 36.2791C68.4632 36.3042 67.9277 36.3293 67.4508 36.3461C66.4971 36.3712 65.7608 36.3963 65.5014 36.4047C65.2337 36.4131 64.5226 36.4382 63.6106 36.4717C63.1588 36.48 62.6485 36.4884 62.1214 36.5052H61.7198C61.5943 36.5052 61.4019 36.5135 61.4437 36.5052L61.3433 36.4717C61.3433 36.4717 61.3182 36.5135 61.3015 36.5554C61.3015 36.5721 61.3015 36.5554 61.2931 36.5973V36.7815L61.268 37.1499C61.2429 37.6271 61.2094 38.0709 61.1592 38.456C61.0588 39.2096 60.9082 39.7036 60.6823 39.7119C60.3728 39.7203 60.1302 39.243 59.9545 38.4979C59.8624 38.1211 59.7871 37.6857 59.7286 37.2085L59.6867 36.8401L59.6616 36.6559L59.6365 36.3126C59.6031 35.8102 59.5696 35.2995 59.5361 34.7888C60.3811 34.7385 61.2262 34.6883 62.0461 34.6464C62.5732 34.6213 63.0835 34.6046 63.5353 34.5794C64.4473 34.5543 65.1584 34.5292 65.4261 34.5292C65.6939 34.5208 66.4218 34.4873 67.3755 34.4538C67.8524 34.4455 68.3879 34.4287 68.9401 34.412C69.2162 34.412 69.5006 34.412 69.7851 34.4036H70.2954C70.5715 34.3952 70.8393 34.4204 71.0652 34.5125C71.542 34.6883 71.86 35.1404 71.9102 35.6344C71.9269 35.76 71.9353 35.8856 71.9353 36.0112V36.3042L71.9018 36.7061C71.8683 37.2336 71.8181 37.7108 71.7596 38.1295C71.6341 38.9584 71.4417 39.5026 71.1572 39.5026L71.1823 39.4942Z" fill="#B9927A"/>
<path d="M56.6493 66.0944C56.3565 66.0526 56.482 64.579 56.1139 62.4355C55.7541 60.3005 54.7836 57.4705 52.8844 55.1931C51.0187 52.8906 48.3079 51.2663 45.9486 50.5714C43.5809 49.843 41.6398 49.9351 40.9705 49.9769C40.2928 50.0272 38.4689 50.1862 36.3104 51.0989C34.1602 51.9947 31.7674 53.7195 30.1359 55.9802C28.4794 58.2241 27.6176 60.8866 27.3164 62.896C26.9901 64.9139 27.0989 66.287 26.8395 66.3205C26.5551 66.3707 26.0447 64.9976 26.1033 62.7788C26.1367 60.5768 26.9148 57.5626 28.6885 54.9754C30.4371 52.3632 33.1311 50.3788 35.549 49.3657C37.9837 48.3275 40.0753 48.16 40.8283 48.1098C41.5813 48.0596 43.7984 47.934 46.4924 48.7629C49.1697 49.5583 52.2235 51.4254 54.2565 54.0963C56.3314 56.7421 57.235 59.9656 57.327 62.31C57.4358 64.6794 56.892 66.1614 56.641 66.1112L56.6493 66.0944Z" fill="#B9927A"/>
<path d="M55.6792 70.1133C55.9135 70.2222 55.7378 71.1432 55.0266 72.3656C54.3238 73.588 53.0438 75.0616 51.429 76.1919C49.831 77.3474 47.9067 78.126 46.3087 78.4944C44.7024 78.888 43.4307 78.9131 42.9872 78.9382C42.5354 78.9549 41.3307 78.9968 39.808 78.7875C38.2853 78.5782 36.4614 78.0926 34.8048 77.3306C33.1482 76.5771 31.6841 75.5054 30.814 74.509C29.9271 73.521 29.6176 72.6921 29.7933 72.5749C30.061 72.3907 30.6718 72.9349 31.6423 73.6131C32.6044 74.3081 33.9682 75.1119 35.4992 75.7063C37.0303 76.3175 38.6869 76.7278 40.059 76.9036C41.4311 77.0878 42.5103 77.0711 42.9119 77.0543C43.3135 77.0292 44.4514 76.9874 45.8653 76.6441C47.2792 76.3175 48.9609 75.6645 50.4418 74.7183C51.9226 73.789 53.1693 72.6 54.031 71.6455C54.8928 70.6911 55.4115 69.9794 55.6876 70.105L55.6792 70.1133Z" fill="#B9927A"/>
<path d="M19.9295 76.9538C18.8502 77.004 18.7749 64.3361 18.7414 62.7788C18.7079 61.2298 18.3817 49.4326 19.302 49.4326C20.5653 49.4326 20.582 61.1879 20.6155 62.7369C20.649 64.2858 21.0757 76.8952 19.9295 76.9538Z" fill="#B9927A"/>
<path d="M33.1566 57.9057C33.0562 57.8388 33.2235 57.328 33.7757 56.5661C34.3279 55.8125 35.3068 54.8329 36.7458 54.0208C38.1765 53.2086 40.0924 52.589 42.2342 52.6309C44.3844 52.656 46.6601 53.4514 48.5175 54.8664C50.3916 56.2563 51.8473 58.2825 52.4999 60.5096C53.1693 62.7284 53.0354 65.0058 52.4665 66.8813C51.9143 68.7735 50.927 70.2723 49.9649 71.2854C49.0027 72.3068 48.0992 72.8594 47.6223 73.1274C47.1537 73.4037 46.2585 73.8725 44.9868 74.2158C43.7151 74.5507 42.0502 74.7433 40.2096 74.4084C38.3773 74.0902 36.4112 73.1274 34.8885 71.6454C33.349 70.1802 32.1526 68.2293 31.5921 66.1361C31.0064 64.0429 31.0566 61.7991 31.7427 59.9068C32.4203 58.0146 33.6084 56.5494 34.8299 55.6032C36.0514 54.6487 37.2645 54.1799 38.1263 54.0124C38.9964 53.8533 39.49 53.9287 39.5068 54.0292C39.5737 54.3808 37.6076 54.632 35.6247 56.5326C34.6458 57.4536 33.7172 58.7932 33.2235 60.4008C32.7299 62 32.755 63.8839 33.2905 65.6505C33.8092 67.4255 34.855 69.0666 36.1685 70.289C37.4904 71.5365 39.0466 72.2733 40.5526 72.5496C42.0669 72.8176 43.4558 72.6585 44.5099 72.3906C45.5725 72.1143 46.3087 71.7291 46.6936 71.5031C47.0868 71.2854 47.8147 70.8332 48.5928 69.996C49.3709 69.1671 50.1908 67.9279 50.6509 66.3454C51.1278 64.7797 51.2366 62.8708 50.7095 61.0455C50.1908 59.2286 49.0027 57.5038 47.4466 56.2814C45.8904 55.0423 43.9912 54.3138 42.184 54.2134C40.3601 54.0961 38.6534 54.5231 37.3147 55.126C34.5956 56.3568 33.4327 58.1234 33.165 57.9141L33.1566 57.9057Z" fill="#B9927A"/>
<path d="M34.9555 61.6651C34.83 61.6483 34.7547 61.2465 34.8885 60.5515C35.014 59.865 35.3989 58.8937 36.1686 57.9225C36.9299 56.9596 38.1264 56.0051 39.6742 55.5111C41.2303 55.0088 43.0877 55.1009 44.7024 55.7958C46.3255 56.474 47.7646 57.7299 48.5677 59.3123C49.3709 60.8697 49.5633 62.5442 49.4964 63.9676C49.4295 65.3993 49.0697 66.672 48.5928 67.6265C48.1159 68.581 47.5219 69.1838 47.2124 69.4685C46.9028 69.7615 46.2837 70.2555 45.3801 70.6658C44.4682 71.076 43.2215 71.3942 41.8327 71.3523C40.4522 71.3021 38.9212 70.9086 37.5574 70.0462C36.1937 69.2006 35.0391 67.8358 34.4702 66.2868C33.9013 64.7379 33.8343 63.0968 34.1355 61.6567C34.4451 60.2082 35.1311 58.9858 35.9176 58.1402C36.6957 57.2862 37.5658 56.8089 38.2184 56.6414C38.871 56.474 39.2558 56.5661 39.2642 56.6666C39.306 56.9764 37.9507 57.2862 36.8463 58.9188C36.2941 59.6975 35.8339 60.7441 35.6582 61.933C35.4909 63.1219 35.608 64.4448 36.0933 65.6338C36.5786 66.8227 37.457 67.8023 38.5196 68.4554C39.5821 69.1085 40.7953 69.4182 41.8745 69.4517C44.0666 69.5271 45.5307 68.4721 45.9239 68.0786C46.1415 67.8777 46.5347 67.4758 46.8861 66.7725C47.2375 66.0691 47.5303 65.0644 47.5805 63.8671C47.6391 62.6866 47.4801 61.3386 46.8861 60.158C46.3172 58.9858 45.2379 57.9895 43.9829 57.4285C42.7279 56.8424 41.3056 56.7168 40.0841 57.0266C38.8459 57.328 37.8001 58.0146 37.0638 58.743C35.5495 60.225 35.2483 61.7321 34.9387 61.6651H34.9555Z" fill="#B9927A"/>
<path d="M46.2587 58.8269C46.3005 58.7096 46.5181 58.6427 46.8527 58.7766C47.1874 58.9022 47.589 59.279 47.8316 59.8148C48.0826 60.3423 48.1997 61.0038 48.1746 61.6987C48.1495 62.3602 48.024 63.0718 47.7898 63.7584C47.3296 65.1483 46.3507 66.4042 45.3886 67.1494C44.4181 67.9196 43.5061 68.2546 43.1882 68.3634C42.8703 68.4723 41.9918 68.7904 40.787 68.7653C39.5822 68.7653 38.1181 68.2378 37.0723 67.3252C35.993 66.4377 35.3572 65.1734 35.1982 64.2022C35.0476 63.2142 35.2986 62.5862 35.5078 62.6113C35.8341 62.6281 36.0014 63.1807 36.3611 63.8505C36.7293 64.5203 37.3149 65.3492 38.1599 65.9437C38.9882 66.5465 39.9838 66.8647 40.8121 66.8731C41.6571 66.8898 42.3097 66.6805 42.544 66.5968C42.7782 66.5214 43.4559 66.2451 44.1922 65.6674C44.9368 65.0897 45.6814 64.1938 46.1165 63.1388C46.3424 62.6113 46.5013 62.0671 46.6017 61.548C46.7021 61.054 46.7105 60.5935 46.6603 60.2167C46.5934 59.4632 46.1667 59.1115 46.2587 58.8352V58.8269Z" fill="#B9927A"/>
<path d="M41.6818 56.4658C42.0248 56.8844 41.3304 57.73 40.544 58.5589C39.7492 59.3795 38.8623 60.1749 38.6699 60.3674C38.4858 60.5516 37.6994 61.3638 36.9046 62.0755C36.1097 62.7872 35.2982 63.4151 34.9468 63.1221C34.4615 62.7202 34.9301 61.7657 35.6077 60.8866C36.2771 60.0074 37.1555 59.2204 37.348 59.0278C37.5404 58.8352 38.4105 57.9394 39.3559 57.236C40.3013 56.5327 41.3221 56.022 41.6818 56.4658Z" fill="#B9927A"/>
<path d="M44.878 57.1105C45.6143 57.9059 41.2553 61.615 40.745 62.0922C40.2262 62.5695 36.3525 66.2116 35.7251 65.5334C34.8717 64.6041 38.9629 61.188 39.4733 60.7107C39.992 60.2335 44.1083 56.2732 44.878 57.1105Z" fill="#B9927A"/>
<path d="M45.631 58.1152C46.3171 58.9189 42.2426 62.2848 41.7908 62.762C41.2972 63.189 37.8418 66.6972 37.1892 66.0693C36.2606 65.1734 40.0088 61.8243 40.5024 61.3973C40.9542 60.92 44.8697 57.2277 45.631 58.1152Z" fill="#B9927A"/>
<path d="M47.4214 58.9691C48.0823 59.7896 43.715 63.1806 43.2298 63.6578C42.7027 64.0848 38.9712 67.6349 38.3437 66.9818C37.4485 66.0524 41.4561 62.6782 41.9832 62.2428C42.4768 61.7656 46.6851 58.0481 47.4214 58.9607V58.9691Z" fill="#B9927A"/>
<path d="M63.4431 77.8832C62.3639 77.8999 62.3806 64.9306 62.3555 63.3398C62.3304 61.7489 62.0878 49.6755 63.0164 49.6587C64.2798 49.642 64.2128 61.7154 64.2379 63.3063C64.263 64.8971 64.5977 77.8581 63.4515 77.8748L63.4431 77.8832Z" fill="#B9927A"/>
<path d="M34.6708 37.1079C34.6708 36.5888 38.0342 36.3711 41.7489 36.279C42.6776 36.2622 43.6314 36.2455 44.56 36.2287C45.0035 36.212 45.4887 36.2287 45.8234 36.4381C46.1831 36.6557 46.409 37.0158 46.4676 37.426C46.5011 37.6354 46.4927 37.8614 46.4927 38.0791V38.4308C46.4927 38.6485 46.4927 38.8578 46.4927 39.0671C46.4927 39.896 46.4927 40.6579 46.4927 41.3026C46.4927 41.6961 46.4927 42.0478 46.4927 42.3576C46.4927 42.8767 46.317 43.2283 46.0911 43.4628C45.8987 43.6554 45.7063 43.7475 45.5557 43.7977C45.3716 43.873 45.0537 43.9065 44.6521 43.8898C44.4429 43.8898 44.1919 43.8898 43.8991 43.8898C43.3469 43.8898 42.6525 43.8898 41.8828 43.8898C40.3266 43.8898 38.4274 43.8647 36.5868 43.8144L35.9007 43.7977L35.4991 43.7809C35.29 43.7726 35.0808 43.7391 34.8967 43.6721C34.5202 43.5465 34.2107 43.2618 34.0517 42.9102C33.9764 42.7344 33.9346 42.5502 33.9179 42.3576C33.9011 42.165 33.9095 41.9473 33.9179 41.8803C33.9681 41.0347 34.0183 40.256 34.0852 39.5946C34.2191 38.2717 34.3948 37.4009 34.6206 37.4093C34.9386 37.4093 35.1561 38.2801 35.2983 39.603C35.3736 40.2644 35.4238 41.0431 35.474 41.8887C35.474 42.0227 35.4824 42.0227 35.4908 42.031C35.4908 42.0478 35.5075 42.0562 35.5159 42.0645C35.5326 42.0897 35.5661 42.098 35.5912 42.0897H35.6246C35.6246 42.0897 35.8087 42.0729 35.9007 42.0729L36.5868 42.0562C38.4274 42.0059 40.3266 41.9976 41.8828 41.9976C42.6608 41.9976 43.3469 41.9976 43.8991 42.0059C44.1668 42.0059 44.3927 42.0059 44.5851 42.0059H44.5935C44.5935 41.445 44.5935 40.3649 44.5935 39.0671C44.5935 38.8578 44.5935 38.6485 44.5935 38.4308V38.1294V38.121C44.5935 38.1042 44.5935 38.0875 44.5517 38.0875C43.623 38.0624 42.6776 38.0456 41.7405 38.0205C38.0174 37.9033 34.6625 37.6521 34.6541 37.1079H34.6708Z" fill="#B9927A"/>
<path d="M35.8757 36.9991C36.6454 37.7694 35.8505 38.2467 35.7753 38.3304C35.7 38.4058 35.1478 39.0421 34.4868 38.389C33.5916 37.4931 34.3613 37.0829 34.445 36.9991C34.5203 36.9238 35.0641 36.187 35.8757 36.9991Z" fill="#B9927A"/>
<path d="M37.49 37.4513C38.335 38.1881 36.8793 39.3184 36.6952 39.4272C36.553 39.5947 35.206 40.6162 34.7123 39.7956C34.0681 38.7323 35.3482 38.1295 35.4904 37.9787C35.6661 37.8783 36.645 36.7228 37.49 37.4513Z" fill="#B9927A"/>
<path d="M40.5021 37.2252C40.9288 37.5601 40.5523 38.3722 39.9833 39.0923C39.4144 39.8207 38.6614 40.4319 38.5025 40.5743C38.3435 40.7166 37.6742 41.3278 36.9296 41.7632C36.1933 42.2069 35.3985 42.4581 35.1475 42.0646C34.8045 41.5288 35.2897 40.9175 35.8587 40.3566C36.4359 39.804 37.1053 39.3016 37.2475 39.1676C37.3981 39.0337 38.0339 38.4141 38.6865 37.8699C39.3475 37.334 40.0503 36.8651 40.4937 37.2168L40.5021 37.2252Z" fill="#B9927A"/>
<path d="M42.9958 37.1833C43.3974 37.5433 42.9121 38.4057 42.2428 39.1844C41.5819 39.9714 40.7369 40.658 40.5612 40.8171C40.3855 40.9762 39.6325 41.6627 38.8209 42.1818C38.0177 42.7093 37.1644 43.061 36.8883 42.6926C36.5118 42.1818 37.0556 41.4701 37.7082 40.8171C38.3608 40.1724 39.1305 39.5695 39.2978 39.4188C39.4651 39.2681 40.2098 38.5481 40.9795 37.9285C41.7492 37.3173 42.5607 36.7982 42.9874 37.1833H42.9958Z" fill="#B9927A"/>
<path d="M45.3385 38.1462C46.0915 38.9333 43.7154 40.9008 43.4393 41.1688C43.1632 41.4283 41.1385 43.4545 40.4943 42.7847C39.6158 41.8721 41.8664 40.0719 42.1425 39.8124C42.4186 39.5528 44.5437 37.3257 45.3385 38.1546V38.1462Z" fill="#B9927A"/>
<path d="M13.4029 80.1856C13.6623 80.2275 13.8296 80.4703 13.8212 80.8638C13.8129 81.2489 13.6121 81.7346 13.2523 82.1197C12.9093 82.5132 12.4156 82.7979 11.9806 82.9319C11.5455 83.0658 11.1774 83.0658 11.0519 83.0658C10.9264 83.0658 10.5834 83.0658 10.1734 82.9402C9.76347 82.823 9.31168 82.5718 8.97702 82.2286C8.63399 81.8853 8.41646 81.4499 8.383 81.1066C8.34116 80.755 8.46666 80.5121 8.68419 80.4535C9.30331 80.3196 9.6798 80.6712 10.0981 80.8638C10.5081 81.0982 10.9431 81.1903 11.0435 81.182C11.1356 81.1903 11.5957 81.115 12.0392 80.8303C12.4993 80.5791 12.8423 80.127 13.4113 80.1856H13.4029Z" fill="#B9927A"/>
<path d="M74.0606 81.1486C74.32 81.2156 74.4539 81.4835 74.4037 81.8603C74.3535 82.237 74.1108 82.6975 73.7343 83.0408C73.3578 83.4008 72.8559 83.6353 72.4208 83.7357C71.9857 83.8362 71.626 83.8195 71.5005 83.8111C71.375 83.8111 71.0403 83.786 70.6471 83.652C70.2539 83.5181 69.8188 83.2585 69.4925 82.9068C69.1662 82.5552 68.9571 82.1282 68.9236 81.7849C68.8901 81.4332 69.0073 81.1988 69.2332 81.1402C69.8523 81.0062 70.2288 81.3579 70.6471 81.5756C71.0571 81.8184 71.4921 81.944 71.5925 81.9356C71.6929 81.9524 72.1614 81.9021 72.63 81.6509C73.1069 81.4416 73.5084 81.023 74.0606 81.1486Z" fill="#B9927A"/>
<path d="M47.4379 52.0784C47.3877 52.1956 46.4757 51.8188 45.02 51.5676C43.5726 51.3164 41.5479 51.2662 39.5734 51.7769C37.5905 52.2374 35.6997 53.2673 34.4029 54.3474C33.1061 55.4442 32.3364 56.5243 32.1105 56.9345C31.8427 57.3113 31.2152 58.4081 30.7551 59.9404C30.2782 61.4726 30.1192 63.4653 30.3619 65.3659C30.6212 67.2665 31.3073 69.0164 31.9933 70.2053C32.6878 71.4026 33.3069 72.0808 33.2148 72.1562C33.1395 72.2315 32.3949 71.6454 31.575 70.4565C30.7551 69.276 29.9686 67.4507 29.6591 65.458C29.3579 63.4653 29.5169 61.3554 30.0188 59.7227C30.5041 58.09 31.1734 56.9262 31.4662 56.5243C31.7089 56.0889 32.5204 54.9251 33.9009 53.7613C35.2814 52.6058 37.2893 51.5341 39.3893 51.082C41.4809 50.5713 43.6144 50.7052 45.1036 51.082C46.6012 51.4588 47.463 51.9946 47.4211 52.0784H47.4379Z" fill="#B9927A"/>
<path d="M58.9336 62.3854C59.2097 62.7203 58.2141 63.4152 58.097 63.5073C57.9798 63.5994 57.1181 64.3278 56.8838 64.0432C56.5659 63.6496 57.503 63.0217 57.6201 62.9296C57.7372 62.8375 58.6408 62.0337 58.9336 62.3854Z" fill="#B9927A"/>
<path d="M59.4106 63.5575C59.5696 63.6999 59.3521 64.0682 59.0509 64.3864C58.7497 64.713 58.3648 64.9809 58.2812 65.0395C58.1389 65.1902 56.8254 66.0358 56.6413 65.6758C56.4238 65.2488 57.6871 64.5874 57.821 64.445C57.8879 64.3948 58.1306 64.2022 58.5573 63.8673C58.8919 63.6245 59.2266 63.4068 59.3939 63.5575H59.4106Z" fill="#B9927A"/>
<path d="M45.3293 77.9168C45.6305 78.2266 42.6018 80.8472 42.242 81.1738C41.8823 81.5003 39.1297 84.0205 38.8954 83.7358C38.5691 83.3507 41.3803 80.9477 41.74 80.6128C42.0998 80.2863 45.0113 77.5819 45.3293 77.9084V77.9168Z" fill="#B9927A"/>
<path d="M47.5467 77.5819C47.8395 77.9 44.7105 80.7133 44.334 81.0649C43.9575 81.4166 41.1129 84.1126 40.8619 83.8447C40.5188 83.4763 43.4471 80.8723 43.8236 80.5207C44.2001 80.169 47.2371 77.2553 47.5467 77.5902V77.5819Z" fill="#B9927A"/>
<path d="M50.6595 75.8402C50.8269 75.9826 50.007 77.0878 49.0615 78.2013C48.1161 79.3149 47.0369 80.4285 46.8026 80.6713C46.5683 80.9141 45.5727 81.9691 44.5687 82.8985C43.5731 83.8278 42.5692 84.64 42.4437 84.506C42.268 84.3218 43.1381 83.3757 44.0751 82.3961C45.054 81.3914 46.0329 80.395 46.2588 80.1522C46.4847 79.9094 47.497 78.8293 48.5261 77.7325C49.5217 76.6775 50.4755 75.6979 50.6512 75.8402H50.6595Z" fill="#B9927A"/>
<path d="M55.7204 70.4985C55.9045 70.6157 54.8921 72.3573 53.679 74.1239C52.4742 75.8989 51.0686 77.6739 50.7591 78.0591C50.4579 78.4526 49.136 80.1188 47.789 81.6008C46.4503 83.0911 45.0949 84.3972 44.9611 84.2633C44.777 84.0875 45.9818 82.6641 47.2535 81.1319C48.5336 79.608 49.8638 77.9754 50.165 77.5902C50.4662 77.2051 51.8383 75.4217 53.0933 73.7136C54.3567 72.0056 55.5196 70.3729 55.712 70.4985H55.7204Z" fill="#B9927A"/>
<path d="M27.2911 37.4177C27.2158 37.4177 27.1823 37.1414 27.4835 36.9405C27.6257 36.8484 27.8265 36.7898 28.0524 36.8149C28.2699 36.84 28.5711 36.9824 28.705 37.3005L28.7719 37.468L28.6464 37.6271C28.3034 38.0708 27.609 38.121 27.1907 37.6522L27.1154 37.5684V37.4512C27.0652 36.8316 27.6425 36.4046 28.1779 36.5637C28.6632 36.7312 28.8305 37.1749 28.7719 37.5098L28.7468 37.6605L28.6381 37.7443C28.4289 37.895 28.2448 37.895 28.1612 37.895C28.0189 37.8782 27.6006 37.8447 27.4333 37.3005C27.3747 37.0745 27.4919 36.8065 27.9102 36.6391C28.1193 36.5637 28.4038 36.5888 28.5795 36.6977C28.7719 36.7982 28.8472 36.9321 28.9393 37.0745C28.9393 37.3089 28.8221 37.6354 28.5628 37.7694C28.3034 37.9117 28.0022 37.9201 27.7428 37.7108L27.6257 37.6103V37.4763C27.6174 37.0996 27.9018 36.8819 28.1193 36.8149C28.3452 36.7395 28.6548 36.7898 28.8054 36.9991L28.8305 37.0326C28.8974 37.1414 28.9058 37.2921 28.8556 37.3926C28.8138 37.4931 28.7468 37.5517 28.6883 37.5936C28.5711 37.6689 28.454 37.6857 28.3452 37.6689C28.1026 37.6103 28.111 37.4177 28.1612 37.4261C28.2281 37.401 28.3118 37.4177 28.3452 37.3508C28.362 37.3256 28.3954 37.2921 28.4038 37.2587C28.4038 37.2419 28.3871 37.2335 28.4456 37.2587C28.4875 37.2754 28.4875 37.2587 28.4456 37.2838L28.4122 37.3591C28.4122 37.3591 28.3787 37.3759 28.3285 37.4094C28.3118 37.4261 28.2867 37.4429 28.2867 37.4512C28.3034 37.4596 28.203 37.4177 28.2532 37.4345L28.1444 37.2252C28.1946 37.1163 28.1779 37.1666 28.1695 37.1498C28.1695 37.1582 28.1444 37.1331 28.1946 37.1498C28.1946 37.1414 28.2114 37.2335 28.2114 37.2168L28.0273 37.3926C28.0273 37.3926 28.0022 37.3089 27.952 37.2921C27.9604 37.2587 27.8349 37.3508 27.8432 37.3842L27.7679 37.1917C27.793 37.2754 28.0608 37.3089 28.1277 37.2252L28.0775 37.5266C28.0859 37.4094 27.8014 37.2838 27.6425 37.3256C27.4668 37.334 27.3664 37.4429 27.2743 37.4177H27.2911Z" fill="#B9927A"/>
<path d="M53.1775 36.6809C53.2026 36.639 53.3197 36.639 53.4285 36.7814C53.5122 36.9237 53.5874 37.2084 53.3197 37.4763C53.0269 37.7442 52.4914 37.627 52.3074 37.1749C52.2237 36.9405 52.2404 36.7144 52.5333 36.5218C52.8094 36.3125 53.1691 36.2874 53.4369 36.3209C53.5372 36.4465 53.7046 36.6558 53.7129 36.8818C53.7297 37.0912 53.6711 37.267 53.5875 37.4177C53.4369 37.7107 53.0436 37.9536 52.6588 37.8531C52.2321 37.7359 52.0898 37.3675 52.0647 37.1581C52.0313 36.9321 52.0815 36.7563 52.1149 36.6642C52.1484 36.5721 52.2572 36.3209 52.5667 36.1869C52.8261 36.0781 53.2026 36.1702 53.4118 36.3795C53.6544 36.5804 53.8133 37.0744 53.5791 37.401C53.395 37.6856 53.0018 37.7777 52.6755 37.6438C52.5165 37.5768 52.4078 37.4931 52.299 37.3507C52.1986 37.2084 52.1568 36.9907 52.2153 36.8232L52.2404 36.7479L52.2739 36.706C52.3827 36.5721 52.5751 36.5051 52.709 36.5218C52.8512 36.5302 52.9516 36.5804 53.0436 36.6474C53.211 36.7563 53.3532 37.0493 53.2277 37.2837V37.2586H53.2361C53.211 37.3675 53.0604 37.5098 52.9181 37.5014C52.7926 37.5014 52.7257 37.4596 52.6755 37.4177C52.5751 37.334 52.5249 37.2502 52.4998 37.1414C52.4747 37.0326 52.55 36.9153 52.6086 36.8986C52.6671 36.8818 52.6922 36.8986 52.7006 36.9237C52.7257 36.9907 52.7006 37.0744 52.7926 37.0493C52.8177 37.0493 52.8596 37.066 52.893 37.066C52.893 37.066 52.9098 37.0577 52.9098 37.066C52.9014 37.0995 52.893 37.1414 52.893 37.1581C52.9014 37.2168 52.9098 37.1581 52.8094 37.1414V37.1163C52.8094 37.1163 52.8261 37.1163 52.7759 37.133C52.7173 37.1665 52.7257 37.1665 52.709 37.1665C52.6922 37.1581 52.6839 37.2 52.7006 37.1163C52.7006 37.0493 52.6671 37.0242 52.7006 37.066L52.8428 37.0074C52.7675 36.9991 52.8177 37.0074 52.8679 36.9739C52.8679 36.9739 52.9098 36.9991 52.9181 36.9907C52.9265 36.9907 52.9181 36.9739 52.9181 36.9739C52.9098 36.9656 52.9349 36.9907 52.893 36.9488C52.8345 36.8986 52.8345 36.9153 52.8345 36.907C52.8345 36.907 52.8261 36.907 52.8177 36.9321C52.8177 36.9488 52.801 36.9823 52.8177 37.0409C52.8345 37.1079 52.8596 37.133 52.8512 37.1247C52.8345 37.1247 52.8847 37.133 52.9432 37.0493C52.9934 36.9488 52.9851 36.9405 52.9767 36.9321C52.9767 36.9321 52.9014 36.9237 52.893 36.9823C52.8763 37.0326 52.9767 37.0912 53.0102 37.0912C53.0687 37.0912 53.1357 36.9739 53.144 36.8986C53.1608 36.8149 53.144 36.7395 53.1775 36.6893V36.6809Z" fill="#B9927A"/>
<path d="M24.0282 43.3708C24.0199 43.3206 24.0533 43.262 24.1537 43.2368C24.2541 43.2033 24.4298 43.2452 24.5553 43.3708C24.6892 43.488 24.7812 43.6638 24.8063 43.8899C24.8398 44.0992 24.7226 44.4676 24.388 44.5932L24.3211 44.6183H24.2207C24.0031 44.61 23.7856 44.4509 23.6936 44.2751C23.5932 44.1076 23.5681 43.9401 23.5764 43.7727C23.5848 43.6136 23.635 43.4462 23.7521 43.2954C23.8609 43.1447 24.0617 43.0443 24.2374 43.0359H24.3294L24.4131 43.061C24.6725 43.1615 24.7979 43.4294 24.8063 43.5801C24.823 43.7392 24.8063 43.8313 24.7812 43.8899C24.7645 43.9569 24.731 44.0741 24.6223 44.2164C24.5721 44.2834 24.48 44.3588 24.3629 44.4174C24.2374 44.476 24.0617 44.4844 23.9111 44.4341L23.8609 44.4174L23.8107 44.3839C23.6099 44.2416 23.5179 43.9569 23.5597 43.7559C23.5932 43.5466 23.6852 43.3624 23.886 43.2201C24.1035 43.0694 24.4131 43.0861 24.6139 43.2536C24.7979 43.4127 24.8732 43.622 24.8481 43.8313C24.823 44.0574 24.6306 44.2416 24.4717 44.2667C24.3127 44.3085 24.1788 44.2667 24.0868 44.2164C23.886 44.0992 23.9027 43.9234 23.9613 43.9067C24.0533 43.8732 24.1454 43.8815 24.2123 43.8397C24.2458 43.8229 24.2792 43.7978 24.2876 43.7727C24.2876 43.7727 24.3378 43.8062 24.2625 43.7727C24.1956 43.7727 24.1872 43.8062 24.2458 43.7392C24.2709 43.7141 24.2709 43.6722 24.2541 43.7141C24.2541 43.6973 24.2541 43.7141 24.2792 43.7559C24.3211 43.8062 24.3294 43.8062 24.3211 43.8062V43.8229C24.2625 43.8062 24.1537 43.8732 24.2039 43.8313L24.137 43.7811C24.1203 43.8313 24.137 43.8313 24.1203 43.8062C24.1203 43.7727 24.0366 43.6973 24.0533 43.7141C24.0533 43.7141 24.0701 43.689 24.0701 43.6806C24.0868 43.6806 24.045 43.6638 24.0952 43.6555C24.1788 43.6555 24.229 43.5717 24.1788 43.6555L24.3127 43.7225C24.3127 43.6638 24.2876 43.6806 24.3462 43.7225C24.3713 43.7392 24.3462 43.7476 24.3462 43.7894C24.3462 43.8229 24.3462 43.8648 24.3462 43.8732C24.3545 43.8732 24.3127 43.8983 24.3043 43.915C24.3043 43.9318 24.3043 43.915 24.3043 43.8732L24.1537 43.8899C24.1537 43.8899 24.1621 43.915 24.2039 43.848C24.2207 43.7811 24.2123 43.689 24.2039 43.6304C24.1872 43.4964 24.0784 43.4378 24.045 43.3289L24.0282 43.3708Z" fill="#B9927A"/>
<path d="M57.0846 43.8731C57.0595 43.8061 57.1348 43.6973 57.3523 43.6638C57.5782 43.6303 57.9296 43.781 58.122 44.1075C58.0802 44.2582 58.0551 44.4257 57.9463 44.5931C57.8376 44.7606 57.687 44.8946 57.5531 44.9615C57.4109 45.0453 57.2268 45.0871 57.0428 45.0704C56.842 45.0536 56.6663 44.9615 56.5491 44.8443C56.3065 44.6266 56.2061 44.2917 56.2898 43.9987C56.3651 43.714 56.6579 43.5549 56.7248 43.5549C56.8001 43.5298 56.934 43.4963 57.1181 43.5382C57.2938 43.58 57.528 43.6973 57.6368 43.9317C57.6953 44.0322 57.7037 44.2331 57.6786 44.275C57.6786 44.3168 57.6619 44.3252 57.6619 44.3252C57.6451 44.2917 57.7037 44.3001 57.6368 44.0573C57.6117 43.9987 57.62 43.9484 57.5698 43.8898L57.3523 43.7056L57.2436 43.6135C57.2436 43.6135 57.1766 43.5968 57.1432 43.5884L56.9507 43.5549C56.7918 43.5549 56.7416 43.58 56.7416 43.58C56.7416 43.58 56.8085 43.5549 56.9507 43.5465C57.1432 43.5717 57.4025 43.5717 57.6117 43.8731C57.6953 44.0238 57.6954 44.1661 57.6535 44.3001C57.6201 44.4341 57.4611 44.5848 57.3021 44.5931C57.2101 44.6015 57.0846 44.5513 57.0344 44.4843C56.9758 44.4173 56.9758 44.3587 56.9675 44.3085C56.9675 44.2164 56.9926 44.1494 57.0428 44.0824C57.093 44.007 57.2185 43.9987 57.2519 44.0322C57.2854 44.0573 57.2854 44.0908 57.277 44.1075C57.2603 44.1326 57.2352 44.1578 57.2268 44.1829C57.2268 44.1829 57.2101 44.1745 57.2603 44.208C57.3189 44.2331 57.3523 44.2331 57.3356 44.2331C57.3189 44.2331 57.277 44.2499 57.2603 44.2666C57.2352 44.2666 57.2603 44.3252 57.2436 44.208C57.2603 44.2499 57.2352 44.1829 57.1683 44.1745C57.1013 44.1661 57.1348 44.1745 57.185 44.1494C57.0511 44.2917 57.1264 44.2331 57.0846 44.2499C57.0679 44.2499 56.9926 44.2499 56.9591 44.2499C56.9591 44.2917 56.9591 44.2582 56.9591 44.2666L56.9173 44.1912V44.1745L56.9842 44.2164C57.0511 44.2164 57.0009 44.2499 57.0595 44.3001C57.0762 44.3252 57.1013 44.3336 57.1097 44.3336C57.1348 44.3336 57.1766 44.3336 57.2185 44.3252C57.277 44.3001 57.2938 44.2917 57.3105 44.2917C57.3272 44.2917 57.3523 44.2666 57.3691 44.2499C57.3942 44.1996 57.3523 44.1243 57.2854 44.0657C57.2017 43.9987 57.1013 43.9652 57.0846 43.8815V43.8731Z" fill="#B9927A"/>
<path d="M55.2358 45.9244C55.2274 46.1421 52.1988 46.0667 48.9944 46.0249C45.79 45.9746 42.3932 45.9663 41.6486 45.9663C40.904 45.9663 37.7247 45.9997 34.7212 46.0751C31.7176 46.1337 28.9065 46.2258 28.8897 46.0332C28.873 45.7821 31.6841 45.5058 34.6961 45.3718C37.6996 45.2211 40.8956 45.2211 41.6403 45.2127C42.3849 45.2127 45.79 45.1792 49.0028 45.3132C52.2155 45.4304 55.2442 45.69 55.2274 45.916L55.2358 45.9244Z" fill="#B9927A"/>
<path d="M61.8622 38.7657C61.469 38.5899 62.1383 37.2754 62.2136 37.1079C62.2889 36.9405 62.816 35.6678 63.159 35.8185C63.6191 36.0195 62.9749 37.2419 62.908 37.4093C62.8327 37.5768 62.2889 38.9499 61.8705 38.7657H61.8622Z" fill="#B9927A"/>
<path d="M63.2255 39.0003C63.0164 38.9584 63.0247 38.5063 63.1586 38.0458C63.2841 37.5937 63.5435 37.1583 63.5937 37.0578C63.6439 36.9657 63.8698 36.5471 64.171 36.2205C64.4638 35.8856 64.8152 35.6596 64.9407 35.7852C65.1247 35.961 64.9407 36.3043 64.7315 36.6392C64.4638 37.0662 64.2965 37.3341 64.2463 37.4179C64.2044 37.5016 64.0622 37.7946 63.8196 38.2886C63.6271 38.6654 63.4431 39.0422 63.2172 38.9919L63.2255 39.0003Z" fill="#B9927A"/>
<path d="M64.1712 39.4608C63.9704 39.3854 64.0541 38.8831 64.2633 38.3807C64.4641 37.8783 64.7736 37.4011 64.8406 37.2922C64.9075 37.1834 65.1836 36.7313 65.5182 36.3545C65.8529 35.9777 66.2294 35.6847 66.3633 35.8103C66.5473 35.9777 66.3298 36.3796 66.0788 36.7731C65.7609 37.2504 65.5433 37.5853 65.4764 37.6774C65.4262 37.7695 65.217 38.1379 64.8991 38.6737C64.6398 39.1091 64.3888 39.5194 64.1712 39.444V39.4608Z" fill="#B9927A"/>
<path d="M65.853 39.0253C65.4347 38.8411 66.3801 37.1749 66.5307 36.9991C66.6311 36.7814 67.6183 35.3078 67.9279 35.5506C68.3128 35.852 67.2669 37.1749 67.1749 37.3842C67.0327 37.5601 66.2546 39.2011 65.853 39.0253Z" fill="#B9927A"/>
<path d="M67.4595 39.2514C67.0663 39.0588 67.9866 37.3927 68.087 37.1833C68.1874 36.974 68.9487 35.3748 69.2834 35.5423C69.7352 35.7684 68.8651 37.3089 68.7647 37.5183C68.6643 37.7276 67.8695 39.4607 67.4595 39.2514Z" fill="#B9927A"/>
<path d="M68.7891 38.9499C68.6385 38.7908 68.8561 38.4559 69.082 38.0959C69.3078 37.7442 69.5421 37.3674 69.5839 37.2753C69.6341 37.1916 69.8098 36.8148 69.9772 36.4548C70.1529 36.0948 70.3035 35.7515 70.4875 35.785C70.7385 35.8352 70.7553 36.2622 70.6381 36.6892C70.5294 37.1246 70.2951 37.5349 70.2449 37.627C70.1947 37.7191 69.9688 38.1712 69.6425 38.5229C69.3246 38.8745 68.9397 39.1173 68.7808 38.9499H68.7891Z" fill="#B9927A"/>
<path d="M8.77667 35.1655C8.7683 34.9478 11.4372 34.7385 14.2651 34.5794C14.9762 34.5375 15.6958 34.504 16.3818 34.4705C17.0595 34.4538 17.7288 34.3366 18.44 34.5291C19.1595 34.7133 19.6698 35.358 19.6615 35.9693C19.6531 36.6307 19.1762 36.9321 19.0173 37.0242C18.8248 37.1331 18.4734 37.2503 18.0384 37.2838C17.595 37.3089 17.1348 37.3005 16.5575 37.3089C15.4448 37.3089 14.081 37.3256 12.7424 37.334C12.0814 37.334 11.4372 37.334 10.8181 37.3256C10.2157 37.3256 9.53802 37.2503 9.0946 36.8568C8.65117 36.4381 8.63444 35.9023 8.75994 35.6009C8.90217 35.2827 9.1197 35.2408 9.13643 35.2743C9.17826 35.3329 9.05276 35.4501 9.03603 35.6846C9.01093 35.9023 9.11133 36.279 9.41252 36.4884C9.72208 36.7061 10.2324 36.7479 10.8265 36.7144C11.4456 36.6893 12.0982 36.6726 12.7508 36.6474C14.0894 36.6223 15.4448 36.5972 16.5659 36.5721C17.1181 36.5637 17.6452 36.5721 17.9965 36.547C18.3563 36.5219 18.5822 36.4381 18.6742 36.3879C18.7746 36.3377 18.9336 36.2204 18.9252 36.0027C18.9252 35.7767 18.6993 35.3915 18.2475 35.2827C17.7957 35.1487 17.1181 35.2241 16.432 35.2408C15.746 35.2659 15.0264 35.2911 14.3153 35.3162C11.479 35.3999 8.80177 35.425 8.7934 35.199L8.77667 35.1655Z" fill="#B9927A"/>
<path d="M10.8346 39.4859C10.3995 39.4859 10.4915 38.4226 10.4915 38.297C10.4915 38.1714 10.4664 37.175 10.8346 37.175C11.3449 37.175 11.2362 38.163 11.2362 38.297C11.2362 38.431 11.2863 39.4859 10.8346 39.4859Z" fill="#B9927A"/>
<path d="M17.5357 39.0254C17.1007 39.0254 17.1927 38.0709 17.1927 37.9537C17.1927 37.8365 17.1676 36.949 17.5357 36.949C18.0461 36.949 17.9373 37.8365 17.9373 37.9537C17.9373 38.0709 17.9875 39.0254 17.5357 39.0254Z" fill="#B9927A"/>
<path d="M11.9972 37.1498C12.2817 37.4764 11.7211 37.8615 11.6542 37.9117C11.5956 37.9703 11.1355 38.4057 10.8845 38.1294C10.5498 37.7527 11.0936 37.4094 11.1522 37.3508C11.2108 37.2922 11.6877 36.8065 11.9888 37.1498H11.9972Z" fill="#B9927A"/>
<path d="M12.9845 37.2252C13.2606 37.5601 12.3403 38.2132 12.2399 38.3053C12.1312 38.3974 11.3447 39.084 11.1021 38.7993C10.7758 38.4141 11.6459 37.8113 11.7547 37.7276C11.8634 37.6439 12.6917 36.8736 12.9845 37.2252Z" fill="#B9927A"/>
<path d="M15.2522 36.7061C15.3443 36.8986 15.0431 37.1498 14.7168 37.3926C14.3235 37.6857 14.0391 37.8866 13.9638 37.9452C13.7881 38.0373 12.8176 39.0588 12.5499 38.8495C12.3574 38.6904 12.5248 38.322 12.7925 38.0038C13.0602 37.6773 13.4116 37.4177 13.4953 37.3591C13.5706 37.2922 13.9387 36.9907 14.3319 36.7982C14.7251 36.5972 15.1435 36.5051 15.2439 36.7061H15.2522Z" fill="#B9927A"/>
<path d="M16.7165 36.3292C17.0177 36.639 15.7795 37.7358 15.6289 37.8698C15.4867 38.0121 14.399 39.1006 14.1397 38.841C13.7883 38.481 14.9596 37.4763 15.1018 37.3339C15.244 37.1916 16.3903 36.0027 16.7082 36.3292H16.7165Z" fill="#B9927A"/>
<path d="M16.8836 37.1916C17.1263 37.5265 16.2143 38.213 16.1306 38.3303C16.0135 38.4224 15.3526 39.2596 15.0597 39.0503C14.633 38.7405 15.4697 37.8949 15.5868 37.8028C15.6705 37.6772 16.5992 36.8064 16.8836 37.1916Z" fill="#B9927A"/>
<path d="M16.3897 39.0085C16.055 38.7322 16.6574 38.1462 16.716 38.0708C16.7829 37.9954 17.2598 37.3842 17.5443 37.6187C17.9291 37.9452 17.3602 38.4727 17.2933 38.548C17.2263 38.6234 16.7411 39.3016 16.3897 39.0085Z" fill="#B9927A"/>
<path d="M16.8665 39.0506C16.741 39.4692 14.457 38.8245 14.1725 38.7575C13.8881 38.6905 11.7295 38.1882 11.7964 37.8281C11.8885 37.3258 14.0554 37.9621 14.3482 38.0291C14.6327 38.0961 17.0004 38.6152 16.8665 39.0589V39.0506Z" fill="#B9927A"/>
<path d="M17.7874 38.3556C17.5866 38.7407 16.658 38.1546 16.5408 38.0877C16.4237 38.0291 15.5117 37.5686 15.6874 37.242C15.9217 36.7899 16.7751 37.3592 16.8922 37.4178C17.0093 37.4765 18.005 37.9453 17.7874 38.3472V38.3556Z" fill="#B9927A"/>
<path d="M15.9386 38.1212C15.7211 38.4644 14.7171 37.87 14.5581 37.8532C14.4243 37.7779 13.3617 37.5518 13.4035 37.2085C13.4788 36.681 14.6753 37.0662 14.8091 37.1499C14.8844 37.175 15.2358 37.2923 15.537 37.4848C15.8298 37.6774 16.0557 37.937 15.9386 38.1295V38.1212Z" fill="#B9927A"/>
<path d="M23.5429 76.9288C23.4676 76.8702 23.6349 76.5353 24.1453 76.3762C24.6305 76.2255 25.4086 76.3176 25.9273 76.9204C26.1783 77.2218 26.3038 77.6321 26.2704 78.0089C26.2453 78.3857 26.1114 78.7122 25.9273 78.9634C25.5676 79.4825 25.0572 79.6583 24.8899 79.6918C24.7309 79.742 24.1871 79.8174 23.6767 79.4825C23.1748 79.1811 22.7397 78.528 22.8066 77.7912C22.8736 77.0293 23.5178 76.5688 23.9863 76.5018C24.4967 76.4264 24.7644 76.6944 24.7058 76.7613C24.6389 76.8786 24.3963 76.8283 24.1118 76.9707C23.8273 77.1046 23.4927 77.4479 23.5094 77.8331C23.4927 78.2266 23.7771 78.6536 24.07 78.8294C24.3712 79.0136 24.6222 78.9717 24.7142 78.955C24.7979 78.9383 25.0823 78.8462 25.3082 78.528C25.5425 78.2182 25.6261 77.7075 25.3751 77.3642C25.1158 77.0042 24.5971 76.8451 24.2457 76.8618C23.8775 76.8618 23.6433 77.0125 23.5513 76.9288H23.5429Z" fill="#B9927A"/>
<path d="M16.8757 45.8073C16.8757 46.8874 11.0359 46.6781 10.3247 46.6781C9.61358 46.6781 4.16699 46.7367 4.16699 45.8073C4.16699 44.5431 9.60521 44.7942 10.3247 44.7942C11.0442 44.7942 16.8757 44.6603 16.8757 45.8073Z" fill="#B9927A"/>
<path d="M64.9322 45.8657C64.8987 45.3215 66.3796 45.0117 67.9609 44.8694C69.5421 44.727 71.2322 44.7522 71.6003 44.7522C72.3365 44.7019 77.9254 44.727 77.8835 45.6899C77.8333 46.9291 72.3533 46.5858 71.6254 46.636C71.2656 46.636 69.6091 46.6946 68.0362 46.6528C66.4633 46.6025 64.974 46.4434 64.9406 45.8741L64.9322 45.8657Z" fill="#B9927A"/>
<path d="M78.4109 48.3861C78.7204 48.8383 77.022 50.2533 75.1981 51.7017C73.3408 53.1419 71.4081 54.6406 70.9814 54.9755C70.5631 55.3104 68.781 56.7421 67.0575 58.1236C65.334 59.4716 63.6858 60.7024 63.3679 60.3591C62.9412 59.8986 64.2882 58.2995 65.903 56.7924C67.5093 55.2685 69.3834 53.8452 69.8101 53.5103C70.2368 53.167 72.1778 51.5845 74.144 50.2784C76.1101 48.9639 78.0846 47.9173 78.4109 48.3861Z" fill="#B9927A"/>
<path d="M78.3438 51.2915C79.0215 52.1371 71.4164 57.998 70.4961 58.7348C69.5757 59.4716 62.6566 65.14 62.0794 64.4115C61.2845 63.4235 68.4044 58.0064 69.3247 57.2696C70.2451 56.5328 77.6327 50.3956 78.3438 51.2831V51.2915Z" fill="#B9927A"/>
<path d="M78.9879 53.8198C79.7074 54.6739 72.3365 60.3841 71.4162 61.0623C70.5377 61.7907 63.6688 67.099 63.0999 66.3287C62.3637 65.3324 69.3831 60.3171 70.2533 59.5887C71.1736 58.9105 78.2767 52.9742 78.9879 53.8282V53.8198Z" fill="#B9927A"/>
<path d="M19.0005 48.5869C19.2683 49.0641 17.5448 50.2782 15.679 51.509C13.8133 52.7314 11.8054 53.9706 11.3787 54.2469C10.9436 54.5315 9.10298 55.754 7.34601 56.8759C5.58068 57.9895 3.88229 58.9858 3.59783 58.6091C3.22133 58.1067 4.652 56.7168 6.33367 55.4274C8.00697 54.1296 9.91453 52.9491 10.3496 52.6728C10.7846 52.3881 12.7759 51.0569 14.7587 49.9851C16.7416 48.9051 18.7161 48.0845 19.0005 48.5869Z" fill="#B9927A"/>
<path d="M20.1212 51.9946C20.6733 52.924 12.8925 57.2694 11.9555 57.822C11.01 58.3746 3.89852 62.6447 3.43 61.8409C2.79415 60.7441 10.0563 56.7587 11.0017 56.1977C11.9387 55.6451 19.5355 51.0066 20.1212 51.9862V51.9946Z" fill="#B9927A"/>
<path d="M19.9202 54.8246C20.4641 55.7624 12.6999 59.932 11.7629 60.4679C10.8259 61.0037 3.7227 65.1064 3.27091 64.3026C2.65179 63.1974 9.8888 59.371 10.8342 58.8352C11.7713 58.2993 19.3429 53.8367 19.9202 54.8246Z" fill="#B9927A"/>
<path d="M19.1345 56.9847C19.695 57.9141 12.3911 62.1089 11.5126 62.6447C11.0692 62.9126 9.1867 64.0932 7.29587 65.0561C5.41341 66.0273 3.49748 66.672 3.31342 66.245C3.05406 65.6673 4.68552 64.6291 6.42575 63.5155C8.17435 62.4186 10.0903 61.2967 10.5337 61.0288C11.4206 60.4929 18.5404 55.9884 19.1345 56.968V56.9847Z" fill="#B9927A"/>
<path d="M19.0166 70.5739C19.3262 71.0176 17.8621 72.2987 16.172 73.4708C14.4904 74.6514 12.5912 75.7064 12.1812 75.9408C11.7713 76.1836 10.0143 77.2135 8.2657 78.0256C6.52547 78.8461 4.81034 79.4322 4.60954 79.0136C4.33345 78.4442 5.81432 77.4395 7.43742 76.4683C9.06051 75.5054 10.8258 74.5593 11.2274 74.3165C11.629 74.0821 13.4529 72.9685 15.2099 71.9721C16.9669 70.9758 18.682 70.0966 19.0083 70.5655L19.0166 70.5739Z" fill="#B9927A"/>
<path d="M19.5019 73.1693C20.0373 74.1155 14.6744 76.912 14.0302 77.2804C13.386 77.6488 8.51668 80.4787 8.06489 79.675C7.4374 78.5698 12.4573 76.0161 13.1099 75.6477C13.7541 75.2793 18.9413 72.1814 19.5103 73.1777L19.5019 73.1693Z" fill="#B9927A"/>
<path d="M78.6531 66.3707C79.0045 66.781 77.4986 68.2964 75.683 69.5858C73.8759 70.892 71.8261 72.0223 71.391 72.2819C70.956 72.5414 69.0651 73.6466 67.2496 74.576C65.4257 75.5054 63.7022 76.3343 63.4512 75.9407C63.1082 75.4049 64.6225 74.1574 66.3628 73.0522C68.0946 71.9386 70.0106 70.9171 70.4373 70.6576C70.8639 70.398 72.805 69.2426 74.6958 68.1039C76.5532 67.007 78.285 65.9186 78.6531 66.3623V66.3707Z" fill="#B9927A"/>
<path d="M13.3533 36.9237C13.3199 37.1247 12.182 37.0912 10.9354 37.2084C10.6175 37.2252 10.2996 37.2419 9.99836 37.2587C9.8394 37.2587 9.6888 37.2587 9.54657 37.267C9.43781 37.267 9.33741 37.267 9.22865 37.267C9.09478 37.267 8.97765 37.2168 8.88562 37.1414C8.79359 37.0577 8.74339 36.9572 8.70992 36.84C8.69319 36.7395 8.67646 36.6474 8.65973 36.5637C8.64299 36.4549 8.62626 36.346 8.60953 36.2539C8.57606 36.0697 8.55933 35.9358 8.54259 35.8604C8.54259 35.8269 8.52586 35.7767 8.5175 35.7097C8.5175 35.6427 8.45893 35.4418 8.47566 35.2994C8.4924 35.1487 8.58443 34.9729 8.75176 34.8892C8.88562 34.7971 9.23701 34.8054 9.30395 34.7887C9.7892 34.7636 10.3832 34.7217 10.9856 34.6882C12.1569 34.638 13.2613 34.638 13.278 34.8222C13.2948 35.0734 12.2071 35.2659 11.0358 35.3915C10.4502 35.4585 9.84777 35.5088 9.35414 35.5422C9.17845 35.559 9.27048 35.5422 9.24538 35.5422C9.24538 35.5422 9.24538 35.5171 9.24538 35.5757C9.25375 35.6427 9.26211 35.693 9.27048 35.7264C9.28721 35.8269 9.33741 36.12 9.40434 36.4967H9.51311C9.65534 36.4967 9.79757 36.4967 9.94817 36.4967C10.2494 36.4967 10.5589 36.4884 10.8852 36.48C12.1486 36.4381 13.3701 36.6642 13.3282 36.907L13.3533 36.9237Z" fill="#B9927A"/>
<path d="M32.9302 27.471C32.4031 27.5966 32.0601 27.1026 31.7756 26.5835C31.4911 26.0644 31.2485 25.5034 31.1816 25.3778C31.1146 25.2606 30.8134 24.7666 30.5541 24.2726C30.3031 23.7702 30.0939 23.2427 30.4202 22.9162C30.872 22.4725 31.4828 22.732 31.9513 23.2093C32.4282 23.6781 32.7377 24.3228 32.813 24.4652C32.8967 24.6075 33.2816 25.2522 33.4238 25.9555C33.5744 26.6504 33.4824 27.3538 32.9218 27.4793L32.9302 27.471Z" fill="#B9927A"/>
<path d="M41.8406 24.6913C40.7613 24.775 40.778 22.2129 40.7529 21.9031C40.7278 21.5933 40.4852 19.2239 41.4139 19.1569C42.6772 19.0564 42.6019 21.451 42.627 21.7608C42.6521 22.0706 42.9784 24.6075 41.8406 24.6996V24.6913Z" fill="#B9927A"/>
<path d="M53.0516 23.2009C53.403 23.6112 53.1771 24.1052 52.8843 24.5405C52.5831 24.9759 52.2149 25.3778 52.1396 25.4783C52.0643 25.5788 51.7715 25.9974 51.4452 26.3742C51.1106 26.7426 50.7173 27.0691 50.2906 26.8765C49.7134 26.6086 49.7134 26.0225 49.9309 25.4783C50.14 24.9341 50.55 24.4736 50.6337 24.3563C50.7173 24.2391 51.0855 23.7033 51.5874 23.3349C52.0811 22.9581 52.6835 22.7739 53.0516 23.2093V23.2009Z" fill="#B9927A"/>
<path d="M25.2167 84.4977C24.7901 84.4139 25.0243 83.719 25.041 83.6353C25.0578 83.5515 25.1749 82.8817 25.5347 82.9571C26.0283 83.0575 25.794 83.6939 25.7773 83.786C25.7606 83.8697 25.6685 84.5898 25.2167 84.4977Z" fill="#B9927A"/>
<path d="M26.1706 84.1794C26.0283 84.0119 26.0869 83.8445 26.1538 83.6854C26.271 83.4426 26.3128 83.3672 26.3212 83.3421C26.3797 83.2668 26.4299 82.7142 26.7646 82.6639C27.0156 82.6388 27.1327 82.8481 27.1411 83.0909C27.1495 83.3254 27.0407 83.5598 27.024 83.61C27.0072 83.6603 26.9152 83.9198 26.7311 84.0957C26.5554 84.2799 26.3128 84.3552 26.1622 84.1878L26.1706 84.1794Z" fill="#B9927A"/>
<path d="M60.8658 27.8895C60.7989 27.6802 61.1586 27.4625 61.4765 27.1527C61.8028 26.8596 62.0789 26.4912 62.1375 26.3991C62.1961 26.3154 62.4136 25.9386 62.5475 25.5451C62.6981 25.16 62.765 24.7581 62.949 24.7497C63.2 24.7246 63.3339 25.2102 63.2251 25.721C63.1415 26.2317 62.8403 26.7006 62.765 26.801C62.7064 26.9099 62.3801 27.4039 61.9116 27.7053C61.4514 28.0235 60.9327 28.0988 60.8574 27.8811L60.8658 27.8895Z" fill="#B9927A"/>
<path d="M62.9408 30.5855C62.7316 30.5101 62.7735 30.1166 62.648 29.7231C62.5476 29.3296 62.2966 28.9528 62.238 28.8858C62.1794 28.8105 61.9033 28.4923 61.5687 28.3081C61.2424 28.0904 60.8659 28.0318 60.8492 27.8392C60.8157 27.5881 61.3428 27.4541 61.8615 27.6634C62.3802 27.8476 62.7484 28.3081 62.8237 28.4086C62.9073 28.5007 63.2838 28.9947 63.3507 29.5808C63.4344 30.1669 63.1583 30.6692 62.9492 30.5855H62.9408Z" fill="#B9927A"/>
<path d="M64.9823 27.3955C64.999 27.6132 64.4636 27.6802 64.0034 27.4123C63.5432 27.1611 63.2504 26.7006 63.2002 26.6001C63.1333 26.508 62.899 26.081 62.807 25.6623C62.715 25.2437 62.7233 24.8502 62.899 24.8083C63.15 24.7497 63.3257 25.093 63.4763 25.4447C63.6269 25.7963 63.7775 26.1312 63.8277 26.2066C63.8695 26.2819 64.0954 26.5917 64.3799 26.8178C64.6476 27.0522 64.9739 27.1694 64.9739 27.4039L64.9823 27.3955Z" fill="#B9927A"/>
<path d="M63.1586 30.3761C63.0833 30.4431 62.916 30.3929 62.7989 30.1752C62.6817 29.9575 62.6734 29.6394 62.7403 29.3714C62.8742 28.8356 63.1419 28.4002 63.2088 28.283C63.2674 28.1825 63.5435 27.7136 63.9953 27.4289C64.4387 27.1275 64.9658 27.1275 64.9741 27.3201C64.9992 27.5713 64.6813 27.722 64.422 27.9899C64.1459 28.2327 63.9116 28.576 63.8614 28.6681C63.8112 28.7351 63.5853 29.1872 63.4263 29.564C63.2506 29.9491 63.3008 30.2003 63.167 30.3761H63.1586Z" fill="#B9927A"/>
<path d="M63.4342 26.3824C63.7522 26.6755 63.0996 27.3704 63.0326 27.4625C62.9573 27.5546 62.4302 28.2663 62.1207 28.0653C61.694 27.789 62.3633 27.0941 62.4386 27.002C62.5139 26.9015 63.0996 26.0726 63.4342 26.3824Z" fill="#B9927A"/>
<path d="M63.2834 28.35C62.9487 28.6263 62.5806 28.0402 62.5304 27.9816C62.4802 27.9147 62.0619 27.4374 62.3464 27.203C62.7396 26.8848 63.0575 27.4374 63.1161 27.5044C63.1663 27.5714 63.6432 28.0654 63.2834 28.35Z" fill="#B9927A"/>
<path d="M63.9534 27.7387C63.7694 28.149 63.075 27.655 63.0164 27.5796C62.9244 27.5377 62.3387 27.0186 62.6232 26.7675C62.9913 26.4409 63.3762 26.9349 63.4598 26.9768C63.5184 27.0438 64.1291 27.3368 63.9534 27.7387Z" fill="#B9927A"/>
<path d="M63.3671 28.6597C62.9488 28.5425 63.2082 27.9313 63.2333 27.8559C63.2584 27.7805 63.4006 27.1861 63.752 27.2865C64.2373 27.4205 63.9779 27.9815 63.9528 28.0652C63.9277 28.1406 63.8022 28.7936 63.3671 28.6681V28.6597Z" fill="#B9927A"/>
<path d="M67.0326 23.7953C67.0661 23.586 67.4091 23.5023 67.7688 23.1674C68.137 22.8743 68.4382 22.4641 68.4967 22.372C68.5553 22.2799 68.7896 21.8696 68.9234 21.4342C69.074 21.0072 69.1159 20.5718 69.2999 20.5467C69.5509 20.5132 69.7099 21.0323 69.6095 21.5849C69.5342 22.1459 69.2079 22.6566 69.1326 22.7655C69.0656 22.8827 68.7143 23.4269 68.1872 23.7367C67.9362 23.8958 67.6433 24.0046 67.4007 24.0046C67.1581 24.0046 67.0242 23.9042 67.0326 23.787V23.7953Z" fill="#B9927A"/>
<path d="M69.6935 27.9817C69.4759 27.9817 69.3839 27.3789 69.2417 26.776C69.1162 26.1648 68.8735 25.5871 68.7982 25.4782C68.7397 25.361 68.4217 24.8587 67.9951 24.5321C67.5851 24.1805 67.0747 24.0549 67.0831 23.8707C67.0831 23.6111 67.7859 23.5609 68.3966 23.946C69.0158 24.3061 69.3839 24.9675 69.4592 25.1098C69.5512 25.2522 69.8859 25.9555 69.9444 26.6504C70.0197 27.3454 69.9194 27.9733 69.6935 27.9817Z" fill="#B9927A"/>
<path d="M71.5333 23.6615C71.5082 23.8792 70.9561 23.8792 70.4373 23.6029C69.9186 23.3433 69.5421 22.8409 69.4752 22.7237C69.3915 22.6233 69.082 22.1209 69.0234 21.585C68.9481 21.0492 69.1154 20.5719 69.2911 20.6054C69.5421 20.6473 69.584 21.0576 69.7095 21.4427C69.8266 21.8362 70.0274 22.213 70.0859 22.2967C70.1361 22.3804 70.429 22.7321 70.7887 22.9917C71.1401 23.2596 71.5501 23.427 71.5166 23.6615H71.5333Z" fill="#B9927A"/>
<path d="M69.7103 27.7388C69.5011 27.7723 69.3338 27.1945 69.3756 26.575C69.4007 25.947 69.635 25.3274 69.6935 25.1935C69.7437 25.0595 69.9612 24.4818 70.3545 24.0213C70.5469 23.7868 70.7979 23.5943 71.0238 23.5189C71.2497 23.4352 71.4087 23.4687 71.4338 23.5608C71.4839 23.8036 71.1577 24.0296 70.9234 24.4399C70.6724 24.8418 70.4381 25.3442 70.4047 25.4614C70.3545 25.5786 70.1871 26.1228 70.0867 26.6503C69.978 27.1778 69.9445 27.7053 69.7186 27.7388H69.7103Z" fill="#B9927A"/>
<path d="M70.321 25.1183C70.0198 25.4114 69.2166 24.5238 69.0911 24.4317C68.9908 24.3229 68.1039 23.6447 68.3131 23.36C68.6226 22.9414 69.476 23.7619 69.5848 23.8708C69.7103 23.9629 70.6557 24.7918 70.321 25.1183Z" fill="#B9927A"/>
<path d="M70.7558 24.4401C70.5132 24.8169 69.5427 24.0047 69.4423 23.8875C69.3168 23.8038 68.4467 23.0167 68.7227 22.7488C69.0825 22.4055 69.802 23.226 69.9192 23.3098C70.0196 23.4186 70.9901 24.0633 70.7558 24.4401Z" fill="#B9927A"/>
<path d="M68.9991 25.0511C68.5975 24.8837 69.1832 23.8957 69.2418 23.7701C69.3003 23.6445 69.7521 22.6817 70.0784 22.8659C70.5135 23.1254 69.978 23.9794 69.9194 24.105C69.8609 24.2306 69.4258 25.227 68.9991 25.0511Z" fill="#B9927A"/>
<path d="M68.3207 24.4987C67.9609 24.2643 68.6721 23.4521 68.7557 23.3516C68.831 23.2512 69.4167 22.439 69.7011 22.6818C70.086 23.0167 69.4334 23.7033 69.3581 23.8038C69.2828 23.9042 68.7055 24.7499 68.329 24.4987H68.3207Z" fill="#B9927A"/>
<path d="M69.0155 25.6122C68.639 25.3945 69.3167 24.3982 69.392 24.2726C69.4673 24.147 70.0027 23.1674 70.3206 23.3516C70.7557 23.6028 70.1115 24.5238 70.0362 24.6494C69.9609 24.775 69.4087 25.8467 69.0155 25.6122Z" fill="#B9927A"/>
<path d="M62.3135 19.8266C62.3135 19.6089 62.4892 19.5085 62.6481 19.3829C62.8071 19.2657 62.9661 19.1066 62.9912 19.0647C63.0246 19.0229 63.1334 18.8554 63.2171 18.6796C63.3091 18.5037 63.3593 18.3112 63.5433 18.2693C63.786 18.2107 63.9533 18.5121 63.9031 18.847C63.8696 19.1819 63.6437 19.4582 63.5935 19.5168C63.5517 19.5755 63.3175 19.8769 62.9912 20.0025C62.6565 20.1364 62.3218 20.0527 62.3135 19.8266Z" fill="#B9927A"/>
<path d="M63.8613 21.4173C63.6438 21.4006 63.5685 21.1913 63.4514 20.9987C63.3426 20.8061 63.2004 20.6136 63.1585 20.5801C63.1251 20.5382 62.9578 20.3875 62.7737 20.2786C62.598 20.1531 62.3972 20.0693 62.3888 19.8768C62.3805 19.6256 62.7068 19.5167 63.0414 19.6256C63.3761 19.7177 63.6354 19.9856 63.6856 20.0442C63.7442 20.0944 64.0203 20.3791 64.104 20.7391C64.2044 21.0992 64.0789 21.4425 63.853 21.4173H63.8613Z" fill="#B9927A"/>
<path d="M64.9319 19.6926C64.9487 19.9103 64.6308 20.0108 64.3128 19.9019C63.9949 19.8098 63.7523 19.5503 63.7104 19.4917C63.6602 19.4414 63.4343 19.1986 63.3758 18.8972C63.3005 18.5958 63.4092 18.3111 63.5849 18.3279C63.8359 18.3446 63.9363 18.5121 64.0284 18.646C64.1204 18.7884 64.2208 18.9391 64.2459 18.9726C64.2794 19.006 64.4216 19.1316 64.5806 19.2405C64.7312 19.3577 64.9068 19.4498 64.9236 19.6842L64.9319 19.6926Z" fill="#B9927A"/>
<path d="M63.7613 21.1914C63.5521 21.2417 63.4099 20.957 63.4434 20.6388C63.4685 20.3207 63.6609 20.0444 63.7027 19.9858C63.7362 19.9271 63.9119 19.6676 64.1796 19.5336C64.439 19.3913 64.7234 19.3997 64.7653 19.5839C64.8238 19.835 64.6983 19.969 64.5896 20.103C64.4724 20.2286 64.3469 20.3625 64.3302 20.396C64.3051 20.4295 64.2131 20.6053 64.1378 20.7728C64.0541 20.9402 63.9872 21.1328 63.7613 21.1831V21.1914Z" fill="#B9927A"/>
<path d="M63.9114 19.9103C63.719 20.3038 63.5433 20.1196 63.5182 20.1028C63.4931 20.0861 63.2839 20.0107 63.4429 19.6842C63.6604 19.2321 63.8194 19.4163 63.8445 19.433C63.8696 19.4498 64.1039 19.5 63.9114 19.9103Z" fill="#B9927A"/>
<path d="M16.2648 19.7848C16.4991 19.6006 16.9927 20.036 17.8712 20.0695C18.2979 20.0863 18.8166 20.0277 19.2768 19.8016C19.7453 19.5839 20.0967 19.2071 20.2473 18.7717C20.3811 18.328 20.3477 17.767 20.105 17.2898C19.8875 16.8125 19.511 16.4358 19.1596 16.2683C18.5238 15.9166 17.5784 16.1846 17.2855 16.2432C17.1182 16.285 16.817 16.3688 16.4154 16.4692C15.9887 16.5781 15.4365 16.7372 14.6836 16.7707C13.9306 16.7874 12.9099 16.5697 12.2238 15.7576C11.5628 14.9705 11.3704 13.9491 11.5545 13.0281C11.7051 12.0987 12.4079 11.2363 13.1776 10.9014C13.9389 10.533 14.7087 10.5162 15.3027 10.6502C16.5158 10.9265 16.9676 11.6717 16.817 11.814C16.6078 12.0652 16.0055 11.7973 15.1688 11.8642C14.7588 11.8894 14.2903 12.015 13.9306 12.2661C13.5624 12.5257 13.3533 12.8606 13.2947 13.3295C13.2361 13.7816 13.3867 14.2756 13.621 14.5268C13.8302 14.7696 14.2234 14.8868 14.6334 14.8784C15.5202 14.8198 16.4907 14.4765 16.8421 14.4179C17.0262 14.3761 17.3692 14.284 17.9047 14.2254C18.1724 14.2002 18.4903 14.1919 18.8417 14.2254C19.2098 14.2756 19.6281 14.3761 20.0046 14.577C20.7744 14.9622 21.4269 15.6655 21.8034 16.5279C22.1883 17.3735 22.2803 18.4452 21.8955 19.4081C21.5022 20.3709 20.6405 21.0324 19.8289 21.2752C19.009 21.5431 18.2142 21.4845 17.6035 21.2836C16.9843 21.0826 16.5576 20.7142 16.3569 20.4128C16.1477 20.103 16.1477 19.8769 16.2481 19.7932L16.2648 19.7848Z" fill="#B9927A"/>
<path d="M24.9904 17.6999C24.5052 17.9344 23.8693 17.1306 23.2753 16.2431C22.6896 15.3472 22.1291 14.3676 21.9952 14.1666C21.8614 13.9573 21.2757 13.0782 20.7737 12.2158C20.2717 11.345 19.8534 10.4743 20.2132 10.1896C20.7068 9.79608 21.51 10.3905 22.196 11.186C22.8904 11.973 23.4343 12.9442 23.5765 13.1619C23.7187 13.3796 24.3797 14.3592 24.8231 15.3891C25.2749 16.4105 25.5091 17.4655 24.9904 17.7167V17.6999Z" fill="#B9927A"/>
<path d="M29.383 15.4895C28.8727 15.6653 28.1615 14.2587 27.4085 12.7851C27.0404 12.065 26.6556 11.2445 26.3627 10.7254C26.0699 10.1979 25.7938 9.96348 25.7101 9.89649C25.6265 9.82951 25.3086 9.63694 25.0241 9.63694C24.8902 9.63694 24.7815 9.66206 24.589 9.79602C24.405 9.92998 24.2042 10.1728 24.0117 10.4491C23.2169 11.5459 23.0412 12.9191 22.5894 12.9442C22.2799 12.9525 22.0289 12.5674 21.9703 11.9143C21.9034 11.2696 22.0707 10.3821 22.4974 9.56158C22.7066 9.15969 22.9743 8.73268 23.3926 8.36428C23.7942 7.98751 24.4301 7.73633 24.9655 7.73633C26.0448 7.73633 26.6137 8.23869 26.8396 8.37266C27.0739 8.52337 27.6261 9.0341 28.0193 9.75416C28.4125 10.4658 28.7388 11.2361 29.0484 12.0567C29.6508 13.681 29.9352 15.2969 29.3998 15.4811L29.383 15.4895Z" fill="#B9927A"/>
<path d="M34.4029 7.82843C34.6288 7.69446 35.0555 7.97076 35.4487 8.64058C35.6412 8.97549 35.8252 9.42762 35.8838 9.98022C35.9507 10.5412 35.8671 11.1691 35.5826 11.7636C35.3065 12.3581 34.7459 12.9107 34.0683 13.1535C33.3906 13.3963 32.7296 13.3293 32.2109 13.1702C31.1567 12.8353 30.6045 12.1404 30.4288 11.8892C30.2448 11.638 29.8264 10.9515 29.7511 9.99697C29.6591 9.05922 29.9101 7.97076 30.4205 7.06651C30.6798 6.60601 31.0396 6.17063 31.4914 5.86084C31.9348 5.55104 32.487 5.41708 32.9053 5.45057C33.3404 5.47569 33.6834 5.64314 33.8591 5.82734C34.0348 6.01155 34.0599 6.17063 33.993 6.25435C33.7754 6.48879 33.3989 6.46367 33.0141 6.66462C32.6125 6.84882 32.2862 7.20885 31.9934 7.87029C31.7089 8.53174 31.5834 9.27691 31.6336 9.81277C31.6754 10.3486 31.8846 10.7003 31.9515 10.784C32.0185 10.8761 32.2862 11.1943 32.7631 11.345C33.2567 11.4873 33.6918 11.4287 34.0264 10.9263C34.3694 10.424 34.3862 9.68718 34.3025 9.06759C34.2272 8.45638 34.1603 7.97077 34.4113 7.82843H34.4029Z" fill="#B9927A"/>
<path d="M37.9918 12.5675C37.6822 13.0113 36.8958 12.7183 36.2348 12.1573C35.5571 11.6131 35.0635 10.8344 34.9547 10.6753C34.8376 10.5162 34.344 9.80455 34.1013 9.03426C33.842 8.26396 33.8336 7.4853 34.277 7.35971C34.8878 7.18388 35.3061 7.71974 35.691 8.27234C36.0758 8.90866 36.4105 9.45289 36.4942 9.59523C36.5946 9.72082 37.0045 10.265 37.4898 10.9014C37.9165 11.4875 38.3264 12.0987 38.0001 12.5675H37.9918Z" fill="#B9927A"/>
<path d="M40.0505 14.7527C38.9796 14.9034 38.5111 10.0556 38.4274 9.46113C38.3437 8.86666 37.6493 4.38725 38.5696 4.25329C39.8246 4.07746 40.2095 8.59873 40.2931 9.1932C40.3768 9.78766 41.1883 14.5852 40.0589 14.7443L40.0505 14.7527Z" fill="#B9927A"/>
<path d="M39.1969 9.26015C39.3057 9.00059 39.6905 8.97547 40.1841 8.88337C40.6778 8.79965 41.3052 8.64057 41.7905 8.29728C42.2925 7.954 42.5853 7.50187 42.6606 7.06649C42.7526 6.61436 42.6606 6.23759 42.6272 6.12037C42.5937 6.00315 42.4766 5.65987 42.2088 5.38357C41.9578 5.11564 41.4977 4.9147 40.8786 4.9147C40.2678 4.90633 39.565 5.05704 39.0128 5.11564C38.8455 5.14076 38.8037 5.11564 38.7367 5.11564C38.6782 5.11564 38.6029 5.11564 38.5527 5.13239C38.4355 5.16588 38.4104 5.20774 38.3184 5.15751C38.2013 5.0989 37.967 4.93982 38.0088 4.68026C38.0256 4.55467 38.0841 4.42071 38.2096 4.27837C38.3184 4.14441 38.5192 4.02719 38.6112 3.96021C39.0965 3.63367 39.816 3.27364 40.7531 3.14805C41.6734 2.99734 42.8698 3.31551 43.5224 4.01044C44.1833 4.66352 44.3506 5.35008 44.4259 5.57614C44.4929 5.81058 44.6937 6.50552 44.518 7.40977C44.4343 7.85353 44.2335 8.36427 43.8989 8.79965C43.5726 9.22666 43.1459 9.57831 42.6773 9.82112C41.7487 10.3067 40.728 10.3151 40.067 10.0974C39.3893 9.8881 39.0798 9.49458 39.1885 9.2434L39.1969 9.26015Z" fill="#B9927A"/>
<path d="M48.8269 13.7145C47.756 13.5638 48.1074 12.5674 48.1325 12.4419C48.1493 12.3163 48.2246 11.3534 49.1449 11.4874C50.3998 11.6632 50.015 12.5842 49.9983 12.7098C49.9815 12.8354 49.9732 13.8736 48.8353 13.7145H48.8269Z" fill="#B9927A"/>
<path d="M53.1944 15.0459C52.6589 15.1045 52.4079 14.8366 52.3661 14.5017C52.3159 14.1752 52.4581 13.857 52.4832 13.79C52.5 13.723 52.592 13.4132 52.8263 13.2039C53.0522 12.9946 53.3952 12.9276 53.7466 13.2207C54.692 14.0328 54.2904 14.2505 54.2737 14.351C54.2235 14.4347 54.3071 14.8868 53.1944 15.0375V15.0459Z" fill="#B9927A"/>
<path d="M50.6754 8.78261e-05C51.7547 0.108933 51.2025 4.03575 51.169 4.52136C51.1272 5.00698 50.8762 8.68261 49.9559 8.62401C48.6926 8.54028 49.2615 4.85627 49.3033 4.36228C49.3451 3.87666 49.5459 -0.11713 50.6838 8.78261e-05H50.6754Z" fill="#B9927A"/>
<path d="M56.0141 2.04284C57.0516 2.35263 55.7631 6.14547 55.6293 6.62272C55.4954 7.09997 54.55 10.7086 53.6548 10.4658C52.4333 10.1393 53.6882 6.58923 53.8221 6.11198C53.956 5.63474 54.9181 1.7163 56.0141 2.03446V2.04284Z" fill="#B9927A"/>
</g>
<defs>
<clipPath id="clip0_306_10887">
<rect width="82" height="85" fill="white"/>
</clipPath>
</defs>
</svg>
