<svg width="88" height="86" viewBox="0 0 88 86" fill="none" xmlns="http://www.w3.org/2000/svg">
<g clip-path="url(#clip0_306_11358)">
<path d="M68.2808 59.3508C67.3544 59.7368 65.2369 54.2557 64.9567 53.5917C64.6764 52.9278 62.4889 47.9099 63.2829 47.5779C64.365 47.1224 66.2879 52.2485 66.5682 52.9124C66.8484 53.5763 69.2617 58.9339 68.2808 59.3431V59.3508Z" fill="#D3B19C"/>
<path d="M67.4009 56.7877C67.5956 56.6565 68.0782 56.9962 68.4052 57.7836C68.7399 58.5556 68.8411 59.7522 68.4519 60.8947C68.0782 62.045 67.253 63.0718 66.2332 63.5813C65.7272 63.8438 65.1278 63.9441 64.6529 63.8746C64.1625 63.8052 63.8511 63.6199 63.6954 63.5195C63.3917 63.342 62.6133 62.7012 62.4498 61.5509C62.3641 60.972 62.5121 60.3003 62.8235 59.7676C63.1426 59.2272 63.6097 58.7949 64.1235 58.5016C65.1901 57.8917 66.3111 57.9226 67.0351 58.0615C67.7668 58.2159 68.1872 58.463 68.1483 58.6714C68.1016 58.9648 67.6267 59.0728 66.9884 59.1886C66.3578 59.2967 65.5559 59.4666 65.0032 59.8757C64.4038 60.2772 64.1157 60.9256 64.1936 61.3039C64.2559 61.7671 64.5517 62.0219 64.6295 62.0605C64.7307 62.1068 64.902 62.2612 65.4314 62.0219C65.953 61.7748 66.5758 61.1032 66.8949 60.3466C67.2375 59.5746 67.3153 58.7177 67.2842 58.0693C67.2686 57.4131 67.1596 56.9421 67.3932 56.7955L67.4009 56.7877Z" fill="#D3B19C"/>
<path d="M65.8675 61.8213C65.4704 62.1224 65.1045 61.9834 64.8632 61.7132C64.6141 61.443 64.5051 61.0802 64.474 61.003C64.4428 60.9335 64.2949 60.6016 64.2949 60.2619C64.2949 59.9222 64.4428 59.5902 64.8632 59.5208C66.0076 59.3432 66.0076 60.2078 66.0854 60.3236C66.1088 60.4549 66.6849 61.1806 65.8753 61.8213H65.8675Z" fill="#D3B19C"/>
<path d="M66.9572 59.9299C67.3464 60.2387 67.183 60.7637 66.8093 61.1728C66.4434 61.5897 65.914 61.8445 65.805 61.8985C65.696 61.9603 65.2212 62.2305 64.7074 62.3077C64.1936 62.3926 63.7031 62.2691 63.6331 61.8522C63.5396 61.2732 63.851 60.9876 64.1624 60.7791C64.4894 60.5784 64.8553 60.4472 64.9331 60.4008C65.0188 60.3545 65.3535 60.1229 65.7272 59.9376C66.1009 59.7601 66.529 59.6134 66.9416 59.9376L66.9572 59.9299Z" fill="#D3B19C"/>
<path d="M66.7475 60.424C65.7977 60.7637 65.7199 59.9531 65.6888 59.8605C65.6576 59.7678 65.354 59.0962 66.1636 58.8028C67.2691 58.4091 67.3002 59.1811 67.3314 59.266C67.3625 59.3587 67.7517 60.0612 66.7475 60.4163V60.424Z" fill="#D3B19C"/>
<path d="M69.8295 52.8121C69.5803 52.7503 69.4714 52.5033 69.2923 52.2639C69.121 52.0246 68.8719 51.7235 68.5294 51.4533C67.9066 50.9438 66.7311 50.6659 66.4742 50.581C66.3418 50.5424 65.9993 50.4652 65.5244 50.3108C65.0573 50.1641 64.419 49.8939 63.9207 49.4693C63.4069 49.0602 63.0099 48.4812 62.9165 47.9717C62.8153 47.4699 62.9788 47.1379 63.189 47.1302C63.4926 47.107 63.695 47.3155 63.9519 47.5007C64.1932 47.6937 64.4968 47.9253 64.8705 48.1338C65.2442 48.3499 65.6568 48.5043 66.0616 48.6356C66.482 48.7668 66.8089 48.8672 66.9335 48.9058C67.0658 48.9444 67.4395 49.0293 67.9533 49.2069C68.2102 49.2995 68.4982 49.4153 68.7941 49.5851C69.1055 49.7627 69.3935 49.9866 69.6504 50.249C70.1564 50.7663 70.4678 51.4765 70.4211 52.0401C70.39 52.6113 70.0786 52.8815 69.8372 52.8121H69.8295Z" fill="#D3B19C"/>
<path d="M49.9792 40.4679C48.9749 40.3984 49.6211 34.3383 49.6756 33.5894C49.73 32.8406 50.0881 27.1819 50.9523 27.2437C52.1278 27.3286 51.4739 32.9719 51.4194 33.713C51.3649 34.4618 51.0457 40.5451 49.9792 40.4679Z" fill="#D3B19C"/>
<path d="M49.9713 37.2873C50.2049 37.2332 50.5318 37.7196 50.5785 38.5919C50.6252 39.4488 50.3216 40.6377 49.5821 41.6181C49.2162 42.1122 48.7491 42.5445 48.2353 42.8765C47.9784 43.0386 47.7059 43.1776 47.4412 43.2934C47.1454 43.4169 46.8496 43.4864 46.5693 43.5327C45.4483 43.718 44.4908 43.2702 44.1872 43C44.0392 42.8842 43.7279 42.6372 43.5254 42.1663C43.3075 41.7108 43.2919 41.0546 43.4865 40.5065C43.8446 39.418 44.9267 38.4916 46.0944 38.2137C47.2622 37.9049 48.4455 38.1673 49.1383 38.6305C49.8545 39.1014 50.0414 39.6496 49.8857 39.7654C49.6521 39.9661 49.2395 39.7576 48.6557 39.6418C48.0796 39.526 47.2855 39.4952 46.5693 39.7654C45.8531 40.0047 45.3082 40.5682 45.1603 41.0469C45.0357 41.4946 45.1836 41.5332 45.2537 41.6181C45.3004 41.6567 45.6507 41.8806 46.3124 41.788C46.4681 41.7648 46.6238 41.7262 46.7795 41.6722C46.9586 41.6027 47.1376 41.5178 47.3167 41.4097C47.667 41.2013 48.0095 40.9156 48.3053 40.5914C48.897 39.9352 49.2629 39.1169 49.4575 38.4761C49.6599 37.8277 49.7222 37.3336 49.9947 37.2795L49.9713 37.2873Z" fill="#D3B19C"/>
<path d="M46.6236 41.7649C45.6193 41.8189 45.7439 40.5529 45.7361 40.3985C45.7283 40.2441 45.6037 39.0783 46.4679 39.0243C47.6434 38.9626 47.4721 40.1437 47.4799 40.2981C47.4877 40.4525 47.6823 41.7031 46.6236 41.7649Z" fill="#D3B19C"/>
<path d="M47.2542 41.4097C47.1141 42.3979 46.0164 42.0505 45.8763 42.0273C45.7362 42.0119 44.6852 41.9192 44.802 41.07C44.9655 39.9121 45.9775 40.2903 46.1176 40.3058C46.2578 40.3212 47.4021 40.3598 47.2542 41.402V41.4097Z" fill="#D3B19C"/>
<path d="M47.721 41.1549C46.7245 41.0159 47.0282 40.2671 47.0437 40.1667C47.0593 40.0741 47.106 39.333 47.9546 39.4488C49.1223 39.6109 48.7875 40.3057 48.772 40.3983C48.7564 40.491 48.772 41.2938 47.721 41.1472V41.1549Z" fill="#D3B19C"/>
<path d="M45.8135 68.6689C44.8326 68.8851 43.6571 62.6628 43.4859 61.9063C43.3146 61.1497 41.9912 55.4061 42.8319 55.2208C43.9841 54.9738 45.0273 60.7714 45.1907 61.528C45.362 62.2845 46.8489 68.4373 45.8058 68.6612L45.8135 68.6689Z" fill="#D3B19C"/>
<path d="M45.5332 65.9746C45.7434 65.8665 46.1794 66.2602 46.3895 67.0785C46.6153 67.8891 46.5297 69.0857 45.9536 70.1356C45.4009 71.1855 44.3733 72.0811 43.2445 72.3204C42.7073 72.4439 42.1779 72.4284 41.742 72.3204C41.306 72.2046 40.9869 71.9884 40.8389 71.8649C40.691 71.7414 40.4108 71.4866 40.2317 71.0466C40.0449 70.6143 40.006 70.0584 40.1227 69.5412C40.3329 68.499 41.1971 67.4491 42.2558 67.0013C43.299 66.5073 44.4667 66.5613 45.2063 66.8701C45.9614 67.1943 46.2416 67.673 46.1093 67.8197C45.9225 68.059 45.4865 67.9586 44.926 67.9586C44.3655 67.9663 43.6259 68.0744 42.9954 68.4527C42.357 68.8078 41.9522 69.3945 41.851 69.8886C41.7653 70.3981 41.9133 70.483 41.96 70.5371C41.9833 70.5602 42.0456 70.5988 42.1779 70.6374C42.3181 70.6683 42.5516 70.6915 42.8397 70.622C43.3846 70.5293 44.0697 70.0121 44.5134 69.3328C44.9727 68.6534 45.1751 67.8351 45.2374 67.2021C45.3152 66.569 45.2685 66.0981 45.5176 65.9746H45.5332Z" fill="#D3B19C"/>
<path d="M42.5518 70.9307C41.6176 70.6297 42.1002 69.4408 42.1002 69.2632C42.1469 69.1011 42.1547 67.9045 42.9955 67.8814C44.2021 67.8582 43.883 69.3327 43.8285 69.5026C43.8129 69.5952 43.7818 70.0352 43.5871 70.4135C43.4003 70.7918 43.0578 71.0851 42.5518 70.9307Z" fill="#D3B19C"/>
<path d="M43.9685 70.0431C44.1397 71.0312 42.9876 71.0235 42.8475 71.0466C42.7073 71.0698 41.6719 71.3014 41.5318 70.4599C41.3294 69.3097 42.4193 69.3637 42.5516 69.3405C42.6918 69.3174 43.7894 69.0009 43.9685 70.0431Z" fill="#D3B19C"/>
<path d="M44.9726 69.3251C44.0228 69.6494 43.9839 68.9391 43.9527 68.8619C43.9216 68.7847 43.6647 68.198 44.4743 67.9201C45.5876 67.5341 45.572 68.2212 45.6031 68.2984C45.6343 68.3756 45.9768 68.9855 44.9726 69.3329V69.3251Z" fill="#D3B19C"/>
<path d="M44.5602 68.9778C44.9728 69.8887 44.4667 69.8965 44.4123 69.9196C44.3578 69.9428 43.9841 70.1667 43.6338 69.387C43.1511 68.3216 43.6493 68.3602 43.6961 68.337C43.7428 68.3139 44.1242 68.0128 44.5602 68.9778Z" fill="#D3B19C"/>
<path d="M54.4704 67.179C53.9722 67.2562 53.5362 65.7354 53.1548 64.1142C52.7811 62.493 52.4464 60.7638 52.3607 60.3855C52.2751 60.0072 51.8936 58.4015 51.59 56.8729C51.2942 55.3444 51.0684 53.8853 51.481 53.7618C52.0415 53.5997 52.6877 54.9506 53.1703 56.4638C53.6608 57.9691 53.98 59.6212 54.0578 60.0072C54.1435 60.3855 54.5638 62.1302 54.7662 63.8131C54.9764 65.4961 54.9842 67.1018 54.4626 67.179H54.4704Z" fill="#D3B19C"/>
<path d="M53.9877 63.0642C54.2212 63.0024 54.5482 63.4579 54.7817 64.2762C55.0153 65.0791 55.1554 66.2756 54.7817 67.5186C54.4392 68.7692 53.4505 69.8654 52.5397 70.3981C52.0804 70.6992 51.5744 70.8922 51.1073 70.9616C50.6402 71.0311 50.2198 70.9462 50.0252 70.8767C49.8306 70.815 49.4336 70.6606 49.0832 70.2591C48.7329 69.8654 48.5149 69.271 48.5149 68.6765C48.5072 68.0821 48.6551 67.4568 49.0287 66.8778C49.4024 66.322 49.9006 65.8897 50.4689 65.604C51.5977 65.025 52.8589 65.0559 53.6607 65.3801C54.4859 65.6967 54.8051 66.2062 54.6728 66.3528C54.4859 66.5922 54.0188 66.4609 53.3883 66.4686C52.7655 66.4532 51.9325 66.5922 51.2708 67.0168C50.9438 67.2175 50.6636 67.5108 50.4923 67.781C50.3366 68.0358 50.2587 68.3755 50.2665 68.6302C50.3055 69.1861 50.4767 69.1706 50.5546 69.2247C50.5935 69.2324 50.6636 69.2555 50.8426 69.2324C51.0139 69.2015 51.2863 69.1166 51.5977 68.9159C52.2595 68.5144 52.89 67.8582 53.217 67.009C53.5595 66.1598 53.614 65.1794 53.6452 64.4306C53.6763 63.674 53.723 63.1414 53.9877 63.0719V63.0642Z" fill="#D3B19C"/>
<path d="M51.6209 69.6647C50.6244 69.8345 50.5777 68.36 50.5466 68.1825C50.5154 68.0049 50.2274 66.6694 51.0759 66.5227C52.2359 66.322 52.2359 67.7116 52.267 67.8891C52.2982 68.0667 52.6718 69.4872 51.6209 69.6724V69.6647Z" fill="#D3B19C"/>
<path d="M52.446 68.0898C52.7262 68.5067 52.5083 68.885 52.1657 69.1398C51.8232 69.3945 51.3794 69.5026 51.286 69.5335C51.1926 69.5644 50.7956 69.711 50.3908 69.6956C49.986 69.6879 49.6045 69.518 49.5734 69.0934C49.4955 67.9586 50.5698 67.9818 50.7177 67.8968C50.7878 67.8737 51.0914 67.7347 51.4262 67.6807C51.7609 67.6344 52.1502 67.6575 52.446 68.0898Z" fill="#D3B19C"/>
<path d="M53.1157 68.1594C52.1192 68.3293 52.1115 67.0709 52.0803 66.9242C52.0492 66.7776 51.8001 65.6427 52.6486 65.496C53.8086 65.2953 53.7696 66.4765 53.8008 66.6232C53.8241 66.7698 54.1589 67.9741 53.1157 68.1517V68.1594Z" fill="#D3B19C"/>
<path d="M53.0693 67.4878C53.2406 68.4759 52.6489 68.3756 52.5789 68.3833C52.5088 68.3987 51.995 68.5377 51.8549 67.6962C51.6525 66.546 52.2208 66.6849 52.2831 66.6772C52.3531 66.6618 52.8903 66.4456 53.0693 67.4878Z" fill="#D3B19C"/>
<path d="M53.5205 61.8599C53.03 61.9603 52.2905 59.4822 51.6365 56.8188C51.4808 56.1472 51.3251 55.4755 51.1694 54.827C51.1383 54.6958 51.1072 54.5646 51.0838 54.4411L50.9437 54.4488C49.8149 54.5955 48.943 54.719 48.6238 54.7576C48.3202 54.7962 47.5339 54.912 46.5219 55.0509C46.0159 55.1127 45.4476 55.1899 44.8481 55.2671C44.5523 55.3057 44.2487 55.3366 43.9373 55.3752C43.8283 55.3906 43.8595 55.3752 43.8439 55.3752H43.8205C43.8205 55.3752 43.7894 55.3752 43.7738 55.3752C43.7583 55.3829 43.7505 55.3983 43.7505 55.4215V55.4524C43.7505 55.4524 43.7738 55.5913 43.7816 55.6454C43.8439 55.9619 43.8984 56.2784 43.9607 56.5872C44.0697 57.1971 44.1553 57.7683 44.2176 58.2624C44.3343 59.2428 44.3266 59.9145 44.1086 59.9685C43.8128 60.038 43.4547 59.459 43.081 58.5326C42.8941 58.0694 42.7073 57.5213 42.5205 56.9346C42.427 56.6335 42.3336 56.3247 42.2402 56.0159L42.1624 55.7303C42.1234 55.5759 42.0845 55.4215 42.0689 55.2671C42.0378 54.9583 42.0923 54.6572 42.248 54.4025C42.3959 54.1631 42.6217 53.9856 42.8864 53.8775C43.0187 53.8235 43.1666 53.7849 43.3145 53.754L43.6882 53.6922C43.9918 53.6459 44.2954 53.5996 44.5912 53.5533C45.1829 53.4683 45.7512 53.3911 46.2572 53.3139C47.277 53.1827 48.0633 53.0746 48.3669 53.036C48.6861 52.9897 49.5735 52.8662 50.7335 52.7041C50.8191 52.6963 50.9203 52.6886 51.0293 52.6809C51.1772 52.6809 51.3251 52.6809 51.4731 52.7118C51.7689 52.7581 52.0491 52.8893 52.2749 53.0901C52.5007 53.2908 52.6563 53.5764 52.742 53.8852C52.7887 54.0628 52.7965 54.14 52.8198 54.2172L52.8665 54.4642C52.9911 55.1204 53.1157 55.7998 53.2402 56.4791C53.7151 59.1811 54.0265 61.7518 53.5049 61.8599H53.5205Z" fill="#D3B19C"/>
<path d="M52.4459 56.6953C52.5782 57.6834 48.3822 58.0463 47.8684 58.1157C47.3546 58.1852 43.4777 58.7565 43.361 57.915C43.2053 56.757 47.121 56.4714 47.6348 56.4019C48.1486 56.3324 52.298 55.6531 52.4459 56.6953Z" fill="#D3B19C"/>
<path d="M25.8853 60.9025C25.426 60.6864 26.0021 58.9957 26.7027 57.2433C27.4033 55.4909 28.2285 53.6767 28.3998 53.2752C28.7735 52.4878 31.1401 46.3119 31.9263 46.5975C32.4791 46.7982 32.1132 48.4426 31.5449 50.1255C30.9766 51.8162 30.1903 53.5377 30.019 53.9391C29.8478 54.3483 29.0926 56.2088 28.2207 57.9072C27.3488 59.6056 26.3757 61.1264 25.8931 60.9025H25.8853Z" fill="#D3B19C"/>
<path d="M27.1618 59.0805C27.3953 59.1191 27.4732 59.7907 26.8737 60.5318C26.5857 60.8947 26.1497 61.2343 25.597 61.4582C25.0365 61.6821 24.4059 61.767 23.7831 61.7207C23.1604 61.6744 22.5765 61.52 22.0238 61.2961C21.4477 61.0568 20.9495 60.7171 20.5602 60.2925C20.1632 59.8834 19.8907 59.343 19.8284 58.8489C19.7584 58.3548 19.8674 57.992 19.9219 57.8067C19.9841 57.6291 20.1243 57.2817 20.4279 56.9575C20.7237 56.6333 21.1596 56.3476 21.6579 56.1701C22.6777 55.8072 23.9311 55.869 25.0131 56.4171C25.5503 56.6873 26.0174 57.1119 26.321 57.5905C26.6168 58.0615 26.757 58.5633 26.7725 58.9879C26.8037 59.8679 26.3755 60.3234 26.1964 60.2308C25.9162 60.115 25.8928 59.6749 25.6515 59.1809C25.418 58.6713 24.9898 58.1387 24.3125 57.8839C23.6508 57.6137 22.7789 57.606 22.2729 57.8067C21.7124 58.0151 21.6112 58.2776 21.5878 58.3471C21.5878 58.4397 21.4633 58.6405 21.8603 59.0959C22.0549 59.3121 22.3663 59.536 22.7166 59.6981C23.0981 59.8756 23.534 60.0146 23.9466 60.0764C24.7874 60.223 25.5503 60.0223 26.0797 59.6981C26.6168 59.3893 26.8971 59.0033 27.154 59.0728L27.1618 59.0805Z" fill="#D3B19C"/>
<path d="M22.0858 59.9992C21.3696 59.3353 22.3271 58.432 22.3972 58.2622C22.5139 58.1309 23.0044 57.0116 23.7907 57.3049C24.3356 57.5211 24.4212 57.9534 24.3122 58.3548C24.211 58.7563 23.9386 59.0959 23.8841 59.1731C23.8296 59.2581 23.6116 59.6595 23.2691 59.9374C22.9265 60.2153 22.4828 60.3543 22.0936 59.9992H22.0858Z" fill="#D3B19C"/>
<path d="M23.8998 59.3739C23.7441 59.8448 23.3315 59.922 22.9578 59.7985C22.5763 59.6827 22.2805 59.3816 22.2182 59.3275C22.1482 59.2735 21.8446 59.0265 21.6966 58.6868C21.5332 58.3548 21.5487 57.9688 21.9224 57.7604C22.4362 57.4748 22.7476 57.5442 22.9578 57.6523C23.168 57.7681 23.3003 57.9611 23.347 57.9997C23.3937 58.0383 23.6039 58.1695 23.7674 58.3703C23.9231 58.5787 24.0788 58.8721 23.9075 59.3739H23.8998Z" fill="#D3B19C"/>
<path d="M24.2499 60.0301C23.4325 59.4511 24.1877 58.7331 24.2655 58.6328C24.3356 58.5324 24.8494 57.7218 25.55 58.2236C26.5075 58.903 25.7602 59.536 25.6824 59.6441C25.6123 59.7445 25.1141 60.6477 24.2422 60.0378L24.2499 60.0301Z" fill="#D3B19C"/>
<path d="M25.2157 59.5128C24.7408 60.3928 23.9312 59.7444 23.8222 59.6826C23.7132 59.6208 22.8413 59.2271 23.2462 58.4706C23.7989 57.4361 24.5307 58.0923 24.6396 58.1463C24.7486 58.2081 25.7139 58.5709 25.2157 59.505V59.5128Z" fill="#D3B19C"/>
<path d="M24.1643 60.2771C23.2768 59.8062 23.5571 59.6981 23.5726 59.675C23.5882 59.6518 23.6349 59.4434 24.3978 59.8448C25.441 60.3929 25.1296 60.4701 25.114 60.4933C25.0985 60.5164 25.1062 60.7712 24.1643 60.2771Z" fill="#D3B19C"/>
<path d="M22.2655 59.3585C22.2967 59.8603 22.0553 60.0687 21.7751 60.1073C21.4948 60.1459 21.2301 59.9992 21.1757 59.9761C21.1212 59.9606 20.8565 59.868 20.7008 59.6518C20.5373 59.4434 20.5062 59.1423 20.802 58.8335C21.6116 58.0075 21.705 58.3317 21.7907 58.3549C21.8529 58.3935 22.1721 58.324 22.2655 59.3585Z" fill="#D3B19C"/>
<path d="M32.4628 55.6992C32.3539 55.4676 32.5018 55.2206 32.5952 54.9118C32.7042 54.6107 32.8054 54.2015 32.7976 53.7383C32.8287 52.8814 32.2526 51.7775 32.1359 51.5304C32.0736 51.4069 31.9023 51.075 31.6844 50.6426C31.4664 50.2026 31.1939 49.5773 31.0849 48.9288C30.9604 48.2804 31.0071 47.5856 31.2173 47.1146C31.4197 46.636 31.7311 46.443 31.9179 46.5434C32.1826 46.6823 32.2449 46.9834 32.3305 47.3231C32.4083 47.6628 32.5095 48.0796 32.6652 48.5351C32.9766 49.4075 33.5761 50.4805 33.6928 50.7584C33.7551 50.8897 33.9575 51.2525 34.1677 51.7929C34.2689 52.0631 34.3701 52.3796 34.4246 52.7347C34.4869 53.1053 34.4947 53.4913 34.4402 53.8696C34.339 54.6184 33.942 55.3286 33.4593 55.6606C32.9766 56.0003 32.5563 55.9308 32.4551 55.7069L32.4628 55.6992Z" fill="#D3B19C"/>
<path d="M30.6808 59.5283C30.2448 59.2504 30.8131 58.1773 31.1245 57.1738C31.2724 56.672 31.3269 56.201 31.2724 55.8459C31.2335 55.4908 31.1012 55.1897 31.0467 55.0817C31 54.9736 30.852 54.6957 30.6029 54.2942C30.3694 53.9005 30.0035 53.3524 29.7777 52.7039C29.5442 52.0786 29.4819 51.3452 29.6532 50.828C29.8244 50.303 30.1514 50.0869 30.3305 50.1872C30.5951 50.3262 30.6652 50.6195 30.782 50.9283C30.891 51.2371 31.0467 51.6309 31.2802 52.0554C31.506 52.4723 31.8252 52.9201 32.0976 53.3601C32.3701 53.7924 32.5647 54.1939 32.627 54.3405C32.6893 54.4872 32.9228 54.9195 33.0162 55.5989C33.1174 56.2705 32.9695 57.0888 32.6581 57.7373C32.0276 59.0343 31.0856 59.7985 30.6652 59.5129L30.6808 59.5283Z" fill="#D3B19C"/>
<path d="M37.648 45.6015C37.4923 45.6478 37.1653 44.9299 36.6749 43.8414C36.1611 42.7606 35.476 41.3092 34.6041 39.9119C32.9148 37.0633 30.4781 34.5234 29.9254 34.0062C29.396 33.458 26.9671 31.2193 24.2658 29.6676C22.9502 28.8493 21.58 28.2162 20.568 27.7221C19.5404 27.2744 18.8709 26.9502 18.9098 26.8266C18.9565 26.6645 19.7039 26.7803 20.8171 27.0968C21.907 27.4519 23.3628 28.0232 24.7562 28.8261C27.6055 30.3392 30.1044 32.7015 30.6494 33.2651C31.2255 33.7977 33.7945 36.4071 35.4526 39.4101C36.309 40.8846 36.9395 42.4286 37.3132 43.5943C37.6635 44.7677 37.7881 45.5629 37.6402 45.6015H37.648Z" fill="#D3B19C"/>
<path d="M39.3139 39.1632C39.0103 39.2404 38.2085 36.3686 37.2042 33.3887C36.2311 30.4011 34.8688 27.3826 34.5185 26.7495C34.2071 26.1011 32.7513 23.3451 30.9063 21.0831C29.9955 19.9406 29.0224 18.9215 28.2672 18.1804C27.5121 17.447 26.9983 16.9761 27.0761 16.868C27.1773 16.7291 27.8235 17.0302 28.711 17.6709C29.5907 18.3117 30.6805 19.3153 31.6614 20.4578C33.6621 22.7429 35.1335 25.6147 35.4527 26.2786C35.8108 26.9271 37.2587 30.0151 38.1384 33.0876C39.057 36.1447 39.602 39.086 39.3062 39.1555L39.3139 39.1632Z" fill="#D3B19C"/>
<path d="M75.723 23.8622C75.7931 24.0011 75.0847 24.4798 74.0104 25.1746C72.9516 25.9003 71.5192 26.8652 70.1569 28.0001C67.3777 30.2234 64.9799 33.1184 64.4895 33.7746C63.9757 34.4076 61.8738 37.2485 60.4647 40.2516C59.7174 41.7261 59.1568 43.2315 58.7131 44.3432C58.3161 45.4703 58.0203 46.2037 57.8957 46.1728C57.7244 46.1342 57.8023 45.339 58.067 44.1424C58.3628 42.9613 58.8532 41.3787 59.5772 39.8424C60.924 36.7004 63.1271 33.79 63.6643 33.1415C64.1625 32.4699 66.607 29.4437 69.5418 27.2435C70.9743 26.1164 72.5001 25.1977 73.6678 24.5956C74.8511 24.0166 75.6607 23.731 75.7308 23.8699L75.723 23.8622Z" fill="#D3B19C"/>
<path d="M64.9568 18.3581C65.058 18.4739 64.6143 19.0143 63.9214 19.8017C63.2364 20.6046 62.3022 21.6622 61.4459 22.8434C59.6865 25.1593 58.2852 27.9076 58.0127 28.5175C57.7169 29.1119 56.5492 31.7599 55.8953 34.4001C55.1713 37.0172 54.9533 39.5802 54.6808 39.5647C54.3383 39.5647 54.2994 36.9168 54.9455 34.1762C55.506 31.4202 56.7594 28.6951 57.0708 28.0852C57.351 27.4599 58.7601 24.5881 60.6596 22.2567C61.586 21.0755 62.6214 20.041 63.431 19.3308C64.2562 18.636 64.8556 18.25 64.9568 18.3658V18.3581Z" fill="#D3B19C"/>
<path d="M14.5186 45.424C14.6042 45.2773 15.2425 45.6402 16.2546 45.4935C16.7528 45.424 17.3289 45.2387 17.866 44.8836C18.411 44.5285 18.917 44.0344 19.3763 43.4554C19.8434 42.8841 20.2171 42.228 20.6997 41.5795C21.1668 40.9464 21.813 40.3211 22.5759 40.0741C23.3077 39.8116 24.1173 39.8734 24.6544 40.2053C25.2383 40.545 25.4018 41.0777 25.4641 41.2861C25.5186 41.5177 25.6198 41.9655 25.3706 42.5522C25.2461 42.8378 24.9658 43.1698 24.5532 43.3087C24.1484 43.4631 23.658 43.4014 23.2843 43.1775C22.9106 42.9613 22.5914 42.6062 22.4513 42.1353C22.319 41.6567 22.4046 41.1703 22.6148 40.7689C22.825 40.3597 23.1597 40.0278 23.5568 39.8039C23.946 39.58 24.382 39.4719 24.7946 39.4411C26.4527 39.3098 27.9007 40.0895 28.687 40.8615C29.4966 41.649 29.7068 42.3669 29.6056 42.4132C29.4421 42.5059 29.0451 41.9423 28.2433 41.371C27.4648 40.7998 26.1803 40.2517 24.9036 40.406C24.2808 40.4832 23.767 40.7766 23.549 41.2321C23.3232 41.6876 23.4789 42.0813 23.8059 42.2666C24.1329 42.4287 24.3119 42.3052 24.4131 42.1122C24.5143 41.896 24.4754 41.6412 24.452 41.5409C24.4131 41.4251 24.3586 41.2244 24.1251 41.0931C23.876 40.9387 23.4322 40.877 22.934 41.0545C22.4358 41.2166 21.9764 41.6258 21.5405 42.1971C21.1123 42.7529 20.6842 43.4554 20.147 44.073C19.6254 44.6906 19.0026 45.2542 18.3253 45.6247C17.6481 46.0107 16.9163 46.1728 16.3091 46.1728C15.6941 46.1728 15.1958 46.0107 14.9 45.8332C14.5964 45.6556 14.4874 45.4858 14.5263 45.424H14.5186Z" fill="#D3B19C"/>
<path d="M14.3081 39.9353C14.1835 39.8581 14.4093 39.2714 14.9075 38.4299C15.4057 37.6116 16.2932 36.4536 17.7023 35.8977C18.3873 35.6198 19.197 35.504 19.9443 35.6662C20.6839 35.8128 21.4624 36.276 21.7115 37.0866C21.9528 37.8355 21.5869 38.6846 20.9408 38.9394C20.3102 39.1864 19.8743 38.9626 19.6874 38.8776C19.5006 38.7773 19.1191 38.5688 18.8856 38.0284C18.6754 37.5189 18.761 36.8164 19.1503 36.2683C19.5395 35.6893 20.2324 35.3342 20.9019 35.203C21.5791 35.0717 22.2642 35.0794 22.9259 35.1875C24.2571 35.396 25.4015 36.0599 26.1021 36.6775C26.8106 37.2951 27.0986 37.8355 27.0052 37.9127C26.8651 38.0285 26.4135 37.6579 25.6895 37.2179C24.9655 36.7778 23.9224 36.2837 22.7858 36.1602C21.6726 36.0135 20.3881 36.2297 20.0222 36.855C19.812 37.1638 19.7964 37.4803 19.8665 37.6502C19.921 37.8046 20.0689 37.9127 20.1467 37.9435C20.2946 38.0362 20.8007 38.1288 20.6917 37.38C20.6216 37.1021 20.2246 36.7701 19.7108 36.6697C19.197 36.5462 18.6053 36.6003 18.0448 36.801C16.916 37.187 16.0597 38.1134 15.4525 38.8159C14.8452 39.5261 14.4326 40.0125 14.2925 39.9276L14.3081 39.9353Z" fill="#D3B19C"/>
<path d="M81.2193 34.8401C81.3516 34.8555 81.2582 35.8282 80.3084 36.855C79.3976 37.8894 77.6305 38.7464 75.801 39.0011C73.9949 39.3099 72.1032 39.3022 70.772 39.6033C70.1336 39.7577 69.6977 40.0896 69.5809 40.3753C69.433 40.6995 69.4797 40.9774 69.5108 41.0778C69.542 41.1858 69.6432 41.3634 69.8456 41.3866C70.0402 41.4483 70.5307 41.1704 70.5852 40.7921C70.6786 40.4139 70.3049 39.804 69.721 39.5878C69.1372 39.3562 68.3509 39.4566 67.6269 39.7113C66.14 40.2131 64.9334 41.2476 64.2249 42.1354C63.5009 43.0232 63.1973 43.7411 63.065 43.6948C62.9093 43.6485 63.0105 42.8225 63.6722 41.7494C64.3184 40.6841 65.6029 39.4334 67.2922 38.8004C68.1174 38.4839 69.1216 38.2754 70.1025 38.6228C71.0523 38.9779 71.7918 39.9198 71.6283 40.962C71.3948 41.9964 70.5073 42.4982 69.721 42.4133C68.8881 42.2898 68.5845 41.6336 68.5144 41.3866C68.421 41.1087 68.3353 40.5605 68.6234 39.9198C68.9348 39.225 69.7055 38.7695 70.5073 38.5765C72.1032 38.2214 73.9171 38.2677 75.6453 38.0207C77.3736 37.82 78.9072 37.156 79.8258 36.3532C80.76 35.5657 81.048 34.7706 81.2193 34.8246V34.8401Z" fill="#D3B19C"/>
<path d="M75.7233 30.2775C75.7544 30.4319 75.2017 30.6326 74.4388 31.0495C74.0573 31.258 73.6291 31.5282 73.2088 31.8678C72.7884 32.2075 72.368 32.609 72.1111 33.0644C71.8464 33.5122 71.8075 34.014 71.971 34.4154C72.1422 34.8091 72.4381 34.9558 72.7728 34.9095C73.4345 34.786 73.201 34.261 73.092 34.1143C73.0375 34.0371 72.9207 33.8905 72.7183 33.7978C72.5081 33.6975 72.1656 33.628 71.7374 33.682C70.8655 33.7978 69.7056 34.1838 68.7247 34.7011C66.6773 35.7201 65.3149 37.4493 65.1203 37.3027C64.9802 37.21 65.1904 36.6619 65.7353 35.9748C66.2802 35.2878 67.1755 34.4695 68.2498 33.8519C69.3319 33.2265 70.5152 32.7942 71.6206 32.6476C72.1812 32.5781 72.7494 32.6475 73.1854 32.8637C73.6291 33.0876 73.8471 33.3732 73.9561 33.5353C74.0573 33.6975 74.2986 34.0294 74.2753 34.6084C74.2597 34.8863 74.1429 35.226 73.886 35.4885C73.6369 35.751 73.2866 35.9131 72.9207 35.9671C72.5548 36.0212 72.15 35.9671 71.7763 35.7587C71.4027 35.5348 71.1458 35.2028 70.9979 34.8246C70.6942 34.0835 70.8499 33.2111 71.247 32.5935C71.6362 31.9682 72.1734 31.5359 72.6716 31.1962C73.1776 30.8565 73.6914 30.6095 74.1429 30.4551C75.046 30.1386 75.6843 30.154 75.7077 30.3007L75.7233 30.2775Z" fill="#D3B19C"/>
<path d="M31.2411 64.94C31.5135 64.9941 31.1943 66.6616 30.0422 68.1515C29.4895 68.9004 28.7577 69.5797 28.0493 70.0661C27.878 70.1896 27.6989 70.2977 27.5355 70.398C27.4498 70.4444 27.3642 70.4907 27.2863 70.537C27.1774 70.5988 27.0061 70.6914 26.866 70.7377C26.2743 70.9461 25.8539 70.73 25.6671 70.4675C25.5581 70.3131 25.527 70.1742 25.5114 70.0815C25.4725 69.9117 25.4958 69.5643 25.7994 69.1242C25.9629 68.8695 26.0797 68.7923 26.2432 68.6456C26.3989 68.5144 26.5857 68.4063 26.7725 68.3059C27.551 67.9045 28.4074 67.7347 29.0691 67.2715C29.7619 66.8314 30.2991 66.2216 30.6494 65.7275C30.9997 65.2334 31.1943 64.8628 31.3189 64.9014C31.4824 64.9478 31.498 65.411 31.2411 66.0517C30.9842 66.6925 30.4314 67.4799 29.6296 68.0666C29.2403 68.36 28.7733 68.607 28.3529 68.7691C27.9325 68.939 27.5588 69.0779 27.2708 69.2323C27.1307 69.3095 27.0061 69.3867 26.9049 69.4639C26.8193 69.5257 26.7025 69.6569 26.7258 69.626L26.7181 69.6338C26.7181 69.6338 26.7258 69.6338 26.7336 69.6338C26.8115 69.5874 26.8893 69.5411 26.9827 69.4948C27.1307 69.4022 27.2863 69.3095 27.442 69.2014C28.0726 68.7768 28.7343 68.1901 29.2793 67.5494C30.4003 66.291 30.9452 64.8474 31.2333 64.9323L31.2411 64.94Z" fill="#D3B19C"/>
<path d="M34.1678 69.6801C34.4559 69.6801 34.4637 71.6101 33.4283 73.4243C32.93 74.3198 32.2294 75.1613 31.5366 75.7403C31.1862 76.0259 30.8826 76.2961 30.47 76.4737C30.2754 76.5586 30.0497 76.6203 29.7772 76.5972C29.5281 76.574 29.3334 76.4737 29.2089 76.3733C29.1388 76.3038 29.0765 76.2498 29.0376 76.1957C28.9753 76.1031 28.8819 75.9641 28.8508 75.7634C28.8119 75.5859 28.8508 75.2771 28.952 75.0918C29.1233 74.7135 29.4035 74.397 29.7928 74.1036C30.4311 73.6482 31.1473 73.0537 31.7935 72.3975C33.1013 71.1083 33.981 69.5952 34.2146 69.7033C34.5337 69.8422 33.8487 71.5792 32.5175 73.0537C31.8791 73.7948 31.0928 74.4665 30.4233 74.9374C30.1742 75.1227 29.9796 75.362 29.9173 75.501C29.8862 75.5704 29.9017 75.5318 29.9017 75.5473C29.9017 75.5473 29.8239 75.5859 30.0574 75.501C30.2365 75.4315 30.5401 75.1922 30.8515 74.9297C31.4665 74.4202 32.1049 73.6945 32.5953 72.9148C33.6229 71.3631 33.872 69.6338 34.1834 69.657L34.1678 69.6801Z" fill="#D3B19C"/>
<path d="M30.7507 75.4546C30.1668 75.416 30.2291 75.0146 30.1902 74.9528C30.1902 74.8833 29.9722 74.5745 30.3459 74.2426C30.6183 74.0187 30.8441 74.0727 30.9842 74.2194C31.1321 74.3584 31.171 74.5745 31.1788 74.6131C31.1944 74.6595 31.28 74.8679 31.2489 75.0763C31.2178 75.2925 31.0698 75.47 30.7507 75.4546Z" fill="#D3B19C"/>
<path d="M31.2175 75.1149C31.3031 75.7094 30.618 75.6862 30.5402 75.7016C30.4623 75.7171 29.8396 75.8329 29.7617 75.3311C29.6605 74.6363 30.3066 74.6903 30.3845 74.6749C30.4701 74.6595 31.1241 74.4896 31.2175 75.1226V75.1149Z" fill="#D3B19C"/>
<path d="M31.9954 74.0418C31.5128 74.4047 31.3182 73.9569 31.287 73.9106C31.2481 73.8643 30.9601 73.5323 31.3649 73.2235C31.9254 72.7989 32.0811 73.239 32.12 73.2853C32.1589 73.3316 32.5015 73.6635 31.9954 74.0495V74.0418Z" fill="#D3B19C"/>
<path d="M61.9987 65.9744C62.1388 65.8895 62.3957 66.1674 62.8706 66.3913C63.3455 66.6229 64.0695 66.7773 64.9024 66.9008C65.7354 67.0397 66.6151 67.1633 67.4014 67.5801C67.7984 67.8272 68.0787 68.136 68.2266 68.5065C68.2966 68.6918 68.32 68.908 68.2966 69.0855C68.2655 69.2554 68.2032 69.3866 68.1565 69.4638C68.0787 69.6259 67.7828 69.9193 67.3702 69.9733C66.9732 70.0274 66.5995 69.927 66.2414 69.7649C65.6031 69.4715 64.8713 69.0624 64.2174 68.5683C62.8862 67.5956 61.9987 66.3372 62.2011 66.1751C62.4736 65.9512 63.5012 66.9625 64.7857 67.7654C65.4162 68.1746 66.1091 68.5451 66.6774 68.8076C66.9187 68.9234 67.1445 68.9543 67.2145 68.9388C67.2768 68.9234 67.2535 68.9311 67.2613 68.9234C67.2613 68.908 67.2768 68.9543 67.2457 68.8694C67.2223 68.7844 67.0744 68.5914 66.8642 68.4756C66.3971 68.2209 65.5408 68.0356 64.7234 67.8581C63.8982 67.6882 63.0263 67.4026 62.4969 66.9548C61.9676 66.4994 61.8819 66.0284 62.0065 65.9667L61.9987 65.9744Z" fill="#D3B19C"/>
<path d="M66.335 68.8849C66.1326 69.1088 65.8912 69.0548 65.7277 68.8849C65.5643 68.7151 65.5098 68.4758 65.4942 68.4217C65.4786 68.3754 65.4086 68.1515 65.4553 67.9354C65.502 67.7192 65.6577 67.5571 65.9068 67.6034C66.5763 67.7578 66.4517 68.0357 66.4907 68.1052C66.4907 68.1747 66.7242 68.4063 66.3272 68.8772L66.335 68.8849Z" fill="#D3B19C"/>
<path d="M66.7783 68.4448C66.5291 68.9698 65.992 68.6996 65.8986 68.715C65.8129 68.6842 65.2524 68.7614 65.1279 68.2827C65.05 67.943 65.2291 67.7578 65.4548 67.6883C65.6806 67.6188 65.9297 67.6729 65.9842 67.6729C66.0387 67.6729 66.3034 67.6883 66.5291 67.8118C66.7549 67.9276 66.9028 68.1515 66.7783 68.4371V68.4448Z" fill="#D3B19C"/>
<path d="M58.6126 67.0168C58.8929 66.9087 59.6869 68.5607 60.9247 70.0352C61.2283 70.4058 61.5475 70.7686 61.8745 71.1083C62.2092 71.4634 62.505 71.7028 62.8554 72.0733C63.159 72.4207 63.4859 72.8762 63.4003 73.4629C63.2991 74.0187 62.8631 74.2658 62.6919 74.3198C62.505 74.397 62.1625 74.4742 61.7421 74.343C61.2984 74.204 60.9559 73.8566 60.7067 73.4861C60.2474 72.7835 59.7959 71.9189 59.4456 71.0234C58.7294 69.2324 58.6048 67.4259 58.8617 67.4027C59.212 67.3564 59.5857 69.0239 60.3486 70.6528C60.7145 71.4634 61.1738 72.2972 61.5709 72.8993C61.9601 73.4861 62.2248 73.3703 62.2871 73.3548C62.326 73.3394 62.326 73.3317 62.3416 73.2931C62.3649 73.2776 62.2948 73.0306 62.0457 72.7758C61.8278 72.5365 61.4152 72.1814 61.096 71.8185C60.7534 71.448 60.4187 71.0466 60.1229 70.6374C58.8851 68.9853 58.2934 67.1248 58.597 67.0168H58.6126Z" fill="#D3B19C"/>
<path d="M61.5318 73.5864C61.236 73.5247 61.1581 73.3008 61.1114 73.0846C61.0725 72.8685 61.0569 72.6446 61.0491 72.5906C61.0413 72.5365 60.9869 72.3358 60.9557 72.1274C60.9324 71.9189 60.9246 71.6873 61.1425 71.5484C61.4384 71.3554 61.7031 71.5098 61.8665 71.7568C62.03 72.0038 62.0689 72.3204 62.0767 72.3898C62.0923 72.4593 62.1701 72.7836 62.1001 73.0923C62.0378 73.4011 61.8432 73.6559 61.5318 73.5864Z" fill="#D3B19C"/>
<path d="M62.4115 72.9765C62.287 73.5632 61.633 73.3007 61.5474 73.2853C61.4618 73.2698 60.8234 73.1617 60.9324 72.6599C61.0803 71.9729 61.6797 72.2508 61.7654 72.2662C61.851 72.2817 62.5439 72.3589 62.4115 72.9765Z" fill="#D3B19C"/>
<path d="M21.6184 49.6391C21.5561 49.6005 21.525 49.5233 21.5795 49.4152C21.634 49.3149 21.7819 49.2145 21.9921 49.2299C22.0933 49.2299 22.2178 49.2763 22.3346 49.3766C22.4514 49.477 22.5215 49.6545 22.5215 49.8167C22.5215 50.1177 22.3502 50.4574 21.8831 50.5269V49.7086C21.8831 49.8321 21.8753 49.7009 21.7352 49.6468C21.6651 49.6237 21.6418 49.6237 21.6573 49.6159C21.6418 49.6159 21.6651 49.6159 21.7274 49.6005C21.8364 49.5773 21.9142 49.5001 21.8987 49.5079C21.8987 49.5079 21.8909 49.531 21.8909 49.5465C21.8909 49.5773 21.8909 49.531 21.8909 49.531C21.8909 49.5001 21.8753 49.4924 21.8909 49.531C21.9065 49.5696 22.0077 49.6391 22.0777 49.6545C22.0699 49.6623 22.1322 49.6545 21.9843 49.6854C21.852 49.7163 21.8364 49.8244 21.8675 49.7086L21.5484 50.4034C21.1358 50.0328 21.2292 49.5619 21.3927 49.3535C21.5717 49.1141 21.8053 49.1296 21.852 49.2454C21.9298 49.3998 21.9454 49.5387 22.0232 49.6082C22.0544 49.6468 22.0855 49.6777 22.1166 49.6854C22.1244 49.6854 22.1322 49.6854 22.1322 49.6854C22.1244 49.6854 22.1089 49.6931 22.0933 49.7009C22.0699 49.7163 22.0544 49.7317 22.0544 49.7317L21.7663 50.5269C21.4471 50.5269 21.1358 50.2104 21.0813 49.9711C21.0034 49.7317 21.0268 49.531 21.0813 49.338C21.1435 49.1527 21.2603 48.9752 21.4316 48.8671C21.5951 48.759 21.7663 48.7359 21.8442 48.7359C21.922 48.7359 22.0777 48.7204 22.2801 48.8285C22.4825 48.9289 22.646 49.1605 22.6927 49.3766C22.7394 49.5928 22.7316 49.8089 22.6227 50.0483C22.5682 50.1641 22.4747 50.2876 22.3346 50.3802C22.1945 50.4806 21.9999 50.5115 21.8442 50.5037L21.8597 49.8475C21.8597 49.8475 21.8442 49.8012 21.8208 49.7858C21.7975 49.7703 21.8208 49.7858 21.852 49.7858C21.9376 49.7703 21.852 49.7858 21.852 49.8398C21.852 49.8784 21.852 49.7858 21.8053 49.7549C21.7663 49.7086 21.6963 49.6931 21.6262 49.6468L21.6184 49.6391Z" fill="#D3B19C"/>
<path d="M41.2444 49.0061C41.2755 49.0678 41.2911 49.1605 41.151 49.2068C40.9875 49.2454 40.8084 49.0987 40.7539 48.9752C40.7228 48.9057 40.6994 48.8285 40.7072 48.7127C40.7072 48.6124 40.7851 48.4271 40.9797 48.3267C41.3066 48.1569 41.6492 48.3576 41.766 48.5352C41.8905 48.7205 41.945 48.9289 41.8594 49.1836C41.7737 49.4152 41.6336 49.5156 41.5168 49.5851C41.2833 49.7163 41.151 49.7086 41.0965 49.724C41.0965 49.724 41.0965 49.724 41.0809 49.724L40.209 49.863L40.497 49.0601C40.5282 48.9752 40.5671 48.7977 40.7928 48.6124C40.9096 48.5197 41.112 48.4194 41.3611 48.4657C41.7192 48.5429 41.8438 48.8054 41.8749 48.9984C41.8905 49.1065 41.8827 49.2222 41.8204 49.3612C41.7582 49.5079 41.5635 49.6391 41.4234 49.6468C41.3456 49.6546 41.2522 49.6546 41.1198 49.5928C40.9953 49.5233 40.9252 49.3998 40.9096 49.3226C40.8863 49.1682 40.9252 49.1065 40.9563 49.0524C40.9953 48.9907 41.0264 48.9598 41.0965 48.9135C41.151 48.8671 41.2833 48.8131 41.4001 48.8749C41.548 48.9984 41.439 49.0447 41.4078 49.0756C41.3689 49.0987 41.33 49.1142 41.3066 49.1373C41.3066 49.1373 41.3378 49.1064 41.3378 49.0987C41.3066 49.0833 41.439 49.1991 41.4468 49.1914C41.4468 49.1914 41.3845 49.1759 41.3456 49.1914C41.2911 49.2145 41.3378 49.2145 41.3144 49.1373C41.3611 49.1991 41.2599 49.1142 41.221 49.1373C41.1977 49.1605 41.2989 49.0833 41.2755 49.0833C41.2755 49.0833 41.2599 49.23 41.2677 49.1605V49.1759C41.2677 49.1914 41.2911 49.2222 41.3066 49.2454C41.4156 49.3612 41.439 49.338 41.3845 49.3226L40.9252 48.6973C40.9252 48.6973 40.9408 48.6973 40.9485 48.6896H40.9563C40.9563 48.6896 40.9953 48.7668 41.0108 48.7977C41.0342 48.8363 41.0575 48.8671 41.0731 48.8826L41.0887 48.898L41.1743 48.9443C41.1354 48.9289 41.0809 48.9521 41.1354 48.9289C41.1587 48.9135 41.1821 48.8903 41.1899 48.8749C41.1899 48.8594 41.1899 48.9212 41.1899 48.844C41.1899 48.844 41.1899 48.8363 41.1899 48.8285C41.1665 48.8285 41.3222 48.8749 41.2755 48.8594C41.2366 48.8594 41.1665 48.9289 41.1821 48.9212C41.1821 48.9212 41.1821 48.8903 41.1821 48.9135C41.1977 48.9443 41.2132 48.9752 41.2288 49.0138L41.2444 49.0061Z" fill="#D3B19C"/>
<path d="M37.4533 59.1424C37.4923 58.9957 37.6791 58.9185 37.9049 59.0188C38.1228 59.1192 38.3486 59.4048 38.3408 59.7831V60.1228L37.9671 60.2463C37.4767 60.4084 37.0252 60.1382 36.8617 59.8835L36.6904 59.6133L36.8072 59.3662C36.8695 59.2273 36.9473 59.1501 36.9863 59.1115C37.033 59.0574 37.1497 58.9648 37.321 58.903C37.4923 58.849 37.7492 58.8181 38.0061 58.9571L38.045 58.9802L38.0606 58.9957C38.3797 59.2582 38.3875 59.6287 38.2474 59.8835C38.1773 60.0147 38.0372 60.1459 37.8659 60.2C37.7025 60.2463 37.539 60.2154 37.4378 60.1614C37.2276 60.0533 37.1575 59.8603 37.1731 59.7291C37.1887 59.5901 37.2821 59.5438 37.3599 59.5515C37.4611 59.5747 37.6013 59.5901 37.6013 59.5747C37.6324 59.5747 37.6635 59.5129 37.6402 59.567C37.6168 59.6364 37.6635 59.6364 37.5935 59.5901C37.5156 59.5901 37.6558 59.5747 37.648 59.5515L37.6168 59.6596C37.6168 59.6596 37.609 59.7522 37.609 59.7445C37.609 59.7445 37.5935 59.7136 37.5779 59.7059C37.5779 59.7059 37.5545 59.6827 37.5468 59.6827L37.6324 59.3199C37.6324 59.3199 37.6791 59.2736 37.6791 59.2659C37.6791 59.2504 37.6713 59.3045 37.6791 59.3431L37.3132 59.7291C37.3989 59.7059 37.3755 59.4666 37.4378 59.1501L37.4533 59.1424Z" fill="#D3B19C"/>
<path d="M52.2132 47.4002C52.1977 47.269 52.3923 47.1378 52.6492 47.2844C52.766 47.3539 52.8672 47.4774 52.9217 47.6473C52.9761 47.8094 52.9606 48.0796 52.7737 48.2958L52.7426 48.3266L52.6648 48.373C52.221 48.6586 51.6605 48.4965 51.4036 48.1336L51.209 47.8557L51.3569 47.5855C51.5671 47.2072 51.8863 47.1609 51.9563 47.1378C52.0108 47.1223 52.112 47.1069 52.2444 47.1146C52.4546 47.1223 52.8749 47.2381 53.0462 47.7013L53.1007 47.8634L53.054 47.9947C53.0073 48.1491 52.8905 48.3344 52.7037 48.4193C52.5324 48.4965 52.3767 48.4965 52.2599 48.4733C52.0264 48.427 51.8863 48.3035 51.7773 48.1491C51.6683 48.0024 51.6527 47.7476 51.7461 47.6473C51.8318 47.5469 51.9174 47.5546 51.9797 47.601C52.0497 47.655 52.1587 47.7476 52.1665 47.7399C52.1276 47.7399 52.2054 47.7476 52.2989 47.6627C52.3456 47.6164 52.3611 47.5855 52.3689 47.5778C52.3845 47.5469 52.3611 47.5932 52.3534 47.655C52.3534 47.7245 52.3534 47.8017 52.3767 47.8326C52.4001 47.8712 52.3767 47.8171 52.3067 47.8094L52.2599 47.9792C52.2599 47.9792 52.151 48.1414 52.1821 48.1259C52.1821 48.1259 52.1821 48.095 52.1821 48.0796C52.1899 48.0642 52.112 47.9484 52.1276 47.9715L52.1432 47.6164C52.1432 47.6164 52.1977 47.5469 52.1977 47.5392C52.1977 47.5315 52.1977 47.6087 52.2132 47.6318L52.2288 47.7862C52.2288 47.7862 52.1665 47.7631 52.1276 47.7708C52.0809 47.7862 52.1354 47.7708 52.1587 47.7399C52.2288 47.6782 52.2132 47.5546 52.2054 47.408L52.2132 47.4002Z" fill="#D3B19C"/>
<path d="M59.7178 55.4908C59.6789 55.4059 59.7256 55.2746 59.9046 55.2592C60.0759 55.2592 60.2783 55.3518 60.3717 55.6143C60.4184 55.7378 60.4028 55.9694 60.2549 56.1392C60.1148 56.3091 59.8501 56.3786 59.6866 56.3477C59.5076 56.3245 59.3675 56.255 59.2429 56.1238C59.1183 56.0003 59.0249 55.7455 59.0872 55.5216V55.4831H59.1028C59.2974 54.989 59.7022 54.9504 59.7956 54.9272C59.8579 54.9272 60.037 54.8886 60.2627 54.989L60.3873 55.043L60.4651 55.1511C60.5663 55.2901 60.6364 55.4753 60.6364 55.6838C60.6442 55.8845 60.5196 56.1238 60.4028 56.1624C60.3561 56.1701 60.3639 56.1161 60.3639 56.0234C60.3639 55.9771 60.3639 55.9231 60.3483 55.8613C60.4184 55.8073 60.0447 55.7455 60.1304 55.7224C60.0759 55.5911 60.0759 55.6915 59.9669 55.6915C59.8501 55.7146 59.7645 55.7147 59.7178 55.761C59.6789 55.7919 59.6711 55.8073 59.6555 55.7996C59.6477 55.7841 59.6244 55.7764 59.6166 55.7764C59.6244 55.761 59.5621 55.8073 59.6711 55.7378L59.9358 55.7146C59.9358 55.7146 59.928 55.7764 59.9358 55.7764C59.9358 55.7764 59.9358 55.7996 59.9358 55.7918C59.9358 55.7841 59.8968 55.7455 59.8735 55.7378L59.7489 55.6838C59.7489 55.6838 59.7645 55.6838 59.7956 55.6529C59.8268 55.622 59.819 55.6143 59.8112 55.6529C59.8034 55.6915 59.8268 55.7301 59.8112 55.7069C59.8268 55.7147 59.7956 55.6992 59.7567 55.7069C59.6789 55.7378 59.7567 55.7069 59.7645 55.6606C59.7645 55.6374 59.7645 55.6606 59.7645 55.622C59.7645 55.5757 59.7333 55.5371 59.7178 55.4831V55.4908Z" fill="#D3B19C"/>
<path d="M60.7531 53.1748C60.792 53.4759 60.5351 53.6149 60.2626 53.5377C59.998 53.4682 59.8345 53.2443 59.8033 53.198C59.7644 53.1594 59.6087 52.951 59.6165 52.7039C59.6165 52.4492 59.7955 52.2562 60.0369 52.3334C60.3794 52.4337 60.5117 52.4878 60.574 52.4878C60.6285 52.4955 60.6207 52.5418 60.6285 52.5572C60.683 52.5958 60.6519 52.5572 60.7531 53.1748Z" fill="#D3B19C"/>
<path d="M17.8816 67.2173C17.8271 67.2945 17.6947 67.3177 17.5546 67.1865C17.43 67.0629 17.3133 66.7696 17.5312 66.4376L17.5857 66.3527L17.8115 66.291C18.0061 66.2369 18.3253 66.3218 18.4888 66.5071C18.6523 66.6847 18.7145 66.87 18.7379 67.063C18.7535 67.2482 18.7379 67.4567 18.6133 67.6728C18.4966 67.8967 18.1696 68.0743 17.9283 68.0665H17.8348L17.7959 68.0511C17.3755 67.943 17.2198 67.6033 17.1809 67.4181C17.1342 67.2096 17.1653 67.0552 17.1809 66.9703C17.1965 66.9086 17.2276 66.7696 17.36 66.6152C17.4845 66.4608 17.7492 66.3064 18.0373 66.3373C18.3253 66.3682 18.5433 66.5148 18.6834 66.7233C18.8235 66.9163 18.9169 67.2791 18.7379 67.5879L18.66 67.7269L18.5666 67.7732C18.045 68.0357 17.5935 67.7655 17.4378 67.5184C17.2588 67.2405 17.36 67.0321 17.4845 67.0166C17.6558 66.9857 17.8037 67.0475 17.9127 67.0166C17.9672 67.0089 18.0217 66.9935 18.0528 66.978C18.0684 66.9703 18.0762 66.9549 18.0762 66.9472C18.0762 66.9703 18.0917 67.0012 18.0917 67.0012L18.0684 67.2328C18.1151 67.2328 17.9516 67.2328 17.9205 67.2791C17.8893 67.3177 17.975 67.2096 17.975 67.1556C17.975 67.1247 17.975 67.1324 17.975 67.1402C17.975 67.1324 17.975 67.1324 17.9828 67.1402C18.0061 67.1633 18.0606 67.1787 18.0762 67.1787C18.0995 67.1787 18.154 67.1787 18.1151 67.1787C18.0762 67.171 17.9516 67.2868 17.9905 67.256L17.9205 67.1942C17.9205 67.3023 17.9672 67.2714 17.866 67.2096C17.8271 67.1787 17.7492 67.1556 17.7259 67.1556C17.7259 67.1556 17.7336 67.1479 17.7414 67.1402C17.7414 67.1093 17.7414 67.1324 17.8582 67.0475C17.9438 66.978 17.8971 66.9549 17.9127 67.063L18.084 66.9086C18.1774 66.9394 18.0762 66.9163 18.0295 66.9935C17.975 67.0475 17.9516 67.1479 17.8893 67.2328L17.8816 67.2173Z" fill="#D3B19C"/>
<path d="M72.6246 61.96C72.6402 61.8211 72.757 61.7053 72.9594 61.7516C73.1618 61.7979 73.333 62.0218 73.3875 62.2379C73.442 62.4541 73.4031 62.6934 73.2863 62.8864C73.1696 63.0871 72.9749 63.1952 72.9049 63.2184C72.8348 63.2338 72.6947 63.3573 72.3132 63.2415C72.1342 63.1721 72.0018 63.0099 71.9473 62.8787C71.8929 62.7475 71.8851 62.6239 71.9006 62.5081C71.924 62.292 72.0641 62.0449 72.321 61.9755C72.5779 61.9291 72.648 62.0913 72.6168 62.2071C72.6013 62.292 72.5701 62.3692 72.5701 62.4309C72.5701 62.4232 72.5701 62.3923 72.5701 62.4078C72.5546 62.4387 72.7881 62.5313 72.7881 62.5081C72.7725 62.485 72.5312 62.5931 72.5624 62.6085C72.5624 62.6008 72.5624 62.6085 72.5624 62.5699C72.5624 62.5622 72.5624 62.5467 72.5624 62.539L72.5468 62.4541C72.5468 62.4695 72.5546 62.4773 72.5468 62.4773C72.5468 62.4773 72.5468 62.4618 72.4689 62.4155C72.4378 62.4001 72.3833 62.3769 72.3599 62.3769C72.3599 62.3769 72.3755 62.3769 72.3911 62.3692C72.5312 62.3229 72.6013 62.3074 72.6091 61.9523L72.6246 61.96Z" fill="#D3B19C"/>
<path d="M40.8627 26.0779C40.6914 25.9776 40.7537 25.6224 40.9249 25.1747C40.9794 25.0512 41.0261 24.9354 41.0729 24.8273C41.1196 24.7192 41.213 24.5339 41.1818 24.5725C41.1741 24.5571 41.1585 24.5648 41.1585 24.5648C41.0884 24.5648 41.0339 24.5648 41.0028 24.5648C40.9483 24.5648 40.8549 24.5648 40.7225 24.5803C40.4968 24.5803 40.1854 24.6111 39.8818 24.6111C39.7339 24.6111 39.5782 24.6111 39.4147 24.5957C39.3835 24.588 39.3135 24.6111 39.3135 24.5725L39.3524 24.4413C39.3758 24.3564 39.3991 24.2715 39.4225 24.1865C39.5159 23.8469 39.6249 23.4917 39.7806 23.1521C40.162 22.3646 40.7692 21.8397 40.9639 22.0095C41.2363 22.2334 40.9016 22.851 40.6914 23.5149C40.707 23.5381 40.7225 23.5149 40.7147 23.5226C40.8237 23.5226 40.9016 23.5226 40.9483 23.5226C41.1896 23.5149 41.9993 23.4763 43.0035 23.4377C42.7466 23.8623 42.4663 24.3332 42.1705 24.8273C42.007 25.0975 41.9603 25.1515 41.8747 25.2673C41.7968 25.36 41.7268 25.4603 41.6411 25.5684C41.3375 25.939 41.0495 26.1783 40.8627 26.0702V26.0779Z" fill="#D3B19C"/>
<path d="M31.8009 28.8417C31.7153 28.8108 31.6608 28.7336 31.5908 28.7182C31.5285 28.7027 31.4428 28.6718 31.2949 28.6487C31.2249 28.6332 31.1392 28.6255 31.0614 28.6332C30.9835 28.6332 30.8201 28.6487 30.6721 28.641C30.5164 28.641 30.3374 28.6255 30.1272 28.556C29.917 28.4943 29.6601 28.3244 29.52 28.0774C29.302 27.7068 29.3799 27.2977 29.4577 27.0815C29.5356 26.8422 29.6212 26.6801 29.6757 26.5489C29.6913 26.518 29.699 26.4794 29.7068 26.4408C29.7068 26.4176 29.7068 26.4408 29.7068 26.4253C29.7068 26.4253 29.7068 26.4176 29.6913 26.4099C29.6913 26.4099 29.6913 26.4099 29.6835 26.4099L29.6134 26.4562C29.52 26.518 29.3643 26.6029 29.1697 26.6569C28.796 26.7496 28.4223 26.6569 28.1265 26.4639C27.8307 26.2709 27.6205 25.9158 27.6049 25.5916C27.5893 25.2674 27.7061 25.0049 27.854 24.8273C28.1576 24.4645 28.5157 24.4954 28.5313 24.6112C28.5858 24.781 28.4612 24.9508 28.4379 25.167C28.4223 25.2751 28.4301 25.3909 28.469 25.4758C28.508 25.553 28.5624 25.5916 28.6481 25.6379C28.7337 25.6765 28.8427 25.6842 28.8972 25.6611C28.9128 25.6611 28.9517 25.6379 29.0373 25.5839L29.2242 25.4681C29.3098 25.414 29.3954 25.3754 29.4811 25.3368C29.8236 25.2056 30.1506 25.2982 30.3452 25.4372C30.5476 25.5761 30.6254 25.7614 30.6721 25.8463C30.7033 25.9235 30.7578 26.0779 30.7578 26.2941C30.7578 26.3945 30.7578 26.5411 30.7266 26.6492C30.7033 26.7496 30.6799 26.8499 30.6254 26.9657C30.462 27.2745 30.3685 27.6142 30.3919 27.5756C30.353 27.5756 30.4697 27.676 30.7266 27.7146C30.859 27.7377 30.9913 27.7609 31.1315 27.784C31.3027 27.8226 31.4506 27.8844 31.5752 27.9616C31.8243 28.116 32.0034 28.3708 31.9956 28.6024C31.98 28.8262 31.8399 28.8803 31.762 28.8494L31.8009 28.8417Z" fill="#D3B19C"/>
<path d="M46.3592 16.0188C46.2502 15.9494 46.258 15.7564 46.3436 15.4939C46.3825 15.3626 46.4448 15.2082 46.5226 15.0461C46.5538 14.9535 46.5226 14.9612 46.5226 14.938C46.4292 14.9072 46.6083 15.0307 46.0945 14.7219C45.8531 14.5752 45.5885 14.4208 45.3627 14.2741C45.2459 14.1969 45.1369 14.1274 45.028 14.058L44.8645 13.9499C44.8645 13.9499 44.7788 13.9113 44.8178 13.8959L44.8956 13.8418C45.3238 13.5716 45.6975 13.3323 46.0244 13.147C46.4059 12.9309 46.4214 12.9309 46.5149 12.8845C46.5694 12.8537 46.5149 12.8768 46.5927 12.8614C46.6161 12.8614 46.6161 12.8459 46.6083 12.8228C46.6083 12.8151 46.5927 12.7996 46.5771 12.7765C46.5927 12.7765 46.5149 12.7456 46.4448 12.7147L46.258 12.6298C45.7831 12.4059 45.4561 12.1897 45.5028 12.0276C45.5729 11.8115 45.9777 11.7883 46.4993 11.8655C46.5694 11.8732 46.6394 11.8887 46.7017 11.8964C46.764 11.9041 46.8263 11.9195 46.982 11.9581C47.2778 12.0353 47.558 12.1125 47.8305 12.1897C48.4533 12.375 49.0527 12.5526 49.6054 12.7147C48.9515 12.9695 48.3521 13.2011 47.8694 13.3941C47.4257 13.5793 47.0832 13.7492 46.9897 13.7955C46.9586 13.8109 46.7328 13.9345 46.7873 13.9036C46.7873 13.9036 46.7873 13.9036 46.7718 13.9036C46.7718 13.9036 46.7718 13.9113 46.7718 13.9267C46.7718 13.9267 46.764 13.9267 46.7873 13.9422L46.8807 14.0039L47.1454 14.1815C47.3556 14.3204 47.5736 14.4671 47.7916 14.6215C47.5736 14.9303 47.3401 15.2546 47.1844 15.4476C47.0676 15.5788 46.9508 15.7023 46.8418 15.795C46.6316 15.9802 46.4526 16.0652 46.3436 15.9957L46.3592 16.0188Z" fill="#D3B19C"/>
<path d="M55.3193 23.0518C55.0936 23.0518 54.9924 22.9437 54.6498 22.7739C54.4786 22.6735 54.2684 22.5654 54.0193 22.3724C53.8947 22.2721 53.6845 22.0328 53.6222 21.8243C53.5444 21.6004 53.5755 21.3611 53.6534 21.1604C53.8246 20.7899 54.1828 20.5891 54.4786 20.5428C54.7199 20.5042 54.8133 20.5119 54.8834 20.5119C54.9612 20.5119 54.9223 20.5119 54.9457 20.5119C54.9612 20.5119 54.9924 20.5197 55.0002 20.4888C55.0002 20.4811 55.0002 20.4656 55.0002 20.4579C55.0157 20.4579 54.9223 20.3421 54.899 20.2881C54.8133 20.1568 54.7433 20.0256 54.6888 19.9098C54.5798 19.6782 54.5486 19.4929 54.6498 19.4157C54.7822 19.2999 54.9846 19.3462 55.2104 19.4775C55.3193 19.5469 55.4439 19.6319 55.5607 19.7322C55.6385 19.8017 55.6463 19.8017 55.7786 19.9329C55.8954 20.0565 56.0122 20.18 56.1212 20.2958C56.1757 20.3575 56.2457 20.427 56.2847 20.4811L56.3547 20.6432C56.4014 20.7513 56.4481 20.8593 56.4871 20.9597C56.5416 21.0215 56.4248 21.0523 56.3937 21.0909L56.2457 21.2067C56.1523 21.2762 56.0745 21.3457 55.9655 21.392C55.5607 21.585 54.9924 21.5387 54.9223 21.5541C54.8834 21.5541 54.751 21.5618 54.6888 21.5773C54.6888 21.5773 54.681 21.5773 54.6732 21.5773C54.6732 21.5927 54.6265 21.5618 54.6888 21.6468C54.8211 21.7857 55.0157 21.9556 55.1792 22.1486C55.3427 22.3338 55.475 22.5654 55.4906 22.7584C55.5062 22.9514 55.4205 23.0595 55.3193 23.0672V23.0518Z" fill="#D3B19C"/>
<path d="M63.4232 28.9187C63.3921 28.7721 63.5166 28.6408 63.5945 28.4556C63.6801 28.278 63.7424 27.9924 63.6645 27.7916C63.649 27.7453 63.6256 27.7067 63.6023 27.6681C63.5244 27.5832 63.4543 27.4983 63.3843 27.4211C63.1274 27.12 63.0885 26.734 63.2364 26.4484C63.3765 26.1627 63.649 26.0083 63.8825 25.9311C64.1394 25.8462 64.2017 25.8462 64.2562 25.8308C64.3496 25.8153 64.5987 25.7613 64.9257 25.6995C65.0035 25.6841 65.0892 25.6687 65.1826 25.6532C65.2449 25.6455 65.2059 25.6532 65.2293 25.6532C65.2449 25.6532 65.2682 25.6609 65.3149 25.6687C65.3305 25.6687 65.3383 25.6455 65.3383 25.6069C65.3383 25.5915 65.3383 25.5683 65.3383 25.5451C65.3071 25.4834 65.276 25.4139 65.2449 25.3444C65.1359 25.0819 65.1047 24.8735 65.2059 24.804C65.3461 24.7037 65.5563 24.7731 65.7898 24.9507C65.8521 24.997 65.9066 25.0356 65.9766 25.1051C66.0856 25.2286 66.1946 25.3444 66.288 25.4525C66.5138 25.7073 66.7551 26.0083 67.0042 26.3249C66.615 26.4098 66.2491 26.4947 65.9066 26.5719C65.6341 26.6259 65.3694 26.68 65.1359 26.734C64.8167 26.7958 64.5598 26.8421 64.4664 26.8575C64.2951 26.8884 64.334 26.8884 64.3262 26.8961C64.3262 26.8961 64.3185 26.8961 64.3185 26.9116C64.334 26.927 64.2951 26.8884 64.3418 26.9502C64.3807 26.9965 64.4352 27.0814 64.4742 27.1432C64.552 27.2898 64.6065 27.4365 64.6299 27.5909C64.7233 28.2085 64.4119 28.7258 64.0771 28.9419C63.7268 29.1658 63.4388 29.0809 63.4154 28.9265L63.4232 28.9187Z" fill="#D3B19C"/>
<path d="M14.9627 25.522C14.986 25.6687 14.8459 25.8154 14.5423 25.9235C14.262 26.0238 13.6859 26.1242 13.1721 25.6919C12.9464 25.4912 12.7595 25.2132 12.744 24.8273C12.7284 24.449 12.9386 24.1093 13.2111 23.9395C13.7716 23.6307 14.0985 23.7696 14.2153 23.7542C14.3243 23.7619 14.659 23.8314 14.9627 23.9781C15.2663 24.117 15.6244 24.3332 15.928 24.5879C16.543 25.0974 16.8855 25.7768 16.6675 25.9158C16.3795 26.1165 15.8968 25.6996 15.3441 25.3676C15.0716 25.1978 14.7758 25.0434 14.5345 24.9276C14.2854 24.8118 14.153 24.7887 14.083 24.7732C14.0363 24.7578 13.8183 24.7732 13.8027 24.7964C13.8105 24.7964 13.7327 24.7655 13.8494 24.9662C13.9195 25.1052 14.1997 25.1901 14.4566 25.2364C14.7135 25.2904 14.9237 25.3522 14.9549 25.5143L14.9627 25.522Z" fill="#D3B19C"/>
<path d="M16.6672 25.7769C16.8151 26.0394 16.278 26.4717 15.6708 26.85C15.3672 27.043 15.0558 27.2206 14.7755 27.3672C14.4719 27.5294 14.1683 27.6066 14.0515 27.622C13.9892 27.6297 13.8647 27.6606 13.6779 27.6529C13.491 27.6529 13.1952 27.568 12.9694 27.3518C12.6425 27.0507 12.5958 26.5335 12.7281 26.1938C12.8449 25.8233 13.1563 25.5531 13.4054 25.445C13.9192 25.2211 14.2617 25.2829 14.324 25.445C14.4174 25.692 14.0982 25.9236 13.8725 26.1552C13.7557 26.2865 13.709 26.3714 13.7012 26.4717C13.6856 26.5875 13.7168 26.603 13.709 26.5953C13.6856 26.5953 13.7946 26.6261 13.8647 26.603C13.9114 26.5952 14.0593 26.5567 14.2929 26.4331C14.542 26.3019 14.8767 26.1243 15.2037 25.9854C15.8576 25.692 16.5193 25.4913 16.675 25.7692L16.6672 25.7769Z" fill="#D3B19C"/>
<path d="M24.2421 14.4518C24.0164 14.6756 23.3702 13.9114 22.8798 13.9577C22.5995 13.9654 22.5528 14.0967 22.545 14.1507C22.5295 14.2279 22.654 14.4209 22.7007 14.4595C22.7397 14.5058 22.8876 14.6448 23.1133 14.7528C23.2457 14.8069 23.3157 14.8378 23.5104 14.8609C23.6972 14.8841 23.8918 14.8995 24.0942 14.9227C24.5068 14.9613 24.9739 15.0385 25.2931 15.2238C25.6123 15.4013 25.729 15.6406 25.6434 15.7333C25.5266 15.8722 25.3242 15.8491 25.0673 15.8645C24.8182 15.8645 24.4757 15.88 24.0553 15.8954C23.8451 15.8954 23.6271 15.9031 23.4014 15.8877C23.1912 15.88 22.872 15.8105 22.6852 15.7101C22.2648 15.5248 22.0157 15.2624 21.9223 15.162C21.8522 15.0539 21.5019 14.7992 21.4785 14.1275C21.4785 13.7879 21.6654 13.4327 21.9612 13.2166C22.2648 12.9927 22.6229 12.9387 22.9343 12.9773C23.596 13.0545 23.9852 13.5177 24.1487 13.811C24.32 14.1198 24.3511 14.3514 24.2266 14.4518H24.2421Z" fill="#D3B19C"/>
<path d="M25.3783 15.4245C25.0747 15.4168 24.9657 14.6988 24.7166 13.9963C24.4908 13.3093 24.0627 12.5373 24.0471 12.5759C24.0471 12.5759 24.0393 12.5759 24.0315 12.5604C24.0159 12.5759 24.0627 12.5141 23.9381 12.6299C23.8914 12.6839 23.8525 12.7611 23.8369 12.8229C23.8213 12.8692 23.8291 12.9619 23.868 13.0699C24.0159 13.4945 24.4908 13.9346 24.3273 14.1121C24.2339 14.2356 24.0471 14.2434 23.8135 14.1584C23.58 14.0658 23.2686 13.8805 23.0273 13.4868C22.9183 13.3015 22.8171 13.0468 22.8326 12.7457C22.8482 12.4678 22.9494 12.2207 23.0973 12.0123C23.2452 11.8116 23.4476 11.634 23.7279 11.5491C23.9926 11.4719 24.2417 11.5105 24.413 11.58C24.592 11.6572 24.7088 11.7576 24.7555 11.8039C25.0591 12.0663 25.4795 12.8383 25.6741 13.7261C25.861 14.5985 25.7053 15.4322 25.3861 15.4168L25.3783 15.4245Z" fill="#D3B19C"/>
<path d="M67.1448 14.7451C67.0203 14.6601 67.0358 14.4594 67.067 14.1969C67.1059 13.9576 67.1293 13.5639 67.0514 13.5021C67.0281 13.4944 66.9891 13.4558 66.8412 13.5562C66.7244 13.6334 66.67 13.7955 66.6466 13.8573C66.6232 13.919 66.5843 14.0966 66.561 14.4054C66.5298 14.7219 66.4909 15.1156 66.4364 15.4862C66.3274 16.2427 66.1484 16.9375 65.8915 16.9221C65.5412 16.8989 65.4477 16.1732 65.4555 15.4167C65.4555 15.0384 65.4789 14.6447 65.51 14.3282C65.5334 13.9962 65.6034 13.6874 65.6424 13.5716C65.6813 13.4713 65.7591 13.0776 66.1951 12.7302C66.4053 12.5758 66.6933 12.4291 67.0748 12.46C67.4484 12.4908 67.8065 12.7302 67.9545 13.0853C68.0946 13.4327 68.0401 13.7183 67.9778 13.9345C67.9077 14.1583 67.8065 14.3359 67.7053 14.4671C67.4952 14.7373 67.2772 14.8377 67.1526 14.7451H67.1448Z" fill="#D3B19C"/>
<path d="M67.2223 14.3976C67.09 14.3358 67.0978 14.0502 67.3625 13.7182C67.6116 13.4017 68.2032 13.0389 68.9117 13.2242C69.2386 13.3168 69.5344 13.5098 69.7446 13.78C69.9548 14.0425 70.0638 14.4207 70.0327 14.7141C69.9782 15.3549 69.5889 15.6559 69.5111 15.7409C69.4099 15.8412 69.1218 16.0728 68.7326 16.2349C68.3434 16.4125 67.8685 16.5128 67.4637 16.5978C66.6151 16.7753 65.7977 16.868 65.7276 16.6209C65.6342 16.2812 66.3816 15.9339 67.199 15.6559C67.6272 15.5093 68.0164 15.4089 68.2967 15.2777C68.5847 15.1541 68.7482 15.0306 68.7949 14.9843C68.935 14.8839 69.1997 14.4516 68.6236 14.1583C68.4056 14.0502 68.0631 14.1119 67.814 14.2277C67.5571 14.3358 67.3703 14.4671 67.2223 14.3899V14.3976Z" fill="#D3B19C"/>
<path d="M79.6473 21.7471C79.6006 21.6004 79.7563 21.4538 79.9509 21.2608C80.1455 21.0987 80.3947 20.7667 80.3402 20.7204C80.3246 20.7127 80.3168 20.6818 80.2935 20.6818C80.2623 20.6663 80.1611 20.6432 80.0833 20.6663C79.9354 20.6818 79.803 20.813 79.7485 20.8593C79.7018 20.9057 79.5772 21.0523 79.3904 21.3303C79.2036 21.6082 78.9467 21.9633 78.6742 22.2721C78.1215 22.8974 77.4831 23.3529 77.3041 23.1676C77.055 22.9128 77.4753 22.3107 77.8957 21.6776C78.1215 21.338 78.3317 21.0215 78.5029 20.759C78.6898 20.4656 78.9 20.2186 78.9934 20.1337C79.079 20.0642 79.3359 19.7322 79.9042 19.6241C80.1689 19.5778 80.4959 19.5933 80.8228 19.7785C81.1654 19.9715 81.3755 20.373 81.3366 20.7744C81.2899 21.1836 81.0486 21.4229 80.8617 21.5696C80.6593 21.724 80.4647 21.8089 80.2935 21.8552C79.9509 21.9478 79.7018 21.8938 79.6629 21.7394L79.6473 21.7471Z" fill="#D3B19C"/>
<path d="M79.9665 21.6854C79.8575 21.6004 79.9665 21.2839 80.3869 21.1141C80.7761 20.952 81.5001 20.9906 81.9439 21.5773C82.372 22.164 82.263 22.9128 81.9205 23.3683C81.5468 23.8547 81.0797 23.9241 80.963 23.955C80.8228 23.9936 80.4647 24.0322 80.0755 23.9859C79.694 23.9396 79.2659 23.8547 78.8455 23.7389C78.0047 23.5073 77.2885 23.1136 77.3742 22.8742C77.4987 22.5423 78.2538 22.6735 79.0479 22.7816C79.4683 22.8434 79.8497 22.8897 80.1767 22.936C80.4881 22.9746 80.6749 22.9514 80.7372 22.936C80.8073 22.9206 80.9708 22.8742 81.0564 22.7507C81.1732 22.6195 81.2199 22.3107 81.1187 22.1331C81.0408 21.9478 80.7528 21.8089 80.5114 21.778C80.2701 21.7394 80.0677 21.7934 79.9509 21.6776L79.9665 21.6854Z" fill="#D3B19C"/>
<path d="M11.8484 55.6916C11.7783 55.9077 11.2022 55.846 10.4938 55.8691C9.77762 55.8691 8.92128 56.0081 8.31407 56.2165L8.61767 55.4677C8.69552 55.6298 8.92128 55.6993 9.0147 55.7147C9.10034 55.7302 9.36502 55.7688 9.75426 55.7147C10.1746 55.653 10.6807 55.5758 11.21 55.4909C12.2532 55.3519 13.2419 55.2824 13.2886 55.5372C13.3587 55.8846 12.4167 56.2011 11.3969 56.4481C10.8753 56.5716 10.3926 56.6797 9.88661 56.7569C9.40395 56.8187 8.97578 56.7724 8.80451 56.7338C8.72666 56.7183 8.56318 56.6874 8.34521 56.5871C8.12723 56.4944 7.84697 56.2783 7.66792 55.9541L7.37988 55.4137L7.96375 55.2129C8.68774 54.9659 9.73091 54.8424 10.5405 54.9891C11.3579 55.128 11.9107 55.46 11.8406 55.6838L11.8484 55.6916Z" fill="#D3B19C"/>
<path d="M13.4052 56.0082C13.2262 56.2475 12.3465 55.7534 11.4668 55.159C11.0309 54.8656 10.5871 54.5414 10.229 54.2789C9.87871 54.001 9.70744 53.9469 9.68409 53.9469C9.66073 53.9469 9.66852 53.9469 9.66073 53.9469C9.66073 53.9547 9.66073 53.9315 9.64516 53.9701C9.62959 54.0242 9.62959 54.0859 9.66852 54.1631C9.73858 54.3407 10.0811 54.5877 10.4081 54.7961C11.0542 55.2053 11.6926 55.4446 11.6537 55.6608C11.6069 55.9541 10.8285 55.9773 9.97991 55.6145C9.58288 55.4292 9.09244 55.2285 8.7499 54.6572C8.57864 54.3638 8.5475 54.0087 8.62535 53.7231C8.69541 53.4143 8.93674 53.1286 9.17029 53.0206C9.45832 52.8739 9.73858 52.9048 9.832 52.9202C10.0578 52.9279 10.5326 53.1518 10.8674 53.4374C11.2255 53.6999 11.6537 54.0396 12.0585 54.3793C12.8759 55.0586 13.5921 55.7611 13.3975 56.0159L13.4052 56.0082Z" fill="#D3B19C"/>
<path d="M11.6229 55.3056C11.5139 55.5836 11.1869 55.5836 10.8911 55.4523C10.5953 55.3288 10.354 55.0818 10.3073 55.0277C10.2528 54.9814 10.0114 54.7652 9.87908 54.495C9.73896 54.2248 9.7156 53.9315 9.94915 53.8157C10.5486 53.5146 10.8989 54.2017 11.0157 54.2635C11.0546 54.3021 11.2492 54.4487 11.4205 54.6186C11.584 54.7961 11.7397 55.0123 11.6229 55.3056Z" fill="#D3B19C"/>
<path d="M77.3659 49.4307C77.179 49.1991 78.0432 48.3576 79.0163 47.5393C79.2498 47.3386 79.4834 47.1456 79.7091 46.9603C79.7403 46.9294 79.7636 46.8986 79.7714 46.8908C79.7558 46.8754 79.8103 46.914 79.857 46.9217C79.8882 46.9372 79.9271 46.9372 79.9271 46.9372C79.787 46.9526 79.8882 46.9372 79.857 46.9449H79.8726H79.9037C79.9582 46.9217 79.9582 46.9294 79.9816 46.9063C79.9816 46.9063 79.9505 46.9294 79.9115 47.0144C79.857 47.1533 79.8882 47.0993 79.857 47.107C79.8415 47.107 79.8103 47.107 79.7792 47.107C79.7169 47.107 79.6468 47.1302 79.5924 47.1456C79.4834 47.1842 79.4289 47.2228 79.351 47.2768C79.1175 47.4235 78.1599 48.126 77.436 49.0061C76.6964 49.8553 76.1982 50.8203 75.9568 50.7276C75.6221 50.6118 75.9101 49.4461 76.6497 48.4117C77.3659 47.354 78.4947 46.5743 78.7594 46.4122C78.8061 46.3813 78.9774 46.2578 79.2187 46.1652C79.4678 46.0957 79.7558 45.9567 80.2852 46.142C80.4253 46.2038 80.5732 46.3118 80.6744 46.4817C80.7679 46.6515 80.8068 46.8059 80.799 46.9835C80.7679 47.354 80.5577 47.5702 80.4176 47.7091C80.1062 47.9716 79.896 48.1106 79.6157 48.3113C78.5725 49.0524 77.5449 49.6854 77.3503 49.4384L77.3659 49.4307Z" fill="#D3B19C"/>
<path d="M77.6145 49.2917C77.4588 49.0293 78.4786 48.3731 79.7554 48.319C80.0668 48.3113 80.3626 48.2881 80.7674 48.3962C81.3123 48.5275 81.6704 49.0061 81.6159 49.4538C81.6004 49.8939 81.2034 50.2181 80.962 50.3416C80.7674 50.4497 80.6117 50.496 80.5572 50.5192C80.3081 50.6196 79.1715 51.0133 78.0583 51.0905C76.945 51.1908 75.9097 50.9978 75.933 50.7431C75.9564 50.3957 76.9295 50.3185 77.9259 50.1255C78.9302 49.9556 79.95 49.6391 80.1835 49.5465C80.2536 49.5233 80.3392 49.4925 80.4327 49.4384C80.4871 49.4075 80.4482 49.423 80.4638 49.4153C80.4638 49.4153 80.4638 49.4075 80.456 49.3921C80.3159 49.3381 80.0278 49.3226 79.7709 49.3072C78.7356 49.2454 77.7547 49.5774 77.6145 49.3072V49.2917Z" fill="#D3B19C"/>
<path d="M76.5094 50.4807C75.9411 50.334 76.0812 49.9789 76.0501 49.9171C76.0501 49.8554 75.9022 49.5388 76.3303 49.2686C76.6339 49.0911 76.8441 49.1683 76.9609 49.3381C77.0777 49.5002 77.0777 49.7087 77.0855 49.755C77.0933 49.8013 77.14 50.0175 77.0699 50.2105C76.9998 50.4112 76.8208 50.5579 76.5094 50.4807Z" fill="#D3B19C"/>
<path d="M78.6117 50.5347C78.4483 50.7817 78.1914 50.7586 77.9967 50.6196C77.7943 50.4807 77.6776 50.2491 77.6542 50.2027C77.6231 50.1564 77.4985 49.9557 77.4751 49.7318C77.4518 49.508 77.5452 49.2918 77.7943 49.2532C78.4794 49.1683 78.4794 49.6006 78.5417 49.6624C78.565 49.7396 78.9309 50.0175 78.6117 50.5347Z" fill="#D3B19C"/>
<path d="M79.6622 50.5191C79.3197 51.0441 78.7981 50.4342 78.767 50.357C78.6891 50.303 78.2843 49.7008 78.7825 49.4924C79.4209 49.2222 79.5143 49.6468 79.5688 49.6931C79.6 49.7549 79.9892 50.0019 79.6545 50.5269L79.6622 50.5191Z" fill="#D3B19C"/>
<path d="M79.0473 50.2722C78.6658 49.8013 79.2185 49.5157 79.2808 49.4693C79.3431 49.423 79.7635 49.0447 80.0904 49.4462C80.5342 49.9943 79.997 50.2336 79.9425 50.2799C79.8803 50.3262 79.4521 50.7663 79.0551 50.2722H79.0473Z" fill="#D3B19C"/>
<path d="M78.6351 50.0945C78.4327 50.6581 77.9889 50.3725 77.9267 50.3493C77.8644 50.3261 77.4051 50.1949 77.5841 49.7163C77.8255 49.0601 78.2225 49.3534 78.2848 49.3689C78.347 49.392 78.8531 49.4924 78.6351 50.0868V50.0945Z" fill="#D3B19C"/>
<path d="M78.6427 50.442C78.6427 50.7431 78.378 50.8666 78.0744 50.8821C77.7786 50.8975 77.475 50.8049 77.4049 50.7894C77.2648 50.7894 76.2605 50.4498 76.5174 49.9711C76.8366 49.369 77.5217 49.7781 77.6462 49.7781C77.7552 49.8322 78.6116 49.8399 78.6427 50.4498V50.442Z" fill="#D3B19C"/>
<path d="M4.91249 63.8516C4.42204 63.5428 5.01369 62.6242 5.04483 62.4775C5.11489 62.354 5.34844 61.3504 5.83889 61.4276C6.56288 61.5511 6.11136 62.7091 6.03351 62.8403C6.01015 62.9947 5.48857 64.2067 4.92027 63.8593L4.91249 63.8516Z" fill="#D3B19C"/>
<path d="M12.4404 65.3414C11.8644 65.2796 12.0123 64.0444 11.9733 63.8823C11.9889 63.7202 11.7709 62.5854 12.2536 62.4618C12.962 62.292 13.0399 63.6353 13.0243 63.8051C13.071 63.9749 13.1099 65.4108 12.4482 65.3336L12.4404 65.3414Z" fill="#D3B19C"/>
<path d="M2.08624 55.2437C2.14851 55.8382 1.18319 55.8227 1.06642 55.8382C0.949647 55.8536 0.0621738 55.9771 0.00767979 55.4676C-0.0701688 54.7728 0.832874 54.8191 0.957432 54.8037C1.0742 54.7883 2.02396 54.6184 2.08624 55.2437Z" fill="#D3B19C"/>
<path d="M6.00977 48.2572C5.67502 48.759 5.169 48.2804 5.09894 48.2341C5.02887 48.1877 4.47615 47.8635 4.76419 47.4312C5.15343 46.8445 5.61274 47.3154 5.6828 47.3617C5.75287 47.408 6.36787 47.7246 6.00977 48.2495V48.2572Z" fill="#D3B19C"/>
<path d="M13.0476 50.8822C12.4793 50.6814 12.9698 49.6778 13.0165 49.5466C13.0632 49.4154 13.3824 48.4349 13.8728 48.6125C14.5345 48.8518 14.0519 49.7705 14.0051 49.9017C13.9584 50.033 13.647 51.0983 13.0476 50.8822Z" fill="#D3B19C"/>
<path d="M74.8822 43.0771C74.4151 43.4631 74.0336 42.8146 73.9714 42.7451C73.9091 42.6756 73.442 42.1661 73.839 41.8342C74.384 41.3864 74.7187 42.004 74.7732 42.0735C74.8277 42.143 75.3649 42.6679 74.8744 43.0694L74.8822 43.0771Z" fill="#D3B19C"/>
<path d="M81.9197 42.2047C81.4137 41.8728 81.8963 41.371 81.943 41.3015C81.9898 41.232 82.3167 40.6839 82.7449 40.9696C83.3365 41.3556 82.8617 41.811 82.8149 41.8805C82.7682 41.95 82.4491 42.5599 81.9197 42.2125V42.2047Z" fill="#D3B19C"/>
<path d="M79.2182 56.286C78.6499 56.4944 78.4786 55.6992 78.4397 55.6066C78.4008 55.514 78.105 54.8192 78.5876 54.6416C79.2493 54.3946 79.3817 55.1511 79.4206 55.2438C79.4595 55.3364 79.8099 56.0698 79.2182 56.2937V56.286Z" fill="#D3B19C"/>
<path d="M85.9056 53.8079C85.4385 54.1939 85.0571 53.5454 84.9948 53.4759C84.9325 53.4065 84.4654 52.8969 84.8625 52.565C85.4074 52.1172 85.7421 52.7348 85.7966 52.812C85.8589 52.8815 86.3883 53.4065 85.8978 53.8079H85.9056Z" fill="#D3B19C"/>
<path d="M87.9999 45.9953C87.9999 46.5975 87.237 46.474 87.1436 46.474C87.0502 46.474 86.334 46.5048 86.334 45.9953C86.334 45.2928 87.0424 45.4395 87.1436 45.4395C87.2448 45.4395 87.9999 45.3623 87.9999 45.9953Z" fill="#D3B19C"/>
<path d="M60.5041 83.267C60.6053 83.3288 59.8424 84.5254 57.9273 85.3746C56.9853 85.7837 55.7631 86.0771 54.4319 85.9922C53.1007 85.915 51.6916 85.4363 50.5006 84.6026C49.9011 84.1857 49.3562 83.6916 48.8969 83.1281C48.4531 82.5645 48.025 81.9624 47.7992 81.2135C47.6902 80.8507 47.6279 80.457 47.6669 80.0401C47.7058 79.631 47.8848 79.1755 48.2196 78.8667C48.5388 78.5579 49.0214 78.3649 49.4418 78.3958C49.87 78.4112 50.2359 78.5656 50.5317 78.7509C51.1311 79.1369 51.5359 79.685 51.7072 80.3103C51.8551 80.9202 51.7928 81.4683 51.6527 81.9161C51.3647 82.827 50.8353 83.3211 50.5628 83.5604C50.2904 83.792 49.7299 84.2398 48.7957 84.3633C47.8693 84.4868 46.7405 84.1085 45.8296 83.3906C44.8877 82.688 44.1559 81.669 43.3541 80.7967C42.9492 80.3566 42.5133 79.9552 42.0228 79.6618C41.5402 79.3685 40.9797 79.1755 40.4114 79.0906C39.2592 78.9207 38.0526 79.1523 37.0483 79.5846C36.0441 80.0324 35.2033 80.6654 34.5338 81.2599C33.2104 82.4642 32.4708 83.4137 32.3541 83.3288C32.2295 83.2362 32.7822 82.1554 34.0589 80.7812C34.7051 80.1019 35.5614 79.3608 36.6747 78.8126C37.7879 78.2723 39.1425 77.9557 40.5437 78.1333C41.2366 78.2259 41.9294 78.4498 42.5444 78.8126C43.1594 79.1755 43.6655 79.6464 44.1092 80.1096C44.9889 81.0591 45.6739 81.9855 46.468 82.5723C47.2465 83.1821 48.0639 83.4137 48.6711 83.3365C49.2705 83.267 49.6754 82.9582 49.87 82.7884C50.0568 82.6186 50.4461 82.248 50.6407 81.6227C50.8509 80.9974 50.7575 80.1328 49.9712 79.6464C49.5975 79.4148 49.2005 79.3685 48.9514 79.6232C48.6867 79.8471 48.6322 80.3721 48.7957 80.9125C48.9436 81.4451 49.3017 81.9778 49.6909 82.4796C50.0802 82.9737 50.555 83.4137 51.0766 83.792C52.112 84.5486 53.3342 84.9963 54.502 85.1121C55.6775 85.2356 56.7829 85.0349 57.6782 84.7261C59.4765 84.1008 60.3795 83.1204 60.5041 83.2593V83.267Z" fill="#D3B19C"/>
<path d="M64.9261 80.2255C65.0273 80.3259 64.7782 80.735 64.171 81.121C63.5793 81.507 62.6218 81.8235 61.6019 81.7695C61.0881 81.7386 60.5977 81.646 60.1073 81.4375C59.6246 81.2214 59.1108 80.8277 58.9862 80.1869C58.885 79.6079 59.1264 79.0521 59.5857 78.7819C60.0528 78.5271 60.4809 78.6815 60.6288 78.7587C60.8001 78.8359 61.0648 79.0289 61.2438 79.3686C61.3295 79.5384 61.4073 79.7469 61.4151 79.9939C61.4229 80.2641 61.3606 80.4803 61.2672 80.7119C61.0648 81.1596 60.7067 81.4916 60.3642 81.7695C60.0216 82.0397 59.6402 82.2945 59.2509 82.5106C57.6862 83.4138 55.9891 83.576 55.9579 83.3135C55.8956 82.9738 57.3981 82.5724 58.7371 81.6769C59.391 81.2446 60.1306 80.6964 60.2941 80.2873C60.4809 79.9244 60.1851 79.7006 60.1618 79.7006C60.1384 79.6851 60.1228 79.6851 60.1073 79.7006C60.0917 79.6928 59.9905 79.8318 60.0216 80.0094C60.0294 80.1329 60.2162 80.3722 60.5354 80.5112C60.8546 80.6656 61.275 80.7659 61.6642 80.8045C62.4739 80.8972 63.2757 80.7273 63.8518 80.5266C64.4278 80.3259 64.8015 80.1174 64.9183 80.241L64.9261 80.2255Z" fill="#D3B19C"/>
<path d="M47.885 26.9733C47.5814 26.9579 47.6048 24.5956 47.4802 22.102C47.379 19.6085 47.1143 16.976 47.0442 16.4047C46.982 15.8335 46.6472 13.3708 46.2035 11.078C45.7831 8.77744 45.2615 6.63902 45.5184 6.56182C45.8532 6.46146 46.6316 8.55356 47.1688 10.8773C47.7293 13.1855 48.0251 15.7022 48.0874 16.2812C48.1653 16.8602 48.4844 19.539 48.4767 22.0789C48.4922 24.6187 48.2042 26.9965 47.8928 26.981L47.885 26.9733Z" fill="#D3B19C"/>
<path d="M44.451 3.24226C44.2953 3.2577 44.1864 3.04155 44.0696 2.75591C43.9684 2.47799 43.7971 2.12288 43.6103 2.0148C43.5169 1.94532 43.3767 1.90672 43.2833 1.91444C43.1821 1.91444 43.1743 1.9376 43.151 1.96076C43.0965 1.99936 43.0965 2.19235 43.112 2.26183C43.0965 2.36991 43.4234 3.10331 43.9606 3.65142C44.4666 4.2227 45.1283 4.57781 45.0505 4.82485C44.9493 5.16453 44.0307 5.00241 43.2911 4.36165C42.536 3.7595 42.1078 2.77135 42.0844 2.45483C42.0689 2.38535 42.0455 2.25411 42.0533 2.0534C42.0533 1.8604 42.1156 1.5516 42.3413 1.28912C42.5593 1.01121 42.9719 0.849087 43.3144 0.879967C43.6648 0.903127 43.9762 1.03437 44.2331 1.25052C44.7546 1.73688 44.7702 2.31587 44.7546 2.66327C44.7157 3.02611 44.6067 3.23454 44.451 3.24998V3.24226Z" fill="#D3B19C"/>
<path d="M44.8717 4.43896C44.6304 4.2614 45.0352 3.52029 45.2532 2.68654C45.3699 2.27738 45.4556 1.83735 45.4945 1.48995C45.5334 1.15027 45.4711 1.09623 45.4634 1.08851C45.4478 1.08851 45.4711 1.03447 45.2765 1.04991C45.1909 1.06535 45.0663 1.10395 44.9729 1.17343C44.8717 1.25063 44.825 1.29695 44.7705 1.45907C44.5603 2.03035 44.825 2.92586 44.5447 2.98762C44.3813 3.04166 44.1944 2.88726 44.0232 2.58618C43.8675 2.2851 43.6962 1.79875 43.813 1.21203C43.8597 0.941835 44.0543 0.578999 44.3034 0.386C44.5447 0.177562 44.825 0.0617634 45.1053 0.0154439C45.3855 -0.0308757 45.6736 0.0154439 45.8915 0.123523C46.1095 0.231602 46.2418 0.386 46.2963 0.4632C46.452 0.602158 46.6311 1.15799 46.5455 1.59803C46.4987 2.03035 46.382 2.53986 46.1874 3.00306C45.8059 3.95261 45.113 4.63196 44.8639 4.43896H44.8717Z" fill="#D3B19C"/>
</g>
<defs>
<clipPath id="clip0_306_11358">
<rect width="88" height="86" fill="white"/>
</clipPath>
</defs>
</svg>
