<svg width="88" height="84" viewBox="0 0 88 84" fill="none" xmlns="http://www.w3.org/2000/svg">
<g clip-path="url(#clip0_306_10821)">
<path d="M48.958 58.3966C49.0132 58.381 49.1079 58.5764 49.0842 58.9124C49.0606 59.2485 48.9343 59.7174 48.674 60.2567C48.1612 61.343 47.1199 62.7029 45.6052 64.055C44.0906 65.407 42.1026 66.7669 39.7596 67.8611C37.4245 68.9631 34.766 69.8227 32.0049 70.3464C29.2438 70.8778 26.388 71.081 23.6664 71.0419C20.9368 71.0107 18.302 70.6824 16.0063 70.1197C11.3677 69.0334 8.22004 66.9389 7.17082 66.1808C6.63438 65.79 5.65617 65.071 4.53595 63.9065C3.41574 62.7576 2.16141 61.1242 1.28575 58.9984C0.851864 57.9355 0.544199 56.7319 0.457422 55.458C0.386423 54.1841 0.520533 52.8399 0.954419 51.5581C1.80641 48.9712 3.66818 46.7595 5.79817 45.1729C7.93604 43.563 10.3264 42.4454 12.6141 41.6951C14.9019 40.9526 17.0634 40.5228 18.9252 40.2727C22.6487 39.7881 25.1022 40.0304 25.0943 40.2258C25.0943 40.5462 22.6882 40.6713 19.1145 41.3981C15.5803 42.1484 10.705 43.4223 6.82371 46.4703C4.89884 47.963 3.32107 49.9247 2.63474 52.0818C1.93263 54.2466 2.17719 56.5053 2.9503 58.3419C3.70762 60.1863 4.82784 61.6556 5.83761 62.6951C6.84738 63.7502 7.73093 64.4067 8.22004 64.7584C9.19037 65.4539 12.0856 67.3687 16.4481 68.4003C18.6096 68.9396 21.1025 69.2522 23.7137 69.2991C26.3407 69.3616 29.0702 69.1897 31.7209 68.7208C37.0301 67.8454 41.8659 65.5868 44.8716 63.1796C46.3862 61.9917 47.4749 60.8194 48.106 59.9206C48.4216 59.4751 48.6267 59.1 48.745 58.8343C48.8712 58.5686 48.8949 58.4044 48.9738 58.3966H48.958Z" fill="#B9927A"/>
<path d="M68.4674 37.1858C68.5306 37.0764 69.2563 37.3734 70.4791 37.9908C71.7019 38.616 73.4374 39.5461 75.457 40.82C77.4686 42.1095 79.8037 43.7195 82.0205 45.8687C84.2293 48.0102 86.3199 50.7065 87.5269 53.9655C87.8188 54.8018 88.0318 55.7083 87.9923 56.6853C87.9608 57.6622 87.5742 58.7016 86.9115 59.4519C85.5547 60.9681 83.7166 61.4996 82.0915 61.82C78.7545 62.4843 75.4806 62.1013 72.7353 61.3667C69.9821 60.6242 67.6864 59.5926 65.9351 58.6704C64.1838 57.7482 62.9453 56.9432 62.2984 56.5211C61.6594 56.0835 60.476 55.2941 59.0245 54.0749C57.5808 52.8557 55.8611 51.1989 54.2991 49.0262C53.5181 47.9398 52.7765 46.7284 52.1612 45.392C51.5222 44.0321 51.0804 42.5159 50.9384 40.9216C50.8043 39.3351 50.9542 37.6 51.822 36.037C52.6503 34.4661 54.3149 33.3406 56.0267 33.0437C57.7465 32.731 59.4032 33.0202 60.902 33.4344C62.4088 33.8643 63.7578 34.4426 65.0752 34.9819C67.6943 36.0917 70.0294 37.3031 71.9385 38.4676C75.7804 40.7731 77.8473 42.8911 77.7132 43.0239C77.5002 43.2662 75.244 41.4765 71.3626 39.4523C69.4299 38.4285 67.1027 37.3343 64.5072 36.3261C63.2135 35.8338 61.8487 35.3023 60.4761 34.9428C59.1034 34.5911 57.6518 34.3957 56.3423 34.6614C55.0406 34.9115 53.9204 35.7087 53.3209 36.8498C52.6977 37.983 52.5557 39.4054 52.6819 40.7575C52.816 42.1252 53.2025 43.4538 53.7705 44.6417C54.3385 45.8687 55.0328 46.9863 55.7585 47.9945C57.2101 50.0109 58.8194 51.574 60.1842 52.7307C61.5489 53.8874 62.677 54.6454 63.2845 55.0597C63.9077 55.4661 65.091 56.232 66.7713 57.1073C68.4438 57.9826 70.629 58.9596 73.2007 59.6551C75.7646 60.3429 78.7624 60.6868 81.7522 60.1084C83.2353 59.8505 84.7263 59.3269 85.602 58.3421C86.4856 57.3965 86.454 55.9272 85.9491 54.497C84.9157 51.5818 83.0145 48.9871 80.9713 46.9082C78.9202 44.8058 76.7113 43.149 74.8101 41.7813C72.8931 40.4214 71.2522 39.3507 70.132 38.5692C69.0118 37.7876 68.3964 37.3031 68.4674 37.1858Z" fill="#B9927A"/>
<path d="M43.7044 45.7514C43.5703 45.9702 42.734 45.681 41.5192 45.1808C40.2885 44.7041 38.6713 44.0163 36.9436 43.4693C33.512 42.2969 29.7096 41.7108 28.8812 41.6326C28.0529 41.5154 24.4556 41.1872 21.0713 41.4685C19.3752 41.5623 17.7422 41.8046 16.5194 41.9374C15.3045 42.1172 14.4762 42.1719 14.421 41.9609C14.3342 41.6795 15.0679 41.2653 16.267 40.8276C17.474 40.4291 19.1464 40.0148 20.9135 39.8273C24.4477 39.3505 28.2265 39.7648 29.0863 39.8898C29.9541 39.968 33.9695 40.4994 37.5037 41.9062C39.2787 42.5705 40.9117 43.4302 42.0556 44.157C43.1916 44.9151 43.8464 45.5247 43.7044 45.7514Z" fill="#B9927A"/>
<path d="M79.9849 60.8273C79.764 60.968 79.0777 60.2177 78.1074 59.0532C77.1134 57.9044 75.8117 56.3491 74.3207 54.8798C71.4018 51.8787 67.7493 49.3387 66.9289 48.8307C66.1321 48.2836 62.5663 46.1109 58.8823 44.712C57.0678 43.9617 55.2376 43.4146 53.8807 42.9691C52.516 42.5627 51.6245 42.2423 51.6561 42.0313C51.7034 41.7421 52.6659 41.703 54.1332 41.8593C55.5847 42.0625 57.5333 42.4768 59.4581 43.1723C63.3631 44.4541 67.063 46.7909 67.8913 47.3614C68.1122 47.4943 68.5145 47.7443 69.0352 48.1195C69.5637 48.4868 70.2343 48.9401 70.9443 49.5184C72.4037 50.6126 74.0525 52.1444 75.5356 53.731C77.0187 55.3253 78.2494 57.0447 79.0619 58.3811C79.8429 59.7332 80.2137 60.6945 79.9928 60.8273H79.9849Z" fill="#B9927A"/>
<path d="M60.7124 68.1192C60.5783 68.3302 59.4344 67.8535 57.7778 66.9469C56.1211 66.0403 53.9438 64.6882 51.8691 63.0079C49.7943 61.3432 47.8931 59.2878 46.6861 57.3574C45.4475 55.4504 44.8953 53.7623 44.6823 53.1761C44.5088 52.5822 43.9329 50.98 43.8698 48.7995C43.8303 47.7132 43.925 46.494 44.2405 45.2669C44.5482 44.0321 45.0925 42.8207 45.7631 41.7344C47.12 39.5461 48.9502 37.9126 50.3465 36.8263C51.7586 35.7478 52.7763 35.1929 52.9025 35.357C53.0918 35.5915 52.3029 36.4433 51.1038 37.6782C49.9205 38.9208 48.3112 40.5855 47.191 42.5706C46.6309 43.5632 46.1812 44.6183 45.9445 45.6812C45.6921 46.7441 45.6211 47.7913 45.6526 48.737C45.7079 50.6439 46.2049 52.0898 46.3626 52.6212C46.5599 53.1449 47.0726 54.6611 48.2007 56.4039C49.2894 58.1545 51.0328 60.085 52.9498 61.7418C54.8589 63.4065 56.91 64.8524 58.401 65.97C59.8999 67.0876 60.8544 67.8847 60.7045 68.1114L60.7124 68.1192Z" fill="#B9927A"/>
<path d="M86.706 54.5438C86.7928 54.4735 87.0531 54.5907 87.3371 54.958C87.629 55.3175 87.9051 55.9584 87.9761 56.7556C88.1339 58.3734 87.3923 60.3585 86.4614 62.0935C85.57 63.8519 84.4971 65.6417 83.4242 66.9781C82.3592 68.3224 81.3337 69.2055 80.9629 69.5103C80.5921 69.8151 79.5902 70.6435 78.0677 71.3391C76.5688 72.0425 74.4625 72.5349 72.4351 72.1754C71.4332 72.0034 70.5418 71.6752 69.7608 71.386C68.9719 71.089 68.2777 70.8389 67.6781 70.6748C66.4948 70.3309 65.6822 70.4325 65.6191 70.2059C65.5244 69.948 66.4238 69.4322 67.8753 69.5494C69.3111 69.6275 71.0466 70.3387 72.6717 70.5419C74.3047 70.753 76.0245 70.3309 77.3104 69.7291C78.612 69.1352 79.4956 68.424 79.819 68.1661C80.1425 67.9003 81.0418 67.111 82.0121 65.884C82.9903 64.6648 84.0238 63.0001 84.9783 61.3198C85.9644 59.6629 86.6981 58.0295 86.8006 56.7712C86.9505 55.5129 86.4614 54.7236 86.6981 54.5438H86.706Z" fill="#B9927A"/>
<path d="M45.2901 63.172C45.014 63.0938 45.5426 61.5933 44.8404 59.4675C44.5012 58.4202 43.8701 57.2557 42.9077 56.2475C41.9374 55.2237 40.6594 54.3328 39.2394 53.6138C36.3757 52.1757 33.0861 51.3238 30.4197 50.9096C27.7296 50.4876 25.6232 50.5736 24.8738 50.5579C24.1244 50.6126 22.1285 50.6439 19.6119 51.1363C17.0954 51.613 14.0898 52.5665 11.3602 53.9029C10.6897 54.2468 10.0112 54.6063 9.38801 54.9658C8.77268 55.3331 8.1889 55.7317 7.66824 56.1616C6.61114 57.0056 5.7907 57.9435 5.27792 58.8266C4.22082 60.6242 4.64681 62.0778 4.38648 62.1247C4.31548 62.1404 4.22871 62.07 4.13404 61.9137C4.03148 61.7574 3.92104 61.5073 3.85793 61.1634C3.71593 60.4913 3.75538 59.4284 4.24448 58.3186C4.7257 57.201 5.58559 56.06 6.7058 55.0596C7.25802 54.5516 7.88124 54.0827 8.5439 53.645C9.21445 53.223 9.89289 52.8322 10.595 52.4414C13.4271 50.9409 16.6063 49.9014 19.2648 49.4013C21.9234 48.8698 24.0376 48.8542 24.8265 48.7995C25.6153 48.8151 27.84 48.7057 30.6879 49.1512C33.5279 49.5966 36.9674 50.5032 40.0283 52.1366C41.5587 52.9573 42.9708 54.0123 44.0279 55.2628C45.0929 56.5133 45.724 57.92 45.9764 59.1705C46.2368 60.421 46.1184 61.4995 45.9054 62.1873C45.6846 62.8828 45.4163 63.2111 45.298 63.1642L45.2901 63.172Z" fill="#B9927A"/>
<path d="M51.5065 61.3431C51.617 61.3196 51.8536 61.9058 52.0272 62.9921C52.2008 64.0785 52.2165 65.6884 51.83 67.572C51.4355 69.4477 50.6072 71.5969 49.2582 73.6445C47.9013 75.6765 46.0948 77.6538 43.8859 79.2013C41.6928 80.7878 39.1763 81.882 36.6913 82.6479C34.1984 83.3747 31.7292 83.7655 29.5203 83.914C25.0868 84.211 21.7025 83.7577 20.4955 83.6326C19.2964 83.4685 16.0541 83.1715 12.0702 81.7804C11.0762 81.4287 10.0428 81.0066 9.01726 80.4596C7.98382 79.9281 6.95038 79.2873 5.98005 78.5135C5.01761 77.7398 4.08673 76.8567 3.31362 75.8407C2.54841 74.809 1.86997 73.6914 1.43608 72.5035C0.473642 70.151 0.173866 67.697 0.0555336 65.4696C-0.0470213 63.2266 0.0792002 61.179 0.244866 59.4439C0.607752 55.9817 1.06531 53.77 1.27041 53.7934C1.57808 53.8247 1.4913 56.0911 1.39664 59.5143C1.35719 61.2258 1.34141 63.2344 1.52286 65.368C1.72008 67.4938 2.07508 69.7915 2.98229 71.8783C3.83429 73.9806 5.3095 75.786 7.0766 77.1458C7.94437 77.8414 8.89103 78.4119 9.84558 78.8965C10.7922 79.3889 11.7547 79.7796 12.6777 80.1157C16.4091 81.413 19.5567 81.7335 20.7164 81.8898C21.884 82.0148 25.1657 82.429 29.402 82.1477C31.5162 82.007 33.8513 81.6397 36.2022 80.9754C38.5294 80.272 40.9039 79.2716 42.9314 77.857C44.9904 76.4659 46.7101 74.6762 48.0433 72.8317C49.3687 70.9795 50.2207 69.0334 50.7177 67.314C51.7117 63.844 51.191 61.3978 51.5223 61.3587L51.5065 61.3431Z" fill="#B9927A"/>
<path d="M63.5998 67.5642C63.3868 67.4157 63.4893 67.0015 63.5919 66.4309C63.6944 65.8839 63.7576 65.0945 63.4972 64.6881C63.2448 64.2817 62.8188 64.1801 62.3297 64.3208C61.8564 64.4615 61.5802 64.7662 61.5171 64.86C61.4461 64.9538 61.2174 65.2821 61.1148 65.8213C61.0044 66.3606 61.0359 67.1109 61.1858 67.869C61.3278 68.6349 61.5408 69.4399 61.596 70.0729C61.6591 70.706 61.5645 71.1514 61.3515 71.1827C61.0517 71.2296 60.7914 70.8935 60.4916 70.3777C60.1997 69.8541 59.8447 69.1351 59.5765 68.2597C59.3004 67.3844 59.1978 66.3684 59.3556 65.5087C59.5055 64.6334 59.9157 64.0238 60.0971 63.7971C60.2707 63.5705 60.7992 62.9218 61.7932 62.6248C62.2823 62.4763 62.9056 62.4138 63.5446 62.6326C64.1914 62.8437 64.7279 63.3673 64.9882 63.9613C65.2407 64.5709 65.2407 65.1727 65.1381 65.6572C65.0356 66.1496 64.8462 66.5482 64.649 66.853C64.2388 67.4704 63.7891 67.7048 63.584 67.5485L63.5998 67.5642Z" fill="#B9927A"/>
<path d="M64.7045 66.9077C64.5941 66.9468 64.4284 66.8687 64.3259 66.6264C64.2154 66.3841 64.2075 65.9699 64.3969 65.5557C64.5862 65.1493 64.957 64.7429 65.5092 64.5084C66.0535 64.2505 66.8818 64.2974 67.442 64.6491C68.6174 65.3446 69.0039 66.6967 68.7909 67.7205C68.5858 68.7131 68.0573 69.2524 67.9074 69.4477C67.7417 69.6353 67.2842 70.1355 66.5505 70.5263C65.8326 70.917 64.9175 71.1671 64.0813 71.3078C62.4404 71.5735 60.9021 71.7064 60.7996 71.2844C60.6654 70.706 62.1328 70.1433 63.7026 69.7056C64.4679 69.4868 65.1857 69.2524 65.6827 68.9788C66.1719 68.7131 66.4637 68.4161 66.5663 68.3067C66.661 68.1973 66.945 67.8534 67.0317 67.4001C67.1422 67.0093 66.945 66.345 66.5663 66.0793C66.3691 65.9386 66.2271 65.8917 65.9983 65.9152C65.7695 65.9464 65.5407 66.0637 65.3751 66.1965C65.028 66.4466 64.957 66.8218 64.7045 66.9234V66.9077Z" fill="#B9927A"/>
<path d="M1.75942 57.8184C1.68053 57.8419 1.42809 57.2088 1.45175 56.185C1.45175 55.169 1.81464 53.8091 2.46153 52.5743C3.73952 50.0499 6.00361 48.0882 6.47694 47.674C6.94239 47.2363 9.10393 45.4779 11.51 44.4462C13.8846 43.3521 16.3301 43.0004 16.3459 43.1645C16.3932 43.4068 14.0502 43.9148 11.794 45.0402C9.49837 46.1031 7.39994 47.7756 6.95028 48.1976C6.49272 48.5962 4.33118 50.5266 3.06108 52.8791C2.41419 54.0358 2.03553 55.2706 1.92508 56.2162C1.79886 57.1619 1.89353 57.795 1.76731 57.8184H1.75942Z" fill="#B9927A"/>
<path d="M45.1162 49.3933C44.9664 49.534 43.9408 48.5961 42.7338 47.7599C41.5426 46.9002 40.1621 46.1734 39.8544 46.0327C39.5546 45.8764 38.2293 45.259 36.9119 44.8447C35.6023 44.3993 34.3243 44.157 34.348 43.9772C34.3795 43.7506 35.7206 43.8287 37.1012 44.2117C38.4896 44.5712 39.8544 45.2355 40.1699 45.3996C40.4855 45.5481 41.937 46.2828 43.1283 47.2284C44.3352 48.1585 45.2661 49.2526 45.1084 49.3933H45.1162Z" fill="#B9927A"/>
<path d="M3.44784 56.9821C3.64506 57.0368 3.6214 57.451 3.58195 57.8731C3.53462 58.3732 3.49518 58.7562 3.48729 58.85C3.48729 58.9438 3.47151 59.272 3.44784 59.78C3.42418 60.1864 3.39262 60.5694 3.21907 60.5928C2.9824 60.6241 2.83251 60.2333 2.78518 59.8035C2.72996 59.3736 2.77729 58.9125 2.78518 58.8109C2.78518 58.7015 2.80885 58.2169 2.92718 57.7636C3.03762 57.3182 3.24273 56.9196 3.45573 56.9743L3.44784 56.9821Z" fill="#B9927A"/>
<path d="M46.7567 62.2809C46.5516 62.234 46.6857 61.2649 46.6068 60.2489C46.5595 59.2251 46.2913 58.17 46.2124 57.9512C46.1493 57.7245 45.8258 56.7554 45.3446 55.9192C44.8949 55.0673 44.3112 54.3639 44.4374 54.2389C44.6031 54.0747 45.3604 54.7 45.9126 55.5831C46.4964 56.4428 46.8198 57.5057 46.8829 57.748C46.9618 57.9824 47.2853 59.1235 47.2616 60.2333C47.2616 61.3431 46.946 62.3356 46.7409 62.2887L46.7567 62.2809Z" fill="#B9927A"/>
<path d="M12.9846 71.7924C12.9214 71.98 11.5015 71.5736 10.0972 70.8702C8.68514 70.1903 7.33615 69.2212 7.05215 69.0023C6.76026 68.7991 5.50594 67.8691 4.49617 66.814C3.46273 65.7824 2.68962 64.657 2.82373 64.5476C3.01307 64.3991 3.91239 65.3916 4.96161 66.3373C5.99505 67.3064 7.18626 68.2286 7.47026 68.4318C7.75426 68.6428 9.07169 69.5494 10.4128 70.2762C11.7381 71.0187 13.0634 71.5814 12.9924 71.7846L12.9846 71.7924Z" fill="#B9927A"/>
<path d="M9.89267 71.8001C9.83744 71.9876 8.89078 71.7844 7.9599 71.3546C7.02113 70.9404 6.14547 70.3073 5.95613 70.1667C5.7668 70.0338 4.93847 69.432 4.29948 68.7286C3.6447 68.0409 3.17137 67.275 3.31337 67.1812C3.51059 67.0405 4.09437 67.6657 4.77281 68.2675C5.43547 68.8849 6.1928 69.4789 6.37424 69.6039C6.55569 69.7368 7.40768 70.3073 8.25968 70.7684C9.11167 71.2374 9.96367 71.6047 9.90055 71.8079L9.89267 71.8001Z" fill="#B9927A"/>
<path d="M8.20478 72.6287C8.14167 72.8162 7.47112 72.6677 6.81634 72.3786C6.15368 72.0894 5.52257 71.6596 5.38846 71.5736C5.24646 71.4876 4.6548 71.089 4.17358 70.6201C3.68447 70.159 3.3137 69.651 3.43992 69.5338C3.61347 69.3696 4.09469 69.7448 4.60747 70.1199C5.11235 70.5107 5.65668 70.9093 5.7829 70.9874C5.91701 71.0734 6.52446 71.4563 7.11612 71.7846C7.70778 72.1285 8.28367 72.4255 8.21267 72.6287H8.20478Z" fill="#B9927A"/>
<path d="M67.8444 39.9367C67.7103 40.1086 66.1404 38.9754 64.2707 38.1704C63.3399 37.7562 62.3538 37.4045 61.5412 37.1622C60.7208 36.9278 60.0818 36.7949 59.8451 36.748C59.6163 36.7089 59.001 36.5917 58.2042 36.4979C57.4074 36.4119 56.4213 36.3572 55.4668 36.3729C54.5044 36.3729 53.605 36.4588 52.9976 36.6933C52.3823 36.9121 52.0904 37.2482 52.0194 37.1935C51.9247 37.1388 52.1377 36.6542 52.8083 36.2791C53.4709 35.9039 54.4728 35.7554 55.4431 35.7086C56.4292 35.6538 57.4548 35.7007 58.2831 35.7867C59.1114 35.8805 59.7425 36.0134 59.9871 36.0524C60.2238 36.0993 60.8943 36.2322 61.7463 36.4745C62.5904 36.7246 63.616 37.0997 64.5626 37.5686C66.4796 38.4752 67.9864 39.7804 67.8523 39.9367H67.8444Z" fill="#B9927A"/>
<path d="M78.7232 46.744C78.8415 46.5877 80.4824 47.7522 81.9103 49.3309C83.3618 50.8862 84.5215 52.8166 84.7582 53.2621C84.8765 53.4809 85.2078 54.0515 85.4918 54.8643C85.7679 55.6771 85.9573 56.7868 85.5944 57.8263C85.2473 58.8423 84.4347 59.6004 83.7011 59.8583C82.9516 60.124 82.4388 59.9208 82.4704 59.8583C82.4862 59.7254 82.9516 59.7567 83.5196 59.4441C84.0797 59.1471 84.7108 58.475 84.9633 57.6231C85.2236 56.7947 85.0658 55.8177 84.8134 55.0909C84.5609 54.3563 84.2533 53.8092 84.1428 53.5982C83.9298 53.1839 82.7702 51.3239 81.4133 49.7686C80.088 48.1899 78.597 46.9082 78.7311 46.7362L78.7232 46.744Z" fill="#B9927A"/>
<path d="M83.6064 55.0048C83.772 54.8954 84.3085 55.6222 84.4347 56.5523C84.5925 57.4745 84.3164 58.4358 84.2533 58.6312C84.2059 58.8344 83.8983 59.7175 83.2987 60.3506C82.7307 61.0149 81.9497 61.3197 81.8787 61.1712C81.7683 60.9523 82.3599 60.5459 82.7859 59.9363C83.2514 59.3502 83.5275 58.6077 83.5748 58.428C83.63 58.256 83.843 57.4276 83.772 56.6304C83.7405 55.8333 83.4249 55.122 83.6064 55.0048Z" fill="#B9927A"/>
<path d="M70.9202 69.1819C70.9596 68.9787 72.2297 69.135 73.5551 68.9552C74.8883 68.8146 76.2294 68.33 76.5055 68.2128C76.7895 68.1033 78.0123 67.5641 79.0063 66.7982C80.0318 66.0713 80.797 65.1648 80.939 65.2742C81.1283 65.3992 80.4657 66.4777 79.4165 67.314C78.3988 68.1893 77.0814 68.7442 76.7737 68.8614C76.4818 68.9943 75.0461 69.5414 73.6182 69.6195C72.1824 69.7368 70.8729 69.3929 70.9202 69.1897V69.1819Z" fill="#B9927A"/>
<path d="M72.877 68.0957C72.877 67.8925 73.5002 67.8222 74.1314 67.6815C74.7625 67.5486 75.4172 67.3298 75.5513 67.2751C75.6933 67.2204 76.285 66.9703 76.8057 66.6655C77.3421 66.3763 77.8154 66.0402 77.9338 66.1653C78.0994 66.3294 77.7129 66.8296 77.1686 67.2126C76.6321 67.6111 75.9616 67.8612 75.8117 67.9159C75.6618 67.9785 74.9518 68.252 74.2418 68.3223C73.5318 68.4083 72.8691 68.2989 72.877 68.0801V68.0957Z" fill="#B9927A"/>
<path d="M73.4289 67.2516C73.2869 66.8686 74.3598 66.5794 74.486 66.5326C74.6123 66.4857 75.5747 66.1183 75.693 66.4466C75.8587 66.8921 74.8568 67.15 74.7306 67.1891C74.6044 67.2359 73.5788 67.6502 73.4368 67.2516H73.4289Z" fill="#B9927A"/>
<path d="M48.9581 64.782C48.5558 64.8602 48.4059 63.6879 48.3743 63.5472C48.3428 63.4065 48.1061 62.3358 48.4453 62.2655C48.9107 62.1717 49.037 63.2658 49.0685 63.4065C49.1001 63.5472 49.3841 64.6961 48.9581 64.782Z" fill="#B9927A"/>
<path d="M47.8296 64.5239C47.6876 64.6646 47.4982 64.5942 47.3799 64.4379C47.2616 64.2816 47.23 64.0784 47.2221 64.0393C47.2142 64.0003 47.1748 63.8049 47.2221 63.6329C47.2695 63.4532 47.3957 63.3281 47.5613 63.3828C47.9873 63.5391 47.8769 63.8283 47.9084 63.8908C47.9006 63.9612 48.0978 64.2347 47.8217 64.5239H47.8296Z" fill="#B9927A"/>
<path d="M34.8137 31.1601C34.5928 31.3086 34.0327 30.738 33.1491 30.0112C32.2813 29.3 30.9639 28.4716 29.5755 28.5106C28.8813 28.5106 28.187 28.7138 27.69 29.0577C27.1773 29.3938 26.8775 29.8862 26.7434 30.3785C26.483 31.4023 26.8696 32.3246 26.9958 32.5981C27.1378 32.9029 27.5007 33.6532 28.4553 34.3566C29.3782 35.0756 30.7982 35.6696 32.2813 36.1463C33.7644 36.623 35.287 37.131 36.3204 37.7485C37.3696 38.3502 37.8745 38.9911 37.7483 39.1474C37.559 39.3897 36.8805 39.0927 35.8392 38.7801C34.7979 38.444 33.3621 38.1236 31.8001 37.7172C30.246 37.3108 28.5736 36.6856 27.3745 35.7633C26.7828 35.3179 26.2937 34.8099 25.9703 34.3488C25.6468 33.8955 25.4733 33.5203 25.3786 33.3093C25.2839 33.0983 25.1104 32.7075 24.9842 32.1292C24.8579 31.5587 24.7869 30.7849 25.0078 29.9252C25.2208 29.0655 25.8204 28.1511 26.696 27.5962C27.5638 27.0335 28.6051 26.7991 29.5912 26.8382C30.5852 26.8694 31.5398 27.2211 32.2656 27.6744C33.0071 28.1277 33.5593 28.6826 33.9617 29.1828C34.7663 30.1988 35.0188 31.0038 34.8058 31.1444L34.8137 31.1601Z" fill="#B9927A"/>
<path d="M37.9608 39.4599C37.8582 39.5068 37.5979 39.2645 37.4164 38.6862C37.2271 38.1156 37.235 37.2091 37.5269 36.2478C37.8188 35.2865 38.3631 34.2783 38.9627 33.2701C39.578 32.2619 40.1302 31.2381 40.5878 30.097C41.5029 27.854 41.9683 25.2984 41.8973 23.3445C41.8579 22.3676 41.6685 21.5313 41.424 20.9374C41.1873 20.3356 40.9112 19.9683 40.7613 19.7963C40.4931 19.4368 39.5149 18.4755 37.8188 18.7334C37.0062 18.8585 36.0911 19.2571 35.4127 19.9526C34.7106 20.656 34.1978 21.6251 33.9217 22.6724C33.3537 24.7826 33.7166 27.0334 34.2294 28.5652C34.7421 30.1205 35.3496 31.0583 35.1602 31.199C34.9472 31.3709 33.9927 30.6207 33.1644 28.9951C32.3439 27.3929 31.7286 24.8763 32.3045 22.2894C32.5885 21.0155 33.1959 19.726 34.1426 18.7491C35.105 17.7409 36.3593 17.1703 37.5427 16.9906C38.7339 16.803 39.8778 17.0531 40.6666 17.483C41.4555 17.905 41.9052 18.413 42.1261 18.6787C42.3627 18.9444 42.7651 19.4915 43.0885 20.2965C43.412 21.0937 43.6407 22.1253 43.6881 23.282C43.7591 25.5954 43.2226 28.2995 42.134 30.7535C41.6054 31.9649 40.8954 33.1216 40.217 34.0751C39.5543 35.0364 38.9784 35.8961 38.6155 36.6698C38.2527 37.4435 38.1028 38.1156 38.087 38.6158C38.0633 39.1082 38.0949 39.4286 37.9608 39.4833V39.4599Z" fill="#B9927A"/>
<path d="M54.0074 24.6732C53.7392 24.6263 53.8496 23.4853 53.7786 21.8284C53.7234 20.1872 53.3053 17.9598 51.8458 16.3733C51.1437 15.5917 50.2129 15.0134 49.282 14.8336C48.3432 14.6461 47.365 14.8258 46.655 15.201C45.1719 15.959 45.0457 17.358 45.022 17.7878C44.9826 18.2333 45.0378 19.5307 45.874 21.1016C46.2763 21.8988 46.8364 22.7663 47.4044 23.7432C47.9803 24.7123 48.5089 25.8377 48.856 26.9631C49.5896 29.2296 49.6606 31.5586 49.4082 33.2155C49.1557 34.888 48.6587 35.8805 48.4694 35.818C48.1696 35.7398 48.288 34.6848 48.2643 33.1295C48.2485 31.5742 48.0276 29.4875 47.2861 27.4868C46.9311 26.4786 46.4578 25.5329 45.8977 24.6263C45.3454 23.7119 44.7459 22.8132 44.2883 21.9066C43.8229 21.0156 43.5073 20.1012 43.3732 19.3587C43.2312 18.6085 43.2312 18.0145 43.2549 17.6941C43.2786 17.3736 43.3101 16.7328 43.6572 15.9278C43.9886 15.1306 44.7301 14.1849 45.8188 13.6379C46.8917 13.0752 48.2643 12.8329 49.637 13.1299C51.0254 13.419 52.2403 14.2553 53.1081 15.2947C53.9837 16.3264 54.5202 17.5534 54.7805 18.7179C55.0408 19.8824 55.0329 20.9687 54.9462 21.8675C54.741 23.665 54.2598 24.7357 54.0074 24.681V24.6732Z" fill="#B9927A"/>
<path d="M53.9278 25.7908C53.8095 25.7908 53.6675 25.5329 53.6596 25.0327C53.6517 24.5326 53.8332 23.8057 54.2828 23.0789C54.7246 22.3442 55.4109 21.633 56.2314 20.9922C57.0518 20.367 57.9511 19.7339 59.1187 19.3197C60.2705 18.9055 61.722 18.8586 62.9211 19.5151C63.5207 19.8355 64.0413 20.3513 64.3411 20.9375C64.6488 21.5236 64.7592 22.141 64.7592 22.6881C64.7592 23.8057 64.3727 24.7123 63.9388 25.3454C63.5128 25.9628 63.1104 26.3223 62.9053 26.5099C62.503 26.9084 61.2881 27.7603 59.7182 28.4403C58.1563 29.1593 56.2393 29.8861 54.5116 30.7458C52.784 31.5977 51.2851 32.6684 50.3384 33.6375C49.376 34.591 48.9105 35.3803 48.6975 35.2866C48.4372 35.185 48.5871 34.169 49.4549 32.9107C50.3069 31.6446 51.9083 30.2925 53.7227 29.3C55.5293 28.2918 57.462 27.5337 58.953 26.8381C60.4677 26.1738 61.4143 25.5017 61.7141 25.2125C62.0139 24.9311 62.9606 24.1027 62.9606 22.7038C62.9606 22.0316 62.6923 21.3986 62.0612 21.0469C61.4143 20.6796 60.5071 20.6249 59.6315 20.8984C58.7558 21.1563 57.8723 21.6878 57.0913 22.1879C56.3182 22.6959 55.6713 23.2352 55.2137 23.7588C54.2671 24.7983 54.1961 25.7908 53.9121 25.8065L53.9278 25.7908Z" fill="#B9927A"/>
<path d="M55.6475 49.3309C55.5686 49.2293 55.6633 49.0261 55.8526 48.7525C56.0341 48.479 56.3339 48.1117 56.4285 47.7287C56.4759 47.5411 56.4759 47.3145 56.4206 47.166C56.3654 47.0097 56.2786 46.955 56.1524 46.9159C56.0262 46.869 55.7659 46.869 55.4661 46.9394C55.1663 47.0019 54.8508 47.1347 54.48 47.2989C51.5927 48.479 49.1313 50.8783 48.6186 51.3863C48.3503 51.6364 47.6719 52.3476 46.8278 53.3011C45.9837 54.2468 44.9739 55.4738 44.0036 56.6305C43.5776 57.1385 43.2305 57.7559 43.191 58.1623C43.1516 58.5296 43.3015 58.7406 43.7748 58.9282C44.2245 59.0923 44.7451 59.233 45.0607 59.4596C45.3841 59.6863 45.4709 59.9208 45.3999 59.9911C45.2974 60.1005 45.0923 60.0771 44.8083 60.0692C44.5164 60.0536 44.1219 60.1005 43.4829 60.0224C43.1674 59.9755 42.7493 59.866 42.3627 59.5378C41.9919 59.2252 41.7237 58.6468 41.7316 58.1388C41.7316 57.1072 42.1971 56.3335 42.6941 55.6301C43.6249 54.3718 44.6189 53.1292 45.4946 52.1366C46.3702 51.144 47.1039 50.4094 47.3879 50.1437C47.664 49.8701 48.4371 49.0886 49.5731 48.1976C50.7012 47.3145 52.2317 46.3376 53.8804 45.7514C54.6614 45.4701 55.6791 45.0871 56.7993 45.5795C57.3436 45.8374 57.7144 46.4079 57.7617 46.9081C57.8327 47.4083 57.7065 47.8303 57.5251 48.1664C57.1385 48.8463 56.6415 49.1042 56.3181 49.2684C55.9789 49.4168 55.758 49.4403 55.6712 49.3309H55.6475Z" fill="#B9927A"/>
<path d="M56.1763 49.284C56.0344 49.0652 56.8311 48.5025 56.9337 47.3145C56.981 46.7518 56.7838 46.1266 56.271 45.6499C55.7661 45.1653 55.064 44.9777 54.3225 45.1653C52.7999 45.5717 51.3642 47.252 50.1019 48.3618C48.8555 49.5107 47.8931 50.4016 47.5538 50.7221C47.2067 51.0425 46.2995 51.8866 45.132 52.9729C43.996 54.0905 42.3078 55.2784 41.866 56.6852C41.6293 57.4121 41.7082 58.092 42.0948 58.5844C42.4655 59.0846 43.1361 59.3737 43.7278 59.5535C44.9426 59.9052 45.8735 59.9833 45.8656 60.2178C45.8656 60.4913 44.9821 60.7961 43.499 60.6711C42.7732 60.5851 41.795 60.3741 40.9903 59.5378C40.6038 59.1314 40.304 58.5766 40.1936 57.9826C40.0752 57.3964 40.1226 56.7946 40.2724 56.2319C40.5722 55.0909 41.3059 54.1921 41.9843 53.4965C42.6785 52.801 43.3175 52.2304 43.9092 51.6755C45.0846 50.5892 45.9997 49.753 46.339 49.4325C46.6782 49.1121 47.6327 48.2211 48.8792 47.0645C49.5103 46.4861 50.1651 45.8531 50.9697 45.1731C51.7665 44.5166 52.721 43.8132 53.9675 43.5475C54.5907 43.4225 55.2455 43.4459 55.8608 43.6413C56.4761 43.8367 56.981 44.2118 57.3676 44.6339C58.1486 45.4936 58.3458 46.6815 58.0933 47.5177C57.8646 48.3618 57.3518 48.8933 56.9495 49.1434C56.5392 49.3934 56.2474 49.3934 56.1921 49.2762L56.1763 49.284Z" fill="#B9927A"/>
<path d="M52.7052 44.8137C53.0129 45.2122 51.8611 46.3533 50.5989 47.4865C49.3288 48.6198 47.9403 49.7686 47.6484 50.0265C47.3487 50.2844 46.1022 51.4177 44.8795 52.4493C43.6567 53.4731 42.4576 54.3954 42.142 54.0906C41.716 53.6763 42.6154 52.4337 43.7277 51.2536C44.84 50.0734 46.1653 48.9715 46.4651 48.7057C46.7649 48.44 48.1218 47.2052 49.5339 46.197C50.9381 45.181 52.3817 44.376 52.7052 44.798V44.8137Z" fill="#B9927A"/>
<path d="M59.0476 60.3898C58.4086 61.1791 57.888 60.5148 57.8091 60.4523C57.7302 60.3898 57.0912 59.9599 57.6355 59.28C58.3771 58.3578 58.8346 59.0142 58.9135 59.0768C58.9924 59.1393 59.7182 59.5535 59.0476 60.3898Z" fill="#B9927A"/>
<path d="M66.6137 60.5537C65.7538 59.9988 66.4322 59.3423 66.4954 59.2407C66.5585 59.1469 66.9845 58.3967 67.7181 58.8656C68.72 59.5065 68.0416 60.1004 67.9863 60.1942C67.9232 60.288 67.5209 61.1321 66.6216 60.5459L66.6137 60.5537Z" fill="#B9927A"/>
<path d="M72.901 65.3994C73.2796 66.3372 72.5617 66.4076 72.4828 66.4388C72.404 66.4701 71.8202 66.7593 71.4967 65.9543C71.055 64.8523 71.7413 64.8367 71.8202 64.8054C71.8991 64.7741 72.4986 64.399 72.901 65.3916V65.3994Z" fill="#B9927A"/>
<path d="M39.0023 25.2204C38.8051 25.1579 38.9708 24.5014 39.0655 23.8449C39.1838 23.1884 39.0497 22.5476 38.9787 22.4381C38.955 22.3287 38.6316 21.8051 38.103 21.6097C37.8506 21.5003 37.5981 21.4925 37.4088 21.5159C37.2195 21.5472 37.0775 21.6097 37.0144 21.5394C36.9355 21.469 36.9828 21.2658 37.2352 21.0939C37.4877 20.9219 37.9295 20.8594 38.3081 20.9845C39.1207 21.1799 39.594 21.9848 39.6413 22.1724C39.6808 22.2662 39.7755 22.5163 39.8149 22.8524C39.8543 23.1884 39.8228 23.5948 39.7281 23.9621C39.5388 24.6968 39.1996 25.2829 39.0023 25.2204Z" fill="#B9927A"/>
<path d="M48.1934 19.9371C48.0277 20.0466 47.7121 19.7496 47.4676 19.3275C47.2073 18.9133 47.1284 18.3428 47.1441 18.2177C47.1284 18.0927 47.152 17.5144 47.507 17.108C47.6727 16.9048 47.9094 16.7641 48.0987 16.7328C48.2959 16.7016 48.4142 16.7563 48.43 16.8344C48.4379 17.0689 48.1855 17.2096 48.0514 17.4909C47.8857 17.7645 47.8462 18.1161 47.8541 18.1865C47.8541 18.2646 47.9094 18.6476 48.075 19.0306C48.2249 19.4135 48.3906 19.8199 48.2012 19.9371H48.1934Z" fill="#B9927A"/>
<path d="M36.8334 67.9784C36.8965 68.0722 36.2023 68.5567 35.4449 69.604C35.0584 70.1198 34.6482 70.7685 34.1512 71.4562C33.6621 72.144 33.031 72.863 32.2736 73.4335C30.7669 74.6058 28.8893 75.2545 27.3668 75.5984C25.8363 75.9423 24.6451 76.0282 24.2191 76.0751C23.7931 76.122 22.665 76.2158 21.2292 76.3174C19.7935 76.4347 18.0343 76.5753 16.4171 76.9895C14.792 77.3803 13.3956 78.2556 12.7014 79.2169C11.9835 80.1548 11.9125 80.9754 11.81 80.952C11.7074 80.9676 11.6206 80.061 12.3227 78.9512C12.6699 78.4041 13.1984 77.8414 13.8847 77.3881C14.5632 76.9348 15.3836 76.591 16.2356 76.3487C17.9396 75.8719 19.7225 75.7234 21.174 75.6062C22.6177 75.4968 23.73 75.4187 24.1481 75.3718C24.5662 75.3249 25.7417 75.2311 27.209 74.9028C28.6684 74.5746 30.4513 73.965 31.8634 72.9021C33.3071 71.8783 34.1827 70.3074 35.0821 69.3148C35.9577 68.2832 36.7939 67.8846 36.8334 67.9706V67.9784Z" fill="#B9927A"/>
<path d="M38.3715 67.3299C38.4583 67.3846 38.0481 68.1739 37.3223 69.3306C36.5965 70.4795 35.5473 72.0113 34.1746 73.3712C32.8256 74.7389 31.0743 75.833 29.5123 76.3254C27.9582 76.8334 26.7197 76.9584 26.2858 77.0288C25.844 77.0913 24.6765 77.2163 23.1934 77.3179C21.7024 77.4274 19.9037 77.5602 18.2234 78.0057C16.5431 78.4277 15.0205 79.1858 14.0897 79.9908C13.1272 80.7724 12.7328 81.507 12.6381 81.4445C12.5513 81.4054 12.8274 80.5692 13.782 79.6547C14.705 78.7169 16.3064 77.8494 18.0499 77.3727C19.7933 76.8725 21.6551 76.7318 23.1382 76.6146C24.6291 76.5051 25.7651 76.3957 26.1911 76.3332C26.6171 76.2707 27.8241 76.1378 29.2836 75.6533C30.7509 75.1922 32.3839 74.1918 33.7092 72.8944C35.0503 71.6205 36.1311 70.1512 36.9357 69.0727C37.7404 67.9863 38.2768 67.2751 38.3715 67.3299Z" fill="#B9927A"/>
<path d="M51.1431 68.119C50.938 68.1112 50.8985 67.1186 50.6855 66.1026C50.4962 65.0788 50.1175 64.0472 50.0229 63.8283C49.9361 63.6017 49.518 62.6639 48.9816 61.8432C48.4688 61.0148 47.8613 60.3192 47.9876 60.1864C48.1453 60.0144 48.9263 60.624 49.5338 61.4681C50.1649 62.2965 50.5909 63.3203 50.6855 63.5548C50.7881 63.7893 51.222 64.8834 51.3561 65.9854C51.506 67.0874 51.3561 68.119 51.151 68.1034L51.1431 68.119Z" fill="#B9927A"/>
<path d="M51.38 65.0867C51.1749 65.1258 50.9777 64.5162 50.7016 63.9066C50.4334 63.2892 50.0863 62.6796 49.9995 62.5467C49.9206 62.4138 49.5498 61.8589 49.1396 61.3822C48.7452 60.8898 48.3192 60.4678 48.4217 60.3271C48.5637 60.1395 49.1396 60.4522 49.6287 60.9367C50.1257 61.4056 50.5123 62.0309 50.599 62.1716C50.6937 62.3122 51.1039 62.9687 51.3248 63.6643C51.5536 64.3599 51.593 65.0476 51.38 65.0867Z" fill="#B9927A"/>
<path d="M51.7819 64.2271C51.419 64.4069 50.5907 62.5781 50.4803 62.3514C50.3698 62.1326 49.5178 60.4679 49.8334 60.3116C50.2594 60.1006 51.0088 61.82 51.1192 62.0388C51.2297 62.2576 52.1685 64.0317 51.7819 64.2193V64.2271Z" fill="#B9927A"/>
<path d="M50.0786 61.7339C49.7394 61.9605 49.2897 61.1477 49.2266 61.0539C49.1635 60.9601 48.6586 60.2568 48.9505 60.0692C49.3449 59.8035 49.7473 60.5772 49.8104 60.671C49.8735 60.7648 50.4336 61.5072 50.0786 61.7417V61.7339Z" fill="#B9927A"/>
<path d="M48.7296 59.7644C49.1398 59.7644 49.0531 60.1474 49.0531 60.1942C49.0531 60.2411 49.0767 60.6007 48.7296 60.6007C48.2484 60.6007 48.351 60.2411 48.351 60.1942C48.351 60.1474 48.3036 59.7644 48.7296 59.7644Z" fill="#B9927A"/>
<path d="M81.7998 47.0332C81.6578 47.1817 80.0012 45.7202 78.1631 44.2822C76.3329 42.8285 74.2975 41.4217 73.8479 41.1248C73.3982 40.82 71.4576 39.546 69.5563 38.4675C67.663 37.3655 65.8249 36.4355 65.9038 36.2714C65.9985 36.0604 67.9313 36.8419 69.8798 37.8892C71.8441 38.9208 73.7927 40.2338 74.2423 40.5386C74.6999 40.8356 76.7746 42.2424 78.5812 43.7664C80.4035 45.2747 81.9497 46.8769 81.7998 47.0254V47.0332Z" fill="#B9927A"/>
<path d="M0.17315 62.2576C-0.23707 62.2263 0.196817 57.8888 0.236261 57.3573C0.275705 56.8259 0.58337 52.7775 0.930479 52.8088C1.40381 52.8479 0.985701 56.8806 0.946256 57.4199C0.906812 57.9513 0.607036 62.2967 0.17315 62.2654V62.2576Z" fill="#B9927A"/>
<path d="M18.6651 30.6754C18.6099 30.8708 17.0874 30.5504 15.4859 30.1596C14.6734 29.9486 13.8608 29.7454 13.1982 29.5735C13.0325 29.5266 12.8826 29.4953 12.6933 29.425C12.5197 29.3624 12.2988 29.2296 12.1884 29.0029C12.0937 28.8154 12.0937 28.534 12.2121 28.3699C12.3225 28.1979 12.433 28.1511 12.504 28.112C12.646 28.0416 12.8747 27.9713 13.1587 27.9791C13.3007 27.9791 13.4585 27.9947 13.6321 28.0416C13.7188 28.0651 13.8214 28.1042 13.9003 28.1432C13.9713 28.1745 14.0423 28.2136 14.1133 28.2448C14.6892 28.5262 15.3992 28.8701 16.1013 29.2139C17.4818 29.9017 18.7519 30.5895 18.673 30.7458C18.5705 30.9568 17.2215 30.4331 15.8173 29.8079C15.1152 29.4953 14.3894 29.1592 13.8056 28.8857C13.2928 28.5809 12.8905 28.7138 12.8353 28.7372C12.8037 28.7372 12.8353 28.7763 12.7643 28.7059C12.7485 28.6981 12.7327 28.6903 12.7485 28.6981C12.7485 28.6981 12.7485 28.6981 12.7801 28.6981C12.8432 28.6825 12.8432 28.6981 12.8432 28.6981C12.8037 28.6981 13.0325 28.8075 13.3954 28.8857C14.0502 29.0655 14.8627 29.2921 15.6674 29.5187C17.253 29.9799 18.7283 30.4644 18.673 30.6754H18.6651Z" fill="#B9927A"/>
<path d="M15.2338 29.4563C15.0523 29.8236 14.0504 29.2531 13.9242 29.1906C13.798 29.1281 12.8198 28.6826 12.9697 28.37C13.1748 27.9479 14.1057 28.495 14.2319 28.5575C14.3581 28.6201 15.4231 29.0734 15.2338 29.4563Z" fill="#B9927A"/>
<path d="M23.5952 18.4054C23.4216 18.5226 22.3724 17.0611 20.9209 15.8576C20.203 15.248 19.4141 14.6852 18.7356 14.2788C18.5621 14.1772 18.4043 14.0913 18.2544 14.0053L18.073 13.9037C17.9941 13.8646 17.9547 13.8099 17.8994 13.763C17.7969 13.6692 17.7969 13.5051 17.7969 13.3801C17.8048 13.1222 17.9862 12.8877 18.1203 12.7861C18.2465 12.6845 18.3491 12.6376 18.4359 12.6142C18.57 12.5438 18.9723 12.5047 19.2879 12.6845C19.6192 12.8486 19.8795 13.1612 20.1083 13.4504C20.5816 14.0366 21.1575 14.7478 21.7334 15.459C22.8536 16.8657 23.8634 18.2178 23.7293 18.3272C23.5478 18.4757 22.3961 17.2331 21.2206 15.8732C20.6369 15.1776 20.0452 14.4742 19.5561 13.8959C19.3194 13.5989 19.1222 13.3879 18.9644 13.3097C18.7909 13.2238 18.7435 13.255 18.6804 13.2707C18.6568 13.2707 18.6173 13.3019 18.5779 13.3254C18.5542 13.3488 18.57 13.3332 18.5621 13.341L18.6094 13.3723C18.7672 13.4582 18.9329 13.5598 19.1143 13.6614C19.8243 14.0835 20.6526 14.6852 21.3705 15.3496C22.8457 16.6782 23.7845 18.2882 23.6031 18.3976L23.5952 18.4054Z" fill="#B9927A"/>
<path d="M20.3528 14.4429C20.1556 14.7946 19.3115 14.2319 19.209 14.1772C19.0985 14.1147 18.2702 13.677 18.4437 13.38C18.6804 12.9658 19.4456 13.5051 19.5561 13.5676C19.6665 13.6301 20.5658 14.0756 20.3528 14.4507V14.4429Z" fill="#B9927A"/>
<path d="M36.3992 9.97252C36.2099 9.98033 35.9653 8.39381 35.3184 6.79946C35.0107 6.00229 34.6557 5.18949 34.356 4.52518C34.2534 4.2829 34.0325 4.09533 33.8905 4.02499C33.859 4.01718 33.8353 4.00155 33.8195 3.99373C33.8195 3.99373 33.7959 3.96247 33.8511 4.15004C33.9142 4.32198 34.0878 4.62678 34.2298 4.91595C34.5295 5.52555 34.9003 6.26802 35.2711 7.00266C35.9811 8.46414 36.6043 9.8631 36.4544 9.94907C36.2493 10.0663 35.4604 8.7455 34.6794 7.30746C34.2929 6.565 33.9063 5.83035 33.5829 5.22075C33.4251 4.90032 33.2831 4.67367 33.1805 4.3845C33.1332 4.23601 33.0938 4.07189 33.1174 3.90776C33.1411 3.73582 33.22 3.61078 33.2831 3.53262C33.3462 3.46228 33.4566 3.35287 33.6302 3.30598C33.8038 3.25127 34.0562 3.30598 34.1982 3.37631C34.5137 3.53262 34.8135 3.79835 35.0107 4.22038C35.3105 4.8925 35.6655 5.72094 35.9495 6.565C36.557 8.24531 36.628 9.94907 36.3992 9.95689V9.97252Z" fill="#B9927A"/>
<path d="M34.8765 6.41633C34.5136 6.59609 33.9377 5.2831 33.8588 5.12679C33.7799 4.97048 33.1646 3.79036 33.4722 3.63405C33.8982 3.42303 34.411 4.65787 34.4899 4.81418C34.5688 4.97048 35.2551 6.22876 34.8686 6.41633H34.8765Z" fill="#B9927A"/>
<path d="M50.9621 6.85412C50.7649 6.86975 50.5834 5.40827 50.4414 3.79048C50.3783 2.96987 50.3152 2.1258 50.26 1.40678C50.2442 1.02383 50.1969 0.742475 50.1337 0.711214C50.1337 0.711214 50.0785 0.687768 50.0785 0.695583C50.0785 0.703398 50.0549 0.617429 50.0391 0.609613C50.0233 0.601798 50.0233 0.593983 50.0391 0.609613L50.1495 0.453305C50.1574 0.515829 50.1653 0.570536 50.1732 0.609613C50.2284 1.00038 50.4887 2.6807 50.7649 4.25941C51.0331 5.83812 51.3092 7.32305 51.1356 7.36213C50.9069 7.41683 50.4572 5.96317 50.1101 4.38446C49.7551 2.80574 49.5263 1.10198 49.4711 0.711214C49.4711 0.672137 49.4553 0.617429 49.4474 0.554906L49.4316 0.468936L49.4711 0.367336C49.5342 0.187582 49.763 0.0156426 49.976 1.17762e-05C50.189 -0.0234344 50.4099 0.0156426 50.6229 0.203212C50.9857 0.586167 50.9305 1.03165 50.9621 1.35989C51.0015 2.07891 51.0489 2.91516 51.0883 3.74359C51.1514 5.3692 51.1593 6.83068 50.9542 6.84631L50.9621 6.85412Z" fill="#B9927A"/>
<path d="M62.8263 11.3949C62.7159 11.2542 63.5442 10.5039 64.4909 9.59733C64.9642 9.14403 65.4691 8.65948 65.9109 8.20618C66.1318 7.97954 66.3447 7.7607 66.5341 7.56532L66.6051 7.49498V7.48717H66.5972C66.5972 7.48717 66.5104 7.56532 66.471 7.6044C66.0844 8.04987 65.6111 8.58914 65.1299 9.13622C64.1753 10.2147 63.2444 11.1995 63.1103 11.0901C62.9289 10.9416 63.7257 9.8396 64.6171 8.71418C65.0825 8.14366 65.5085 7.59658 65.9661 7.09639C66.0371 7.02606 66.0844 6.98698 66.1712 6.91664C66.2816 6.83849 66.4 6.75252 66.5104 6.70562C66.7313 6.59621 66.9285 6.54932 67.0705 6.54932C67.3624 6.54932 67.536 6.67436 67.6306 6.75252C67.6701 6.79941 67.7253 6.85412 67.7963 6.93227C67.8357 6.97916 67.8831 7.03387 67.9383 7.09639C67.6937 7.36212 67.394 7.68255 67.0547 8.04987C66.8654 8.24526 66.6445 8.46409 66.4236 8.69855C65.9661 9.15185 65.4375 9.6364 64.9248 10.0662C63.9071 10.9259 62.9525 11.5434 62.8342 11.3949H62.8263Z" fill="#B9927A"/>
<path d="M65.2409 8.20625C64.949 7.91708 65.659 7.33874 65.7379 7.26059C65.8168 7.18243 66.4006 6.57283 66.653 6.81511C66.9922 7.15117 66.3217 7.67481 66.2428 7.75296C66.1639 7.83111 65.5565 8.50324 65.2488 8.20625H65.2409Z" fill="#B9927A"/>
<path d="M71.0866 20.0075C71.0393 19.8121 72.6486 19.3589 74.3605 18.9368C75.2283 18.7336 76.1039 18.5226 76.8139 18.3585C76.9796 18.3194 77.0269 18.2725 77.0269 18.2725C77.0269 18.2725 77.0348 18.2413 77.0111 18.1865C76.948 18.0771 76.8691 18.0381 76.8297 18.0302C76.7745 18.0146 76.664 17.999 76.4668 18.0459C76.2775 18.0849 75.9935 18.21 75.67 18.335C75.031 18.5929 74.2579 18.929 73.5243 19.2807C72.0491 19.9763 70.7237 20.7578 70.6212 20.6171C70.4871 20.4218 71.7414 19.4761 73.2166 18.6945C73.9503 18.3038 74.7392 17.9443 75.3939 17.6864C75.7174 17.5613 76.0014 17.4363 76.3011 17.3659C76.593 17.2956 76.8613 17.319 77.0033 17.3659C77.1531 17.3972 77.4687 17.5379 77.6501 17.8974C77.7369 18.0693 77.8079 18.3585 77.6501 18.6398C77.4845 18.9212 77.1847 19.015 76.9954 19.0619C76.2775 19.2182 75.3939 19.4057 74.5183 19.6011C72.7827 19.9528 71.1418 20.2342 71.0945 20.031L71.0866 20.0075Z" fill="#B9927A"/>
<path d="M74.0679 18.9444C73.918 18.8116 74.1073 18.4833 74.4229 18.2332C74.7305 17.9753 75.1329 17.8268 75.2118 17.7956C75.2906 17.7565 75.6693 17.6158 76.0401 17.5924C76.4109 17.5611 76.758 17.6549 76.7501 17.8268C76.7422 18.0613 76.4503 18.1473 76.1584 18.2411C75.8586 18.327 75.551 18.413 75.48 18.4443C75.409 18.4755 75.0934 18.6162 74.8094 18.7803C74.5175 18.9288 74.2335 19.1008 74.0679 18.9523V18.9444Z" fill="#B9927A"/>
<path d="M75.9141 18.0615C75.851 17.6629 76.2455 17.6863 76.2928 17.6785C76.3401 17.6785 76.6951 17.5925 76.7425 17.9364C76.8135 18.4053 76.4427 18.3663 76.3954 18.3741C76.348 18.3741 75.9694 18.4913 75.9062 18.0693L75.9141 18.0615Z" fill="#B9927A"/>
<path d="M75.0783 18.1865C75.0152 17.7879 75.9224 17.7332 76.0329 17.7176C76.1433 17.7019 76.9717 17.5534 77.0269 17.8973C77.0979 18.3662 76.2538 18.3975 76.1433 18.4131C76.0329 18.4288 75.1493 18.6163 75.0862 18.1943L75.0783 18.1865Z" fill="#B9927A"/>
<path d="M69.7691 30.4489C69.7375 30.2457 71.2127 29.9409 72.7905 29.6751C73.5951 29.5501 74.3919 29.4172 75.0546 29.3156C75.307 29.2844 75.5279 29.1593 75.6541 29.0577C75.7961 28.9327 75.7646 28.9249 75.7646 28.9327C75.7646 28.9327 75.7803 28.9327 75.733 28.917C75.662 28.8858 75.4332 28.9327 75.1256 29.0265C74.526 29.1984 73.7924 29.4172 73.0903 29.6439C71.6782 30.0972 70.3686 30.5817 70.2976 30.4254C70.2029 30.2066 71.4494 29.5501 72.8694 29.0265C73.5715 28.7607 74.313 28.5263 74.9284 28.3465C75.2124 28.2684 75.5437 28.1355 75.9223 28.2293C76.3247 28.3309 76.4982 28.7216 76.4903 28.8858C76.5219 29.0733 76.3562 29.425 76.1275 29.597C75.8987 29.7924 75.5831 29.9643 75.1729 30.0268C74.5181 30.1206 73.7135 30.23 72.9009 30.3394C71.3153 30.5426 69.8085 30.6755 69.7769 30.4645L69.7691 30.4489Z" fill="#B9927A"/>
<path d="M72.5775 29.6596C72.4591 29.4955 72.7116 29.2219 73.0508 29.0265C73.39 28.8233 73.7923 28.7217 73.8791 28.6983C73.9659 28.6748 74.3367 28.5654 74.7074 28.5654C75.0703 28.5576 75.4095 28.6436 75.4017 28.8155C75.4017 29.05 75.094 29.136 74.7863 29.2141C74.3682 29.3079 74.1473 29.3548 74.0763 29.3704C74.0132 29.3939 73.7844 29.472 73.3427 29.6205C73.0192 29.7299 72.6958 29.8315 72.5775 29.6596Z" fill="#B9927A"/>
<path d="M75.4011 28.8779C75.3774 29.0811 75.0855 29.128 74.8016 29.1749C74.5097 29.214 74.202 29.2609 74.1389 29.2765C74.0837 29.2921 73.9022 29.339 73.5236 29.4406C73.2553 29.511 72.9871 29.5813 72.8925 29.4406C72.7662 29.2453 72.9713 29.003 73.2632 28.8389C73.5472 28.6747 73.8943 28.6122 73.9732 28.5966C74.0521 28.5731 74.415 28.4872 74.7621 28.5106C75.1171 28.534 75.4248 28.6669 75.4011 28.8779Z" fill="#B9927A"/>
<path d="M74.8179 29.6751C74.4551 29.4954 74.7864 29.0186 74.8179 28.9561C74.8495 28.8936 75.0704 28.409 75.3859 28.5653C75.8119 28.7763 75.4885 29.214 75.4569 29.2765C75.4254 29.339 75.2124 29.8705 74.8258 29.6829L74.8179 29.6751Z" fill="#B9927A"/>
<path d="M73.7137 29.6594C73.6663 29.464 73.8478 29.3311 74.0371 29.2139C74.3132 29.0498 74.4394 28.9794 74.4789 28.956C74.5893 28.9247 75.1179 28.3777 75.3861 28.5574C75.5754 28.6981 75.5044 28.9482 75.3388 29.1514C75.1731 29.3624 74.9364 29.5031 74.8812 29.5343C74.826 29.5734 74.5893 29.7454 74.3132 29.8157C74.045 29.8938 73.7689 29.8626 73.7137 29.6594Z" fill="#B9927A"/>
</g>
<defs>
<clipPath id="clip0_306_10821">
<rect width="88" height="84" fill="white"/>
</clipPath>
</defs>
</svg>
