<svg width="98" height="89" viewBox="0 0 98 89" fill="none" xmlns="http://www.w3.org/2000/svg">
<g clip-path="url(#clip0_306_11343)">
<path fill-rule="evenodd" clip-rule="evenodd" d="M97.4674 52.2323C97.8053 52.2998 98.0503 52.0466 97.9912 51.7258C97.5181 49.1766 95.6509 46.3742 93.0066 45.4035C93.3867 45.0574 93.7162 44.686 93.9697 44.3653C95.0595 43.0062 95.803 41.4278 95.7185 39.6889C95.7101 39.4441 95.4482 39.1993 95.1778 39.2922C94.6625 39.4779 94.1725 39.7649 93.7247 40.111C95.1525 37.4943 95.9128 34.2867 94.9075 31.5771C94.8483 31.4252 94.7132 31.2986 94.5357 31.307C93.0488 31.3576 91.9758 34.2698 91.545 35.3502C91.4267 35.6372 91.3338 35.9327 91.2493 36.2365C91.0972 36.1099 90.9282 35.9918 90.7508 35.8736C91.1986 34.675 90.7508 33.6536 89.9567 32.8601C90.058 32.8601 90.1679 32.8179 90.1932 32.6998C90.6241 30.657 89.7961 28.6227 87.7178 27.804C85.6057 26.9768 78.7624 26.2593 80.9083 22.8744C80.9506 22.8153 80.959 22.7562 80.9675 22.7056C82.0235 22.9251 83.088 23.1277 84.1188 23.4653C86.1548 24.1237 86.7631 25.2379 87.1518 27.1456C87.2109 27.4326 87.6502 27.4072 87.7263 27.1456C87.9966 26.2255 87.9375 25.4911 87.6502 24.9003C89.2301 25.6684 91.0127 26.0736 92.5166 26.006C92.7616 25.9976 93.0235 25.7612 92.9136 25.508C92.0181 23.3724 90.1848 20.3759 87.8276 19.3376C89.4835 18.5611 90.9958 17.565 92.0941 16.0878C92.1871 15.9612 92.1617 15.7333 92.035 15.632C90.7086 14.636 89.1287 14.9567 87.7178 15.8346C87.8276 14.7795 87.6925 13.6822 87.4221 12.8971C86.9321 11.4875 85.9014 10.7109 84.6848 10.5505C85.6817 7.90849 84.0258 4.67558 83.2232 1.96602C83.1218 1.61994 82.6487 1.66214 82.5304 1.96602C81.3899 4.8022 80.5788 8.04355 82.5896 10.7194C82.6234 10.7616 82.6572 10.7953 82.6994 10.8122C82.5389 10.8713 82.3699 10.9219 82.2094 11.0063C81.8208 11.1921 82.1587 11.7238 82.5473 11.555C82.8092 11.4368 83.0627 11.3609 83.3077 11.3018C83.1134 11.6479 82.9022 12.0024 82.6572 12.3654C82.6572 12.3654 82.6572 12.3654 82.6572 12.3738C82.6149 12.3822 82.5811 12.3907 82.5389 12.3991C82.3446 12.4666 82.277 12.6355 82.2939 12.7874C82.1841 12.6861 82.0573 12.5933 81.9306 12.5089C82.1672 11.9855 82.0404 11.2511 81.8715 10.7278C81.7616 10.3817 81.5504 10.0947 81.297 9.84149C80.2916 7.9085 76.8446 6.9209 74.9353 7.84097C75.5266 5.38463 75.552 2.55689 74.8677 0.260933C74.8001 0.0330251 74.4283 -0.110472 74.2509 0.108994C72.3585 2.43027 72.5612 5.54501 73.9468 8.06043C73.9806 8.12796 74.0313 8.16173 74.082 8.19549C74.082 8.31366 74.0735 8.43184 74.0651 8.55845C73.9468 8.72727 73.8369 8.90454 73.7694 9.11556C73.7525 9.11556 73.7271 9.10712 73.7102 9.09868C73.6511 5.80668 70.2548 4.05095 67.2725 2.89453C67.0021 2.79324 66.7402 3.04647 66.7318 3.29126C66.6304 6.40599 69.7986 8.7948 72.8231 9.64734C72.8569 9.90058 72.8823 10.1538 72.9245 10.4155C72.9752 10.7362 73.5075 10.7109 73.575 10.4155C73.6088 10.2635 73.6257 10.1285 73.6426 9.98499C73.6426 10.1032 73.6257 10.2045 73.6426 10.3311C73.6849 10.77 74.403 10.7869 74.3692 10.3311C74.3523 10.1707 74.3692 10.0272 74.3946 9.89213C74.6058 9.79084 74.6818 9.52073 74.5213 9.36879C74.9606 8.31366 76.3293 8.0942 77.6219 8.37275C78.3991 8.54157 78.9736 8.85389 79.4552 9.25906C79.0243 9.3097 78.6019 9.43632 78.2386 9.60514C77.4445 9.9681 76.6672 10.694 76.5658 11.5719C76.4391 12.6355 77.436 13.2517 78.3653 13.5387C78.3484 13.8932 78.3907 14.2561 78.4414 14.5685C78.5259 15.058 79.2947 14.847 79.2186 14.3659C79.0497 13.3614 79.3454 12.4244 80.5788 12.7621C80.6887 12.7958 80.883 12.8718 81.0858 12.9647C80.5873 13.3698 79.0666 14.8386 80.4775 15.2015C80.6887 15.2522 80.9252 15.2522 81.1702 15.21C81.1702 15.5645 81.1533 15.9106 81.2294 16.2651C81.3392 16.7716 82.1503 16.5605 82.0404 16.0541C81.9644 15.6911 82.0489 15.2775 82.0151 14.9061C82.3108 14.7288 82.5558 14.5094 82.6994 14.2561C82.9444 13.8425 82.8515 13.4542 82.5896 13.1082C82.6403 13.1082 82.691 13.1082 82.7501 13.0913C84.1019 12.7199 84.9974 13.3192 84.9129 14.6782C84.8791 15.2353 84.6088 15.7586 84.2793 16.206C83.8738 16.7716 83.181 16.9657 82.7332 17.4468C82.6234 17.565 82.6487 17.7929 82.8346 17.8267C84.6003 18.1306 85.7662 15.6996 85.7662 14.3574C85.7662 12.9815 84.7862 12.2387 83.595 12.2387C83.916 11.9264 84.161 11.5972 84.3638 11.2596C85.5381 11.3946 86.4167 12.2641 86.7969 13.6484C87.0335 14.5009 86.9828 15.4294 86.7885 16.282C86.7631 16.4086 86.704 16.5183 86.6618 16.6365C85.7071 17.4553 84.9129 18.4682 84.4145 19.3798C84.1948 19.4811 83.9667 19.5993 83.7386 19.7512C83.7048 19.7766 83.6879 19.8019 83.6625 19.8272C82.9951 19.3545 82.1672 19.0928 81.2547 18.9493C81.2885 18.9156 81.3054 18.8818 81.3054 18.8227C81.4321 16.5268 79.8438 15.4041 77.605 15.1593C74.4706 14.8217 70.6603 16.3495 68.3539 13.7834C68.3792 13.7834 68.413 13.7834 68.4384 13.775C71.9614 13.2939 74.572 12.5426 77.681 14.6613C77.9007 14.8048 78.1372 14.5263 78.0274 14.3321C77.0305 12.6355 75.1634 12.2809 73.2794 12.3147C73.2878 12.2725 73.3047 12.2303 73.2794 12.1881C72.1979 9.36035 70.3055 9.11556 68.1427 9.64734C68.1427 9.64734 68.1427 9.63046 68.1342 9.62202C67.3485 8.69351 65.9799 8.38963 64.7126 8.4234C63.9438 7.84097 62.7948 7.6215 61.8823 7.41892C60.5559 7.12348 59.2211 7.18257 57.9284 7.57085C57.6834 7.64682 57.6412 7.87473 57.7172 8.04355C57.3793 8.14484 57.0414 8.27146 56.7119 8.43184C56.7372 8.36431 56.7288 8.28834 56.6612 8.22925C55.4868 7.2923 53.4085 7.37671 51.9554 7.78188C47.7565 7.89161 45.9907 13.7919 41.6229 14.0789C41.7411 13.9438 41.8594 13.8172 41.9693 13.6822C42.7803 12.6861 43.5576 11.6732 44.4447 10.7447C45.8133 9.30126 47.3847 8.81168 49.2012 8.10264C49.4377 8.00979 49.4039 7.69747 49.142 7.67215C47.6551 7.56241 46.4301 8.00135 45.3402 8.73571C45.4162 8.57534 45.3149 8.35587 45.0783 8.33055C43.076 8.07732 40.9554 9.56293 39.5276 10.7447C38.7588 11.3862 38.0661 12.1459 37.4831 12.9815C37.6014 11.8167 37.6098 10.6096 37.5676 9.34347C37.5591 9.03959 37.1874 8.89609 36.9593 9.09868C35.5653 10.3395 33.6559 12.8381 33.1575 15.1678C32.5999 13.1335 31.7635 11.0992 30.1245 9.81616C29.9133 9.64734 29.5753 9.68955 29.4908 9.97654C28.6967 12.7114 29.6598 15.4632 31.5185 17.5481C31.4847 17.5397 31.4593 17.5228 31.4255 17.5059C29.9555 17.0079 28.401 17.3033 27.1928 18.0462C28.5108 16.6787 28.967 14.4503 28.9924 12.7368C28.9924 12.5342 28.8065 12.34 28.5869 12.3485C25.7904 12.5004 24.9118 16.0034 25.4271 18.1728C25.4694 18.3669 25.6214 18.4344 25.7735 18.4344C25.6214 18.6877 25.9509 18.9493 26.2044 18.8227C26.2297 18.8058 26.2551 18.789 26.2804 18.7721C25.9425 19.1013 25.6552 19.4642 25.444 19.8525C25.4102 17.4975 24.7512 15.0327 24.6668 12.7368C24.6583 12.4244 24.2274 12.2134 23.9909 12.4666C21.845 14.7457 22.0477 18.2825 24.5231 20.2661C24.5485 20.4941 24.5823 20.7135 24.6161 20.9414C23.0869 18.9916 21.1775 17.3118 18.4402 17.4215C18.1699 17.43 17.9502 17.6748 18.0262 17.9364C18.06 18.0546 18.1192 18.1559 18.1614 18.2741C18.0009 18.426 17.9418 18.6792 18.1445 18.8396C18.2881 18.9493 18.4318 19.076 18.5838 19.2026C18.9471 19.8525 19.4202 20.435 19.9694 20.933C19.7244 20.8401 19.4794 20.7726 19.2259 20.7473C18.4402 20.6629 17.5024 20.9414 16.9279 21.5154C17.6968 17.8773 17.004 14.2561 15.4832 10.846C15.4326 10.7362 15.2636 10.6518 15.1453 10.6603C15.0608 10.6603 14.9763 10.6603 14.8919 10.6603C14.7229 10.6603 14.5624 10.77 14.5201 10.9304C13.726 13.9016 13.5148 16.8391 14.6553 19.5233C14.0555 18.9578 13.4134 18.4176 12.7966 17.9027C11.7152 16.991 10.5324 16.206 9.16378 15.7671C8.85119 15.6658 8.63997 15.9697 8.68222 16.2313C9.0624 18.7214 11.7997 20.0889 14.0386 20.8486C14.0555 20.8486 14.0724 20.8486 14.0808 20.8486C13.6415 20.8739 13.2106 20.9583 12.822 21.1018C11.6223 21.5323 10.5155 22.4017 9.94949 23.5159C9.80587 23.8029 9.71293 24.149 9.67914 24.5035C8.37807 22.579 6.12232 21.718 4.27211 20.2239C4.00175 20.0045 3.58778 20.1395 3.57088 20.5025C3.43571 23.4484 6.37578 25.1028 8.87653 26.1833C7.68529 26.0482 6.52785 26.6222 5.83508 28.0319C5.15075 29.4162 5.48024 30.6486 6.38423 31.4252C5.88577 31.8725 5.59007 32.6322 5.62386 33.5523C5.66611 34.9535 6.51095 36.1521 7.68529 36.7092C5.39575 35.9074 2.39654 35.8229 0.309765 36.608C-0.028174 36.7346 -0.129556 37.1566 0.208384 37.3592C2.64155 38.7689 6.02094 38.9039 8.63997 37.7559C8.68222 37.7559 8.73291 37.7644 8.77515 37.7559C6.26595 40.0603 4.69453 43.3861 4.81281 46.7119C4.82971 47.0748 5.26903 47.2521 5.53938 46.9988C8.36962 44.4581 10.3297 41.6726 10.6338 38.0936C10.7267 37.9585 10.8281 37.815 10.9295 37.68C11.2759 38.6507 12.0278 39.461 13.0247 39.9337C13.388 40.111 13.8104 40.2038 14.2413 40.2292C12.0194 41.7063 10.5831 43.977 9.8988 46.6021C9.84811 46.8131 9.96639 47.0579 10.1945 47.1086C13.2444 47.7839 15.3481 45.0912 16.4886 42.3985C16.4886 42.753 16.5478 43.1075 16.6238 43.4621C16.514 43.4621 16.4041 43.5043 16.3534 43.6224C15.2636 45.9268 14.7567 48.2988 14.9594 50.8311C14.9932 51.27 15.6776 51.4051 15.7958 50.9408C16.0408 49.9532 16.4295 48.915 16.7505 47.8598C17.0631 48.6026 17.5869 49.2779 18.2375 49.8519C18.1361 49.9194 18.0685 50.0376 18.1023 50.1896C18.3473 51.3038 18.7359 52.3336 19.2006 53.3381C19.1837 53.3634 19.1668 53.3887 19.1499 53.4225C18.2966 56.0983 18.6261 58.7403 19.4963 61.2979C19.3864 61.2811 19.2513 61.3233 19.2006 61.4499C18.2966 63.6192 18.4571 65.4594 19.3104 67.519C19.2428 67.5443 19.1837 67.5865 19.1499 67.654C18.1952 69.7643 18.2375 71.6382 19.2428 73.6978C18.4064 75.884 18.5078 77.8423 19.5723 80.0032C19.5723 80.0032 19.5723 80.0117 19.5723 80.0201C19.3949 82.3583 18.6092 85.2367 19.5723 87.4482C16.7336 87.6677 13.8865 87.8787 11.1407 87.4398C10.7521 87.3807 10.5831 87.904 10.9718 88.0138C17.6123 89.8455 24.4893 87.1865 31.265 88.9845C31.603 89.0773 31.8395 88.5793 31.51 88.4358C28.967 87.3385 26.2889 87.1359 23.56 87.2119C23.5769 86.8995 23.5853 86.5872 23.5516 86.2833C24.1176 84.7893 24.1261 83.0673 23.7205 81.472C23.8219 80.9824 23.805 80.5013 23.7205 80.0286C23.9909 78.965 24.0416 77.8423 23.8979 76.7534C23.9571 76.7112 23.9993 76.6521 23.9993 76.5762C24.05 75.7574 23.9402 74.9893 23.7459 74.2465C24.388 72.5836 24.1092 70.6928 23.6698 68.9202C23.7036 68.878 23.7205 68.8189 23.7036 68.7514C23.3826 67.2826 22.8334 65.9489 22.242 64.6743C22.3265 64.6743 22.4026 64.649 22.4364 64.5646C23.4164 62.3446 23.1798 60.2766 22.4701 58.276C23.3741 56.2924 23.0615 53.777 22.5208 51.7427C22.5039 51.6921 22.4786 51.6498 22.4533 51.6161C23.7797 51.6921 25.123 51.3544 26.2466 50.4681C26.2551 50.6032 26.2551 50.7382 26.2635 50.8733C24.709 52.7134 23.8641 55.0094 24.0838 57.4066C24.1176 57.7443 24.5231 57.9469 24.7935 57.6936C25.8749 56.6891 26.4494 55.4652 26.7197 54.1653C27.1337 55.8113 27.9955 57.3053 29.6091 58.2423C29.8203 58.3605 30.0484 58.276 30.1752 58.0988C31.4002 56.4697 31.2481 54.638 30.4117 53.0173C31.2735 53.4309 32.2619 53.5997 33.2251 53.4393C33.4532 53.3971 33.5799 53.1355 33.5208 52.9413C33.0899 51.5148 31.7466 50.2655 30.209 49.9448C32.3126 49.3539 33.5123 47.2774 32.8871 45.2094C32.7942 44.897 32.3295 44.973 32.3126 45.2853C32.1775 47.2014 31.8057 49.0416 29.457 49.3286C29.1444 49.3623 28.8403 49.3623 28.5362 49.3286C28.477 49.1344 28.2405 49.126 28.1053 49.2526C27.9025 49.202 27.6998 49.1429 27.5139 49.0669C27.6829 48.7968 27.3027 48.5351 27.0746 48.7377C27.0492 48.763 27.0154 48.7883 26.9901 48.8137C26.4747 48.5267 26.0185 48.1384 25.6299 47.691C26.8718 47.328 27.6068 46.2138 27.7589 45.0574C29.2458 44.6607 30.2934 43.5802 29.8541 41.8751C29.7865 41.6135 29.6767 41.3856 29.5415 41.183C29.5077 40.7947 29.4148 40.4486 29.2796 40.1447C29.5584 39.9 29.7443 39.5708 29.871 39.2162C30.7328 39.7311 31.4424 40.4993 31.9662 41.3096C32.2788 41.7907 32.5069 42.3141 32.5069 42.8881C32.5069 43.2257 32.3042 43.4452 32.0507 43.6224C31.9409 43.2088 31.7804 42.8037 31.6199 42.4576C31.4678 42.1284 30.9017 42.3647 31.02 42.7024C31.189 43.1835 31.2819 43.6224 31.3326 44.0614C31.2819 44.0951 31.2312 44.1289 31.1805 44.1711C31.0538 44.2724 31.1214 44.4919 31.2819 44.5256C31.3073 44.5256 31.3326 44.5256 31.358 44.5256C31.358 44.9899 31.3073 45.4541 31.1636 45.969C31.1298 46.1041 31.2988 46.2645 31.434 46.1632C32.0423 45.7243 32.2281 45.1165 32.2028 44.475C33.6053 44.2893 34.2135 42.905 34.0277 41.6304C33.7996 40.0941 32.4225 38.6254 30.9947 37.9923C30.6483 37.8403 30.3357 38.3215 30.6905 38.4903C31.8142 39.039 32.6252 40.035 33.0814 41.1492C33.3011 41.6726 33.3349 42.0946 33.242 42.4576C33.2251 42.2381 33.1913 42.0186 33.1237 41.8245C32.6506 40.4824 31.3833 39.2416 30.0231 38.6338C30.0738 38.3046 30.0907 37.967 30.04 37.6209C29.8795 36.5151 29.1867 35.3502 28.2574 34.4724C28.4094 34.5483 28.5362 34.6412 28.7051 34.7087C29.7696 35.1308 30.9524 34.9197 31.8226 34.2276C32.0592 34.0419 32.2788 33.7887 32.4732 33.4932C32.5492 36.5742 33.394 40.1785 36.2158 41.5122C36.5115 41.6557 36.8241 41.4784 36.8495 41.1661C37.1029 37.9585 37.3057 34.2023 34.9317 31.6868C35.4132 31.7797 35.9539 31.7628 36.5369 31.6024C37.4831 31.3408 38.328 30.6824 38.725 29.8129C39.1137 28.952 39.0038 27.6605 38.2604 26.9852C38.9869 26.4028 39.3756 25.4827 39.4601 24.5289C39.874 24.8581 40.1951 25.2717 40.212 25.8203C40.2373 26.5547 39.2995 27.0021 38.8011 27.4072C38.5983 27.5761 38.818 27.8377 39.0376 27.7955C40.0599 27.6183 40.9216 26.8333 40.9723 25.8203C41.0146 24.9594 40.2204 24.3263 39.4769 23.9295C39.4601 23.6172 39.4263 23.3134 39.3502 23.0179C38.9278 21.3972 37.6774 20.072 36.1145 19.4305C37.9055 18.6708 39.5445 17.6663 41.0399 16.4339C41.3018 16.2145 41.0906 15.7671 40.7527 15.784C40.457 15.8008 40.1528 15.8431 39.8571 15.8853C40.2542 15.5476 40.6259 15.1847 40.9892 14.8048C40.9892 14.8048 40.9977 14.8048 41.0061 14.8048C41.2511 14.8301 41.4877 14.847 41.7242 14.847C41.7073 14.8977 41.6905 14.9567 41.7158 15.0327C44.8417 26.1073 49.8263 36.9625 57.3117 45.9775C62.7356 52.5108 71.7671 59.4916 81.0266 59.7786C81.2801 61.2135 82.4882 62.4206 83.9329 62.8511C78.6695 69.4435 73.2456 76.5931 71.4376 84.7893C71.3615 85.1438 71.8684 85.2704 71.9952 84.9328C74.8677 77.3105 78.9736 71.0558 83.6456 64.5899C81.9644 68.802 80.3761 73.242 79.5143 77.4962C79.4383 77.8845 80.0297 78.0534 80.1395 77.6566C81.5673 72.5329 84.7017 67.3248 85.4874 62.0492C85.5634 61.9395 85.6395 61.8382 85.724 61.7284C85.7747 61.6609 85.7831 61.5934 85.7831 61.5343C86.0197 61.4583 86.2478 61.357 86.4421 61.1966C86.0281 62.2602 85.8507 63.3322 86.4843 64.4042C86.6786 64.7334 86.8983 65.0289 87.118 65.299C87.8868 67.3923 86.535 69.4688 87.4644 71.4862C86.045 73.6978 84.1695 76.2048 86.29 78.5007C85.8254 79.2773 85.6226 80.0876 86.7293 80.5266C86.8307 80.5688 86.9237 80.5941 87.0166 80.6279C86.4083 82.4174 85.6733 85.9541 87.2616 87.4651C81.7447 86.8742 76.3039 85.6081 70.6857 85.9119C62.8962 86.334 55.2418 90.1156 47.5284 86.984C47.1059 86.8151 46.7342 87.3891 47.1651 87.5833C53.3916 90.3266 60.5813 88.4442 66.9937 87.2794C76.3124 85.5827 85.1917 89.837 94.3752 88.3345C94.7554 88.2754 94.6709 87.6592 94.2823 87.6846C92.2884 87.8196 90.3199 87.7521 88.3599 87.5748C87.7178 86.5028 87.2447 85.7009 87.1771 84.401C87.118 83.2108 87.3714 81.9784 87.7009 80.8304C88.3683 81.0077 88.8837 81.1597 89.5004 81.9869C90.7846 83.7088 89.6272 85.3042 88.9428 86.9755C88.8415 87.2203 89.2216 87.4144 89.3991 87.2287C90.9198 85.5827 91.4351 83.5147 90.2186 81.5817C89.8299 80.9739 89.2977 80.3831 88.5627 80.1636C87.4644 79.8344 86.5942 79.8344 86.8645 78.9143C87.4813 79.1507 88.3177 79.0916 88.8922 79.0747C89.492 79.0578 90.0834 79.0156 90.6748 79.1C91.7562 79.2604 91.6464 80.2649 91.5365 81.1174C91.4605 80.8727 91.3845 80.6363 91.2915 80.4253C91.1479 80.0623 90.5481 80.2058 90.6748 80.5857C90.9874 81.5564 91.1394 82.5187 91.0888 83.54C91.0381 84.6205 90.4805 85.4899 90.2355 86.5113C90.1763 86.7476 90.472 86.908 90.6579 86.7476C91.959 85.5996 92.0941 83.6582 91.7562 81.97C91.8491 81.97 91.9421 81.9447 91.9928 81.8518C92.7954 80.3578 92.5841 78.4079 90.5143 78.2559C89.4751 78.18 88.2247 78.4838 87.2194 78.1293C87.27 77.8761 86.9321 77.7073 86.7293 77.893C84.989 76.7366 86.8983 73.8328 87.9966 72.1024C88.1571 72.2122 88.3261 72.305 88.4697 72.3894C90.5396 73.5543 89.9651 75.3776 89.4413 77.2768C89.3568 77.5891 89.7961 77.7579 89.9736 77.4878C90.81 76.2301 91.4183 74.0354 90.3622 72.7018C90.3791 72.6849 90.4044 72.6933 90.4213 72.668C90.962 72.0602 91.0888 71.2415 91.0296 70.4396C91.2408 69.8571 91.2239 69.2747 91.0465 68.7091C92.6095 67.0125 93.2938 64.5899 91.7055 62.6823C91.4943 62.4206 90.9282 62.1336 90.641 61.9732C88.5627 60.7999 88.7485 59.1539 89.0865 57.2716C89.2723 56.2418 89.2301 55.3977 88.9513 54.5873C90.7593 56.3346 90.6241 58.3351 91.2408 60.6564C91.3169 60.9434 91.7562 60.8674 91.7646 60.5889C91.8322 58.8247 91.7477 57.6176 91.376 56.5963C91.452 56.6807 91.5281 56.7735 91.6041 56.858C92.2124 60.0487 93.5219 63.4166 96.3522 65.3159C96.5465 65.4425 96.8337 65.3496 96.9436 65.1639C98.8614 61.8888 95.9382 57.8793 92.7869 55.9717C93.1417 55.7437 93.4797 55.4061 93.75 55.1866C94.3837 54.6717 95.0173 54.1484 95.6003 53.5828C95.8537 53.3381 95.6763 52.8822 95.3046 52.8907C94.3837 52.916 93.353 53.1101 92.4828 53.3971C92.9897 51.9115 93.0235 50.409 92.6771 48.8812C93.75 50.5441 95.4313 51.8356 97.4758 52.2323H97.4674ZM71.7502 7.12348C71.6657 7.00531 71.5812 6.87869 71.4883 6.76052C71.2348 6.41443 70.6519 6.72675 70.8969 7.08972C71.1841 7.52021 71.4798 7.9507 71.7671 8.38119C69.7394 7.44424 67.8639 5.95018 67.5935 3.89901C68.9115 4.41391 70.2294 4.97946 71.294 5.89953C71.7502 6.29626 72.0543 6.73519 72.2655 7.19945C72.1304 7.01375 71.9107 7.01375 71.7502 7.12348ZM74.1749 6.88713C73.4737 5.0892 73.3385 3.00426 74.3016 1.31606C74.5973 3.18997 74.3608 5.03011 74.1749 6.88713ZM80.5281 11.9264C79.9199 11.7914 79.2862 11.9095 78.83 12.3316C78.6695 12.4835 78.5597 12.6608 78.4752 12.8465C77.9429 12.6101 77.2586 12.205 77.36 11.6057C77.4613 11.0063 78.0443 10.5674 78.5597 10.3057C79.0581 10.0525 79.7086 9.9259 80.2578 10.1285C80.545 10.4999 80.8154 10.8966 81.1026 11.3187C81.1364 11.5888 81.1449 11.8758 81.1787 12.1459C80.9337 12.0446 80.7056 11.9686 80.5197 11.9264H80.5281ZM83.6456 10.5759C83.4936 10.5927 83.3499 10.6265 83.1979 10.6687C83.2232 10.5927 83.2232 10.4999 83.1556 10.407C81.7701 8.37275 81.787 5.43528 82.7417 3.13932C83.0289 4.21977 83.4344 5.26646 83.7724 6.33002C84.2962 7.96758 84.2032 9.25906 83.6372 10.5759H83.6456ZM23.8895 13.9185C23.9486 14.9989 24.0754 16.0794 24.2021 17.1599C24.2866 17.8098 24.3288 18.4766 24.388 19.1435C23.1629 17.641 22.9433 15.5898 23.8895 13.9269V13.9185ZM9.66224 16.8307C11.2506 17.5819 12.408 18.8565 13.6922 19.9623C12.0954 19.287 10.3635 18.3669 9.66224 16.8307ZM4.44108 21.3719C5.34506 21.9881 6.32509 22.5368 7.20373 23.1783C7.1108 23.2711 7.06855 23.3893 7.11925 23.5328C7.26287 23.9802 7.48253 24.436 7.76133 24.8581C6.22371 24.0393 4.77902 22.9419 4.44108 21.3635V21.3719ZM1.55169 37.1229C2.86121 36.8359 4.15383 36.9287 5.53093 37.1735C5.98715 37.2579 6.45182 37.393 6.91648 37.5111C5.15075 37.9079 3.19915 37.7813 1.55169 37.1144V37.1229ZM24.9287 56.3515C24.954 55.9379 25.0131 55.5327 25.0892 55.1276C25.199 55.1107 25.3088 55.06 25.3764 54.9587C25.6552 54.5704 25.8749 54.1653 26.0692 53.7432C25.8749 54.6802 25.5201 55.5749 24.9287 56.3515ZM32.5407 52.705C31.603 52.7219 30.7074 52.342 29.9724 51.7849C29.5584 51.4726 29.2712 51.1181 29.06 50.7298C30.5553 50.6369 31.9324 51.3966 32.5492 52.705H32.5407ZM27.4041 50.8226C27.4294 50.7804 27.4463 50.7298 27.4548 50.6876C29.4233 52.4095 31.1974 54.8996 29.7274 57.3222C27.8096 55.9885 27.2097 53.6166 27.083 51.3713C27.1844 51.194 27.2942 51.0083 27.4041 50.8226ZM30.0484 10.8122C30.8173 11.6057 31.3664 12.5848 31.7804 13.6568C31.5438 13.5471 31.1974 13.6568 31.2228 13.9691C31.2228 14.0029 31.2397 14.0367 31.2397 14.0704V14.0873C31.3242 14.8723 31.6114 15.5729 32.0254 16.2229C32.2197 16.704 32.4394 17.1683 32.6675 17.6325C30.851 15.8346 29.5753 13.3107 30.04 10.8038L30.0484 10.8122ZM26.1368 17.9449C25.8242 16.4086 26.3058 13.6737 28.1306 13.2095C28.063 14.1971 27.8603 15.1509 27.4548 16.071C27.1337 16.7884 26.6184 17.354 26.1368 17.9533V17.9449ZM31.4002 18.3332C32.5745 18.8227 33.5292 19.7766 34.1713 20.8233C34.7965 21.8446 34.712 22.6043 34.2727 23.3556C33.5968 23.1614 32.8702 23.1023 32.2281 23.1867C32.1437 23.1952 32.0676 23.2205 31.9831 23.2374C31.9409 22.292 31.6621 21.1778 30.851 20.5869C30.3019 20.1902 29.5753 20.1817 28.9924 20.5278C28.4179 20.8739 28.0968 21.5407 28.2151 22.1823C28.3925 23.1445 29.3895 23.6763 30.2597 23.9971C30.2934 24.014 30.3188 24.014 30.3526 24.014C30.2765 24.0899 30.2174 24.1912 30.1498 24.2841C30.1245 24.225 30.0907 24.1659 30.0146 24.1237C28.8994 23.4568 27.6068 23.0264 26.3142 23.1699C24.4386 20.1817 28.1898 16.9995 31.4002 18.3332ZM32.904 25.4405C32.4647 25.5502 32.0676 25.8879 31.7804 26.3015C31.7381 26.3268 31.6959 26.3521 31.6537 26.369C31.5269 26.1833 31.3242 26.0145 31.2397 25.7528C31.1552 25.5165 30.8848 25.4405 30.6736 25.5165C30.5976 24.9509 30.8257 24.4276 31.6283 24.1237C32.2873 23.8789 33.073 23.8536 33.7911 24.0224C33.6813 24.1575 33.5546 24.301 33.4278 24.436C33.2335 24.647 33.4109 25.0016 33.7235 24.9256C34.1291 24.8159 34.4501 24.6217 34.7036 24.3769C34.8725 24.4698 35.0415 24.5795 35.1851 24.7061C35.7174 25.1704 35.8441 25.8288 35.7343 26.4872C35.6244 27.1456 35.1344 27.4748 34.543 27.6267C34.543 27.6014 34.5599 27.5929 34.5599 27.5676C34.4839 26.6729 34.222 25.1197 32.904 25.4489V25.4405ZM30.6567 23.7776C30.6905 23.6257 30.6314 23.44 30.4371 23.364C29.8372 23.1192 29.1445 22.7478 28.9501 22.0978C28.8403 21.7349 29.0346 21.3382 29.3557 21.1271C29.7021 20.8908 30.1414 20.8908 30.4624 21.1609C31.1214 21.6927 31.1636 22.6887 31.2397 23.44C31.2397 23.44 31.2397 23.4484 31.2397 23.4569C31.0285 23.5413 30.8341 23.651 30.6483 23.7776H30.6567ZM25.0638 23.5159C24.1683 23.9127 23.4417 24.5964 23.0109 25.4405C23.0277 24.5457 22.7405 23.6088 22.1238 22.714C22.0055 22.5452 21.8703 22.3764 21.7351 22.2245C22.7743 22.8069 23.9233 23.2289 25.0723 23.5244L25.0638 23.5159ZM13.1008 29.3065C13.3542 31.383 16.0408 33.3666 17.9502 31.4674C19.7751 29.6526 16.7167 27.5592 14.875 27.652C14.6637 27.6605 14.461 27.8209 14.4694 28.0403C14.4948 28.5046 14.5286 29.0026 14.9679 29.2811C15.2889 29.4753 15.5931 29.0448 15.3565 28.8C15.2974 28.7409 15.2805 28.5974 15.2805 28.4455C16.2183 28.5299 17.0631 29.0617 17.5616 29.8383C18.1952 30.809 16.7336 31.3408 15.9902 31.3914C15.196 31.442 14.6131 30.8343 14.2498 30.2434C13.5739 29.1208 13.8358 27.7787 14.6468 26.8248C14.9425 26.4703 15.3143 26.2677 15.7029 26.1495C15.7874 26.1664 15.8719 26.1917 15.9564 26.2086C16.024 26.3184 16.176 26.3521 16.2774 26.2762C17.0293 26.4703 17.7559 26.7826 18.3642 27.1287C18.9471 27.4663 19.4878 27.9221 19.8934 28.4708C19.9103 28.513 19.9187 28.5637 19.9272 28.6143C19.8427 28.7494 19.8934 28.9351 20.0116 29.0364C20.1215 29.9311 19.868 30.8596 19.1414 31.5265C18.1023 32.4803 16.345 32.379 15.0524 32.1004C13.7851 31.8303 12.4502 31.2057 11.6476 30.2012C10.5747 28.8591 11.5885 27.5254 12.7882 26.6813C13.2528 26.3521 13.7682 26.1917 14.3089 26.1158C13.4303 26.8755 12.9403 28.0403 13.1008 29.3149V29.3065ZM20.0961 31.805C21.1268 31.0453 21.3803 29.8467 20.9156 28.7494C21.6929 28.3104 22.242 27.7196 22.5884 27.0612C22.5884 27.306 22.6307 27.5507 22.6983 27.7871C22.6307 27.7871 22.5715 27.7871 22.5039 27.8124C22.0224 27.9897 22.1998 28.4877 22.2589 28.8338C22.2758 28.9351 22.4195 29.011 22.5208 28.9773C22.6898 28.9097 22.8672 28.8169 22.9179 28.6312C22.9179 28.6059 22.9179 28.5805 22.9179 28.5637C22.9179 28.5805 22.9179 28.5805 22.9264 28.589C23.0193 28.7916 23.07 29.011 23.1207 29.2221C23.391 30.2687 23.2305 31.4336 22.9686 32.4634C22.8841 32.8095 22.7574 33.1471 22.6138 33.4763C21.7774 33.8899 21.0677 34.5315 20.5439 35.308C19.9018 35.1983 19.2935 34.6074 18.8964 34.1263C18.8542 34.0756 18.7951 34.0503 18.7444 34.0334C18.7444 33.9828 18.7444 33.9322 18.7444 33.8815C19.3949 33.2991 19.8934 32.5647 20.0877 31.805H20.0961ZM19.1752 18.5864C19.133 18.4935 19.0992 18.3922 19.057 18.2994C20.8565 18.4429 22.2251 19.4727 23.3572 20.7726C21.9632 20.0467 20.5101 19.4136 19.1752 18.5948V18.5864ZM16.6576 22.6887C16.6576 22.6887 16.7336 22.6887 16.7674 22.6634C17.5616 22.1738 17.9587 21.4648 19.0232 21.4985C20.0285 21.5239 20.9072 22.3511 21.4479 23.0854C22.7996 24.9003 22.4279 27.0021 20.6199 28.1669C20.113 26.6898 18.7359 25.4827 17.08 25.2886C16.911 25.2717 16.7505 25.2801 16.59 25.2886C16.7928 24.4276 16.8857 23.5159 16.6491 22.6972L16.6576 22.6887ZM15.0777 11.7998C15.2129 11.2005 15.0524 11.918 15.2974 12.5426C15.6607 13.4796 15.8972 14.4503 16.1169 15.4294C16.514 17.2105 16.4971 19.0084 16.1929 20.781C14.3934 18.0293 14.3343 15.0074 15.0777 11.7998ZM9.90725 25.9976C9.90725 25.9976 9.94104 25.9892 9.95794 25.9807C10.1269 26.2339 10.355 26.445 10.6676 26.58C10.9211 26.6898 11.1661 26.4703 11.0393 26.2255C10.6169 25.3561 10.186 24.799 10.6761 23.8367C11.1154 22.9757 11.9771 22.3342 12.8642 21.929C13.6499 21.5745 14.7229 21.4057 15.4241 22.005C16.2774 22.7394 16.1929 24.2081 16.024 25.3476C15.8972 25.373 15.7705 25.3814 15.6522 25.4152C15.1538 25.3561 14.6468 25.3392 14.1568 25.3983C13.0163 25.5249 11.7406 26.2593 10.9971 27.2553C10.5831 26.8755 10.1354 26.6054 9.67069 26.4196C9.83966 26.3437 9.94949 26.1664 9.90725 26.006V25.9976ZM5.683 45.7243C5.85197 43.2426 6.97562 40.8031 8.72446 38.9461C7.90496 40.4064 7.10235 41.8752 6.38423 43.3861C6.16457 43.8503 6.84889 44.2555 7.10235 43.7913C7.89651 42.3901 8.68222 41.0648 9.51862 39.7565C8.86808 42.0271 7.49943 43.9432 5.67455 45.7243H5.683ZM10.8535 46.3995C11.3604 44.6945 12.2137 43.1835 13.4303 41.968C13.2613 42.2972 13.7767 42.7024 14.1568 42.4154C14.8496 41.9005 15.5086 41.3518 16.1676 40.8031C15.3903 43.3101 13.6077 46.6359 10.8535 46.3911V46.3995ZM16.7336 39.0981C16.7928 38.9968 16.8519 38.9039 16.8857 38.7942C16.9533 38.5916 16.6998 38.4228 16.5224 38.5241C15.9986 38.8195 15.61 39.2331 15.0101 39.4104C14.4018 39.5961 13.7598 39.4357 13.2106 39.174C12.087 38.6422 11.3857 37.4774 11.4195 36.2956C11.428 35.8567 10.7436 35.8651 10.7099 36.2956C10.693 36.5151 10.7099 36.7346 10.7268 36.9456C10.7268 36.9456 10.7099 36.954 10.7014 36.9625C10.693 36.9118 10.6676 36.8612 10.6338 36.819C10.6338 36.7261 10.6423 36.6417 10.6338 36.5489C10.6169 36.2788 10.3466 36.1859 10.1523 36.2534C8.38652 36.3125 7.02631 36.0171 6.50251 34.1601C6.22371 33.1893 6.46026 32.2186 7.0939 31.9316C7.49098 32.1173 7.9472 32.2271 8.43721 32.2777C8.5048 32.8601 8.80894 33.4004 9.45948 33.6367C9.65379 33.7042 9.85656 33.4932 9.79742 33.316C9.67069 32.953 9.39189 32.6913 9.24826 32.3452C9.0793 31.9316 9.15533 31.5265 9.33275 31.1297C9.51017 30.7414 8.92722 30.3954 8.72446 30.7921C8.63997 30.9525 8.57239 31.1382 8.52169 31.3154C8.02323 31.0622 7.56702 30.9862 7.16149 31.0622C5.06626 29.5344 7.62616 25.0691 10.6169 27.8715C10.5071 28.1163 10.4226 28.3611 10.3888 28.6228C10.2029 30.1253 11.3773 31.2648 12.6192 31.9992C14.3174 32.9952 16.8688 33.3835 18.6852 32.6154C18.1023 33.3497 17.4855 33.9912 16.345 34.2867C14.5201 34.7509 12.9572 33.3835 12.1039 32.016C11.8842 31.6615 11.3097 31.9823 11.5209 32.3368C12.4925 34.0081 14.0386 35.2489 16.1253 35.0886C16.8266 35.0379 17.5362 34.7509 18.1614 34.3289C18.1699 35.9918 16.8435 36.819 15.0101 36.7346C14.2329 36.6924 13.4472 36.456 12.7882 36.0593C12.1208 35.6541 12.1799 35.249 12.1123 34.599C12.087 34.3458 11.7997 34.2191 11.5885 34.388C10.9211 34.9535 11.4111 35.9073 11.918 36.3885C12.6615 37.0891 13.802 37.3676 14.8074 37.4774C16.9195 37.7053 18.474 36.6755 18.7275 34.9704C19.133 35.4178 19.6061 35.8145 20.1468 35.9833C19.7244 36.8274 19.4878 37.7559 19.5216 38.6844C18.6176 38.8701 17.7812 39.3682 17.2067 40.111C17.2321 40.0097 17.2574 39.9 17.2743 39.8071C17.325 39.5454 17.1645 39.3766 16.9533 39.3344C16.9195 39.2162 16.835 39.1149 16.6998 39.0981H16.7336ZM22.8588 39.5201C23.6445 39.0474 24.6499 38.7942 25.4694 38.7435C26.7028 38.6676 27.6829 39.0474 28.3165 39.7565C28.156 39.8577 27.9617 39.959 27.7589 40.0434C26.8127 39.7733 25.7397 39.748 24.9033 39.8662C24.388 39.9337 23.9402 40.1025 23.5347 40.3304C23.3319 40.0181 23.1038 39.748 22.8503 39.5201H22.8588ZM23.4502 42.3647C23.1883 42.5673 22.9771 42.8459 22.8757 43.2426C22.8334 43.4114 22.825 43.5718 22.8334 43.7406C22.6307 43.614 22.4364 43.4705 22.2758 43.3017C22.3012 43.2088 22.3181 43.1075 22.3434 43.0147C22.5124 42.4323 22.8081 41.968 23.1798 41.5882C23.2136 41.7823 23.2643 41.9933 23.3572 42.2381C23.3826 42.2888 23.4079 42.3394 23.4417 42.3732L23.4502 42.3647ZM22.9517 40.7272C22.4026 41.1999 21.9886 41.8076 21.7267 42.4745C21.6337 42.255 21.5662 42.0186 21.5408 41.7485C21.4732 41.0226 21.7605 40.4402 22.2336 39.9844C22.4955 40.1785 22.7405 40.4233 22.9602 40.7187L22.9517 40.7272ZM21.0339 40.9213C20.6791 40.4486 20.4679 39.9337 20.358 39.3935C20.8311 39.3935 21.3043 39.4948 21.752 39.7058C21.4141 40.0688 21.1691 40.4739 21.0339 40.9213ZM20.7044 41.6388C20.7636 41.7063 20.8311 41.7317 20.9072 41.7401C20.9072 42.1368 20.9748 42.542 21.1268 42.9472C21.2029 43.1497 21.3212 43.3354 21.4394 43.5043C21.262 44.5678 21.4141 45.6567 21.9041 46.4839C20.8987 47.0157 20.0961 47.1508 19.0654 46.256C18.4487 45.7158 18.0347 44.9899 17.739 44.2302C17.9164 43.9179 18.1361 43.614 18.398 43.327C18.6768 43.0147 18.2121 42.5589 17.9249 42.8712C17.7559 43.0485 17.6038 43.2257 17.4686 43.3945C17.4433 43.2848 17.4011 43.1751 17.3757 43.0569C16.9702 41.1661 18.1614 39.824 19.6315 39.4779C19.7835 40.246 20.1299 40.9804 20.696 41.6304L20.7044 41.6388ZM18.8626 50.3921C19.8004 51.0337 20.9325 51.4557 22.0815 51.5823C21.9632 51.6414 21.8788 51.7596 21.9125 51.92C22.1069 53.0679 22.1998 54.2075 22.1998 55.3723C22.1998 55.997 22.1153 56.6132 22.0646 57.2378C21.0761 54.9587 19.6399 52.7303 18.8626 50.3921ZM19.6061 54.2244C19.9609 54.925 20.3327 55.6256 20.7298 56.3346C22.2082 59.0189 22.3603 61.2557 22.0055 64.1594C20.5016 61.0278 18.8457 58.141 19.6146 54.2159L19.6061 54.2244ZM20.1722 87.4482C20.1975 86.2833 20.0032 85.1185 20.0539 83.9367C20.0961 83.0336 20.1806 82.1388 20.2397 81.2441C20.6368 81.8771 21.0592 82.4933 21.4479 83.1264C22.2674 84.4685 22.5715 85.8191 22.8588 87.2794C21.9632 87.3216 21.0677 87.3807 20.1637 87.4482H20.1722ZM23.0109 84.3757C22.6898 83.6244 22.2843 82.8985 21.845 82.2063C20.206 79.5727 19.1076 77.5131 19.7075 74.6094C20.2735 75.5464 20.9579 76.4242 21.5662 77.319C21.9294 77.8677 22.1998 78.4163 22.4195 78.9734C22.242 79.0156 22.09 79.2098 22.1913 79.4208C22.994 81.109 23.0193 82.7044 23.0024 84.3757H23.0109ZM23.1376 78.3741C22.7912 77.6904 22.3688 77.0404 21.9548 76.4327C20.1468 73.7484 18.5416 71.5369 19.6315 68.304C20.6453 70.448 21.8365 72.3135 22.7236 74.4237C22.7236 74.4406 22.7067 74.4575 22.7236 74.4828C23.1291 75.8165 23.1967 77.0826 23.1376 78.3741ZM22.9348 68.3293C23.0615 69.2409 23.1714 70.1441 23.2559 71.0558C23.315 71.6719 23.2896 72.2881 23.2728 72.8959C21.6929 69.2663 18.2628 66.2275 19.6315 61.7537C20.4679 64.0328 21.7182 66.2359 22.9264 68.3209L22.9348 68.3293ZM26.424 49.3032C24.4217 50.8648 22.166 51.4641 19.6652 50.1305C17.6714 49.0669 16.835 47.1339 17.3081 45.3022C17.7052 46.0112 18.229 46.6443 18.8457 47.1255C19.9103 47.9527 21.4394 47.9949 22.3688 47.0917C22.9517 47.6657 23.7966 47.978 24.8949 47.8514C25.3004 48.4254 25.8242 48.9234 26.424 49.3117V49.3032ZM25.1399 46.9735C25.1061 46.9229 25.0723 46.8722 25.0469 46.8216C24.8695 46.4924 24.4048 46.7287 24.4555 47.0411C24.1936 47.0411 23.9148 47.0073 23.6022 46.9229C23.239 46.8216 22.9602 46.6443 22.7489 46.408C22.7236 46.3489 22.6814 46.2982 22.6222 46.2645C22.2082 45.7158 22.0984 44.9308 22.1407 44.1964C22.4364 44.4075 22.7827 44.5763 23.146 44.7113C23.3572 45.0574 23.6445 45.3697 23.974 45.5808C24.878 46.1801 25.8073 45.8931 26.5085 45.2262C26.5339 45.2262 26.5592 45.2262 26.5846 45.2262C26.6606 45.2262 26.7451 45.2094 26.8211 45.2009C26.6437 46.0028 26.0777 46.7372 25.1399 46.9651V46.9735ZM24.5147 42.7446C25.6299 42.4829 26.348 42.9387 26.6775 43.6478C26.517 43.9685 26.272 44.2893 25.9847 44.5425C25.2497 44.5425 24.4809 44.4328 23.7966 44.1964C23.5347 43.6056 23.7628 42.9303 24.5147 42.7446ZM25.5201 41.968C25.0469 41.9089 24.5569 41.9174 24.1261 42.0355C24.1261 42.0355 24.1261 42.0355 24.1261 42.0271C23.6614 40.8453 24.388 40.4908 25.4863 40.9382C26.2551 41.2505 26.762 41.8329 26.8634 42.5251C26.517 42.2466 26.0692 42.044 25.5116 41.968H25.5201ZM27.7927 44.2724C27.7589 43.977 27.6829 43.69 27.5646 43.4283C27.7589 42.6602 27.6998 41.8667 27.2351 41.2927C26.9732 40.9635 26.6099 40.7018 26.2128 40.4908C26.9901 40.5246 27.7589 40.7187 28.401 41.1155C28.7643 41.3349 28.9924 41.605 29.1191 41.892C29.1191 41.9764 29.136 42.044 29.136 42.1284C29.136 42.1959 29.1698 42.2381 29.2289 42.2719C29.3388 43.0907 28.7305 43.9432 27.8096 44.2724H27.7927ZM29.0177 37.0131C29.4486 38.0345 29.3303 38.8111 28.7727 39.385C27.3956 37.9248 24.5147 37.8657 22.5377 39.0474C22.4786 39.0812 22.4364 39.1234 22.3857 39.1571C21.7436 38.7604 21.0086 38.5832 20.2735 38.6085C20.2566 37.7306 20.5185 36.8443 20.9748 36.0677C21.1522 36.0508 21.3296 36.0086 21.5155 35.9411C22.3434 35.6204 22.8926 34.8607 23.2728 34.0503C24.0416 33.7464 24.9202 33.6536 25.8495 33.8984C27.3365 34.2782 28.477 35.7132 29.0262 37.0131H29.0177ZM24.2105 32.5225C24.3457 32.4296 24.4724 32.3368 24.5992 32.2439C24.9624 32.1005 25.2159 31.8388 25.4778 31.5771C25.7228 31.383 25.9594 31.1804 26.1875 30.9609C26.1368 31.9316 26.4325 32.877 27.1084 33.6198C26.8549 33.4763 26.6015 33.3582 26.3396 33.2653C25.3849 32.9446 24.4724 32.9192 23.636 33.1134C23.6614 33.0458 23.6783 32.9783 23.7036 32.9192C23.7459 32.7926 23.7712 32.6576 23.805 32.5309C23.9233 32.6069 24.0669 32.6322 24.2105 32.5309V32.5225ZM23.9486 29.3149C24.3035 29.5091 24.7005 29.6104 25.1145 29.6694C24.6668 29.9564 24.3119 30.3447 24.0585 30.809C24.0754 30.311 24.05 29.8045 23.9571 29.3234L23.9486 29.3149ZM32.6844 29.8805C32.3633 30.4882 32.414 31.2226 32.2535 31.881C32.1099 32.455 31.8649 33.0036 31.4593 33.451C30.8426 34.1347 29.9217 34.2445 29.06 33.9828C27.0408 33.3666 26.5254 31.2817 27.2182 29.6019C27.5477 29.5428 27.8603 29.4584 28.1475 29.3402C28.6882 29.8889 29.3979 30.3869 30.0907 30.446C30.2596 30.4629 30.3864 30.2434 30.2934 30.1084C29.9302 29.6104 29.3388 29.2643 28.8319 28.8591C28.8994 28.6903 28.7643 28.4961 28.5615 28.4793C28.5193 28.4793 28.477 28.4793 28.4348 28.4793C27.7842 27.7702 27.497 26.8164 27.7673 25.8963C27.8434 25.6262 27.4379 25.5333 27.3365 25.7866C26.9309 26.7826 26.9732 27.6774 27.5477 28.5721C27.421 28.4371 27.1591 28.4033 27.0239 28.5974C26.9901 28.6396 26.9732 28.6903 26.9394 28.7409C26.6606 28.8085 26.3902 28.876 26.1114 28.8929C25.5032 28.9435 24.8611 28.8844 24.3204 28.5974C23.4586 28.1585 23.2812 27.1878 23.4924 26.3521C23.7459 25.3561 24.5231 24.5542 25.4778 24.1321C25.7059 24.0308 25.934 23.9718 26.1706 23.9295C26.272 23.9633 26.3818 23.9464 26.4663 23.8789C27.5646 23.7692 28.7305 24.1659 29.6598 24.6639C29.7443 24.7061 29.8203 24.7146 29.8879 24.6977C29.5415 25.6768 30.1329 26.732 30.7412 27.4917C30.8764 27.6605 31.1467 27.7111 31.3326 27.6267C31.4002 28.0994 31.9409 28.3273 32.5492 28.4286C32.5492 28.9097 32.6083 29.3656 32.752 29.7707C32.7182 29.7876 32.6844 29.8129 32.6675 29.8467L32.6844 29.8805ZM32.4563 26.8248C32.6083 26.5885 32.8533 26.3268 33.1321 26.2171C33.1913 26.1917 33.242 26.1917 33.2927 26.2086C33.4194 26.867 33.2504 27.2469 33.732 27.7196C33.4954 27.7196 33.2673 27.7111 33.0561 27.6858C32.2028 27.5761 31.9747 27.5761 32.4647 26.8333L32.4563 26.8248ZM36.0638 40.4739C33.5715 38.7689 33.1237 34.6074 33.1828 31.7797C33.2589 31.4083 33.3011 31.0369 33.2758 30.6908C33.3771 30.8174 33.5039 30.9103 33.6306 31.02C33.5715 31.0791 33.5461 31.1719 33.5884 31.2817C33.8249 31.9316 33.9854 32.5985 34.1291 33.2653C34.2896 33.9912 34.3234 34.7847 34.7205 35.4262C34.8134 35.5782 35.0837 35.5613 35.126 35.3756C35.2949 34.5906 35.126 33.6705 34.8556 32.8011C36.3679 34.9704 36.2665 37.8741 36.0722 40.4655L36.0638 40.4739ZM38.2773 22.4439C38.6912 23.2205 38.818 24.1321 38.6405 24.9847C38.404 26.1158 37.424 26.4956 36.5369 27.078C36.3257 27.2131 36.3764 27.6098 36.6805 27.5845C37.0691 27.5507 37.3986 27.441 37.7028 27.2975C37.9055 28.0656 38.3195 28.6987 37.9478 29.5259C37.6521 30.1759 36.9931 30.6148 36.3172 30.8343C34.4839 31.4252 33.3265 30.1337 33.2166 28.5215C33.6053 28.5383 33.9685 28.5215 34.1797 28.5046C35.6413 28.378 36.5538 27.4072 36.596 26.0229C36.6298 24.9594 36.0046 24.1828 35.1344 23.7101C35.4724 22.9926 35.4893 22.1147 35.2696 21.355C35.126 20.8739 34.8725 20.3928 34.5599 19.9538C34.6191 19.9623 34.6782 19.9538 34.7542 19.9454C34.881 19.9116 34.9993 19.861 35.1175 19.8188C36.4946 20.2071 37.5845 21.1862 38.2604 22.4524L38.2773 22.4439ZM34.6191 18.063C34.3741 18.3585 34.6444 18.7468 34.9317 18.7552C34.9063 18.8058 34.8641 18.8396 34.8387 18.8903C34.8049 18.9493 34.7965 19 34.788 19.0506C34.4923 19.0084 34.1966 18.9916 33.8925 19.0084C33.8503 19.0084 33.8165 19.0253 33.7911 19.0338C33.6897 18.9409 33.5884 18.8565 33.4785 18.7636C33.5377 18.6792 33.563 18.5695 33.5292 18.4682C33.5884 18.4429 33.639 18.4007 33.6897 18.35C33.7573 18.4344 33.808 18.5273 33.8841 18.6033C34.2135 18.9578 34.7289 18.4429 34.4248 18.0884C32.6928 16.0541 35.033 12.1797 36.8241 10.2298C36.765 13.0997 36.6214 15.632 34.6275 18.063H34.6191ZM37.6859 17.7676C37.6267 17.7254 37.5507 17.6916 37.4493 17.6916C37.2972 17.6916 37.1283 17.6916 36.9677 17.6748C37.6774 17.1767 38.5138 16.8475 39.384 16.6787C38.8349 17.067 38.2688 17.4384 37.6859 17.7676ZM36.3595 16.8475C36.4186 16.7294 36.4862 16.6196 36.5453 16.5099C36.6636 16.4846 36.7734 16.4086 36.8072 16.2567C37.3141 14.4503 38.3449 12.9815 39.7051 11.6647C41.2934 10.12 43.0507 9.62202 45.0783 8.92986C42.0284 11.1498 40.0177 15.6236 36.3595 16.856V16.8475ZM94.8568 40.3642C94.7554 41.5628 94.2147 42.6433 93.4797 43.6478C93.1755 44.0614 92.8207 44.3737 92.449 44.6522C92.9559 44.1036 93.4036 43.4789 93.3783 42.8459C93.3699 42.5251 93.0066 42.4154 92.7616 42.6011C92.6602 42.6855 92.5672 42.7699 92.4743 42.8543C93.0573 41.8161 93.843 40.9044 94.8568 40.3558V40.3642ZM94.2569 32.2355C94.5442 31.8894 94.4851 33.0965 94.5273 33.4341C94.6456 34.4386 94.4428 35.4684 94.2147 36.4476C94.0119 37.3254 93.674 38.1611 93.3023 38.9799C93.4459 38.0429 93.2769 36.9456 93.1164 36.1943C93.0235 35.7385 92.3222 35.9411 92.3983 36.38C92.5081 37.0384 92.5419 37.6968 92.5081 38.3637C92.4743 38.9714 92.2124 39.5623 92.2462 40.1532C92.1786 40.0266 92.111 39.8915 92.0603 39.7649C92.7109 38.7182 92.5081 37.7137 91.8914 36.9034C92.2378 35.173 93.2431 33.4341 94.2569 32.2271V32.2355ZM91.6126 42.5589C91.1394 43.3777 90.8184 44.2386 90.6579 45.0827C89.8722 44.188 89.002 43.3439 88.3852 42.4407C88.3346 42.3563 88.2923 42.2803 88.2416 42.2043C88.2332 42.1875 88.2163 42.179 88.2078 42.1706C87.5742 41.1323 87.3207 39.9928 87.9628 38.6085C88.098 38.7182 88.2332 38.8279 88.3768 38.9377C89.2639 39.5792 90.227 40.1363 91.0212 40.8875C91.6041 41.4447 91.7139 42.0018 91.6126 42.5589ZM91.0634 37.1735C90.9198 38.178 91.0043 39.1909 91.4014 40.1025C89.7032 38.4987 86.8054 37.6631 87.1433 35.097C87.3123 35.1899 87.4813 35.2827 87.6587 35.3587C88.5711 35.7892 89.5342 36.1268 90.4044 36.6333C90.6917 36.8021 90.8944 36.9794 91.0634 37.1735ZM90.1425 35.5359C89.2047 35.0717 88.1318 34.7003 87.2531 34.1769C87.2025 34.101 87.1095 34.0503 87.0166 34.025C86.1633 33.4595 85.555 32.7166 85.555 31.518C86.5181 31.8979 87.4982 32.2186 88.419 32.6913C89.7286 33.375 89.9482 34.3036 90.151 35.5359H90.1425ZM82.8261 27.1962C84.2286 27.7196 85.724 27.9812 87.1433 28.4708C89.247 29.1967 89.2892 30.8596 89.737 32.6576C89.247 32.2271 88.6471 31.8725 88.0558 31.6109C85.6986 30.5557 82.7163 30.0915 82.7079 27.1456C82.7501 27.1625 82.7839 27.1793 82.8261 27.1878V27.1962ZM87.4644 17.0164C88.1994 16.4592 89.0189 16.0372 89.8468 15.8346C90.5481 15.6658 91.3929 15.8262 90.6832 16.5605C90.1172 17.143 89.416 17.5819 88.7232 17.9955C88.5289 18.1052 88.3345 18.2065 88.1318 18.3078C88.5965 17.9449 89.0611 17.565 89.5004 17.1514C89.8215 16.8475 89.3906 16.282 89.0104 16.5352C88.4106 16.9404 87.8614 17.3962 87.27 17.8014C87.1602 17.8773 87.118 17.9702 87.118 18.063C86.9743 18.1728 86.8307 18.2825 86.6787 18.3838C87.0419 18.004 87.2954 17.5313 87.4728 16.9995L87.4644 17.0164ZM84.4989 20.6629C85.2593 20.3928 86.0281 20.1142 86.78 19.8103C89.0949 20.3084 90.9113 23.0939 91.8829 25.2126C89.2047 25.1197 86.6364 23.6679 84.9383 21.718C84.9383 21.7011 84.9467 21.6842 84.9383 21.6589C84.9129 21.5914 84.8791 21.5323 84.8538 21.4732C85.1917 21.8699 85.5634 22.2413 86.0281 22.5199C86.5012 22.8153 87.2531 23.1445 87.8023 22.8997C87.9459 22.8322 87.9375 22.6465 87.853 22.5452C87.5151 22.1738 86.8561 22.1147 86.4167 21.8868C85.9014 21.6167 85.5043 21.2031 85.141 20.7726C84.9805 20.5785 84.6933 20.6882 84.5834 20.8739C84.5412 20.7979 84.482 20.7388 84.4314 20.6713C84.4482 20.6713 84.4736 20.6713 84.4905 20.6629H84.4989ZM83.8315 21.3297C83.8315 21.3297 83.8315 21.3804 83.8484 21.4057C84.0934 21.9628 84.4567 22.4777 84.896 22.9504C81.6011 21.8362 76.7686 21.8193 76.8024 19.4389C79.3792 19.6415 81.9053 19.5655 83.8231 21.3297H83.8315ZM72.5359 16.1385C76.0167 16.1891 79.3792 14.9736 80.8999 18.8649C80.8999 18.8818 80.9168 18.8818 80.9252 18.8987C79.6326 18.7299 78.1964 18.7552 76.8531 18.6792C76.7432 18.4513 76.3799 18.4007 76.211 18.6286C76.0758 18.6117 75.9406 18.5948 75.8054 18.5779C75.7885 18.2403 75.3239 18.2234 75.2309 18.502C73.7187 18.2319 72.4767 17.6241 71.9445 16.1216C72.1388 16.13 72.3331 16.1469 72.5359 16.1469V16.1385ZM67.9399 10.3986C70.1788 9.74864 71.3615 10.8038 72.6457 12.34C69.241 12.5426 66.0812 13.8341 62.8117 12.34C63.1665 12.2303 63.5298 12.1037 63.8762 11.9686C65.2364 11.4453 66.5375 10.8038 67.9399 10.3986ZM64.89 9.18309C65.1688 9.19997 65.4476 9.21685 65.7264 9.2675C66.3009 9.37723 66.774 9.64734 67.2809 9.89213C64.3746 10.8206 61.1389 12.703 58.8409 11.4537C60.6996 10.4746 62.1273 9.411 64.6028 9.41944C64.7802 9.41944 64.8731 9.3097 64.8984 9.18309H64.89ZM59.3562 8.4234C59.5675 8.36431 59.6013 8.17017 59.5252 8.02667C60.387 7.98446 61.2403 8.06887 62.1189 8.27146C62.4906 8.35587 62.8539 8.49937 63.2087 8.64286C62.1273 8.71039 61.0882 9.14932 60.1251 9.67267C57.8778 10.8882 56.1881 12.2809 53.5859 11.6225C55.4277 10.4324 57.0752 9.10712 59.3647 8.43184L59.3562 8.4234ZM48.8886 10.12C50.1136 8.99739 51.4147 8.73571 53.003 8.41496C53.1044 8.39807 53.1551 8.32211 53.1804 8.24614C53.5268 8.24614 53.8732 8.25458 54.228 8.28834C54.9461 8.34743 55.6474 8.63442 56.3739 8.6091C53.248 10.3142 50.5445 14.1295 47.0552 12.0024C47.6551 11.3693 48.2465 10.7278 48.897 10.1285L48.8886 10.12ZM84.7862 61.7622C84.6679 61.9141 84.5412 62.0661 84.4229 62.218C83.2824 61.6187 82.1756 61.0954 81.7785 59.7954C81.8377 59.7954 81.8968 59.7954 81.9559 59.7954C82.2854 60.3525 82.7332 60.8421 83.3077 61.1629C83.4682 61.2811 83.6541 61.3739 83.8484 61.4499C84.1525 61.5596 84.4905 61.6187 84.8369 61.6271C84.82 61.6693 84.8031 61.7115 84.7862 61.7622ZM85.1326 59.5169C85.1326 59.5169 85.1326 59.5169 85.1241 59.5169C85.1241 59.5169 85.1157 59.5084 85.1072 59.5C84.9467 59.424 84.7862 59.3565 84.6257 59.289C84.6172 59.289 84.6088 59.2721 84.5919 59.2637C84.1019 58.9935 83.8315 58.7572 83.257 58.9767C83.2317 58.9851 83.2232 59.0104 83.1979 59.0273C83.0965 59.0273 82.9951 59.0273 82.9022 59.0273C82.843 59.0104 82.7839 59.002 82.7248 58.9851C82.6149 58.9513 82.522 58.9767 82.446 59.0104C59.2633 58.1326 48.8717 32.4719 42.3241 14.8639C42.3241 14.8386 42.2987 14.8301 42.2903 14.8048C43.3717 14.7035 44.3095 14.2899 45.1881 13.6737C45.2895 14.2646 45.5683 14.7795 46.0076 15.2522C46.0837 15.3366 46.2104 15.2269 46.1597 15.134C45.8809 14.56 45.5852 14.0367 45.5176 13.412C45.6781 13.2854 45.8387 13.1757 45.9907 13.0322C46.4216 14.8132 47.0214 16.5943 47.9085 18.1981C48.0353 18.426 48.3817 18.2656 48.3225 18.0293C47.8663 16.1807 47.089 14.3912 46.4638 12.5848C46.4976 12.5511 46.5314 12.5173 46.5568 12.4835C46.5568 12.4835 46.5652 12.5004 46.5737 12.5089C48.1535 13.7075 49.7334 13.6231 51.4991 12.7874C51.9469 12.5764 52.3609 12.34 52.7749 12.0952C53.1888 12.2725 53.5859 12.4076 53.983 12.492C53.907 12.5426 53.8478 12.627 53.8394 12.7536C53.3663 20.8739 59.1535 30.0577 63.8593 36.4307C64.0536 36.6924 64.5014 36.456 64.3155 36.1775C59.5421 29.1883 55.132 21.2115 54.5406 12.7536C54.5406 12.6777 54.5068 12.6186 54.473 12.5764C55.4953 12.703 56.5007 12.5257 57.5821 12.0699C57.7088 12.0193 57.8271 11.9602 57.9538 11.9011C57.9707 13.5387 58.2664 15.5223 59.39 16.7716C59.5252 16.9235 59.7449 16.7547 59.7111 16.5943C59.4154 15.1002 58.8409 13.7412 58.6297 12.2387C58.9254 12.3991 59.2295 12.5089 59.5337 12.5848C59.483 12.6523 59.4492 12.7368 59.4745 12.838C59.6857 13.8847 59.8716 14.9905 60.3025 15.9781C60.4039 16.206 60.8263 16.2145 60.8009 15.9106C60.708 14.8301 60.4208 13.7159 60.0997 12.6777C60.708 12.7452 61.3332 12.703 61.9668 12.5679C61.9753 12.6608 62.026 12.7536 62.1442 12.8127C63.8339 13.775 65.5997 14.0198 67.4921 13.8763C68.3032 15.2437 69.6549 15.8262 71.1757 16.0372C71.5052 18.0884 73.2202 18.924 75.2563 19.2532C75.3239 21.0343 75.6872 22.79 76.3293 24.4613C76.4306 24.7314 76.8024 24.6217 76.7686 24.3432C76.5236 22.6634 76.0927 21.0258 75.9153 19.3461C75.9575 19.3461 76.0082 19.3545 76.0505 19.363C75.966 20.0804 76.211 20.6376 76.6418 21.068C76.5827 21.1102 76.5405 21.1609 76.5489 21.2453C76.7686 23.0686 77.0474 25.0184 77.9176 26.6729C77.9936 26.8164 78.264 26.7573 78.2471 26.5885C78.0865 24.8496 77.4698 23.1614 77.1065 21.4479C77.8246 21.929 78.7962 22.2245 79.7255 22.4355C79.903 22.4777 80.0888 22.5115 80.2662 22.5537C78.7962 24.5626 80.1902 25.9807 82.0404 26.8501C81.787 28.9773 82.9191 30.2856 84.7862 31.1719C84.7862 31.1804 84.7777 31.1888 84.7777 31.1973C84.5665 32.7757 85.3184 33.8646 86.4928 34.6665C86.1548 35.9918 86.5266 37.0975 87.3883 38.0345C87.3883 38.0345 87.3883 38.0345 87.3883 38.0429C86.535 39.5876 86.1886 41.1577 87.4306 42.6433C87.608 42.8543 87.7939 43.0569 87.9713 43.2595C88.8668 46.2476 85.7493 48.6533 86.4928 51.8693C86.6111 52.3758 86.9912 52.8569 87.4306 53.2705C88.3852 54.6886 88.343 55.7522 88.1909 57.0268C88.1656 57.069 88.1402 57.1196 88.1318 57.1703C88.0473 57.7611 87.8023 58.3689 87.515 58.9767C84.5412 50.7382 84.9721 42.7024 84.1525 34.1094C84.1272 33.8309 83.6879 33.814 83.6879 34.1094C83.671 42.2297 83.2486 50.9492 86.5266 58.5968C86.1633 58.4111 85.8085 58.2001 85.4536 57.9975C80.4606 53.1946 78.264 46.7287 75.8392 40.4317C72.8147 32.5816 70.8377 24.4191 68.6834 16.3242C68.5989 16.0203 68.1258 16.1469 68.2018 16.4508C70.3477 25.4405 72.688 34.2529 75.966 42.9303C77.6388 47.3449 79.3876 52.2914 82.4798 56.1067C72.7893 49.0838 67.8892 37.0047 62.4822 26.9936C62.4061 26.8501 62.1527 26.9514 62.2118 27.1034C65.1688 34.2951 68.6073 41.0648 73.2456 47.4125C76.1772 51.4219 80.0043 56.8664 85.065 58.7319C85.3184 58.9429 85.5888 59.1286 85.8591 59.3227C85.631 59.3649 85.4029 59.4409 85.1833 59.5084L85.1326 59.5169ZM86.4674 60.5636C86.4167 60.5045 86.3576 60.4538 86.2731 60.4285C86.0535 60.361 85.8253 60.2935 85.5972 60.2344C85.8929 60.1331 86.1717 60.0065 86.3829 59.8208C86.4252 59.787 86.4336 59.7448 86.4505 59.7026C86.704 59.6688 86.8983 59.3227 86.6618 59.1286C86.6364 59.1117 86.6111 59.0864 86.5942 59.0695C86.6195 59.0442 86.6449 59.0104 86.6618 58.9767C86.7885 59.2636 86.9237 59.5506 87.0588 59.8376C86.9152 60.1162 86.78 60.3947 86.6533 60.6733C86.6111 60.6142 86.5519 60.5805 86.4674 60.5636ZM90.1172 71.4862C90.0749 71.7564 90.0242 72.0349 89.982 72.3219C89.9398 72.2881 89.9229 72.2459 89.8806 72.2206C89.568 71.9927 89.2554 71.8239 88.9091 71.6466C88.7316 71.5538 88.5796 71.444 88.4528 71.3259C88.4782 71.2837 88.5035 71.233 88.5204 71.1993C88.6894 70.8701 88.343 70.5831 88.0558 70.6675C87.7938 69.8571 88.0558 68.8358 88.2078 68.0592C88.3177 67.4936 88.3261 67.0041 88.2501 66.5314C88.9766 67.2489 89.6525 67.9241 89.9651 68.8104C89.8891 68.9371 89.8046 69.0552 89.7286 69.1734C89.5596 69.4351 89.8975 69.6377 90.1256 69.5026C90.1763 69.9837 90.1341 70.5324 89.9567 71.1824C89.9229 71.309 90.0074 71.4272 90.1087 71.4778L90.1172 71.4862ZM89.6779 62.4375C92.0688 63.7627 91.621 65.8392 90.5987 67.7469C90.3537 67.367 90.0496 66.9956 89.7032 66.6411C88.2247 65.1386 86.5773 64.2016 87.1349 61.7706C87.3038 61.0447 87.6164 60.4032 87.929 59.7701C87.9375 60.3188 88.022 60.8843 88.3092 61.2811C88.7063 61.8128 89.078 62.1167 89.6694 62.4375H89.6779ZM91.6802 52.0803C91.6379 52.84 91.5281 53.5828 91.3676 54.3257C91.3 54.6295 91.2155 54.9334 91.131 55.2373C90.9789 55.3048 90.9113 55.5243 91.0381 55.6509C91.0296 55.7015 91.0127 55.7437 91.0043 55.7944C90.4467 54.8068 89.5342 53.9374 88.1233 52.7725C85.4198 50.5525 88.2501 47.6741 89.0273 45.5386C89.1456 45.2178 89.1794 44.9055 89.171 44.5932C89.5849 45.0321 89.9905 45.4795 90.3537 45.969C90.3875 46.0197 90.4213 46.0703 90.4551 46.121C90.3622 46.3067 90.5058 46.543 90.7255 46.543C90.7255 46.543 90.7255 46.543 90.7424 46.543C91.8491 48.2988 92.0603 49.987 91.8998 51.8102C91.79 51.844 91.6886 51.92 91.6802 52.0719V52.0803ZM96.4113 64.2861C94.4766 62.8004 93.3867 60.4792 92.7024 58.141C92.8291 58.2845 92.9474 58.428 93.0742 58.5799C93.7078 59.3312 94.164 60.3188 94.8906 60.9687C95.0258 61.0869 95.2623 61.0109 95.2623 60.8252C95.237 59.9643 94.578 59.1708 94.0457 58.5124C93.6149 57.9891 93.1502 57.4826 92.6855 56.9846C95.0427 58.9091 97.687 61.4161 96.4113 64.2861ZM92.6095 54.14C93.0742 54.0724 93.5304 53.9711 93.995 53.8698C93.75 54.0724 93.5219 54.2919 93.2769 54.486C92.9136 54.7815 92.3307 55.0853 91.9928 55.4736C91.9759 55.4567 91.9674 55.4314 91.9421 55.4145C92.1026 54.9841 92.204 54.5029 92.2547 54.0218C92.3391 54.0977 92.4574 54.1484 92.6095 54.1315V54.14ZM92.2631 46.0112C92.2631 46.0112 92.2884 45.9944 92.3053 45.9859C93.2685 46.5093 94.2147 46.9988 95.0426 47.7754C96.048 48.7208 96.6563 49.9448 97.0027 51.2362C94.6202 50.4681 92.846 48.341 92.2715 46.0028L92.2631 46.0112Z" fill="#D7B7A3"/>
<path fill-rule="evenodd" clip-rule="evenodd" d="M78.4918 40.6174C77.2668 35.0632 75.18 29.7116 74.2 24.1068C74.1578 23.8704 73.7269 23.9295 73.7607 24.1658C74.5295 29.8551 76.5656 35.2067 78.1032 40.7271C78.1708 40.9719 78.5425 40.8622 78.4918 40.6258V40.6174Z" fill="#D7B7A3"/>
<path fill-rule="evenodd" clip-rule="evenodd" d="M69.292 44.7282C64.375 38.1864 59.0947 32.2102 55.0985 25.0522C54.9971 24.8665 54.7183 25.0269 54.8028 25.2126C58.2414 32.379 63.0317 39.4442 69.047 44.8971C69.1653 45.0068 69.3849 44.8633 69.2835 44.7198L69.292 44.7282Z" fill="#D7B7A3"/>
<path fill-rule="evenodd" clip-rule="evenodd" d="M59.4995 36.9035C59.3221 36.6334 58.8743 36.8782 59.0433 37.1567C62.1354 42.0103 66.63 46.5516 71.8596 49.3287C72.0455 49.4215 72.2567 49.1852 72.0877 49.0417C67.4495 45.2517 62.8113 41.9259 59.4911 36.9035H59.4995Z" fill="#D7B7A3"/>
<path fill-rule="evenodd" clip-rule="evenodd" d="M82.0238 44.7957C81.8295 42.7867 80.8917 40.9044 80.5453 38.9123C80.5031 38.6675 80.0638 38.7266 80.0976 38.9714C80.351 40.9719 80.8495 43.0315 81.7028 44.8801C81.7704 45.0321 82.0407 44.9561 82.0238 44.7957Z" fill="#D7B7A3"/>
<path fill-rule="evenodd" clip-rule="evenodd" d="M83.046 80.7712C83.6458 77.4708 84.2541 74.1197 84.4146 70.7686C84.4315 70.4141 83.8993 70.431 83.857 70.7686C83.4515 74.0691 82.6489 77.3864 82.6827 80.7206C82.6827 80.9147 83.0037 80.9654 83.0375 80.7628L83.046 80.7712Z" fill="#D7B7A3"/>
<path fill-rule="evenodd" clip-rule="evenodd" d="M78.4078 73.3602C77.4785 74.6263 76.9209 76.0022 76.8955 77.5638C76.8955 77.7157 77.1067 77.7242 77.1574 77.5976C77.6559 76.2386 78.0529 74.8205 78.695 73.5206C78.788 73.3348 78.5345 73.1913 78.4078 73.3602Z" fill="#D7B7A3"/>
<path fill-rule="evenodd" clip-rule="evenodd" d="M78.1293 75.825C77.842 76.8295 77.5548 77.9774 77.6646 79.0241C77.673 79.1339 77.8336 79.2014 77.9011 79.0832C78.425 78.1125 78.256 76.9561 78.4672 75.9094C78.5094 75.6984 78.1884 75.6055 78.1293 75.8165V75.825Z" fill="#D7B7A3"/>
<path fill-rule="evenodd" clip-rule="evenodd" d="M47.4435 13.5218C48.0433 16.0372 48.9557 18.5695 50.2146 20.8654C50.3244 21.0596 50.6539 20.9245 50.5863 20.7135C49.8513 18.2403 48.7276 15.843 47.7561 13.4458C47.68 13.2601 47.3928 13.3276 47.4435 13.5302V13.5218Z" fill="#D7B7A3"/>
<path fill-rule="evenodd" clip-rule="evenodd" d="M81.2381 31.6869C81.2381 31.0285 80.8579 30.4123 80.841 29.7455C80.8325 29.4332 80.3256 29.4332 80.3341 29.7455C80.351 30.4376 80.5369 31.2311 80.9931 31.7882C81.0776 31.8895 81.2381 31.7966 81.2465 31.6869H81.2381Z" fill="#D7B7A3"/>
<path fill-rule="evenodd" clip-rule="evenodd" d="M24.9287 36.2198C24.1599 36.1776 23.5432 36.5574 23.0109 37.0639C22.7152 37.3424 23.163 37.7645 23.4671 37.4944C23.9064 37.1145 24.388 36.8106 25.0047 36.9119C25.461 36.9879 25.7989 37.3255 26.2213 37.4775C26.4241 37.545 26.5339 37.3171 26.4663 37.1736C26.2213 36.6418 25.537 36.2535 24.9287 36.2198Z" fill="#D7B7A3"/>
</g>
<defs>
<clipPath id="clip0_306_11343">
<rect width="98" height="89" fill="white"/>
</clipPath>
</defs>
</svg>
