<svg width="122" height="58" viewBox="0 0 122 58" fill="none" xmlns="http://www.w3.org/2000/svg">
<path d="M5.5526 42.1112H3.48157C1.52908 42.1112 0.916966 42.9872 0.0459699 45.5205H0L0.73067 41.6756H11.7439L12.4964 45.5205H12.4262C11.5552 42.9872 10.9431 42.1112 8.99062 42.1112H6.91958V55.2394C6.91958 56.8517 7.22443 57.5194 8.07365 57.749V57.794H4.42514V57.749C5.27195 57.5194 5.55502 56.8517 5.55502 55.2394V42.1112H5.5526Z" fill="#D4CCBD"/>
<path d="M13.0843 48.7901C13.0843 47.8692 12.8738 47.0405 12.119 46.8795V46.8345C12.99 46.7422 13.7424 46.5125 14.3085 46.1432H14.3545V55.2394C14.3545 56.8517 14.6594 57.5194 15.3441 57.749V57.794H12.119V57.749C12.8012 57.5194 13.0843 56.8517 13.0843 55.2394V48.7901ZM13.5319 40.7523C14.144 40.7523 14.4973 41.1429 14.4973 41.7656C14.4973 42.3882 14.144 42.8026 13.5319 42.8026C12.8738 42.8026 12.5424 42.4119 12.5424 41.7656C12.5424 41.1192 12.8714 40.7523 13.5319 40.7523Z" fill="#D4CCBD"/>
<path d="M17.086 48.7901C17.086 47.8692 16.8755 47.0405 16.1207 46.8795V46.8345C16.9917 46.7422 17.6739 46.5125 18.2377 46.1432H18.2861L18.332 48.9985H18.378C18.8498 47.6158 19.8127 46.0958 21.5547 46.0958C23.2967 46.0958 24.2379 47.0405 24.6153 48.7215C25.0871 47.4312 26.1928 46.0958 27.6977 46.0958C30.0518 46.0958 30.9929 47.8005 30.9929 50.7481V55.2394C30.9929 56.8517 31.2978 57.5194 31.9099 57.749V57.794H28.7574V57.749C29.4397 57.5194 29.7227 56.8517 29.7227 55.2394V50.7481C29.7227 48.5368 29.2509 46.6712 27.3468 46.6712C26.1226 46.6712 25.2298 47.7768 24.7121 49.1121C24.8064 49.5951 24.8306 50.1491 24.8306 50.7481V55.2394C24.8306 56.8517 25.1355 57.5194 25.7258 57.749V57.794H22.5733V57.749C23.2556 57.5194 23.5628 56.8517 23.5628 55.2394V50.7481C23.5628 48.5368 23.0911 46.6712 21.187 46.6712C19.728 46.6712 18.9272 48.0538 18.3635 49.6425V55.2394C18.3635 56.8517 18.6683 57.5194 19.2804 57.749V57.794H16.1279V57.749C16.8102 57.5194 17.0933 56.8517 17.0933 55.2394V48.7901H17.086Z" fill="#D4CCBD"/>
<path d="M37.419 46.0935C40.361 46.0935 41.5151 48.0751 41.774 51.3897L33.7947 51.5981C33.9132 55.2134 35.4181 57.2163 38.2198 57.2163C39.5384 57.2163 40.6901 56.7097 41.5853 55.6277L41.6796 55.72C40.7844 57.0553 39.5142 57.9763 37.5835 57.9763C34.431 57.9763 32.5245 55.7887 32.5245 52.0337C32.5245 48.2788 34.2665 46.0911 37.419 46.0911V46.0935ZM40.4554 51.0464C40.1505 48.1225 39.4199 46.4178 37.044 46.4178C35.1617 46.4178 33.8189 48.0751 33.7971 51.3471L40.4578 51.0488L40.4554 51.0464Z" fill="#D4CCBD"/>
<path d="M43.4434 43.1932C43.4434 41.8106 43.2789 41.0742 42.478 40.9369V40.8919C43.3732 40.8233 43.937 40.6836 44.6676 40.3616H44.7136V55.2394C44.7136 56.8517 45.0184 57.5194 45.7031 57.749V57.794H42.478V57.749C43.1603 57.5194 43.4434 56.8517 43.4434 55.2394V43.1956V43.1932Z" fill="#D4CCBD"/>
<path d="M51.2339 46.0935C54.176 46.0935 55.33 48.0751 55.5889 51.3897L47.6096 51.5981C47.7282 55.2134 49.2331 57.2163 52.0348 57.2163C53.3534 57.2163 54.505 56.7097 55.4002 55.6277L55.4946 55.72C54.5994 57.0553 53.3292 57.9763 51.3984 57.9763C48.2459 57.9763 46.3394 55.7887 46.3394 52.0337C46.3394 48.2788 48.0814 46.0911 51.2339 46.0911V46.0935ZM54.2703 51.0464C53.9655 48.1225 53.2348 46.4178 50.8589 46.4178C48.9766 46.4178 47.6338 48.0751 47.612 51.3471L54.2727 51.0488L54.2703 51.0464Z" fill="#D4CCBD"/>
<path d="M59.6366 46.0935C61.1198 46.0935 62.1069 46.5552 62.7892 46.9908L63.0722 49.6614H63.0021C62.4843 47.0595 61.0254 46.3445 59.6366 46.3445C58.3664 46.3445 57.3527 46.9671 57.3527 48.1864C57.3527 51.0891 63.636 50.857 63.636 54.773C63.636 57.0766 61.6835 57.9503 59.5641 57.9503C58.1753 57.9503 57.0938 57.4886 56.2688 56.9819L55.9857 54.2403H56.0559C56.6438 57.1642 58.2914 57.6946 59.5616 57.6946C61.2093 57.6946 62.4093 56.7973 62.4093 55.1849C62.4093 51.823 56.2664 52.2823 56.2664 48.6907C56.2664 47.0097 57.7737 46.0888 59.6318 46.0888L59.6366 46.0935Z" fill="#D4CCBD"/>
<path d="M67.4248 46.0935C68.9079 46.0935 69.895 46.5552 70.5773 46.9908L70.8604 49.6614H70.7902C70.2725 47.0595 68.8135 46.3445 67.4248 46.3445C66.1546 46.3445 65.1408 46.9671 65.1408 48.1864C65.1408 51.0891 71.4241 50.857 71.4241 54.773C71.4241 57.0766 69.4716 57.9503 67.3522 57.9503C65.9634 57.9503 64.882 57.4886 64.0569 56.9819L63.7739 54.2403H63.844C64.4319 57.1642 66.0796 57.6946 67.3498 57.6946C68.9974 57.6946 70.1975 56.7973 70.1975 55.1849C70.1975 51.823 64.0545 52.2823 64.0545 48.6907C64.0545 47.0097 65.5618 46.0888 67.4199 46.0888L67.4248 46.0935Z" fill="#D4CCBD"/>
<path d="M76.0404 41.7419V41.6732H79.6405V41.7419C78.9099 42.0876 78.5348 42.8239 79.1687 44.5972L83.335 56.0894H83.381L87.3827 44.5972C87.8545 43.2382 87.8061 42.0876 86.8891 41.7419V41.6732H89.7126V41.7419C88.936 42.1325 88.3723 43.3069 87.8763 44.6895L83.1463 57.8863H82.6043L77.734 44.6682C77.1461 43.0559 76.7227 42.1586 76.0404 41.7443V41.7419Z" fill="#D4CCBD"/>
<path d="M92.8434 46.0722C96.1145 46.0722 98.021 48.2835 98.021 52.0361C98.021 55.7887 96.1145 58 92.8434 58C89.5723 58 87.6416 55.7887 87.6416 52.0361C87.6416 48.2835 89.5481 46.0722 92.8434 46.0722ZM93.1724 57.633C95.2677 57.633 96.6782 55.9284 96.6782 52.7748C96.6782 49.2518 95.3378 46.4178 92.4659 46.4178C90.3465 46.4178 88.982 48.1911 88.982 51.3234C88.982 54.7777 90.3248 57.633 93.17 57.633H93.1724Z" fill="#D4CCBD"/>
<path d="M99.1751 48.7901C98.6089 47.2465 98.1637 46.5552 97.5976 46.3255V46.2805H100.869V46.3255C100.162 46.5552 99.9517 47.1778 100.515 48.6978L103.339 56.3427H103.385L105.998 48.5818C105.504 47.2228 105.103 46.5552 104.585 46.3255V46.2805H107.926V46.3255C107.22 46.5552 106.866 47.1778 107.408 48.6978L110.092 56.3664H110.138L112.939 48.6978C113.481 47.1778 113.009 46.5552 112.376 46.3255V46.2805H114.94V46.3255C114.376 46.5552 113.859 47.2465 113.317 48.7428L109.905 57.955H109.363L106.233 49.1571H106.187L103.174 57.955H102.632L99.1726 48.7901H99.1751Z" fill="#D4CCBD"/>
<path d="M118.001 46.0935C119.484 46.0935 120.471 46.5552 121.153 46.9908L121.436 49.6614H121.366C120.848 47.0595 119.389 46.3445 118.001 46.3445C116.73 46.3445 115.717 46.9671 115.717 48.1864C115.717 51.0891 122 50.857 122 54.773C122 57.0766 120.048 57.9503 117.928 57.9503C116.539 57.9503 115.458 57.4886 114.633 56.9819L114.35 54.2403H114.42C115.008 57.1642 116.655 57.6946 117.926 57.6946C119.573 57.6946 120.773 56.7973 120.773 55.1849C120.773 51.823 114.63 52.2823 114.63 48.6907C114.63 47.0097 116.138 46.0888 117.996 46.0888L118.001 46.0935Z" fill="#D4CCBD"/>
<path d="M86.6123 13.1629C86.8534 20.2085 81.3598 25.681 74.7559 27.8157C72.3646 28.7052 69.8029 29.1148 67.268 28.8152C67.212 28.8152 67.1681 28.8152 67.1267 28.8012C67.0829 28.7871 67.0415 28.7591 67.0123 28.7473C66.8832 28.6654 66.8126 28.5273 66.8126 28.3775C66.8126 28.1317 67.0415 27.9117 67.2972 27.9117H67.3264C72.6495 29.047 79.2535 25.5593 82.5141 21.8516C89.1473 13.4087 84.5206 1.83393 72.7347 2.87555C72.6787 2.87555 72.6349 2.88959 72.5789 2.88959C72.4084 2.90363 72.238 2.90363 72.0675 2.93172C69.8613 3.09557 67.884 3.80715 66.0334 4.77854C65.7071 4.94239 65.3783 5.13433 65.0666 5.32626C65.3808 5.5182 65.6925 5.71014 66.0066 5.88803C67.5163 6.79154 69.0237 7.52886 70.6479 7.95487C70.7185 7.98296 70.7769 7.99701 70.8475 8.00871C71.1032 8.07659 71.3589 8.14447 71.617 8.1866C72.4571 8.37854 73.324 8.50026 74.1934 8.55643C74.5489 8.59857 74.8898 8.62431 75.2478 8.62431C77.0984 8.70624 78.9759 8.57048 80.8704 8.32236C83.6878 8.03446 84.0725 12.1401 81.2113 12.2899C78.8054 12.4139 76.2729 12.3039 73.7964 11.8802C73.4701 11.8124 73.1268 11.7562 72.8005 11.6743C72.6714 11.9762 72.5448 12.2758 72.4157 12.5778C71.1641 15.4779 69.9807 18.3921 68.8289 21.3062C68.1032 23.125 67.4043 24.946 66.7225 26.7648C66.5934 27.0527 66.4814 27.3523 66.3816 27.6542C66.2525 27.9679 66.1405 28.2979 66.0261 28.6256C65.897 28.9276 65.785 29.2272 65.6852 29.5432C64.8158 31.8698 63.9635 34.2082 63.1234 36.563C62.6827 38.054 60.7614 37.9042 60.418 36.3851C59.6364 34.3182 58.8377 32.2678 58.0122 30.215C57.8977 29.913 57.7833 29.6134 57.6567 29.3115C57.5276 28.9697 57.401 28.642 57.2573 28.312C57.1428 28.01 57.0162 27.7104 56.8872 27.4225C55.0657 22.8792 53.1444 18.364 51.0795 13.919C50.965 13.699 51.1087 13.4391 51.3644 13.3993C52.4042 13.2215 53.4707 12.9897 54.5373 12.6597C54.7516 12.5918 54.978 12.7135 55.0365 12.9335C56.1761 17.5307 57.4838 22.0857 58.8791 26.629C58.9643 26.931 59.0641 27.2446 59.164 27.5583C59.293 27.9819 59.4197 28.4196 59.5633 28.8574C59.6632 29.1593 59.7484 29.473 59.8482 29.7749C60.5033 31.8277 61.1583 33.8805 61.8255 35.931L61.8815 36.1089C62.5926 34.0022 63.4911 31.6475 64.4286 29.2131C64.5139 28.9931 64.5991 28.7754 64.6843 28.5554C64.8402 28.1598 64.9838 27.7619 65.1397 27.364C65.2809 26.9801 65.41 26.6243 65.5512 26.2568C66.2355 24.41 66.9027 22.5772 67.4871 20.8381C68.5123 17.9239 69.4936 15.0098 70.4336 12.0534V12.0394C70.5334 11.7375 70.6186 11.4519 70.7185 11.1499C70.4044 11.0399 70.0927 10.944 69.7785 10.8363C67.9839 10.2066 66.2915 9.35929 64.7817 8.2498C64.397 7.96189 64.0269 7.67633 63.6421 7.37438C63.3718 7.18244 63.1015 6.9788 62.8312 6.77282C62.5463 6.96476 62.2614 7.1684 61.9911 7.37438C61.2362 7.9221 60.496 8.48153 59.7411 9.0433C58.4895 9.96086 57.0941 10.6982 55.6282 11.2459C55.3579 11.3559 55.073 11.4659 54.7735 11.5596C53.3636 12.0511 51.9123 12.3952 50.4171 12.5731C50.0762 12.6152 49.7329 12.655 49.3919 12.6831C47.7117 12.875 46.034 12.9031 44.4244 12.8189C41.7482 12.6691 42.1037 8.83732 44.7385 9.11118C45.7637 9.24694 46.7742 9.34291 47.7848 9.38504C48.1549 9.41313 48.5397 9.42717 48.9098 9.42717C50.6606 9.44122 52.3822 9.27737 54.0478 8.83966C54.0625 8.83966 54.0771 8.82561 54.0917 8.82561C54.3912 8.75773 54.6883 8.66177 54.9878 8.55175C56.7386 7.98998 58.3458 7.03264 60.0114 5.97932C60.3109 5.78738 60.608 5.59544 60.9075 5.40585C60.608 5.21391 60.3231 5.01027 60.026 4.83237C57.3352 3.09557 54.4472 1.79414 51.0454 1.64434C38.2782 0.413126 33.2522 12.8774 40.3845 21.9616C43.7718 25.8074 50.5194 29.4308 56.1274 28.5554C56.1566 28.5414 56.1834 28.5414 56.2126 28.5414H56.2419C56.2565 28.5414 56.2711 28.5414 56.2857 28.5554C56.5268 28.5835 56.7118 28.7754 56.7118 29.0072C56.7118 29.1312 56.668 29.2389 56.5828 29.3208C56.5122 29.4027 56.4123 29.4566 56.2979 29.4706C56.254 29.4706 56.2126 29.4847 56.1688 29.4706C53.6363 29.6766 51.0868 29.2389 48.7101 28.3494C41.6216 26.0649 35.7286 20.2085 35.9989 12.6573C35.9137 -0.286745 52.5089 -3.06282 61.7914 3.23133C61.9059 3.31326 62.0325 3.38114 62.147 3.46306C62.4611 3.655 62.7582 3.85864 63.0723 4.05058C63.3718 3.83055 63.6835 3.655 64.0122 3.50285C72.8224 -1.2043 86.7 1.73796 86.6148 13.1629H86.6123Z" fill="#D7B980"/>
</svg>
